# Blender3D v244 OBJ File: great_pine_bb.blend
# www.blender3d.org
# Foliage reshaped to square atlas-tile proportions, then scaled to 61% around branch roots.
# Branch roots and taper retained; perpendicular cards add volume around texture V.
mtllib great_pine_bb1.mtl
o plant_pmat3
v -0.413713 0.000000 3.211355
v -0.028120 0.000000 4.355938
v 2.261044 0.000000 3.584754
v 1.875452 0.000000 2.440170
v 0.357473 0.000000 5.500520
v 2.646637 0.000000 4.729336
v 0.431435 0.000000 3.238997
v -0.028120 0.000000 4.355938
v -2.262003 0.000001 3.436828
v -1.802448 0.000001 2.319886
v -0.487676 0.000000 5.472879
v -2.721559 0.000001 4.553769
v 0.168277 -0.319626 3.742449
v -0.056239 0.000000 4.839204
v -1.132888 1.912506 4.061445
v -0.908374 1.592878 2.964690
v -0.280756 0.319626 5.935960
v -1.357404 2.232132 5.158200
v -0.200552 0.319626 3.729045
v -0.056239 0.000000 4.839204
v 1.074025 -1.912506 4.141649
v 0.929713 -1.592879 3.031490
v 0.088074 -0.319626 5.949363
v 1.218338 -2.232132 5.251808
v 0.113094 0.269421 4.277457
v -0.084359 0.000000 5.322471
v -1.110732 -1.822235 4.658737
v -0.913278 -1.552812 3.613724
v -0.281814 -0.269421 6.367485
v -1.308186 -2.091656 5.703752
v -0.197758 -0.269421 4.265029
v -0.084359 0.000000 5.322471
v 0.991724 1.822233 4.742793
v 0.878326 1.552813 3.685351
v 0.029039 0.269421 6.379912
v 1.105122 2.091655 5.800234
v -0.321001 0.000000 4.821907
v -0.112479 0.000000 5.805737
v 1.855182 0.000001 5.388694
v 1.646659 0.000000 4.404863
v 0.096042 0.000000 6.789568
v 2.063703 0.000001 6.372524
v 0.180914 0.000000 4.843799
v -0.112479 0.000000 5.805737
v -2.036354 0.000000 5.218949
v -1.742961 0.000000 4.257013
v -0.405873 0.000000 6.767675
v -2.329747 0.000000 6.180886
v -0.004159 -0.165685 5.428320
v -0.140599 0.000000 6.289004
v -0.987736 1.500241 5.865912
v -0.851297 1.334557 5.005226
v -0.277038 0.165685 7.149687
v -1.124175 1.665926 6.726595
v -0.195262 0.165685 5.419289
v -0.140599 0.000000 6.289004
v 0.742662 -1.500243 5.947689
v 0.687999 -1.334559 5.077972
v -0.085936 -0.165685 7.158719
v 0.797325 -1.665927 6.817404
v -0.065637 0.115178 6.055233
v -0.168719 0.000000 6.772270
v -0.875616 -1.249415 6.469950
v -0.772534 -1.134238 5.752914
v -0.271800 -0.115178 7.489308
v -0.978697 -1.364594 7.186988
v -0.198462 -0.115178 6.048471
v -0.168719 0.000000 6.772270
v 0.565223 1.249415 6.543291
v 0.535480 1.134237 5.819491
v -0.138976 0.115178 7.496069
v 0.594966 1.364594 7.267089
v -0.245248 0.000000 6.735233
v -0.196839 0.000000 7.255537
v 0.843767 -0.000003 7.158718
v 0.795361 0.000000 6.638415
v -0.148430 0.000000 7.775840
v 0.892176 -0.000003 7.679022
v -0.092128 0.000000 6.743585
v -0.196839 0.000000 7.255537
v -1.220743 0.000000 7.046116
v -1.116031 0.000002 6.534162
v -0.301550 0.000000 7.767489
v -1.325454 0.000000 7.558068
vt 1.000000 0.000000 0.0
vt 0.500000 0.000000 0.0
vt 0.500000 1.000000 0.0
vt 1.000000 1.000000 0.0
vt 0.500000 0.000000 0.0
vt 0.000000 0.000000 0.0
vt 0.000000 1.000000 0.0
vt 0.500000 1.000000 0.0
vt 1.000000 0.000000 0.0
vt 0.500000 0.000000 0.0
vt 0.500000 1.000000 0.0
vt 1.000000 1.000000 0.0
vt 0.500000 0.000000 0.0
vt 0.000000 0.000000 0.0
vt 0.000000 1.000000 0.0
vt 0.500000 1.000000 0.0
vt 1.000000 0.000000 0.0
vt 0.500000 0.000000 0.0
vt 0.500000 1.000000 0.0
vt 1.000000 1.000000 0.0
vt 0.500000 0.000000 0.0
vt 0.000000 0.000000 0.0
vt 0.000000 1.000000 0.0
vt 0.500000 1.000000 0.0
vt 1.000000 0.000000 0.0
vt 0.500000 0.000000 0.0
vt 0.500000 1.000000 0.0
vt 1.000000 1.000000 0.0
vt 0.500000 0.000000 0.0
vt 0.000000 0.000000 0.0
vt 0.000000 1.000000 0.0
vt 0.500000 1.000000 0.0
vt 1.000000 0.000000 0.0
vt 0.500000 0.000000 0.0
vt 0.500000 1.000000 0.0
vt 1.000000 1.000000 0.0
vt 0.500000 0.000000 0.0
vt 0.000000 0.000000 0.0
vt 0.000000 1.000000 0.0
vt 0.500000 1.000000 0.0
vt 1.000000 0.000000 0.0
vt 0.500000 0.000000 0.0
vt 0.500000 1.000000 0.0
vt 1.000000 1.000000 0.0
vt 0.500000 0.000000 0.0
vt 0.000000 0.000000 0.0
vt 0.000000 1.000000 0.0
vt 0.500000 1.000000 0.0
vt 1.000000 0.000000 0.0
vt 0.500000 0.000000 0.0
vt 0.500000 1.000000 0.0
vt 1.000000 1.000000 0.0
vt 0.500000 0.000000 0.0
vt 0.000000 0.000000 0.0
vt 0.000000 1.000000 0.0
vt 0.500000 1.000000 0.0
vt 1.000000 0.000000 0.0
vt 0.500000 0.000000 0.0
vt 0.500000 1.000000 0.0
vt 1.000000 1.000000 0.0
vt 0.500000 0.000000 0.0
vt 0.000000 0.000000 0.0
vt 0.000000 1.000000 0.0
vt 0.500000 1.000000 0.0
vt 1.000000 0.000000 0.0
vt 0.500000 0.000000 0.0
vt 0.500000 1.000000 0.0
vt 1.000000 1.000000 0.0
vt 0.500000 0.000000 0.0
vt 0.000000 0.000000 0.0
vt 0.000000 1.000000 0.0
vt 0.500000 1.000000 0.0
vt 1.000000 0.000000 0.0
vt 0.500000 0.000000 0.0
vt 0.500000 1.000000 0.0
vt 1.000000 1.000000 0.0
vt 0.500000 0.000000 0.0
vt 0.000000 0.000000 0.0
vt 0.000000 1.000000 0.0
vt 0.500000 1.000000 0.0
vt 1.000000 0.000000 0.0
vt 0.500000 0.000000 0.0
vt 0.500000 1.000000 0.0
vt 1.000000 1.000000 0.0
vt 0.500000 0.000000 0.0
vt 0.000000 0.000000 0.0
vt 0.000000 1.000000 0.0
vt 0.500000 1.000000 0.0
vt 1.000000 0.000000 0.0
vt 0.500000 0.000000 0.0
vt 0.500000 1.000000 0.0
vt 1.000000 1.000000 0.0
vt 0.500000 0.000000 0.0
vt 0.000000 0.000000 0.0
vt 0.000000 1.000000 0.0
vt 0.500000 1.000000 0.0
vt 1.000000 0.000000 0.0
vt 0.500000 0.000000 0.0
vt 0.500000 1.000000 0.0
vt 1.000000 1.000000 0.0
vt 0.500000 0.000000 0.0
vt 0.000000 0.000000 0.0
vt 0.000000 1.000000 0.0
vt 0.500000 1.000000 0.0
vt 1.000000 0.000000 0.0
vt 0.500000 0.000000 0.0
vt 0.500000 1.000000 0.0
vt 1.000000 1.000000 0.0
vt 0.500000 0.000000 0.0
vt 0.000000 0.000000 0.0
vt 0.000000 1.000000 0.0
vt 0.500000 1.000000 0.0
vn 0.000000 1.000000 0.000000
vn -0.000000 -1.000000 0.000000
vn -0.865454 -0.500000 -0.031452
vn 0.865454 0.500000 0.031452
vn 0.865334 -0.500000 0.034596
vn -0.865334 0.500000 -0.034596
vn -0.865060 -0.500000 -0.040882
vn 0.865060 0.500000 0.040882
vn 0.864906 -0.500000 0.044024
vn -0.864905 0.500001 -0.044024
vn 0.000001 1.000000 0.000000
vn -0.000001 -1.000000 -0.000000
usemtl pmat3
s 1
f 1/1/1 2/2/1 3/3/1 4/4/1
f 2/5/1 5/6/1 6/7/1 3/8/1
f 7/9/2 8/10/2 9/11/2 10/12/2
f 8/13/2 11/14/2 12/15/2 9/16/2
f 13/17/3 14/18/3 15/19/3 16/20/3
f 14/21/3 17/22/3 18/23/3 15/24/3
f 19/25/4 20/26/4 21/27/4 22/28/4
f 20/29/4 23/30/4 24/31/4 21/32/4
f 25/33/5 26/34/5 27/35/5 28/36/5
f 26/37/5 29/38/5 30/39/5 27/40/5
f 31/41/6 32/42/6 33/43/6 34/44/6
f 32/45/6 35/46/6 36/47/6 33/48/6
f 37/49/1 38/50/1 39/51/1 40/52/1
f 38/53/1 41/54/1 42/55/1 39/56/1
f 43/57/2 44/58/2 45/59/2 46/60/2
f 44/61/2 47/62/2 48/63/2 45/64/2
f 49/65/7 50/66/7 51/67/7 52/68/7
f 50/69/7 53/70/7 54/71/7 51/72/7
f 55/73/8 56/74/8 57/75/8 58/76/8
f 56/77/8 59/78/8 60/79/8 57/80/8
f 61/81/9 62/82/9 63/83/9 64/84/9
f 62/85/9 65/86/9 66/87/9 63/88/9
f 67/89/10 68/90/10 69/91/10 70/92/10
f 68/93/10 71/94/10 72/95/10 69/96/10
f 73/97/1 74/98/1 75/99/1 76/100/1
f 74/101/11 77/102/11 78/103/11 75/104/11
f 79/105/12 80/106/12 81/107/12 82/108/12
f 80/109/12 83/110/12 84/111/12 81/112/12
o plant_pmat1
v -0.224958 -0.038411 7.307374
v 0.000000 -0.176603 3.872671
v 0.152878 -0.088301 3.877115
v -0.191750 -0.019205 7.309307
v 0.152878 0.088301 3.877115
v -0.191750 0.019205 7.309307
v 0.000000 0.176603 3.872671
v -0.224958 0.038411 7.307374
v -0.152878 0.088301 3.868227
v -0.258167 0.019205 7.305442
v -0.152878 -0.088301 3.868227
v -0.258167 -0.019205 7.305442
v 0.000000 -0.370670 0.000000
v 0.321010 -0.185335 0.000000
v 0.321010 0.185335 0.000000
v 0.000000 0.370670 0.000000
v -0.321010 0.185335 0.000000
v -0.321010 -0.185335 0.000000
vt 0.282167 0.993668 0.0
vt 0.500000 -2.750000 0.0
vt 0.717497 -2.743678 0.0
vt 0.406294 1.000891 0.0
vt 0.428214 0.000891 0.0
vt 0.374375 -3.743678 0.0
vt 0.625625 -3.743678 0.0
vt 0.571786 0.000891 0.0
vt 0.406294 0.000891 0.0
vt 0.717497 -3.743678 0.0
vt 0.500000 -3.750000 0.0
vt 0.282167 -0.006332 0.0
vt 0.282167 0.993668 0.0
vt 0.500000 -2.750000 0.0
vt 0.282503 -2.756322 0.0
vt 0.158041 0.986445 0.0
vt 0.571786 0.986445 0.0
vt 0.625625 -2.756322 0.0
vt 0.374375 -2.756322 0.0
vt 0.428214 0.986445 0.0
vt 0.500000 0.250000 0.0
vt 0.282167 3.993668 0.0
vt 0.158041 3.986445 0.0
vt 0.282503 0.243678 0.0
vt 0.500000 0.250000 0.0
vt 0.500000 -3.500000 0.0
vt 0.810842 -3.500000 0.0
vt 0.717497 0.256322 0.0
vt 0.374375 0.256322 0.0
vt 0.320535 -3.500000 0.0
vt 0.679465 -3.500000 0.0
vt 0.625625 0.256322 0.0
vt 0.717497 0.256322 0.0
vt 0.810842 -3.500000 0.0
vt 0.500000 -3.500000 0.0
vt 0.500000 0.250000 0.0
vt 0.500000 0.250000 0.0
vt 0.500000 -3.500000 0.0
vt 0.189158 -3.500000 0.0
vt 0.282503 0.243678 0.0
vt 0.625625 0.243678 0.0
vt 0.679465 -3.500000 0.0
vt 0.320535 -3.500000 0.0
vt 0.374375 0.243678 0.0
vt 0.282503 0.243678 0.0
vt 0.189158 -3.500000 0.0
vt 0.500000 -3.500000 0.0
vt 0.500000 0.250000 0.0
vn -0.001679 -0.999176 0.040071
vn -0.005585 -0.998962 0.044893
vn 0.867519 -0.491897 0.073397
vn 0.861141 -0.499069 0.096500
vn 0.867519 0.491897 0.073397
vn 0.861141 0.499069 0.096500
vn -0.005585 0.998962 0.044893
vn -0.001679 0.999176 0.040071
vn -0.870205 0.492386 0.016663
vn -0.865902 0.499893 -0.016449
vn -0.870205 -0.492386 0.016663
vn -0.865902 -0.499893 -0.016449
vn -0.000336 -0.998718 0.050050
vn 0.864864 -0.499496 0.050020
vn 0.864864 0.499496 0.050020
vn -0.000336 0.998718 0.050050
vn -0.865017 0.499191 0.050081
vn -0.865017 -0.499191 0.050081
usemtl pmat1_barkdk.jpg
s 1
f 85/113/13 86/114/14 87/115/15 88/116/16
s 1
f 88/117/16 87/118/15 89/119/17 90/120/18
s 1
f 90/121/18 89/122/17 91/123/19 92/124/20
s 1
f 92/125/20 91/126/19 93/127/21 94/128/22
s 1
f 94/129/22 93/130/21 95/131/23 96/132/24
s 1
f 86/133/14 85/134/13 96/135/24 95/136/23
s 1
f 86/137/14 97/138/25 98/139/26 87/140/15
s 1
f 87/141/15 98/142/26 99/143/27 89/144/17
s 1
f 89/145/17 99/146/27 100/147/28 91/148/19
s 1
f 91/149/19 100/150/28 101/151/29 93/152/21
s 1
f 93/153/21 101/154/29 102/155/30 95/156/23
s 1
f 95/157/23 102/158/30 97/159/25 86/160/14

# Crossed leaf cards: rotated 90 degrees around each branch (texture V).
o plant_pmat3_cross
v -0.028121 1.207788 4.355938
v -0.028120 0.000000 4.355938
v 2.261044 0.000000 3.584754
v 2.261045 1.207788 3.584754
vn 0.319255 0.000000 0.947669
usemtl pmat3
s off
f 103/1/31 104/2/31 105/3/31 106/4/31
v -0.028120 0.000000 4.355938
v -0.028119 -1.207787 4.355938
v 2.261045 -1.207787 3.584754
v 2.261044 0.000000 3.584754
vn 0.319255 -0.000000 0.947669
usemtl pmat3
s off
f 107/5/32 108/6/32 109/7/32 110/8/32
v -0.028121 -1.207787 4.355938
v -0.028120 0.000000 4.355938
v -2.262003 0.000001 3.436828
v -2.262003 -1.207786 3.436828
vn -0.380494 -0.000000 0.924784
usemtl pmat3
s off
f 111/9/33 112/10/33 113/11/33 114/12/33
v -0.028120 0.000000 4.355938
v -0.028120 1.207787 4.355938
v -2.262003 1.207788 3.436828
v -2.262003 0.000001 3.436828
vn -0.380494 -0.000000 0.924784
usemtl pmat3
s off
f 115/13/34 116/14/34 117/15/34 118/16/34
v -1.063830 -0.582117 4.802586
v -0.056239 0.000000 4.839204
v -1.132888 1.912506 4.061445
v -2.140479 1.330389 4.024830
vn -0.192844 0.274538 0.942040
usemtl pmat3
s off
f 119/17/35 120/18/35 121/19/35 122/20/35
v -0.056239 0.000000 4.839204
v 0.951352 0.582117 4.875822
v -0.125296 2.494622 4.098063
v -1.132887 1.912507 4.061444
vn -0.192845 0.274538 0.942040
usemtl pmat3
s off
f 123/21/36 124/22/36 125/23/36 126/24/36
v 0.951351 0.582117 4.875822
v -0.056239 0.000000 4.839204
v 1.074025 -1.912506 4.141649
v 2.081615 -1.330389 4.178267
vn 0.123955 -0.274537 0.953554
usemtl pmat3
s off
f 127/25/37 128/26/37 129/27/37 130/28/37
v -0.056239 0.000000 4.839204
v -1.063830 -0.582117 4.802586
v 0.066434 -2.494622 4.105031
v 1.074025 -1.912506 4.141649
vn 0.123955 -0.274537 0.953554
usemtl pmat3
s off
f 131/29/38 132/30/38 133/31/38 134/32/38
v 0.864999 -0.548550 5.360425
v -0.084359 0.000000 5.322471
v -1.110732 -1.822235 4.658737
v -0.161373 -2.370785 4.696692
vn -0.179978 -0.245576 0.952523
usemtl pmat3
s off
f 135/33/39 136/34/39 137/35/39 138/36/39
v -0.084359 0.000000 5.322471
v -1.033718 0.548551 5.284516
v -2.060090 -1.273684 4.620782
v -1.110731 -1.822235 4.658737
vn -0.179979 -0.245576 0.952523
usemtl pmat3
s off
f 139/37/40 140/38/40 141/39/40 142/40/40
v -1.033717 0.548551 5.284516
v -0.084359 0.000000 5.322471
v 0.991724 1.822233 4.742793
v 0.042367 2.370785 4.704837
vn 0.103363 0.245576 0.963851
usemtl pmat3
s off
f 143/41/41 144/42/41 145/43/41 146/44/41
v -0.084359 0.000000 5.322471
v 0.864999 -0.548550 5.360426
v 1.941081 1.273683 4.780748
v 0.991724 1.822233 4.742792
vn 0.103362 0.245576 0.963851
usemtl pmat3
s off
f 147/45/42 148/46/42 149/47/42 150/48/42
v -0.112480 1.005685 5.805737
v -0.112479 0.000000 5.805737
v 1.855182 0.000001 5.388694
v 1.855180 1.005687 5.388693
vn 0.207343 -0.000000 0.978268
usemtl pmat3
s off
f 151/49/43 152/50/43 153/51/43 154/52/43
v -0.112479 0.000000 5.805737
v -0.112479 -1.005686 5.805737
v 1.855182 -1.005684 5.388693
v 1.855182 0.000001 5.388693
vn 0.207343 0.000000 0.978268
usemtl pmat3
s off
f 155/53/44 156/54/44 157/55/44 158/56/44
v -0.112480 -1.005686 5.805737
v -0.112479 0.000000 5.805737
v -2.036354 0.000000 5.218949
v -2.036354 -1.005684 5.218949
vn -0.291735 -0.000000 0.956499
usemtl pmat3
s off
f 159/57/45 160/58/45 161/59/45 162/60/45
v -0.112479 0.000000 5.805737
v -0.112478 1.005686 5.805737
v -2.036353 1.005686 5.218949
v -2.036354 0.000001 5.218949
vn -0.291735 0.000000 0.956499
usemtl pmat3
s off
f 163/61/46 164/62/46 165/63/46 166/64/46
v -0.907944 -0.443522 6.252740
v -0.140599 0.000000 6.289004
v -0.987736 1.500241 5.865912
v -1.755082 1.056720 5.829648
vn -0.153814 0.186782 0.970285
usemtl pmat3
s off
f 167/65/47 168/66/47 169/67/47 170/68/47
v -0.140599 0.000000 6.289004
v 0.626745 0.443521 6.325267
v -0.220392 1.943763 5.902175
v -0.987736 1.500241 5.865912
vn -0.153814 0.186783 0.970285
usemtl pmat3
s off
f 171/69/48 172/70/48 173/71/48 174/72/48
v 0.626746 0.443521 6.325268
v -0.140599 0.000000 6.289004
v 0.742662 -1.500243 5.947689
v 1.510009 -1.056721 5.983953
vn 0.061623 -0.186782 0.980467
usemtl pmat3
s off
f 175/73/49 176/74/49 177/75/49 178/76/49
v -0.140599 0.000000 6.289004
v -0.907943 -0.443521 6.252740
v -0.024682 -1.943764 5.911425
v 0.742662 -1.500243 5.947689
vn 0.061623 -0.186782 0.980467
usemtl pmat3
s off
f 179/77/50 180/78/50 181/79/50 182/80/50
v 0.465696 -0.366755 6.804562
v -0.168719 0.000000 6.772270
v -0.875616 -1.249415 6.469950
v -0.241202 -1.616169 6.502242
vn -0.140533 -0.157025 0.977545
usemtl pmat3
s off
f 183/81/51 184/82/51 185/83/51 186/84/51
v -0.168719 0.000000 6.772270
v -0.803134 0.366755 6.739978
v -1.510031 -0.882661 6.437658
v -0.875615 -1.249415 6.469950
vn -0.140533 -0.157025 0.977545
usemtl pmat3
s off
f 187/85/52 188/86/52 189/87/52 190/88/52
v -0.803134 0.366755 6.739978
v -0.168719 0.000000 6.772270
v 0.565223 1.249415 6.543291
v -0.069193 1.616171 6.510998
vn 0.040549 0.157024 0.986762
usemtl pmat3
s off
f 191/89/53 192/90/53 193/91/53 194/92/53
v -0.168719 0.000000 6.772270
v 0.465696 -0.366755 6.804562
v 1.199638 0.882660 6.575583
v 0.565223 1.249415 6.543291
vn 0.040549 0.157024 0.986762
usemtl pmat3
s off
f 195/93/54 196/94/54 197/95/54 198/96/54
v -0.196837 0.522552 7.255537
v -0.196839 0.000000 7.255537
v 0.843767 -0.000003 7.158718
v 0.843772 0.522547 7.158721
vn 0.092640 -0.000000 0.995700
usemtl pmat3
s off
f 199/97/55 200/98/55 201/99/55 202/100/55
v -0.196839 0.000000 7.255537
v -0.196841 -0.522550 7.255537
v 0.843765 -0.522553 7.158718
v 0.843767 -0.000003 7.158718
vn 0.092640 -0.000000 0.995700
usemtl pmat3
s off
f 203/101/56 204/102/56 205/103/56 206/104/56
v -0.196838 -0.522550 7.255537
v -0.196839 0.000000 7.255537
v -1.220743 0.000000 7.046116
v -1.220741 -0.522553 7.046114
vn -0.200383 0.000000 0.979718
usemtl pmat3
s off
f 207/105/57 208/106/57 209/107/57 210/108/57
v -0.196839 0.000000 7.255537
v -0.196840 0.522550 7.255537
v -1.220744 0.522550 7.046117
v -1.220743 -0.000001 7.046117
vn -0.200383 -0.000000 0.979718
usemtl pmat3
s off
f 211/109/58 212/110/58 213/111/58 214/112/58
