# Blender3D v244 OBJ File: pine_bb.blend
# www.blender3d.org
# Foliage reshaped to square atlas-tile proportions, then scaled to 61% around branch roots.
# Branch roots and taper retained; perpendicular cards add volume around texture V.
mtllib pine_bb1.mtl
o plant_pmat3
v 0.009270 0.426688 0.770810
v 0.009269 0.000000 0.770810
v 0.850144 0.000000 0.916344
v 0.850145 0.426688 0.916344
v 0.009269 -0.426688 0.770810
v 0.850144 -0.426688 0.916344
v -0.436518 -0.212369 0.911081
v 0.001312 -0.000244 0.920696
v -0.422723 0.875615 0.906530
v -0.860555 0.663491 0.896915
v 0.439141 0.211881 0.930311
v 0.015106 1.087740 0.916145
v 0.421310 -0.248299 1.289462
v 0.006123 0.007581 1.278198
v -0.494201 -0.811877 1.104733
v -0.079015 -1.067756 1.115998
v -0.409064 0.263461 1.266934
v -0.909389 -0.555997 1.093469
v -0.100937 0.459822 1.530541
v -0.024617 -0.002819 1.533007
v 0.861668 0.141949 1.262801
v 0.785348 0.604590 1.260338
v 0.051704 -0.465460 1.535473
v 0.937989 -0.320691 1.265267
v -0.204126 -0.188596 1.783374
v -0.005746 -0.019230 1.790808
v -0.296320 0.332258 1.537033
v -0.494700 0.162892 1.529599
v 0.192633 0.150137 1.798242
v -0.097941 0.501624 1.544468
v 0.320121 -0.057304 2.063273
v -0.028789 0.031595 2.048393
v -0.152502 -0.527261 1.610414
v 0.196408 -0.616160 1.625296
v -0.377699 0.120494 2.033513
v -0.501412 -0.438362 1.595534
v -0.188394 0.213031 2.300468
v -0.087327 -0.015811 2.305302
v 0.247439 0.124765 1.960924
v 0.146374 0.353606 1.956091
v 0.013740 -0.244653 2.310136
v 0.348506 -0.104077 1.965758
v -0.155348 -0.214864 2.562218
v -0.029383 -0.024650 2.568894
v -0.226677 0.119539 2.183333
v -0.352645 -0.070676 2.176657
v 0.096582 0.165564 2.575571
v -0.100712 0.309753 2.190010
vt 1.000000 0.000000 0.0
vt 0.500000 0.000000 0.0
vt 0.500000 1.000000 0.0
vt 1.000000 1.000000 0.0
vt 0.500000 0.000000 0.0
vt 0.000000 0.000000 0.0
vt 0.000000 1.000000 0.0
vt 0.500000 1.000000 0.0
vt 1.000000 0.000000 0.0
vt 0.500000 0.000000 0.0
vt 0.500000 1.000000 0.0
vt 1.000000 1.000000 0.0
vt 0.500000 0.000000 0.0
vt 0.000000 0.000000 0.0
vt 0.000000 1.000000 0.0
vt 0.500000 1.000000 0.0
vt 1.000000 0.000000 0.0
vt 0.500000 0.000000 0.0
vt 0.500000 1.000000 0.0
vt 1.000000 1.000000 0.0
vt 0.500000 0.000000 0.0
vt 0.000000 0.000000 0.0
vt 0.000000 1.000000 0.0
vt 0.500000 1.000000 0.0
vt 1.000000 0.000000 0.0
vt 0.500000 0.000000 0.0
vt 0.500000 1.000000 0.0
vt 1.000000 1.000000 0.0
vt 0.500000 0.000000 0.0
vt 0.000000 0.000000 0.0
vt 0.000000 1.000000 0.0
vt 0.500000 1.000000 0.0
vt 1.000000 0.000000 0.0
vt 0.500000 0.000000 0.0
vt 0.500000 1.000000 0.0
vt 1.000000 1.000000 0.0
vt 0.500000 0.000000 0.0
vt 0.000000 0.000000 0.0
vt 0.000000 1.000000 0.0
vt 0.500000 1.000000 0.0
vt 1.000000 0.000000 0.0
vt 0.500000 0.000000 0.0
vt 0.500000 1.000000 0.0
vt 1.000000 1.000000 0.0
vt 0.500000 0.000000 0.0
vt 0.000000 0.000000 0.0
vt 0.000000 1.000000 0.0
vt 0.500000 1.000000 0.0
vt 1.000000 0.000000 0.0
vt 0.500000 0.000000 0.0
vt 0.500000 1.000000 0.0
vt 1.000000 1.000000 0.0
vt 0.500000 0.000000 0.0
vt 0.000000 0.000000 0.0
vt 0.000000 1.000000 0.0
vt 0.500000 1.000000 0.0
vt 1.000000 0.000000 0.0
vt 0.500000 0.000000 0.0
vt 0.500000 1.000000 0.0
vt 1.000000 1.000000 0.0
vt 0.500000 0.000000 0.0
vt 0.000000 0.000000 0.0
vt 0.000000 1.000000 0.0
vt 0.500000 1.000000 0.0
vn -0.170539 0.000000 0.985351
vn -0.024129 0.004488 0.999699
vn -0.112648 -0.139474 0.983797
vn 0.283468 0.051866 0.957578
vn -0.334783 0.353799 0.873354
vn -0.334783 0.353798 0.873354
vn -0.181930 -0.581284 0.793102
vn -0.181929 -0.581284 0.793102
vn 0.623965 0.290890 0.725293
vn 0.623965 0.290890 0.725294
vn -0.713162 0.453513 0.534533
vn -0.713162 0.453513 0.534534
usemtl pmat3_pine_1.png
s 1
f 1/1/1 2/2/1 3/3/1 4/4/1
f 2/5/1 5/6/1 6/7/1 3/8/1
f 7/9/2 8/10/2 9/11/2 10/12/2
f 8/13/2 11/14/2 12/15/2 9/16/2
f 13/17/3 14/18/3 15/19/3 16/20/3
f 14/21/3 17/22/3 18/23/3 15/24/3
f 19/25/4 20/26/4 21/27/4 22/28/4
f 20/29/4 23/30/4 24/31/4 21/32/4
f 25/33/5 26/34/5 27/35/5 28/36/5
f 26/37/6 29/38/6 30/39/6 27/40/6
f 31/41/7 32/42/7 33/43/7 34/44/7
f 32/45/8 35/46/8 36/47/8 33/48/8
f 37/49/9 38/50/9 39/51/9 40/52/9
f 38/53/10 41/54/10 42/55/10 39/56/10
f 43/57/11 44/58/11 45/59/11 46/60/11
f 44/61/12 47/62/12 48/63/12 45/64/12
o plant_pmat1
v -0.082880 0.000000 2.851171
v 0.000000 -0.063103 1.426790
v 0.037076 -0.051052 1.427868
v -0.082880 0.000000 2.851171
v 0.059989 -0.019500 1.428534
v -0.082880 0.000000 2.851171
v 0.059989 0.019500 1.428534
v -0.082880 0.000000 2.851171
v 0.037076 0.051052 1.427868
v -0.082880 0.000000 2.851171
v 0.000000 0.063103 1.426790
v -0.082880 0.000000 2.851171
v -0.037076 0.051052 1.425713
v -0.082880 0.000000 2.851171
v -0.059989 0.019500 1.425046
v -0.082880 0.000000 2.851171
v -0.059989 -0.019500 1.425046
v -0.082880 0.000000 2.851171
v -0.037076 -0.051052 1.425713
v -0.082880 0.000000 2.851171
v 0.000000 -0.095595 0.000000
v 0.056189 -0.077338 0.000000
v 0.090916 -0.029540 0.000000
v 0.090916 0.029540 0.000000
v 0.056189 0.077338 0.000000
v 0.000000 0.095595 0.000000
v -0.056189 0.077338 0.000000
v -0.090916 0.029540 0.000000
v -0.090916 -0.029540 0.000000
v -0.056189 -0.077338 0.000000
vt 0.282167 0.993668 0.0
vt 0.500000 -2.750000 0.0
vt 0.597445 -2.747168 0.0
vt 0.282167 0.993668 0.0
vt 0.500000 0.993668 0.0
vt 0.365822 -2.747168 0.0
vt 0.448748 -2.745417 0.0
vt 0.500000 0.993668 0.0
vt 0.500000 0.993668 0.0
vt 0.448748 -2.745417 0.0
vt 0.551252 -2.745417 0.0
vt 0.500000 0.993668 0.0
vt 0.500000 0.993668 0.0
vt 0.551252 -2.745417 0.0
vt 0.634178 -2.747168 0.0
vt 0.500000 0.993668 0.0
vt 0.282167 0.993668 0.0
vt 0.597445 -2.747168 0.0
vt 0.500000 -2.750000 0.0
vt 0.282167 0.993668 0.0
vt 0.282167 0.993668 0.0
vt 0.500000 -2.750000 0.0
vt 0.402555 -2.752832 0.0
vt 0.282167 0.993668 0.0
vt 0.500000 0.993668 0.0
vt 0.634178 -2.752832 0.0
vt 0.551252 -2.754583 0.0
vt 0.500000 0.993668 0.0
vt 0.500000 0.993668 0.0
vt 0.551252 -2.754583 0.0
vt 0.448748 -2.754583 0.0
vt 0.500000 0.993668 0.0
vt 0.500000 0.993668 0.0
vt 0.448748 -2.754583 0.0
vt 0.365822 -2.752832 0.0
vt 0.500000 0.993668 0.0
vt 0.500000 0.334147 0.0
vt 0.282167 0.500000 0.0
vt 0.282167 0.500000 0.0
vt 0.402555 0.365822 0.0
vt 0.500000 0.250000 0.0
vt 0.500000 -3.500000 0.0
vt 0.647681 -3.500000 0.0
vt 0.597445 0.252832 0.0
vt 0.365822 0.252832 0.0
vt 0.296735 -3.500000 0.0
vt 0.422359 -3.500000 0.0
vt 0.448748 0.254583 0.0
vt 0.448748 0.254583 0.0
vt 0.422359 -3.500000 0.0
vt 0.577641 -3.500000 0.0
vt 0.551252 0.254583 0.0
vt 0.551252 0.254583 0.0
vt 0.577641 -3.500000 0.0
vt 0.703265 -3.500000 0.0
vt 0.634178 0.252832 0.0
vt 0.597445 0.252832 0.0
vt 0.647681 -3.500000 0.0
vt 0.500000 -3.500000 0.0
vt 0.500000 0.250000 0.0
vt 0.500000 0.250000 0.0
vt 0.500000 -3.500000 0.0
vt 0.352319 -3.500000 0.0
vt 0.402555 0.247168 0.0
vt 0.634178 0.247168 0.0
vt 0.703265 -3.500000 0.0
vt 0.577641 -3.500000 0.0
vt 0.551252 0.245417 0.0
vt 0.551252 0.245417 0.0
vt 0.577641 -3.500000 0.0
vt 0.422359 -3.500000 0.0
vt 0.448748 0.245417 0.0
vt 0.448748 0.245417 0.0
vt 0.422359 -3.500000 0.0
vt 0.296735 -3.500000 0.0
vt 0.365822 0.247168 0.0
vt 0.402555 0.247168 0.0
vt 0.352319 -3.500000 0.0
vt 0.500000 -3.500000 0.0
vt 0.500000 0.250000 0.0
vn -0.001404 -0.998993 0.044160
vn 0.008148 -0.999390 0.033723
vn 0.591845 -0.804437 0.050630
vn 0.584521 -0.807550 0.078219
vn 0.949919 -0.306406 0.061007
vn 0.946104 -0.308267 0.099216
vn 0.949919 0.306406 0.061007
vn 0.946104 0.308267 0.099216
vn 0.591845 0.804437 0.050630
vn 0.584521 0.807550 0.078219
vn 0.008148 0.999390 0.033723
vn -0.001404 0.998993 0.044160
vn -0.592914 0.805078 0.016266
vn -0.588153 0.808679 0.010041
vn -0.951903 0.306314 0.005829
vn -0.950987 0.308939 -0.011017
vn -0.951903 -0.306314 0.005829
vn -0.950987 -0.308939 -0.011017
vn -0.592914 -0.805078 0.016266
vn -0.588153 -0.808679 0.010041
vn -0.000214 -0.999725 0.022767
vn 0.587512 -0.808863 0.022736
vn 0.950774 -0.308939 0.022736
vn 0.950774 0.308939 0.022736
vn 0.587512 0.808863 0.022736
vn -0.000214 0.999725 0.022767
vn -0.587817 0.808649 0.022767
vn -0.950835 0.308817 0.022797
vn -0.950835 -0.308817 0.022797
vn -0.587817 -0.808649 0.022767
usemtl pmat1_barkdk.jpg
s 1
f 49/65/13 50/66/14 51/67/15 52/68/16
s 1
f 52/69/16 51/70/15 53/71/17 54/72/18
s 1
f 54/73/18 53/74/17 55/75/19 56/76/20
s 1
f 56/77/20 55/78/19 57/79/21 58/80/22
s 1
f 58/81/22 57/82/21 59/83/23 60/84/24
s 1
f 60/85/24 59/86/23 61/87/25 62/88/26
s 1
f 62/89/26 61/90/25 63/91/27 64/92/28
s 1
f 64/93/28 63/94/27 65/95/29 66/96/30
s 1
f 66/97/30 65/98/29 67/99/31 68/100/32
s 1
f 50/101/14 49/102/13 68/103/32 67/104/31
s 1
f 50/105/14 69/106/33 70/107/34 51/108/15
s 1
f 51/109/15 70/110/34 71/111/35 53/112/17
s 1
f 53/113/17 71/114/35 72/115/36 55/116/19
s 1
f 55/117/19 72/118/36 73/119/37 57/120/21
s 1
f 57/121/21 73/122/37 74/123/38 59/124/23
s 1
f 59/125/23 74/126/38 75/127/39 61/128/25
s 1
f 61/129/25 75/130/39 76/131/40 63/132/27
s 1
f 63/133/27 76/134/40 77/135/41 65/136/29
s 1
f 65/137/29 77/138/41 78/139/42 67/140/31
s 1
f 67/141/31 78/142/42 69/143/33 50/144/14

# Crossed leaf cards: rotated 90 degrees around each branch (texture V).
o plant_pmat3_cross
v -0.063498 0.000000 1.191248
v 0.009269 0.000000 0.770810
v 0.850144 0.000000 0.916344
v 0.777377 0.000000 1.336782
vn -0.000000 -1.000000 0.000000
usemtl pmat3_pine_1.png
s off
f 79/1/43 80/2/43 81/3/43 82/4/43
v 0.009269 0.000000 0.770810
v 0.082037 0.000000 0.350372
v 0.922912 0.000000 0.495907
v 0.850144 0.000000 0.916344
vn -0.000000 -1.000000 -0.000000
usemtl pmat3_pine_1.png
s off
f 83/5/44 84/6/44 85/7/44 86/8/44
v -0.010429 0.001940 1.407155
v 0.001312 -0.000244 0.920696
v -0.422723 0.875615 0.906530
v -0.434465 0.877800 1.392990
vn 0.899764 0.435928 0.019759
usemtl pmat3_pine_1.png
s off
f 87/9/45 88/10/45 89/11/45 90/12/45
v 0.001312 -0.000244 0.920696
v 0.013053 -0.002427 0.434238
v -0.410983 0.873432 0.420072
v -0.422723 0.875615 0.906530
vn 0.899764 0.435928 0.019759
usemtl pmat3_pine_1.png
s off
f 91/13/46 92/14/46 93/15/46 94/16/46
v -0.048831 -0.060460 1.758127
v 0.006123 0.007581 1.278198
v -0.494201 -0.811877 1.104733
v -0.549156 -0.879917 1.584662
vn -0.851084 0.524522 -0.023089
usemtl pmat3_pine_1.png
s off
f 95/17/47 96/18/47 97/19/47 98/20/47
v 0.006123 0.007581 1.278198
v 0.061077 0.075622 0.798269
v -0.439248 -0.743836 0.624803
v -0.494202 -0.811876 1.104733
vn -0.851084 0.524522 -0.023089
usemtl pmat3_pine_1.png
s off
f 99/21/48 100/22/48 101/23/48 102/24/48
v 0.108303 0.021501 1.982015
v -0.024617 -0.002819 1.533007
v 0.861668 0.141949 1.262801
v 0.994587 0.166268 1.711810
vn 0.162765 -0.986651 0.005258
usemtl pmat3_pine_1.png
s off
f 103/25/49 104/26/49 105/27/49 106/28/49
v -0.024617 -0.002819 1.533007
v -0.157536 -0.027139 1.083998
v 0.728749 0.117630 0.813793
v 0.861668 0.141950 1.262801
vn 0.162766 -0.986651 0.005258
usemtl pmat3_pine_1.png
s off
f 107/29/50 108/30/50 109/31/50 110/32/50
v -0.093108 0.073094 2.018709
v -0.005746 -0.019230 1.790808
v -0.296320 0.332258 1.537033
v -0.383682 0.424582 1.764935
vn 0.760221 0.649040 0.028487
usemtl pmat3_pine_1.png
s off
f 111/33/51 112/34/51 113/35/51 114/36/51
v -0.005746 -0.019230 1.790808
v 0.081616 -0.111553 1.562907
v -0.208958 0.239934 1.309133
v -0.296321 0.332257 1.537033
vn 0.760220 0.649041 0.028488
usemtl pmat3_pine_1.png
s off
f 115/37/52 116/38/52 117/39/52 118/40/52
v -0.094350 -0.177879 2.334199
v -0.028789 0.031595 2.048393
v -0.152502 -0.527261 1.610414
v -0.218064 -0.736734 1.896220
vn -0.968214 0.246693 -0.041292
usemtl pmat3_pine_1.png
s off
f 119/41/53 120/42/53 121/43/53 122/44/53
v -0.028789 0.031595 2.048393
v 0.036772 0.241070 1.762587
v -0.086940 -0.317786 1.324608
v -0.152501 -0.527260 1.610414
vn -0.968214 0.246691 -0.041291
usemtl pmat3_pine_1.png
s off
f 123/45/54 124/46/54 125/47/54 126/48/54
v 0.068798 0.056974 2.486779
v -0.087327 -0.015811 2.305302
v 0.247439 0.124765 1.960924
v 0.403564 0.197548 2.142400
vn 0.403925 -0.914588 0.019315
usemtl pmat3_pine_1.png
s off
f 127/49/55 128/50/55 129/51/55 130/52/55
v -0.087327 -0.015811 2.305302
v -0.243452 -0.088596 2.123825
v 0.091313 0.051980 1.779447
v 0.247439 0.124764 1.960923
vn 0.403927 -0.914587 0.019316
usemtl pmat3_pine_1.png
s off
f 131/53/56 132/54/56 133/55/56 134/56/56
v -0.192155 0.078860 2.690896
v -0.029383 -0.024650 2.568894
v -0.226677 0.119539 2.183333
v -0.389449 0.223051 2.305336
vn 0.551900 0.833397 0.029256
usemtl pmat3_pine_1.png
s off
f 135/57/57 136/58/57 137/59/57 138/60/57
v -0.029383 -0.024650 2.568894
v 0.133389 -0.128159 2.446893
v -0.063905 0.016030 2.061332
v -0.226677 0.119539 2.183333
vn 0.551900 0.833397 0.029256
usemtl pmat3_pine_1.png
s off
f 139/61/58 140/62/58 141/63/58 142/64/58
