# Blender3D v249 OBJ File: shop_pos.blend
# www.blender3d.org
mtllib shop_pos.mtl
v -3.001074 -1.178312 3.787028
v -2.997566 -1.178312 0.216183
v 0.837644 -1.178312 0.213646
v 0.868603 -1.178312 3.787028
v -2.997565 0.812446 0.216183
v -3.001075 0.812446 3.787027
v 0.837644 0.812446 0.213646
v 0.868604 0.812446 3.787028
v -2.997565 0.317115 0.216183
v -2.997566 -0.146426 0.216183
v -3.001074 0.317116 3.787027
v -3.001074 -0.146426 3.787027
v 0.837644 0.317115 0.213646
v 0.837644 -0.146426 0.213646
v 0.868604 0.317116 3.787028
v 0.868603 -0.146426 3.787028
v 0.837644 0.812446 0.213646
v -2.997565 0.812446 0.216183
v 0.837644 1.777268 0.213646
v -2.997565 1.777268 0.216182
v -2.430653 -0.146426 0.193784
v -2.430653 0.317115 0.193784
v -3.001074 -1.178312 2.337219
v -3.001074 -1.178312 1.723841
v -3.001074 0.812446 1.723841
v -3.001074 0.812446 2.337219
v -3.001074 -0.146426 1.723841
v -3.001074 -0.146426 2.337219
v -3.001074 0.317116 1.723841
v -3.001074 0.317116 2.337219
v -2.997565 0.549551 0.216183
v -3.001075 0.549551 3.787027
v 0.837644 0.549551 0.213646
v 0.868604 0.549551 3.787028
v -3.001074 0.549551 2.337219
v -3.001074 0.549551 1.723841
v -0.747565 -1.178312 0.193784
v -0.747565 -0.146426 0.193784
v -0.747565 0.317115 0.193784
v -0.747565 0.549551 0.193784
v -1.385402 0.319315 0.099874
v -1.385402 0.556399 0.099874
v -0.744213 0.319315 0.099874
v -0.744213 0.556399 0.099874
v -0.744213 -0.153498 0.099874
v -1.385402 -0.153498 0.099874
v -0.744213 -1.178312 0.099874
v -1.385402 -1.178312 0.099874
v 0.935297 0.812446 0.137048
v 0.935297 -1.178312 0.137049
v -3.082256 -0.153498 1.730423
v -3.082255 0.319315 1.730423
v -3.082256 -0.153497 2.340960
v -3.082256 0.319315 2.340960
v -3.082256 0.812446 3.877098
v -3.082256 0.812446 2.340959
v -3.082255 0.812446 1.730423
v -3.047931 0.812446 0.161584
v -3.047932 -1.178312 0.161585
v -3.082256 -1.178312 1.730423
v -3.082256 -1.178312 2.340960
v -3.082255 -1.178312 3.877099
v -1.936309 -0.153498 0.099874
v -1.936309 0.319315 0.099874
v -2.433980 -0.153498 0.099874
v -2.433980 0.319315 0.099874
v -3.047931 0.812446 0.161584
v 0.935297 0.812446 0.137048
v 1.008679 0.812446 3.877099
v 1.008679 -1.178312 3.877099
v 0.935297 0.319315 0.137048
v 0.935297 0.556399 0.137048
v 0.935297 -0.153498 0.137048
v -3.047931 0.556399 0.161585
v -3.047932 0.319315 0.161585
v -3.082255 0.556399 1.730423
v -3.082256 0.556399 2.340959
v -3.082255 0.319315 3.877098
v -3.082256 0.556399 3.877098
v 1.008679 0.319315 3.877099
v 1.008679 0.556399 3.877099
v -3.047932 -0.153498 0.161585
v -3.082255 -0.153497 3.877098
v 0.935297 1.808670 0.137049
v -3.047931 1.808670 0.161584
v 1.008679 -0.153497 3.877099
v 0.807020 0.812446 0.193784
v -2.982406 0.812446 0.193784
v 0.807020 1.777268 0.193783
v -2.982406 1.777268 0.193783
v -2.982406 0.812446 0.099874
v 0.807019 0.812446 0.099874
v 0.807019 1.808670 0.099874
v -2.982406 1.808670 0.099874
v -2.982406 1.748143 0.247368
v 0.807020 1.748143 0.247368
v -2.982406 1.778963 0.247368
v 0.807020 1.778963 0.247368
v 0.868604 -1.178312 0.247368
v 0.868604 0.812446 0.247368
v 0.868604 -0.146426 0.247368
v 0.868604 0.317115 0.247368
v 0.868604 0.549551 0.247368
v 1.008680 0.812446 0.247368
v 1.008680 -1.178312 0.247368
v 1.008680 0.556399 0.247368
v 1.008680 0.319315 0.247368
v 1.008680 -0.153498 0.247368
v -3.001074 -1.178312 0.247368
v -3.001073 0.812446 0.247368
v -3.001074 -0.146426 0.247368
v -3.001074 0.317115 0.247368
v -3.001074 0.549551 0.247368
v -3.082254 0.812446 0.247368
v -3.082256 -1.178312 0.247368
v -3.082255 0.319315 0.247368
v -3.082255 0.556399 0.247368
v -3.082255 -0.153498 0.247368
v -2.869704 0.899737 0.099874
v -2.869704 1.723731 0.099874
v 0.694317 0.899737 0.099874
v 0.694317 1.723731 0.099874
v 0.694317 0.889763 0.193784
v 0.694317 1.697600 0.193783
v -2.869704 0.889763 0.193784
v -2.869704 1.697600 0.193783
v 0.694317 0.889763 0.234274
v -2.869704 0.889763 0.234274
v 0.694317 1.697600 0.234274
v -2.869704 1.697600 0.234274
v -2.869704 0.899737 0.210256
v 0.694317 0.899737 0.210255
v 0.694317 1.723731 0.210255
v -2.869704 1.723731 0.210255
v -3.082254 -1.178312 3.877098
v -3.082255 -1.178312 0.099874
v 1.008680 -1.178312 0.099874
v 1.008679 -1.178312 3.877098
v 1.008679 -1.200942 3.877098
v 1.008680 -1.200942 0.099874
v -3.082255 -1.200942 0.099874
v -3.082254 -1.200942 3.877098
v -3.012805 0.839352 3.264402
v -3.012805 0.839352 3.172784
v 0.879109 0.839352 3.172784
v 0.879108 0.839352 3.264402
v -3.012806 0.929871 3.264402
v -3.012804 0.929871 3.172784
v 0.879110 0.929871 3.172784
v 0.879109 0.929871 3.264402
v 0.879109 0.929871 2.806312
v 0.879110 0.929871 2.714694
v -3.012804 0.929871 2.714694
v -3.012806 0.929871 2.806312
v 0.879108 0.839352 2.806312
v 0.879109 0.839352 2.714694
v -3.012805 0.839352 2.714694
v -3.012805 0.839352 2.806312
v -3.012805 0.839352 1.890131
v -3.012805 0.839352 1.798513
v 0.879109 0.839352 1.798512
v 0.879108 0.839352 1.890131
v -3.012806 0.929871 1.890131
v -3.012804 0.929871 1.798513
v 0.879110 0.929871 1.798512
v 0.879109 0.929871 1.890131
v 0.879109 0.929871 2.348221
v 0.879110 0.929871 2.256603
v -3.012804 0.929871 2.256603
v -3.012806 0.929871 2.348221
v 0.879108 0.839352 2.348221
v 0.879109 0.839352 2.256603
v -3.012805 0.839352 2.256603
v -3.012805 0.839352 2.348221
v -3.012805 0.839352 0.515859
v -3.012805 0.839352 0.424241
v 0.879109 0.839352 0.424241
v 0.879108 0.839352 0.515859
v -3.012806 0.929871 0.515859
v -3.012804 0.929871 0.424241
v 0.879110 0.929871 0.424241
v 0.879109 0.929871 0.515859
v -3.012805 0.839352 0.973950
v -3.012805 0.839352 0.882332
v 0.879109 0.839352 0.882331
v 0.879108 0.839352 0.973949
v -3.012806 0.929871 0.973950
v -3.012804 0.929871 0.882332
v 0.879110 0.929871 0.882331
v 0.879109 0.929871 0.973949
v 0.879109 0.929871 1.432040
v 0.879110 0.929871 1.340422
v -3.012804 0.929871 1.340422
v -3.012806 0.929871 1.432040
v 0.879108 0.839352 1.432040
v 0.879109 0.839352 1.340422
v -3.012805 0.839352 1.340422
v -3.012805 0.839352 1.432040
v -1.910096 0.929871 0.179956
v -1.845231 0.929871 0.179956
v -1.845231 0.929871 3.425665
v -1.910096 0.929871 3.425663
v -1.910096 1.020390 0.179955
v -1.845231 1.020390 0.179957
v -1.845231 1.020390 3.059193
v -1.910096 1.020390 3.059192
v -2.720912 1.020390 3.059192
v -2.656047 1.020390 3.059193
v -2.656047 1.020390 0.179957
v -2.720912 1.020390 0.179955
v -2.720912 0.929871 3.425663
v -2.656047 0.929871 3.425665
v -2.656047 0.929871 0.179956
v -2.720912 0.929871 0.179956
v -1.099280 0.929871 0.179956
v -1.034415 0.929871 0.179956
v -1.034415 0.929871 3.425665
v -1.099280 0.929871 3.425663
v -1.099280 1.020390 0.179954
v -1.034415 1.020390 0.179957
v -1.034415 1.020390 3.059193
v -1.099281 1.020390 3.059192
v -0.288465 1.020390 3.059192
v -0.223599 1.020390 3.059193
v -0.223600 1.020390 0.179957
v -0.288465 1.020390 0.179954
v -0.288465 0.929871 3.425663
v -0.223599 0.929871 3.425665
v -0.223600 0.929871 0.179956
v -0.288465 0.929871 0.179956
v 0.522351 1.020390 3.059192
v 0.587216 1.020390 3.059193
v 0.587216 1.020390 0.179957
v 0.522351 1.020390 0.179954
v 0.522351 0.929871 3.425663
v 0.587216 0.929871 3.425665
v 0.587216 0.929871 0.179956
v 0.522351 0.929871 0.179956
v 0.879109 0.814139 3.844677
v 0.879110 0.814139 3.753059
v -3.012804 0.814139 3.753059
v -3.012806 0.814139 3.844677
v 0.879108 0.723620 3.844677
v 0.879109 0.723620 3.753059
v -3.012805 0.723620 3.753059
v -3.012805 0.723620 3.844677
v -1.394368 -1.178312 3.158276
v 0.868603 -1.178312 2.705681
v 0.868603 -1.178312 3.158276
v -1.394368 -0.612569 3.158276
v 0.868603 -0.612569 2.705681
v 0.868603 -0.612569 3.158276
v -0.941774 -1.178312 2.705682
v -0.941774 -1.178312 3.158276
v -0.941773 -0.612569 3.158276
v -0.941774 -1.178312 3.837167
v -1.394367 -0.612569 3.837167
v -1.394367 -1.178312 3.837167
v -0.489179 -0.612569 3.158276
v -3.001074 0.317116 3.787027
v -3.001075 0.549551 3.787027
v -3.001075 0.812446 3.787027
v -3.001074 -0.146426 3.787027
v -3.001074 -1.178312 3.787028
v 0.868604 0.317116 3.787028
v 0.868604 0.549551 3.787028
v 0.868604 0.812446 3.787028
v 0.868603 -0.146426 3.787028
v 0.868603 -1.178312 3.787028
v -2.430653 -0.146426 0.193784
v -2.430653 0.317115 0.193784
v -2.433980 0.319315 0.099874
v -2.433980 -0.153498 0.099874
v -1.936309 -0.153498 0.099874
v -1.929560 -0.146426 0.193784
v -1.929560 0.317115 0.193784
v -1.929560 0.317115 0.193784
v -1.929560 -0.146426 0.193784
v -1.936309 0.319315 0.099874
v -3.001074 -0.146426 1.723841
v -3.001074 -0.146426 1.723841
v -3.001074 0.317116 1.723841
v -3.001074 0.317116 1.723841
v -3.082255 0.319315 1.730423
v -3.082255 0.319315 1.730423
v -3.082256 -0.153498 1.730423
v -3.082256 -0.153498 1.730423
v -3.082256 -0.153497 2.340960
v -3.082256 -0.153497 2.340960
v -3.001074 -0.146426 2.337219
v -3.082256 0.319315 2.340960
v -3.001074 0.317116 2.337219
v -3.001074 0.317116 2.337219
v -3.001074 -0.146426 2.337219
v -3.082256 0.319315 2.340960
v -0.747565 0.549551 0.193784
v -0.744213 0.556399 0.099874
v -1.385402 0.556399 0.099874
v -1.386219 0.549551 0.193784
v -1.386219 -1.178312 0.193784
v -1.386219 -0.146426 0.193784
v -1.386219 0.317115 0.193784
v -1.386219 0.549551 0.193784
v -3.082255 0.319315 3.877098
v -3.082255 -0.153497 3.877098
v -3.082255 -1.178312 3.877099
v -3.082256 0.556399 3.877098
v -3.082256 0.812446 3.877098
v 1.008679 0.319315 3.877099
v 1.008679 -0.153497 3.877099
v 1.008679 -1.178312 3.877099
v 1.008679 0.556399 3.877099
v 1.008679 0.812446 3.877099
v 0.837644 1.777268 0.213646
v 0.868605 1.748143 0.247368
v 0.868604 0.812447 3.787028
v 0.807020 1.777268 0.193783
v -2.982406 1.777268 0.193783
v -2.997565 1.777268 0.216182
v -3.001073 1.748143 0.247368
v -3.001075 0.812447 3.787027
v 0.935297 1.808670 0.137049
v 1.008680 1.778963 0.247368
v 1.008680 0.812447 3.877099
v 0.807019 1.808670 0.099874
v -2.982406 1.808670 0.099874
v -3.047931 1.808670 0.161584
v -3.082254 1.778963 0.247368
v -3.082256 0.812447 3.877098
v -2.869704 0.899737 0.099874
v -2.869704 0.899737 0.099874
v 0.694317 0.899737 0.099874
v 0.694317 0.899737 0.099874
v 0.694317 1.723731 0.099874
v 0.694317 1.723731 0.099874
v -2.869704 1.723731 0.099874
v -2.869704 1.723731 0.099874
v -2.869704 1.723731 0.210255
v -2.869704 1.723731 0.210255
v 0.694317 1.723731 0.210255
v 0.694317 1.723731 0.210255
v 0.694317 0.899737 0.210255
v 0.694317 0.899737 0.210255
v -2.869704 0.899737 0.210256
v -2.869704 0.899737 0.210256
v 0.694317 0.889763 0.193784
v 0.694317 0.889763 0.193784
v -2.869704 0.889763 0.193784
v -2.869704 0.889763 0.193784
v -2.869704 1.697600 0.193783
v -2.869704 1.697600 0.193783
v 0.694317 1.697600 0.193783
v 0.694317 1.697600 0.193783
v 0.694317 1.697600 0.234274
v 0.694317 1.697600 0.234274
v -2.869704 1.697600 0.234274
v -2.869704 1.697600 0.234274
v -2.869704 0.889763 0.234274
v -2.869704 0.889763 0.234274
v 0.694317 0.889763 0.234274
v 0.694317 0.889763 0.234274
v -3.082255 -1.178312 0.099874
v -3.082255 -1.178312 0.099874
v -3.082254 -1.178312 3.877098
v -3.082254 -1.178312 3.877098
v 1.008679 -1.178312 3.877098
v 1.008679 -1.178312 3.877098
v 1.008680 -1.178312 0.099874
v 1.008680 -1.178312 0.099874
v 1.008680 -1.200942 0.099874
v 1.008680 -1.200942 0.099874
v 1.008679 -1.200942 3.877098
v 1.008679 -1.200942 3.877098
v -3.082254 -1.200942 3.877098
v -3.082254 -1.200942 3.877098
v -3.082255 -1.200942 0.099874
v -3.082255 -1.200942 0.099874
v -3.012805 0.839352 3.172784
v 0.879109 0.839352 3.172784
v -3.012805 0.839352 3.264402
v 0.879108 0.839352 3.264402
v -3.012804 0.929871 3.172784
v 0.879110 0.929871 3.172784
v -3.012806 0.929871 3.264402
v 0.879109 0.929871 3.264402
v 0.879109 0.929871 2.806312
v -3.012806 0.929871 2.806312
v 0.879110 0.929871 2.714694
v -3.012804 0.929871 2.714694
v 0.879108 0.839352 2.806312
v -3.012805 0.839352 2.806312
v 0.879109 0.839352 2.714694
v -3.012805 0.839352 2.714694
v -3.012805 0.839352 1.798513
v 0.879109 0.839352 1.798512
v -3.012805 0.839352 1.890131
v 0.879108 0.839352 1.890131
v -3.012804 0.929871 1.798513
v 0.879110 0.929871 1.798512
v -3.012806 0.929871 1.890131
v 0.879109 0.929871 1.890131
v 0.879109 0.929871 2.348221
v -3.012806 0.929871 2.348221
v 0.879110 0.929871 2.256603
v -3.012804 0.929871 2.256603
v 0.879108 0.839352 2.348221
v -3.012805 0.839352 2.348221
v 0.879109 0.839352 2.256603
v -3.012805 0.839352 2.256603
v -3.012805 0.839352 0.424241
v 0.879109 0.839352 0.424241
v -3.012805 0.839352 0.515859
v 0.879108 0.839352 0.515859
v -3.012804 0.929871 0.424241
v 0.879110 0.929871 0.424241
v -3.012806 0.929871 0.515859
v 0.879109 0.929871 0.515859
v -3.012805 0.839352 0.882332
v 0.879109 0.839352 0.882331
v -3.012805 0.839352 0.973950
v 0.879108 0.839352 0.973949
v -3.012804 0.929871 0.882332
v 0.879110 0.929871 0.882331
v -3.012806 0.929871 0.973950
v 0.879109 0.929871 0.973949
v 0.879109 0.929871 1.432040
v -3.012806 0.929871 1.432040
v 0.879110 0.929871 1.340422
v -3.012804 0.929871 1.340422
v 0.879108 0.839352 1.432040
v -3.012805 0.839352 1.432040
v 0.879109 0.839352 1.340422
v -3.012805 0.839352 1.340422
v -1.845231 0.929871 0.179956
v -1.845231 0.929871 0.179956
v -1.910096 0.929871 0.179956
v -1.910096 0.929871 0.179956
v -1.910096 0.929871 3.425663
v -1.910096 1.020390 0.179955
v -1.910096 1.020390 0.179955
v -1.845231 1.020390 0.179957
v -1.910096 1.020390 3.059192
v -1.845231 1.020390 0.179957
v -1.845231 1.020390 3.059193
v -1.845231 0.929871 3.425665
v -2.720912 1.020390 0.179955
v -2.720912 1.020390 0.179955
v -2.720912 1.020390 3.059192
v -2.656047 1.020390 0.179957
v -2.656047 1.020390 0.179957
v -2.656047 1.020390 3.059193
v -2.656047 0.929871 0.179956
v -2.656047 0.929871 0.179956
v -2.656047 0.929871 3.425665
v -2.720912 0.929871 0.179956
v -2.720912 0.929871 0.179956
v -2.720912 0.929871 3.425663
v -1.034415 0.929871 0.179956
v -1.034415 0.929871 0.179956
v -1.099280 0.929871 0.179956
v -1.099280 0.929871 0.179956
v -1.099280 0.929871 3.425663
v -1.099280 1.020390 0.179954
v -1.099280 1.020390 0.179954
v -1.034415 1.020390 0.179957
v -1.099281 1.020390 3.059192
v -1.034415 1.020390 0.179957
v -1.034415 1.020390 3.059193
v -1.034415 0.929871 3.425665
v -0.288465 1.020390 0.179954
v -0.288465 1.020390 0.179954
v -0.288465 1.020390 3.059192
v -0.223600 1.020390 0.179957
v -0.223600 1.020390 0.179957
v -0.223599 1.020390 3.059193
v -0.223600 0.929871 0.179956
v -0.223600 0.929871 0.179956
v -0.223599 0.929871 3.425665
v -0.288465 0.929871 0.179956
v -0.288465 0.929871 0.179956
v -0.288465 0.929871 3.425663
v 0.522351 1.020390 0.179954
v 0.522351 1.020390 0.179954
v 0.522351 1.020390 3.059192
v 0.587216 1.020390 0.179957
v 0.587216 1.020390 0.179957
v 0.587216 1.020390 3.059193
v 0.587216 0.929871 0.179956
v 0.587216 0.929871 0.179956
v 0.587216 0.929871 3.425665
v 0.522351 0.929871 0.179956
v 0.522351 0.929871 0.179956
v 0.522351 0.929871 3.425663
v 0.879109 0.814139 3.844677
v -3.012806 0.814139 3.844677
v 0.879110 0.814139 3.753059
v -3.012804 0.814139 3.753059
v 0.879108 0.723620 3.844677
v -3.012805 0.723620 3.844677
v 0.879109 0.723620 3.753059
v -3.012805 0.723620 3.753059
v -1.394368 -0.612569 2.705681
v -1.394368 -1.178312 2.705682
v -0.941773 -0.612569 2.705681
v -0.941773 -0.612569 3.837167
v -0.489179 -0.612569 2.705681
v -0.489179 -1.178312 3.158276
v -0.489179 -1.178312 2.705682
v -1.385402 -1.178312 0.099874
v -1.385402 -0.153498 0.099874
v -1.385402 0.319315 0.099874
v -1.385402 0.556399 0.099874
v -0.744213 -1.178312 0.099874
v -0.744213 -0.153498 0.099874
v -0.744213 0.319315 0.099874
v -0.744213 0.556399 0.099874
v -0.747565 -1.178312 0.193784
v -0.747565 -0.146426 0.193784
v -0.747565 0.317115 0.193784
v -0.747565 0.549551 0.193784
v -1.936309 0.319315 0.099874
v -1.936309 -0.153498 0.099874
v -2.433980 -0.153498 0.099874
v -2.433980 0.319315 0.099874
v -2.430653 0.317115 0.193784
v -2.430653 -0.146426 0.193784
v -2.982406 -0.153498 0.099874
v -2.982406 0.556399 0.099874
v -2.982406 0.319315 0.099874
v -2.982406 -1.178312 0.099874
v -2.982406 0.812446 0.099874
v -2.982406 0.549551 0.193783
v -2.982406 0.317115 0.193783
v -2.982406 -0.146426 0.193784
v -2.982406 0.812446 0.193783
v -2.982406 -1.178312 0.193784
v 0.807019 -0.153498 0.099874
v 0.807019 0.319315 0.099874
v 0.807019 0.556399 0.099874
v 0.807019 -1.178312 0.099874
v 0.807020 0.812446 0.099874
v 0.807020 0.549551 0.193784
v 0.807020 0.317115 0.193784
v 0.807020 -0.146426 0.193784
v 0.807020 0.812446 0.193784
v 0.807020 -1.178312 0.193784
v -3.047932 -0.153498 0.161585
v -2.433980 0.556399 0.099874
v -3.047932 0.319315 0.161585
v -3.047931 0.556399 0.161585
v 0.935297 -0.153498 0.137048
v 0.935297 0.556399 0.137048
v 0.935297 0.319315 0.137048
v -1.936309 0.556399 0.099874
v -2.433980 -1.178312 0.099874
v -2.433980 0.812446 0.099874
v -3.047932 -1.178312 0.161585
v -3.047931 0.812446 0.161584
v -1.936309 -1.178312 0.099874
v 0.935297 -1.178312 0.137049
v 0.935297 0.812446 0.137048
v -0.744213 0.812446 0.099874
v -1.385402 0.812446 0.099874
v -1.936309 0.812446 0.099874
v -1.386219 0.549551 0.193784
v -1.386219 0.317115 0.193784
v -1.386219 -0.146426 0.193784
v -1.386219 0.812446 0.193784
v -0.747565 0.812446 0.193784
v -1.386219 -1.178312 0.193784
v -1.929560 0.549551 0.193784
v -2.430653 0.549551 0.193784
v 0.837644 0.549551 0.213646
v -2.997565 0.549551 0.216183
v -1.929560 0.317115 0.193784
v -1.929560 -0.146426 0.193784
v -1.929560 0.812446 0.193784
v -2.430653 0.812446 0.193784
v -1.929560 -1.178312 0.193784
v -2.430653 -1.178312 0.193784
v 0.837644 -0.146426 0.213646
v 0.837644 0.317115 0.213646
v -2.997566 -0.146426 0.216183
v -2.997565 0.317115 0.216183
v 0.837644 0.812446 0.213646
v -2.997565 0.812446 0.216183
v 0.837644 -1.178312 0.213646
v -2.997566 -1.178312 0.216183
v -3.082254 1.778963 0.247368
v 1.008680 1.778963 0.247368
v 1.008680 0.812446 0.247368
v -3.082254 0.812446 0.247368
v -3.001073 1.748143 0.247368
v 0.868605 1.748143 0.247368
v -3.001073 0.812446 0.247368
v 0.868604 0.812446 0.247368
v 1.008680 0.812447 3.877099
v -3.082256 0.812447 3.877098
v 0.868604 0.812447 3.787028
v -3.047931 1.808670 0.161584
v 0.935297 1.808670 0.137049
v 0.935297 0.812446 0.137048
v -3.047931 0.812446 0.161584
v -2.997565 1.777268 0.216182
v 0.837644 1.777268 0.213646
v -2.997565 0.812446 0.216183
v -3.001075 0.812447 3.787027
v 0.837644 0.812446 0.213646
v -0.489179 -0.612569 3.158276
v -0.939510 -0.635199 2.705681
v -0.489179 -0.635199 2.705681
v -0.939511 -0.635199 3.158276
v -0.489179 -0.635199 3.158276
v -0.939510 -0.612569 2.705681
v -0.489179 -0.612569 2.705681
v -0.939511 -0.612569 3.158276
vt 0.562402 0.506863
vt 0.022250 0.506863
vt 0.022250 0.442159
vt 0.562402 0.442159
vt 0.022250 0.298123
vt 0.562402 0.298123
vt 0.527835 0.441494
vt 0.527835 0.297454
vt 0.325456 0.297454
vt 0.325456 0.441494
vt 0.239835 0.297454
vt 0.239835 0.441494
vt 0.527835 0.506200
vt 0.325456 0.506200
vt 0.562402 0.576004
vt 0.022250 0.576004
vt 0.022250 0.539307
vt 0.562402 0.539307
vt 0.325456 0.575343
vt 0.527835 0.575343
vt 0.527835 0.538646
vt 0.325456 0.538646
vt 0.239835 0.575343
vt 0.239835 0.538646
vt 0.239835 0.506200
vt 0.958248 0.312753
vt 0.980763 0.313278
vt 0.980769 0.370119
vt 0.958253 0.368480
vt 0.970072 0.339639
vt 0.947520 0.341160
vt 0.947829 0.284284
vt 0.970375 0.283878
vt 0.948444 0.170855
vt 0.970978 0.172674
vt 0.958237 0.201619
vt 0.980753 0.199922
vt 0.947521 -0.001121
vt 0.970032 -0.000355
vt 0.958221 0.028653
vt 0.980769 0.027898
vt 0.897584 0.171176
vt 0.918050 0.171354
vt 0.918050 0.310718
vt 0.897584 0.309989
vt 0.918028 0.251583
vt 0.900325 0.252061
vt 0.900325 0.149294
vt 0.918028 0.150831
vt 0.838005 0.029846
vt 0.855668 0.028309
vt 0.855668 0.131076
vt 0.838005 0.130598
vt 0.866933 0.055609
vt 0.884585 0.054795
vt 0.884591 0.187497
vt 0.866940 0.188928
vt 0.929611 0.148534
vt 0.911900 0.147103
vt 0.911900 0.014402
vt 0.929611 0.015214
vt 0.883173 0.261210
vt 0.862709 0.261688
vt 0.862709 0.158921
vt 0.883173 0.160458
vt 0.901628 0.056693
vt 0.922053 0.055156
vt 0.922053 0.157923
vt 0.901628 0.157445
vt 0.837095 0.101645
vt 0.857512 0.100922
vt 0.857512 0.209092
vt 0.837095 0.210559
vt 0.928925 0.259985
vt 0.908456 0.258519
vt 0.908456 0.150348
vt 0.928925 0.151072
vt 0.324912 0.539694
vt 0.239611 0.539694
vt 0.239611 0.506570
vt 0.324912 0.506570
vt 0.324912 0.575468
vt 0.239611 0.575468
vt 0.539533 0.539694
vt 0.539533 0.506570
vt 0.539533 0.575468
vt 0.003986 0.540263
vt 0.575022 0.540263
vt 0.575022 0.507170
vt 0.003986 0.507170
vt 0.003986 0.576004
vt 0.575022 0.576004
vt 0.539533 0.440511
vt 0.324912 0.440511
vt 0.324912 0.297329
vt 0.239611 0.440511
vt 0.239611 0.297329
vt 0.539533 0.297329
vt 0.003986 0.441172
vt 0.575022 0.441172
vt 0.575022 0.298123
vt 0.003986 0.298123
vt 0.746967 0.505241
vt 0.633767 0.505241
vt 0.633767 0.507020
vt 0.746967 0.507020
vt 0.746967 0.951624
vt 0.633767 0.951624
vt 0.633767 0.955217
vt 0.746967 0.955217
vt 0.751430 0.968407
vt 0.634096 0.968407
vt 0.634096 0.953299
vt 0.751430 0.953299
vt 0.751430 0.506984
vt 0.634096 0.506984
vt 0.634096 0.499266
vt 0.751430 0.499266
vt 0.383571 0.950130
vt 0.383570 0.631230
vt 0.381889 0.631230
vt 0.383255 0.628421
vt 0.381889 0.626403
vt 0.034939 0.950130
vt 0.040487 0.631230
vt 0.040487 0.626403
vt 0.034939 0.631230
vt 0.037728 0.628192
vt 0.383231 0.618170
vt 0.389130 0.623726
vt 0.392220 0.631448
vt 0.383231 0.631448
vt 0.392220 0.958209
vt 0.042094 0.618170
vt 0.042094 0.631448
vt 0.023940 0.958209
vt 0.030546 0.621517
vt 0.023940 0.631448
vt 0.028693 0.441503
vt 0.028693 0.297224
vt 0.033408 0.297224
vt 0.033408 0.441503
vt 0.528327 0.297224
vt 0.528327 0.441503
vt 0.028693 0.506316
vt 0.033408 0.506316
vt 0.528327 0.506316
vt 0.028693 0.538815
vt 0.033408 0.538815
vt 0.528327 0.538815
vt 0.028693 0.575573
vt 0.033408 0.575573
vt 0.528327 0.575573
vt 0.540832 0.575750
vt 0.540832 0.539904
vt 0.032673 0.539904
vt 0.032673 0.575750
vt 0.017229 0.539904
vt 0.017229 0.575750
vt 0.540832 0.506713
vt 0.032673 0.506713
vt 0.017229 0.506713
vt 0.540832 0.440519
vt 0.032673 0.440519
vt 0.017229 0.440519
vt 0.540832 0.297046
vt 0.032673 0.297046
vt 0.017229 0.297046
vt 0.033735 0.297454
vt 0.033735 0.441494
vt 0.029382 0.297454
vt 0.029382 0.441494
vt 0.033735 0.506200
vt 0.029382 0.506200
vt 0.029382 0.538646
vt 0.029381 0.575343
vt 0.033735 0.575343
vt 0.033735 0.538646
vt 0.032406 0.539694
vt 0.032406 0.506570
vt 0.020421 0.539694
vt 0.020421 0.506570
vt 0.032406 0.575468
vt 0.020421 0.575468
vt 0.032406 0.440511
vt 0.020421 0.440511
vt 0.032406 0.297329
vt 0.020421 0.297329
vt 0.741426 0.520258
vt 0.644376 0.520258
vt 0.644377 0.940025
vt 0.741426 0.940025
vt 0.737620 0.938401
vt 0.642838 0.938401
vt 0.642838 0.520243
vt 0.737620 0.520243
vt 0.913918 0.362649
vt 0.884086 0.364590
vt 0.884086 0.136057
vt 0.913918 0.134116
vt 0.917253 0.136057
vt 0.947084 0.134116
vt 0.947084 0.362650
vt 0.917253 0.364590
vt 0.887216 0.014169
vt 0.936481 0.011121
vt 0.936481 0.388372
vt 0.887216 0.391420
vt 0.883140 0.380787
vt 0.833876 0.383835
vt 0.833876 0.006584
vt 0.883140 0.003536
vt 0.922533 0.135132
vt 0.908322 0.135927
vt 0.908322 0.027189
vt 0.922533 0.026393
vt 0.888597 0.022370
vt 0.902808 0.021574
vt 0.902808 0.130313
vt 0.888597 0.131108
vt 0.977172 0.366851
vt 0.953181 0.366851
vt 0.953181 0.187755
vt 0.977172 0.187755
vt 0.965375 0.194004
vt 0.989367 0.194004
vt 0.989367 0.373101
vt 0.965375 0.373101
vt 0.737091 0.522119
vt 0.643284 0.522119
vt 0.643284 0.935980
vt 0.737091 0.935980
vt 0.740784 0.935980
vt 0.645100 0.935980
vt 0.645100 0.522119
vt 0.740784 0.522119
vt 0.576114 0.006499
vt 0.819892 0.006499
vt 0.819892 0.231582
vt 0.576115 0.231583
vt 0.583093 0.128784
vt 0.816385 0.128784
vt 0.812650 0.158770
vt 0.579359 0.158770
vt 0.577707 0.008921
vt 0.824547 0.008921
vt 0.820582 0.040645
vt 0.573741 0.040645
vt 0.817663 0.096616
vt 0.574465 0.096616
vt 0.578358 0.065357
vt 0.821556 0.065357
vt 0.817273 0.227274
vt 0.573440 0.227274
vt 0.577357 0.195937
vt 0.821190 0.195937
vt 0.819892 0.003878
vt 0.819892 0.228962
vt 0.576114 0.228962
vt 0.576115 0.003878
vt 0.897012 0.471087
vt 0.923470 0.475602
vt 0.923470 0.802392
vt 0.897012 0.797878
vt 0.994648 0.245829
vt 0.994648 0.582423
vt 0.967085 0.585210
vt 0.967085 0.248616
vt 0.897182 0.235382
vt 0.924423 0.240043
vt 0.924423 0.576533
vt 0.897182 0.571873
vt 0.867391 0.477750
vt 0.893839 0.475074
vt 0.893839 0.798054
vt 0.867391 0.800730
vt 0.865461 0.483464
vt 0.891909 0.480788
vt 0.891909 0.803768
vt 0.865461 0.806445
vt 0.861919 0.235382
vt 0.889160 0.240044
vt 0.889160 0.576533
vt 0.861919 0.571873
vt 0.926899 0.244652
vt 0.926898 0.581245
vt 0.899336 0.584033
vt 0.899336 0.247439
vt 0.902278 0.236769
vt 0.929684 0.241445
vt 0.929684 0.579961
vt 0.902278 0.575284
vt 0.862971 0.471087
vt 0.889428 0.475602
vt 0.889428 0.802392
vt 0.862971 0.797878
vt 0.891808 0.244652
vt 0.891807 0.581245
vt 0.864245 0.584033
vt 0.864245 0.247439
vt 0.938585 0.241810
vt 0.965826 0.246471
vt 0.965826 0.582962
vt 0.938585 0.578301
vt 0.899893 0.483464
vt 0.926341 0.480787
vt 0.926341 0.803768
vt 0.899893 0.806445
vt 0.934324 0.483464
vt 0.960772 0.480787
vt 0.960772 0.803768
vt 0.934324 0.806445
vt 0.970540 0.243709
vt 0.997781 0.248370
vt 0.997781 0.584860
vt 0.970540 0.580199
vt 0.930283 0.474658
vt 0.930283 0.799592
vt 0.903674 0.802283
vt 0.903674 0.477349
vt 0.936791 0.236769
vt 0.964198 0.241444
vt 0.964198 0.579961
vt 0.936791 0.575284
vt 0.830944 0.236768
vt 0.858351 0.241445
vt 0.858351 0.579961
vt 0.830944 0.575284
vt 0.896096 0.242870
vt 0.896096 0.579463
vt 0.868533 0.582250
vt 0.868533 0.245657
vt 0.969979 0.235702
vt 0.997220 0.240363
vt 0.997220 0.576853
vt 0.969979 0.572193
vt 0.968755 0.483464
vt 0.995203 0.480787
vt 0.995203 0.803768
vt 0.968755 0.806445
vt 0.865457 0.236768
vt 0.892864 0.241444
vt 0.892864 0.579961
vt 0.865458 0.575284
vt 0.896407 0.474658
vt 0.896407 0.799592
vt 0.869799 0.802283
vt 0.869799 0.477348
vt 0.937425 0.473747
vt 0.963722 0.478247
vt 0.963722 0.803082
vt 0.937425 0.798582
vt 0.901823 0.477750
vt 0.928271 0.475074
vt 0.928271 0.798054
vt 0.901823 0.800731
vt 0.832960 0.477750
vt 0.859408 0.475074
vt 0.859408 0.798054
vt 0.832960 0.800731
vt 0.931692 0.235382
vt 0.958933 0.240043
vt 0.958933 0.576533
vt 0.931692 0.571873
vt 0.991545 0.477514
vt 0.991545 0.802449
vt 0.964937 0.805140
vt 0.964937 0.480205
vt 0.970486 0.471087
vt 0.996943 0.475602
vt 0.996943 0.802392
vt 0.970486 0.797878
vt 0.857185 0.765165
vt 0.836863 0.761583
vt 0.836863 0.510371
vt 0.857184 0.513954
vt 0.972273 0.511574
vt 0.972272 0.267971
vt 0.992220 0.265948
vt 0.992220 0.509551
vt 0.919319 0.415817
vt 0.930482 0.415816
vt 0.930482 0.428570
vt 0.919319 0.428571
vt 0.966187 0.822846
vt 0.949753 0.826688
vt 0.939114 0.624992
vt 0.966187 0.450232
vt 0.983266 0.751009
vt 0.960627 0.747406
vt 0.960627 0.434280
vt 0.983378 0.471877
vt 0.877253 0.757355
vt 0.854615 0.753752
vt 0.854615 0.440628
vt 0.877366 0.478222
vt 0.940709 0.822845
vt 0.924275 0.826687
vt 0.913636 0.624992
vt 0.940709 0.450234
vt 0.857701 0.415817
vt 0.868864 0.415816
vt 0.868864 0.428570
vt 0.857701 0.428571
vt 0.875050 0.597516
vt 0.875050 0.353913
vt 0.894998 0.351891
vt 0.894998 0.595493
vt 0.855147 0.547689
vt 0.834096 0.543979
vt 0.834096 0.283753
vt 0.855147 0.287465
vt 0.885242 0.769031
vt 0.864921 0.765449
vt 0.864921 0.514237
vt 0.885242 0.517820
vt 0.901009 0.597516
vt 0.901009 0.353913
vt 0.920957 0.351891
vt 0.920957 0.595494
vt 0.853826 0.399816
vt 0.864989 0.399816
vt 0.864989 0.412570
vt 0.853826 0.412570
vt 0.915231 0.822845
vt 0.898797 0.826687
vt 0.888158 0.624992
vt 0.915232 0.450234
vt 0.932751 0.757354
vt 0.910113 0.753751
vt 0.910113 0.440628
vt 0.932864 0.478221
vt 0.957787 0.751009
vt 0.935149 0.747406
vt 0.935149 0.434280
vt 0.957900 0.471877
vt 0.970093 0.603435
vt 0.953069 0.607415
vt 0.942049 0.398482
vt 0.970093 0.217453
vt 0.851568 0.415816
vt 0.862731 0.415816
vt 0.862731 0.428570
vt 0.851568 0.428570
vt 0.875295 0.564826
vt 0.875295 0.321223
vt 0.895242 0.319200
vt 0.895242 0.562803
vt 0.883891 0.547690
vt 0.862841 0.543979
vt 0.862841 0.283753
vt 0.883891 0.287464
vt 0.902290 0.757355
vt 0.879651 0.753752
vt 0.879651 0.440628
vt 0.902402 0.478221
vt 0.943701 0.603434
vt 0.926677 0.607414
vt 0.915657 0.398482
vt 0.943701 0.217454
vt 0.845434 0.415816
vt 0.856597 0.415816
vt 0.856597 0.428570
vt 0.845434 0.428570
vt 0.968291 0.734167
vt 0.968291 0.499002
vt 0.987548 0.497049
vt 0.987548 0.732214
vt 0.912636 0.547690
vt 0.891585 0.543978
vt 0.891585 0.283753
vt 0.912636 0.287464
vt 0.936254 0.477750
vt 0.962702 0.475074
vt 0.962702 0.798054
vt 0.936254 0.800731
vt 0.934873 0.243709
vt 0.962113 0.248370
vt 0.962113 0.584860
vt 0.934873 0.580199
vt 0.931187 0.242870
vt 0.931187 0.579463
vt 0.903624 0.582250
vt 0.903624 0.245657
vt 0.931054 0.471087
vt 0.957511 0.475602
vt 0.957511 0.802392
vt 0.931054 0.797878
vt 0.873844 0.944968
vt 0.932671 0.944968
vt 0.932671 0.992029
vt 0.873844 0.992029
vt 0.941489 0.938560
vt 0.988550 0.938560
vt 0.988550 0.985621
vt 0.941489 0.985621
vt 0.870199 0.991735
vt 0.823138 0.991735
vt 0.823138 0.932908
vt 0.870199 0.932908
vt 0.997676 0.939958
vt 0.938849 0.939958
vt 0.938849 0.869366
vt 0.997676 0.869366
vt 0.941489 0.867968
vt 0.988550 0.867968
vt 0.873844 0.874376
vt 0.932671 0.874376
vt 0.813363 0.847491
vt 0.813363 0.988675
vt 0.766302 0.988675
vt 0.766302 0.847491
vt 0.814207 0.844961
vt 0.814207 0.986145
vt 0.755380 0.986145
vt 0.755380 0.844961
vt 0.818504 0.851622
vt 0.818504 0.992807
vt 0.759677 0.992807
vt 0.759677 0.851622
vt 0.822110 0.866755
vt 0.869171 0.866755
vt 0.869171 0.925582
vt 0.822110 0.925582
vt 0.997676 0.987019
vt 0.938849 0.987019
vt 0.557888 0.006849
vt 0.557888 0.150541
vt 0.480992 0.150541
vt 0.480992 0.006849
vt 0.567075 0.006849
vt 0.567075 0.150541
vt 0.557888 0.216835
vt 0.480992 0.216835
vt 0.567075 0.216835
vt 0.557888 0.250078
vt 0.557888 0.285979
vt 0.480992 0.285979
vt 0.480992 0.250078
vt 0.567075 0.250078
vt 0.567075 0.285979
vt 0.556391 0.216409
vt 0.556391 0.248945
vt 0.558513 0.248945
vt 0.558513 0.216409
vt 0.479158 0.216409
vt 0.479158 0.248945
vt 0.556391 0.285744
vt 0.558513 0.285744
vt 0.479158 0.285744
vt 0.556391 0.151524
vt 0.479158 0.151524
vt 0.558513 0.151524
vt 0.556391 0.007084
vt 0.479158 0.007084
vt 0.558513 0.007084
vt 0.026563 0.006849
vt 0.026563 0.150541
vt 0.008577 0.150541
vt 0.008577 0.006849
vt 0.244065 0.006849
vt 0.244065 0.150541
vt 0.026563 0.216835
vt 0.008577 0.216835
vt 0.244065 0.216835
vt 0.026563 0.285979
vt 0.026563 0.250078
vt 0.244065 0.250078
vt 0.244065 0.285979
vt 0.008577 0.285979
vt 0.008577 0.250078
vt 0.025959 0.216409
vt 0.025959 0.248945
vt 0.243565 0.248945
vt 0.243565 0.216409
vt 0.021672 0.216409
vt 0.021672 0.248945
vt 0.025958 0.285744
vt 0.243565 0.285744
vt 0.021672 0.285744
vt 0.025959 0.151524
vt 0.021672 0.151524
vt 0.243565 0.151524
vt 0.025958 0.007084
vt 0.021672 0.007084
vt 0.243565 0.007084
vt 0.411212 0.150541
vt 0.411212 0.006849
vt 0.411212 0.285979
vt 0.411212 0.250078
vt 0.411212 0.216835
vt 0.333968 0.150541
vt 0.333968 0.006849
vt 0.333968 0.216835
vt 0.333968 0.250078
vt 0.333968 0.285979
vt 0.332961 0.216409
vt 0.332961 0.248945
vt 0.409017 0.248945
vt 0.409017 0.216409
vt 0.332961 0.285744
vt 0.409017 0.285744
vt 0.409017 0.151524
vt 0.332961 0.151524
vt 0.409017 0.007084
vt 0.332961 0.007084
vt 0.524824 0.964062
vt 0.428641 0.964062
vt 0.428641 0.975041
vt 0.527780 0.975041
vt 0.428641 0.602853
vt 0.524635 0.963799
vt 0.428842 0.963799
vt 0.428842 0.604048
vt 0.527579 0.972301
vt 0.428842 0.972301
vt 0.522072 0.962861
vt 0.429491 0.962861
vt 0.429491 0.965946
vt 0.524954 0.965946
vt 0.429491 0.612636
vt 0.522222 0.963393
vt 0.429332 0.963393
vt 0.429332 0.612001
vt 0.525113 0.966741
vt 0.429332 0.966741
vt 0.934363 0.852372
vt 0.934669 0.848581
vt 0.905465 0.848581
vt 0.905159 0.852372
vt 0.905229 0.862573
vt 0.904925 0.866355
vt 0.934054 0.866355
vt 0.934359 0.862573
vt 0.900742 0.867129
vt 0.901047 0.863346
vt 0.871917 0.863346
vt 0.871612 0.867129
vt 0.822212 0.922890
vt 0.869038 0.922890
vt 0.869038 0.875829
vt 0.822212 0.875829
vt 0.872153 0.849354
vt 0.871847 0.853146
vt 0.901051 0.853146
vt 0.901357 0.849354
vt 0.823138 0.926564
vt 0.870199 0.926564
vt 0.870199 0.879738
vt 0.823138 0.879738
usemtl Cube.006_trade_cente_trade_center.jpg
s 1
f 11/1 15/2 16/3 12/4
f 4/5 1/6 12/4 16/3
f 263/7 264/8 23/9 28/10
f 28/10 23/9 24/11 281/12
f 260/13 263/7 28/10 30/14
f 6/15 8/16 34/17 32/18
f 32/18 34/17 15/2 11/1
f 26/19 262/20 261/21 35/22
f 35/22 261/21 260/13 30/14
f 25/23 26/19 35/22 36/24
f 36/24 35/22 30/14 283/25
f 302/26 41/27 42/28 303/29
f 40/30 44/31 43/32 39/33
f 39/33 43/32 45/34 38/35
f 301/36 46/37 41/27 302/26
f 38/35 45/34 47/38 37/39
f 300/40 48/41 46/37 301/36
f 299/42 298/43 297/44 296/45
f 29/46 52/47 51/48 27/49
f 294/50 53/51 54/52 293/53
f 292/54 295/55 285/56 282/57
f 280/58 287/59 289/60 290/61
f 277/62 64/63 63/64 278/65
f 21/66 65/67 66/68 22/69
f 271/70 272/71 279/72 276/73
f 275/74 274/75 273/76 270/77
f 77/78 76/79 284/80 291/81
f 56/82 57/83 76/79 77/78
f 79/84 77/78 291/81 78/85
f 55/86 56/82 77/78 79/84
f 81/87 307/88 304/89 80/90
f 69/91 308/92 307/88 81/87
f 83/93 78/85 291/81 288/94
f 61/95 288/94 286/96 60/97
f 288/94 61/95 62/98 83/93
f 86/99 305/100 306/101 70/102
f 80/90 304/89 305/100 86/99
f 20/103 18/104 88/105 90/106
f 317/107 87/108 17/109 19/110
f 84/111 68/112 92/113 325/114
f 94/115 91/116 67/117 85/118
f 321/119 320/120 95/121
f 95/121 320/120 319/122 318/123
f 316/124 321/119 95/121 96/125
f 96/125 95/121 318/123 89/126
f 316/124 96/125 315/127
f 315/127 96/125 89/126 314/128
f 326/129 327/130 328/131 97/132
f 97/132 328/131 329/133
f 93/134 326/129 97/132 98/135
f 98/135 97/132 329/133 324/136
f 322/137 93/134 98/135 323/138
f 323/138 98/135 324/136
f 14/139 3/140 99/141 101/142
f 101/142 99/141 269/143 268/144
f 13/145 14/139 101/142 102/146
f 102/146 101/142 268/144 265/147
f 33/148 13/145 102/146 103/149
f 103/149 102/146 265/147 266/150
f 7/151 33/148 103/149 100/152
f 100/152 103/149 266/150 267/153
f 313/154 312/155 106/156 104/157
f 104/157 106/156 72/158 49/159
f 312/155 309/160 107/161 106/156
f 106/156 107/161 71/162 72/158
f 309/160 310/163 108/164 107/161
f 107/161 108/164 73/165 71/162
f 310/163 311/166 105/167 108/164
f 108/164 105/167 50/168 73/165
f 281/12 24/11 109/169 111/170
f 111/170 109/169 2/171 10/172
f 283/25 281/12 111/170 112/173
f 112/173 111/170 10/172 9/174
f 31/175 5/176 110/177 113/178
f 113/178 110/177 25/23 36/24
f 9/174 31/175 113/178 112/173
f 112/173 113/178 36/24 283/25
f 284/80 76/79 117/179 116/180
f 116/180 117/179 74/181 75/182
f 76/79 57/83 114/183 117/179
f 117/179 114/183 58/184 74/181
f 286/96 284/80 116/180 118/185
f 118/185 116/180 75/182 82/186
f 60/97 286/96 118/185 115/187
f 115/187 118/185 82/186 59/188
f 94/115 120/189 119/190 91/116
f 92/113 121/191 122/192 325/114
f 317/107 124/193 123/194 87/108
f 88/105 125/195 126/196 90/106
f 325/114 122/192 120/189 94/115
f 91/116 119/190 121/191 92/113
f 90/106 126/196 124/193 317/107
f 87/108 123/194 125/195 88/105
f 347/197 127/198 359/199 349/200
f 351/201 130/202 129/203 353/204
f 331/205 131/206 343/207 333/208
f 335/209 133/210 134/211 337/212
f 348/213 128/214 357/215 350/216
f 352/217 355/218 361/219 346/220
f 332/221 132/222 341/223 334/224
f 336/225 339/226 345/227 330/228
f 356/229 358/230 360/231 354/232
f 340/233 342/234 344/235 338/236
f 137/237 136/238 135/239 138/240
f 369/241 367/242 139/243 140/244
f 366/245 365/246 142/247 373/248
f 364/249 363/250 141/251 375/252
f 362/253 368/254 371/255 377/256
f 374/257 376/258 370/259 372/260
f 143/261 144/262 145/263 146/264
f 147/265 150/266 149/267 148/268
f 378/269 382/270 383/271 379/272
f 384/273 380/274 381/275 385/276
f 154/277 158/278 155/279 151/280
f 157/281 153/282 152/283 156/284
f 387/285 386/286 388/287 389/288
f 391/289 393/290 392/291 390/292
f 159/293 160/294 161/295 162/296
f 163/297 166/298 165/299 164/300
f 394/301 398/302 399/303 395/304
f 400/305 396/306 397/307 401/308
f 170/309 174/310 171/311 167/312
f 173/313 169/314 168/315 172/316
f 403/317 402/318 404/319 405/320
f 407/321 409/322 408/323 406/324
f 175/325 176/326 177/327 178/328
f 179/329 182/330 181/331 180/332
f 410/333 414/334 415/335 411/336
f 416/337 412/338 413/339 417/340
f 183/341 184/342 185/343 186/344
f 187/345 190/346 189/347 188/348
f 418/349 422/350 423/351 419/352
f 424/353 420/354 421/355 425/356
f 194/357 198/358 195/359 191/360
f 197/361 193/362 192/363 196/364
f 427/365 426/366 428/367 429/368
f 431/369 433/370 432/371 430/372
f 199/373 200/374 201/375 202/376
f 203/377 206/378 205/379 204/380
f 437/381 440/382 441/383 435/384
f 434/385 443/386 444/387 445/388
f 439/389 436/390 438/391 442/392
f 210/393 456/394 211/395 207/396
f 213/397 209/398 208/399 212/400
f 214/401 446/402 449/403 453/404
f 447/405 448/406 451/407 450/408
f 455/409 452/410 454/411 457/412
f 215/413 216/414 217/415 218/416
f 219/417 222/418 221/419 220/420
f 461/421 464/422 465/423 459/424
f 458/425 467/426 468/427 469/428
f 463/429 460/430 462/431 466/432
f 226/433 480/434 227/435 223/436
f 229/437 225/438 224/439 228/440
f 230/441 470/442 473/443 477/444
f 471/445 472/446 475/447 474/448
f 479/449 476/450 478/451 481/452
f 234/453 492/454 235/455 231/456
f 237/457 233/458 232/459 236/460
f 238/461 482/462 485/463 489/464
f 483/465 484/466 487/467 486/468
f 491/469 488/470 490/471 493/472
f 242/473 246/474 243/475 239/476
f 245/477 241/478 240/479 244/480
f 495/481 494/482 496/483 497/484
f 499/485 501/486 500/487 498/488
f 247/489 250/490 502/491 503/492
f 250/493 255/494 504/495 502/496
f 502/497 504/498 253/499 503/500
f 254/501 255/502 505/503 256/504
f 255/494 250/493 257/505 505/506
f 250/490 247/489 258/507 257/508
f 259/509 252/510 251/511 506/512
f 506/513 251/514 248/515 508/516
f 507/517 249/518 252/519 259/520
f 508/521 507/522 259/523 506/524
f 253/525 504/526 255/502 254/501
f 530/527 527/528 523/529 555/530
f 557/531 547/532 527/528 530/527
f 527/528 529/533 524/534 523/529
f 547/532 549/535 529/533 527/528
f 528/536 531/537 556/538 548/539
f 550/540 558/541 531/537 528/536
f 529/533 528/536 548/539 524/534
f 549/535 550/540 528/536 529/533
f 533/542 532/543 574/544 584/545
f 525/546 572/547 532/543 533/542
f 532/543 535/548 586/549 574/544
f 572/547 578/550 535/548 532/543
f 533/542 534/551 526/552 525/546
f 584/545 583/553 534/551 533/542
f 534/551 536/554 580/555 526/552
f 583/553 588/556 536/554 534/551
f 540/557 537/558 551/559 560/560
f 513/561 514/562 537/558 540/557
f 537/558 538/563 553/564 551/559
f 514/562 515/565 538/563 537/558
f 541/566 539/567 516/568 562/569
f 561/570 552/571 539/567 541/566
f 539/567 538/563 515/565 516/568
f 552/571 553/564 538/563 539/567
f 543/572 542/573 520/574 519/575
f 582/576 573/577 542/573 543/572
f 542/573 545/578 569/579 520/574
f 573/577 585/580 545/578 542/573
f 543/572 544/581 581/582 582/576
f 519/575 518/583 544/581 543/572
f 544/581 546/584 587/585 581/582
f 518/583 517/586 546/584 544/581
f 555/530 523/529 522/587 559/588
f 556/538 564/589 554/590 548/539
f 548/539 554/590 521/591 524/534
f 559/588 522/587 510/592 509/593
f 522/587 521/591 511/594 510/592
f 562/569 516/568 512/595 563/596
f 563/596 512/595 554/590 564/589
f 512/595 511/594 521/591 554/590
f 566/597 565/598 571/599 575/600
f 565/598 568/601 577/602 571/599
f 520/574 569/579 568/601 565/598
f 575/600 576/603 567/604 566/597
f 576/603 579/605 570/606 567/604
f 571/599 572/547 525/546 575/600
f 577/602 578/550 572/547 571/599
f 526/552 580/555 579/605 576/603
f 590/607 591/608 602/609 601/610
f 597/611 591/608 590/607
f 589/612 592/613 598/614
f 600/615 603/616 592/613 589/612
f 593/617 595/618 606/619 604/620
f 607/621 595/618 593/617
f 594/622 596/623 599/624
f 605/625 608/626 596/623 594/622
f 609/627 613/628 611/629 615/630
f 615/631 611/632 610/633 614/634
f 616/635 612/636 613/637 609/638
f 613/639 612/640 610/641 611/642
f 614/643 610/644 612/645 616/646
f 614/647 616/648 609/649 615/650
