# Blender3D v249 OBJ File: guard_tower_pos.blend
# www.blender3d.org
mtllib guard_tower_pos.mtl
v -3.003981 -1.002437 4.000000
v -3.003981 -1.002437 0.000000
v 0.996019 -1.002437 0.000000
v 0.996019 -1.002437 4.000000
v -3.003982 -0.942437 3.999999
v -3.003980 -0.942437 -0.000001
v 0.996020 -0.942437 0.000001
v 0.996019 -0.942437 4.000000
v -0.570427 -0.982437 3.487036
v -0.584004 -0.982437 3.436432
v -0.546911 -0.982437 3.399387
v -0.496240 -0.982437 3.412946
v -0.482663 -0.982437 3.463551
v -0.519756 -0.982437 3.500596
v -0.570427 3.123606 3.696804
v -0.584004 3.126191 3.646199
v -0.546911 3.128084 3.609154
v -0.496240 3.127391 3.622714
v -0.482663 3.124805 3.673318
v -0.519756 3.122913 3.710363
v -1.463219 3.122913 3.710363
v -1.426126 3.124805 3.673318
v -1.439703 3.127391 3.622714
v -1.490373 3.128084 3.609154
v -1.527467 3.126191 3.646199
v -1.513890 3.123606 3.696804
v -1.463219 -0.982437 3.500596
v -1.426126 -0.982437 3.463551
v -1.439703 -0.982437 3.412946
v -1.490373 -0.982437 3.399387
v -1.527467 -0.982437 3.436432
v -1.513890 -0.982437 3.487036
v -0.524360 -0.377244 3.490205
v -0.522449 -0.382519 3.465107
v -0.521149 -0.363330 3.448012
v -0.521758 -0.338867 3.456015
v -0.523668 -0.333591 3.481113
v -0.524969 -0.352780 3.498208
v -1.474771 -0.382959 3.520977
v -1.473454 -0.388235 3.495834
v -1.472588 -0.369046 3.478706
v -1.473038 -0.344583 3.486721
v -1.474355 -0.339307 3.511864
v -1.475222 -0.358496 3.528992
v -1.477736 0.237584 3.562035
v -1.476869 0.256772 3.544907
v -1.475552 0.251497 3.519764
v -1.475102 0.227034 3.511749
v -1.475969 0.207845 3.528877
v -1.477286 0.213120 3.554020
v -0.527483 0.243299 3.531251
v -0.526182 0.262488 3.514156
v -0.524272 0.257212 3.489058
v -0.523663 0.232749 3.481055
v -0.524964 0.213561 3.498150
v -0.526874 0.218836 3.523248
v -0.529389 0.814916 3.556292
v -0.527479 0.809640 3.531194
v -0.526178 0.828829 3.514098
v -0.526787 0.853292 3.522101
v -0.528697 0.858567 3.547199
v -0.529998 0.839379 3.564294
v -1.479801 0.809200 3.587063
v -1.478484 0.803925 3.561921
v -1.477617 0.823113 3.544792
v -1.478067 0.847576 3.552807
v -1.479384 0.852852 3.577950
v -1.480251 0.833663 3.595078
v -1.482766 1.429743 3.628122
v -1.481899 1.448931 3.610993
v -1.480582 1.443656 3.585850
v -1.480132 1.419193 3.577836
v -1.480999 1.400005 3.594964
v -1.482316 1.405280 3.620107
v -0.532513 1.435459 3.597337
v -0.531212 1.454647 3.580242
v -0.529302 1.449372 3.555144
v -0.528693 1.424908 3.547142
v -0.529994 1.405720 3.564237
v -0.531904 1.410995 3.589334
v -0.534418 2.007075 3.622378
v -0.532508 2.001800 3.597280
v -0.531207 2.020988 3.580185
v -0.531816 2.045451 3.588187
v -0.533726 2.050726 3.613285
v -0.535027 2.031538 3.630380
v -1.484830 2.001360 3.653150
v -1.483513 1.996084 3.628007
v -1.482646 2.015273 3.610879
v -1.483096 2.039736 3.618894
v -1.484414 2.045011 3.644037
v -1.485281 2.025823 3.661165
v -1.487795 2.621902 3.694208
v -1.486928 2.641091 3.677080
v -1.485611 2.635816 3.651937
v -1.485161 2.611352 3.643922
v -1.486028 2.592164 3.661050
v -1.487345 2.597439 3.686193
v -0.537542 2.627618 3.663424
v -0.536241 2.646806 3.646328
v -0.534331 2.641531 3.621231
v -0.533722 2.617068 3.613228
v -0.535023 2.597879 3.630323
v -0.536933 2.603155 3.655421
v -2.807453 4.203807 3.803473
v -2.961694 4.203807 2.810911
v -2.961694 4.203807 1.189088
v -2.807454 4.203807 0.196527
v -1.814892 4.203807 0.042287
v -0.193070 4.203807 0.042286
v 0.799491 4.203807 0.196527
v 0.953732 4.203807 1.189088
v 0.953732 4.203807 2.810911
v 0.799491 4.203807 3.803473
v -0.193070 4.203807 3.957714
v -1.814893 4.203807 3.957713
v -1.132884 4.986960 2.128903
v -1.172400 4.986960 2.069762
v -1.172400 4.986960 1.930238
v -1.132884 4.986960 1.871097
v -1.073742 4.986960 1.831580
v -0.934219 4.986960 1.831580
v -0.875078 4.986960 1.871097
v -0.835561 4.986960 1.930238
v -0.835561 4.986960 2.069762
v -0.875078 4.986960 2.128903
v -0.934219 4.986960 2.168420
v -1.073743 4.986960 2.168419
v 0.008015 4.504059 1.001369
v 0.495154 2.943275 0.507081
v 0.654354 2.943275 0.507081
v 0.100456 4.450688 1.001369
v 0.008015 4.504059 0.894628
v 0.495154 2.943275 0.347881
v 0.654354 2.943275 0.347881
v 0.100456 4.450688 0.894628
v -2.017842 4.510070 0.894628
v -2.504980 2.943275 0.347881
v -2.664180 2.943275 0.347881
v -2.110283 4.456699 0.894628
v -2.017842 4.510070 1.001370
v -2.504980 2.943275 0.507081
v -2.664180 2.943275 0.507081
v -2.110283 4.456699 1.001370
v -2.110282 4.456699 3.119668
v -2.664180 2.943275 3.666415
v -2.504980 2.943275 3.666415
v -2.017841 4.510070 3.119668
v -2.110282 4.456699 3.012926
v -2.664180 2.943275 3.507215
v -2.504980 2.943275 3.507215
v -2.017841 4.510070 3.012926
v 0.100456 4.450688 3.012926
v 0.654354 2.943275 3.507215
v 0.495154 2.943275 3.507215
v 0.008015 4.504059 3.012926
v 0.100456 4.450688 3.119668
v 0.654354 2.943275 3.666415
v 0.495154 2.943275 3.666415
v 0.008015 4.504059 3.119668
v -0.315222 4.203807 3.662812
v -1.692741 4.203807 3.662811
v -2.666792 4.203807 2.688759
v -2.666792 4.203807 1.311241
v -1.692740 4.203807 0.337188
v -0.315222 4.203807 0.337188
v 0.658831 4.203807 1.311240
v 0.658831 4.203807 2.688759
v -2.535786 4.203807 3.531805
v 0.527824 4.203807 3.531806
v 0.527824 4.203807 0.468194
v -2.535786 4.203807 0.468195
v -0.894495 4.947798 1.890514
v -0.944728 4.947798 1.856950
v -1.063234 4.947798 1.856950
v -1.113466 4.947798 1.890514
v -0.860931 4.947798 1.940747
v -1.147030 4.947798 1.940747
v -0.860931 4.947798 2.059253
v -1.147030 4.947798 2.059253
v -0.894495 4.947798 2.109485
v -1.113466 4.947798 2.109485
v -0.944728 4.947798 2.143049
v -1.063234 4.947798 2.143049
v -2.692552 -0.982437 3.688571
v -2.993981 -0.982437 2.000000
v -2.692552 -0.982437 0.311429
v -0.993531 -0.982437 0.008345
v 0.686781 -0.982437 0.321143
v 0.986019 -0.982437 2.000000
v 0.684591 -0.982437 3.688571
v -1.003980 -0.982437 3.990000
v -2.993981 2.997563 2.000000
v -2.692552 2.997563 0.311429
v 0.986019 2.997563 2.000000
v 0.684591 2.997563 3.688570
v -1.003980 2.997563 3.990000
v -2.692552 1.010008 3.688571
v -2.993981 0.406283 2.000000
v -2.692552 1.007563 0.311429
v -1.009651 1.007516 0.010898
v 0.695117 1.006652 0.358115
v 0.986019 0.406283 2.000000
v 0.684591 1.010008 3.688570
v -1.003980 1.554608 3.990000
v -2.692552 -0.319103 3.688571
v -2.692552 0.344230 3.688571
v -2.993981 -0.389717 2.000000
v -2.692552 -0.319103 0.311429
v -2.692552 0.344230 0.311429
v -0.998905 -0.319061 0.009196
v -1.004278 0.344228 0.010047
v 0.689560 -0.319534 0.333467
v 0.692339 0.343559 0.345791
v 0.986019 -0.389717 2.000000
v 0.684591 -0.319103 3.688570
v 0.684591 0.344230 3.688570
v -1.003980 -0.319103 3.990000
v -1.003980 0.344230 3.990000
v -2.692552 2.334230 3.688571
v -2.692552 1.894135 3.688571
v -2.993981 2.342817 2.000000
v -2.692552 2.334230 0.311429
v -2.692552 1.670897 0.311429
v -1.003981 2.334230 0.010000
v -1.003981 1.670897 0.010000
v 0.684590 2.334230 0.311429
v 0.684590 1.670897 0.311429
v 0.986019 2.342817 2.000000
v 0.684591 2.334230 3.688570
v 0.684591 1.891796 3.688570
v -1.003980 2.334230 3.990000
v -2.976697 0.406283 2.088058
v -2.973699 0.406283 1.908128
v 0.965738 0.406283 1.908128
v 0.968735 0.406283 2.088057
v -2.976697 -0.389717 2.088058
v -2.976697 0.008283 2.088058
v -2.978792 -0.389717 1.908128
v -2.976246 0.008283 1.908128
v 0.970831 -0.389717 1.908128
v 0.968284 0.008283 1.908128
v 0.968735 -0.389717 2.088057
v 0.968735 0.008283 2.088057
v -2.993981 1.552606 2.000000
v 0.986019 1.552606 2.000000
v -2.974032 1.894135 2.088058
v -2.973034 2.342817 2.088058
v -2.972887 1.894135 1.908128
v -2.971911 2.342817 1.908128
v 0.964925 1.891796 1.908127
v 0.963949 2.342817 1.908127
v 0.966070 1.891796 2.088057
v 0.965073 2.342817 2.088057
v -2.983489 1.552606 2.088058
v -2.981709 1.552606 1.908128
v 0.975527 1.552606 2.088057
v 0.973748 1.552606 1.908128
v -1.550173 2.997563 3.708838
v -0.457788 2.997563 3.708838
v 0.671324 3.294291 3.675304
v 0.970385 3.294291 2.000000
v 0.671324 3.294291 0.324695
v -1.003981 3.294291 0.025635
v -2.679286 3.294291 0.324695
v 0.597653 3.294291 3.607682
v 0.877274 3.294291 2.074978
v 0.597653 3.294291 0.473345
v -2.605614 3.294291 0.473345
v -2.885236 3.294291 2.074978
v -2.605614 3.294291 3.607682
v -2.885236 2.946281 2.074978
v -2.605614 2.946281 3.607682
v -2.605614 2.946281 0.473345
v -1.003981 2.946281 0.193723
v 0.597653 2.946281 0.473345
v 0.877274 2.946281 2.074978
v 0.597653 2.946281 3.607682
v -1.003980 2.946281 3.887304
v -2.978346 2.946281 2.000000
v -2.679285 2.946281 3.675305
v -2.679286 2.946281 0.324695
v -1.003981 2.946281 0.025635
v 0.671324 2.946281 0.324695
v 0.970385 2.946281 2.000000
v 0.671324 2.946281 3.675304
v -1.003980 2.946281 3.974365
v 0.727250 1.891796 1.950899
v 0.718129 1.552958 1.954195
v 0.716489 1.552912 2.043529
v 0.723768 1.891796 2.043543
v -2.730572 1.894135 2.043536
v -2.727234 1.732666 2.041693
v -2.723441 1.552938 2.043467
v -2.724132 1.553219 1.954730
v -2.726596 1.733577 1.953929
v -2.728942 1.894135 1.952297
v 0.707433 1.553505 2.002635
v -2.715394 1.553505 2.002635
v 0.732920 2.342275 2.039622
v 0.739252 2.341840 1.954391
v -2.735706 2.342608 1.956706
v -2.739571 2.342317 2.039638
v 0.707419 2.342817 2.000309
v -2.715381 2.342817 2.000309
v 0.693722 0.406706 2.040734
v 0.686005 0.008453 2.038271
v 0.678327 -0.389503 2.035543
v 0.687995 0.406723 1.957450
v 0.677627 0.008061 1.959300
v 0.667199 -0.389066 1.960509
v -2.707869 0.406509 1.955690
v -2.702306 0.007619 1.956675
v -2.696672 -0.389736 1.957020
v -2.701138 0.406717 2.040659
v -2.693589 0.008457 2.038182
v -2.686081 -0.389505 2.035440
v 0.707451 -0.389717 1.995825
v -2.715412 -0.389717 1.995825
v 0.707433 0.407182 2.002635
v -2.715394 0.407182 2.002636
v 0.460974 1.006646 0.413011
v 0.441741 0.342097 0.403703
v 0.422506 -0.320085 0.393979
v 0.403271 -0.982437 0.384254
v -0.966267 1.007739 0.284755
v -0.960692 0.344183 0.285163
v -0.955318 -0.319106 0.284312
v -0.949945 -0.982437 0.283460
v -2.480184 -0.982437 0.510682
v -1.003934 2.837597 0.164615
v -2.530455 2.831040 0.478229
v 0.510858 2.333897 0.504496
v -2.526608 2.334077 0.503695
v 0.493557 1.670897 0.507317
v -2.503430 1.006763 0.474535
v -2.517317 1.670897 0.505127
v -2.489468 -0.319134 0.509307
v -2.498736 0.343781 0.507825
v -0.996376 2.318727 3.886062
v -0.995897 1.549479 3.836262
v -1.003981 2.334230 0.288600
v -1.003981 1.670897 0.288600
v -1.003980 2.997564 0.010000
v -1.089416 1.670897 0.025251
v -1.084733 2.334230 0.024415
v -0.903241 1.670897 0.027983
v -1.081182 2.837265 0.180485
v -0.914430 2.334210 0.301363
v -0.903241 1.670897 0.303313
v -1.084733 2.334222 0.300008
v -1.089416 1.670897 0.300824
v -0.914430 2.334230 0.025986
v -0.902162 1.554608 3.971824
v -1.086776 1.554608 3.975220
v -0.912197 1.891796 3.973616
v -0.923448 2.334230 3.975624
v -1.085635 1.894135 3.975423
v -1.084355 2.334230 3.975652
v -1.084402 2.319181 3.869251
v -1.085646 1.894135 3.843993
v -1.086792 1.549667 3.819245
v -0.923030 2.318931 3.873684
v -0.912098 1.891796 3.844871
v -0.902025 1.549590 3.820332
v -0.922913 2.837145 0.181288
v 0.520696 2.829085 0.478374
v -0.457788 2.997563 2.616454
v -1.550173 2.997563 2.616454
v 0.684590 2.997563 0.311429
v -2.692552 2.997563 3.688571
v -1.003980 3.294291 3.887304
v -2.679285 3.294291 3.675305
v -2.978346 3.294291 2.000000
v -1.003980 3.294291 3.974365
v -1.003981 3.294291 0.193723
v -1.550173 2.997563 2.616454
v -0.457788 2.997563 2.616454
v -1.550135 2.779013 2.617897
v -0.457750 2.778314 2.617879
v -0.457767 2.752087 3.709634
v 0.520696 2.829085 0.478374
v 0.536231 2.753345 3.630820
v -0.922913 2.837145 0.181288
v -0.902025 1.549590 3.820332
v -0.912098 1.891796 3.844871
v -0.923030 2.318931 3.873684
v -1.086792 1.549667 3.819245
v -1.085646 1.894135 3.843993
v -1.084402 2.319181 3.869251
v -1.081182 2.837265 0.180485
v -1.004892 -0.322029 3.784304
v -1.000395 0.340203 3.810283
v -0.995897 1.549479 3.836262
v -0.996376 2.318727 3.886062
v -2.502362 0.343199 3.518180
v -2.498736 0.343781 0.507825
v 0.498253 0.341939 3.545112
v -2.492582 -0.319224 3.493301
v -2.489468 -0.319134 0.509307
v 0.488506 -0.320240 3.517114
v -2.517317 1.670897 0.505127
v -2.503430 1.006763 0.474535
v -2.521933 1.894135 3.567894
v -2.510861 1.008006 3.552639
v 0.517741 1.891796 3.601072
v 0.506955 1.006652 3.581231
v 0.493557 1.670897 0.507317
v -2.531623 2.326629 3.592858
v -2.526608 2.334077 0.503695
v 0.510858 2.333897 0.504496
v 0.527411 2.322962 3.628900
v -1.008685 2.759789 3.900381
v -2.540772 2.756267 3.591112
v -2.749852 2.794616 2.000326
v -2.530455 2.831040 0.478229
v 0.760462 2.792432 1.997752
v -1.003934 2.837597 0.164615
v -2.693140 -0.982437 1.991354
v -2.480184 -0.982437 0.510682
v 0.656906 -0.982437 1.995724
v 0.478758 -0.982437 3.489118
v -1.009390 -0.982437 3.758326
v -2.482801 -0.982437 3.468422
v 0.403271 -0.982437 0.384254
v 0.422506 -0.320085 0.393979
v 0.441741 0.342097 0.403703
v 0.460974 1.006646 0.413011
v -2.715394 0.407182 2.002636
v 0.707433 0.407182 2.002635
v -2.715412 -0.389717 1.995825
v 0.707451 -0.389717 1.995825
v -2.686081 -0.389505 2.035440
v -2.693589 0.008457 2.038182
v -2.701138 0.406717 2.040659
v -2.696672 -0.389736 1.957020
v -2.702306 0.007619 1.956675
v -2.707869 0.406509 1.955690
v 0.667199 -0.389066 1.960509
v 0.677627 0.008061 1.959300
v 0.687995 0.406723 1.957450
v 0.678327 -0.389503 2.035543
v 0.686005 0.008453 2.038271
v 0.693722 0.406706 2.040734
v -2.715381 2.342817 2.000309
v 0.707419 2.342817 2.000309
v -2.739571 2.342317 2.039638
v -2.735706 2.342608 1.956706
v 0.739252 2.341840 1.954391
v 0.732920 2.342275 2.039622
v -2.715394 1.553505 2.002635
v 0.707433 1.553505 2.002635
v -2.728942 1.894135 1.952297
v -2.726596 1.733577 1.953929
v -2.724132 1.553219 1.954730
v -2.723441 1.552938 2.043467
v -2.727234 1.732666 2.041693
v -2.730572 1.894135 2.043536
v 0.723768 1.891796 2.043543
v 0.716489 1.552912 2.043529
v 0.718129 1.552958 1.954195
v 0.727250 1.891796 1.950899
v -1.550151 2.752786 3.709651
v -0.457788 2.997563 3.708838
v -1.550173 2.997563 3.708838
v 0.597826 1.218491 3.601807
v 0.597827 1.218491 0.398193
v -2.605787 1.218491 0.398192
v -2.605789 1.218491 3.601806
v 0.597826 1.161053 3.601808
v 0.597826 1.161053 0.398193
v -2.605788 1.161053 0.398193
v -2.605788 1.161053 3.601807
v -1.003980 1.218491 0.085431
v -1.003981 1.161053 0.085431
v 0.910589 1.218491 2.000000
v -2.918550 1.218491 1.999999
v 0.910588 1.161053 2.000000
v -2.918550 1.161053 2.000000
v -1.003981 1.218491 2.000000
v -1.003981 1.161053 2.000000
v -0.467376 1.218491 3.809793
v -1.548596 1.218491 3.808229
v -0.467376 1.161053 3.809794
v -1.548595 1.161053 3.808230
v -1.003980 1.218491 1.042715
v -1.003981 1.161053 1.042716
v -1.552832 1.218491 1.999999
v -0.456848 1.218491 2.000000
v -1.552832 1.161053 2.000000
v -0.456848 1.161053 2.000000
v -1.329457 1.218491 1.368192
v -0.683290 1.218491 1.363406
v -1.329458 1.161053 1.368192
v -0.683291 1.161053 1.363406
v 0.810505 1.218491 2.621525
v -2.818466 1.218491 2.621525
v 0.810504 1.161053 2.621525
v -2.818466 1.161053 2.621525
v -1.003981 1.218491 2.621525
v -1.003981 1.161053 2.621525
v -1.551476 1.218491 2.621525
v -0.460217 1.218491 2.621525
v -1.551476 1.161053 2.621525
v -0.460217 1.161053 2.621525
v -1.007986 1.218491 3.886215
v -1.007985 1.161053 3.886216
v -0.460217 1.161053 2.621525
v -1.551476 1.161053 2.621525
v -0.460217 1.218491 2.621525
v -1.551476 1.218491 2.621525
v -1.003981 1.161053 2.621525
v -1.003981 1.218491 2.621525
v -1.548595 1.161053 3.808230
v -0.467376 1.161053 3.809794
v -1.548596 1.218491 3.808229
v -0.467376 1.218491 3.809793
vt 0.257091 0.002424
vt 0.507437 0.002145
vt 0.507725 0.244575
vt 0.257380 0.244854
vt 0.255918 0.002485
vt 0.255567 0.244914
vt 0.005221 0.244574
vt 0.005571 0.002146
vt 0.252724 0.489614
vt 0.256479 0.489625
vt 0.255736 0.732053
vt 0.251981 0.732042
vt 0.944305 0.234652
vt 0.948060 0.234663
vt 0.947374 0.477089
vt 0.943619 0.477077
vt 0.252739 0.246048
vt 0.256494 0.246059
vt 0.255736 0.488487
vt 0.251981 0.488476
vt 0.030916 0.492576
vt 0.027160 0.492565
vt 0.027913 0.250145
vt 0.031669 0.250156
vt 0.190387 0.985462
vt 0.177064 0.985329
vt 0.178266 0.788733
vt 0.191625 0.788742
vt 0.228460 0.985902
vt 0.211410 0.985866
vt 0.220831 0.789385
vt 0.230760 0.789331
vt 0.244009 0.789359
vt 0.241710 0.985898
vt 0.154682 0.780987
vt 0.155937 0.977850
vt 0.142583 0.977848
vt 0.141364 0.781109
vt 0.093970 0.789539
vt 0.103839 0.789542
vt 0.106427 0.985639
vt 0.096556 0.985546
vt 0.083296 0.985590
vt 0.080708 0.789550
vt 0.068535 0.789822
vt 0.071122 0.985829
vt 0.057861 0.985872
vt 0.055274 0.789832
vt 0.078405 0.789824
vt 0.080993 0.985921
vt 0.172310 0.780103
vt 0.173565 0.976964
vt 0.160211 0.976962
vt 0.158992 0.780225
vt 0.257380 0.988236
vt 0.259716 0.788564
vt 0.273174 0.788593
vt 0.270838 0.988231
vt 0.241731 0.988095
vt 0.249631 0.788619
vt 0.207663 0.986246
vt 0.194340 0.986114
vt 0.195542 0.789516
vt 0.208901 0.789525
vt 0.019079 0.970708
vt 0.013966 0.970513
vt 0.014005 0.902358
vt 0.019131 0.902511
vt 0.046358 0.881873
vt 0.040177 0.881770
vt 0.040294 0.825114
vt 0.046475 0.825192
vt 0.054534 0.825165
vt 0.054417 0.881837
vt 0.040633 0.970156
vt 0.040617 0.903708
vt 0.045616 0.903559
vt 0.045619 0.969966
vt 0.007509 0.749318
vt 0.011827 0.749190
vt 0.011835 0.823919
vt 0.007516 0.824014
vt 0.002038 0.823983
vt 0.002030 0.749274
vt 0.032764 0.750278
vt 0.032771 0.824975
vt 0.027293 0.824943
vt 0.027285 0.750234
vt 0.037082 0.750149
vt 0.037090 0.824880
vt 0.027354 0.969677
vt 0.027338 0.903229
vt 0.032337 0.903080
vt 0.032340 0.969487
vt 0.117675 0.944127
vt 0.117785 0.890982
vt 0.125340 0.890957
vt 0.125230 0.944093
vt 0.111879 0.944030
vt 0.111988 0.890909
vt 0.134214 0.828650
vt 0.127074 0.828509
vt 0.127129 0.779127
vt 0.134287 0.779238
vt 0.135924 0.885110
vt 0.128784 0.884969
vt 0.128838 0.835587
vt 0.135997 0.835698
vt 0.045170 0.821038
vt 0.038873 0.820933
vt 0.038991 0.763209
vt 0.045289 0.763288
vt 0.053500 0.763261
vt 0.053381 0.821001
vt 0.007768 0.970438
vt 0.007752 0.902260
vt 0.012881 0.902107
vt 0.012884 0.970243
vt 0.031530 0.826198
vt 0.035784 0.826071
vt 0.035792 0.899680
vt 0.031537 0.899774
vt 0.026141 0.899743
vt 0.026134 0.826155
vt 0.008560 0.826399
vt 0.008567 0.899976
vt 0.003171 0.899944
vt 0.003164 0.826356
vt 0.012814 0.826272
vt 0.012822 0.899882
vt 0.047568 0.970304
vt 0.047552 0.903857
vt 0.052551 0.903708
vt 0.052554 0.970114
vt 0.118529 0.886007
vt 0.118640 0.832862
vt 0.126195 0.832837
vt 0.126085 0.885973
vt 0.112734 0.885910
vt 0.112843 0.832790
vt 0.135924 1.000594
vt 0.128784 1.000453
vt 0.128839 0.951072
vt 0.135997 0.951183
vt 0.006695 0.970929
vt 0.001582 0.970733
vt 0.001621 0.902579
vt 0.006747 0.902732
vt 0.117675 0.828742
vt 0.111879 0.828645
vt 0.111988 0.775525
vt 0.117785 0.775597
vt 0.125340 0.775572
vt 0.125231 0.828708
vt 0.034016 0.970016
vt 0.034001 0.903568
vt 0.039000 0.903419
vt 0.039002 0.969826
vt 0.020547 0.748963
vt 0.024866 0.748834
vt 0.024874 0.823565
vt 0.020555 0.823660
vt 0.015077 0.823629
vt 0.015069 0.748919
vt 0.020494 0.825887
vt 0.020501 0.899464
vt 0.015105 0.899432
vt 0.015098 0.825843
vt 0.024748 0.825760
vt 0.024756 0.899370
vt 0.020632 0.970752
vt 0.020616 0.902574
vt 0.025745 0.902421
vt 0.025748 0.970557
vt 0.117675 1.001474
vt 0.117784 0.948329
vt 0.125340 0.948304
vt 0.125231 1.001440
vt 0.111879 1.001377
vt 0.111989 0.948256
vt 0.135924 0.944134
vt 0.128784 0.943993
vt 0.128839 0.894612
vt 0.135997 0.894723
vt 0.024657 0.992680
vt 0.013602 0.998836
vt 0.002555 0.992636
vt 0.002564 0.980278
vt 0.024667 0.980322
vt 0.013620 0.974122
vt 0.027484 0.979203
vt 0.054071 0.994128
vt 0.040767 1.001536
vt 0.027473 0.994074
vt 0.040789 0.971794
vt 0.054083 0.979256
vt 0.481002 0.744652
vt 0.591926 0.851586
vt 0.595828 0.849055
vt 0.546522 0.734718
vt 0.653598 0.734598
vt 0.605040 0.849045
vt 0.608947 0.851567
vt 0.719141 0.744387
vt 0.611561 0.855345
vt 0.729400 0.807834
vt 0.729523 0.911525
vt 0.611571 0.864265
vt 0.608967 0.868049
vt 0.719415 0.974995
vt 0.605065 0.870580
vt 0.653896 0.984930
vt 0.546820 0.985049
vt 0.595854 0.870590
vt 0.591946 0.868068
vt 0.481277 0.975261
vt 0.589333 0.864290
vt 0.471018 0.911813
vt 0.470895 0.808123
vt 0.589322 0.855370
vt 0.284923 0.777487
vt 0.459208 0.777573
vt 0.468132 0.785199
vt 0.290943 0.794207
vt 0.277206 0.833430
vt 0.286150 0.825782
vt 0.462240 0.825769
vt 0.456211 0.842538
vt 0.285753 0.817352
vt 0.289521 0.806150
vt 0.466755 0.805990
vt 0.461135 0.822698
vt 0.290293 0.977697
vt 0.284491 0.960953
vt 0.458242 0.961258
vt 0.462132 0.972485
vt 0.286415 0.861372
vt 0.280747 0.844694
vt 0.458900 0.844786
vt 0.462700 0.855968
vt 0.285567 0.774820
vt 0.289486 0.763614
vt 0.464188 0.763269
vt 0.458343 0.779982
vt 0.451243 0.862936
vt 0.460063 0.870708
vt 0.281348 0.879339
vt 0.275567 0.862510
vt 0.461119 0.920734
vt 0.283943 0.911832
vt 0.292786 0.904131
vt 0.466981 0.903976
vt 0.460558 0.998357
vt 0.281383 0.989525
vt 0.290325 0.981835
vt 0.466554 0.981538
vt 0.458353 0.918580
vt 0.467299 0.926222
vt 0.289655 0.934953
vt 0.283617 0.918196
vt 0.458834 0.947006
vt 0.462688 0.958235
vt 0.290260 0.963430
vt 0.284510 0.946681
vt 0.458750 0.728535
vt 0.453133 0.745231
vt 0.277025 0.739821
vt 0.280792 0.728627
vt 0.463456 0.749016
vt 0.457606 0.765742
vt 0.285560 0.760632
vt 0.289483 0.749417
vt 0.462215 0.889775
vt 0.466051 0.900952
vt 0.290356 0.906429
vt 0.284635 0.889759
vt 0.283824 0.940475
vt 0.292687 0.932755
vt 0.465896 0.932395
vt 0.460025 0.949194
vt 0.284569 0.791646
vt 0.459520 0.791773
vt 0.468411 0.799514
vt 0.290462 0.808489
vt 0.996922 0.894948
vt 0.997072 0.791690
vt 0.977671 0.799441
vt 0.977545 0.887145
vt 0.921778 0.718573
vt 0.815147 0.718428
vt 0.823151 0.737215
vt 0.913720 0.737338
vt 0.739642 0.791341
vt 0.739493 0.894599
vt 0.758893 0.886848
vt 0.759020 0.799144
vt 0.814786 0.967716
vt 0.921417 0.967861
vt 0.913413 0.949074
vt 0.822845 0.948951
vt 0.987022 0.728482
vt 0.969136 0.745754
vt 0.986690 0.958129
vt 0.968854 0.940808
vt 0.749542 0.957807
vt 0.767429 0.940535
vt 0.749875 0.728160
vt 0.767711 0.745481
vt 0.861127 0.836166
vt 0.858916 0.839361
vt 0.858905 0.846906
vt 0.861107 0.850107
vt 0.864433 0.834033
vt 0.864407 0.852249
vt 0.872224 0.834044
vt 0.872198 0.852259
vt 0.875524 0.836185
vt 0.875504 0.850127
vt 0.877726 0.839387
vt 0.877715 0.846932
vt 0.721172 0.001210
vt 0.721300 0.041717
vt 0.614148 0.041745
vt 0.613680 0.001236
vt 0.721429 0.082223
vt 0.614616 0.082248
vt 0.721557 0.122730
vt 0.615085 0.122752
vt 0.289403 0.493501
vt 0.289531 0.452981
vt 0.396289 0.453376
vt 0.396161 0.493897
vt 0.289659 0.412460
vt 0.396417 0.412856
vt 0.502422 0.494122
vt 0.502551 0.453601
vt 0.502679 0.413081
vt 0.138742 0.457790
vt 0.144307 0.457817
vt 0.144192 0.494022
vt 0.037754 0.412488
vt 0.138819 0.433479
vt 0.037626 0.453006
vt 0.037883 0.371821
vt 0.138896 0.409168
vt 0.150093 0.457824
vt 0.150168 0.433511
vt 0.250778 0.413101
vt 0.250649 0.453619
vt 0.150243 0.409199
vt 0.250906 0.372583
vt 0.602929 0.694704
vt 0.608729 0.694727
vt 0.608615 0.730931
vt 0.504427 0.649504
vt 0.603005 0.670392
vt 0.503520 0.690003
vt 0.505333 0.609004
vt 0.603081 0.646081
vt 0.614278 0.694736
vt 0.614355 0.670426
vt 0.715277 0.650078
vt 0.715148 0.690595
vt 0.614432 0.646115
vt 0.715405 0.609411
vt 0.037497 0.493524
vt 0.250521 0.494137
vt 0.502613 0.730490
vt 0.715020 0.731112
vt 0.038139 0.290934
vt 0.139268 0.290878
vt 0.139182 0.318285
vt 0.038054 0.317816
vt 0.144835 0.290907
vt 0.144962 0.250913
vt 0.150617 0.290909
vt 0.251163 0.291546
vt 0.251034 0.332065
vt 0.150531 0.318317
vt 0.502642 0.527901
vt 0.603456 0.527794
vt 0.603369 0.555343
vt 0.502513 0.568418
vt 0.609258 0.527821
vt 0.609385 0.487828
vt 0.614805 0.527828
vt 0.715662 0.528526
vt 0.715576 0.555550
vt 0.614718 0.555377
vt 0.139122 0.339152
vt 0.144682 0.339175
vt 0.144461 0.409195
vt 0.150470 0.339184
vt 0.603306 0.576065
vt 0.609105 0.576088
vt 0.608884 0.646107
vt 0.614656 0.576099
vt 0.038268 0.250416
vt 0.251291 0.251028
vt 0.502770 0.487384
vt 0.715790 0.488009
vt 0.301876 0.593983
vt 0.301457 0.687701
vt 0.279505 0.687636
vt 0.279924 0.593918
vt 0.302056 0.496243
vt 0.280104 0.496178
vt 0.994543 0.495378
vt 0.994157 0.593399
vt 0.972212 0.593333
vt 0.972597 0.495313
vt 0.994765 0.397803
vt 0.972819 0.397738
vt 0.173222 0.745108
vt 0.271221 0.745591
vt 0.271155 0.767543
vt 0.173157 0.767060
vt 0.079763 0.745004
vt 0.079698 0.766956
vt 0.944274 0.098836
vt 0.943683 0.196951
vt 0.921738 0.196886
vt 0.922329 0.098771
vt 0.922292 0.001284
vt 0.944237 0.001350
vt 0.279061 0.457274
vt 0.278552 0.559784
vt 0.256600 0.559719
vt 0.257109 0.457209
vt 0.278434 0.661944
vt 0.256482 0.661878
vt 0.942232 0.690513
vt 0.942857 0.587844
vt 0.964810 0.587909
vt 0.964185 0.690579
vt 0.942812 0.485846
vt 0.964764 0.485911
vt 0.279061 0.249288
vt 0.278606 0.351723
vt 0.256654 0.351658
vt 0.257109 0.249222
vt 0.278421 0.453957
vt 0.256469 0.453892
vt 0.027186 0.249321
vt 0.026781 0.351890
vt 0.004828 0.351824
vt 0.005233 0.249255
vt 0.026550 0.453982
vt 0.004597 0.453916
vt 0.953301 0.407801
vt 0.954669 0.338567
vt 0.972314 0.305487
vt 0.953597 0.203122
vt 0.954765 0.272360
vt 0.610453 0.114982
vt 0.589744 0.114360
vt 0.589799 0.099339
vt 0.610492 0.098827
vt 0.580183 0.039966
vt 0.559411 0.040630
vt 0.559328 0.024299
vt 0.580085 0.024693
vt 0.559463 0.040602
vt 0.538618 0.039940
vt 0.538707 0.024543
vt 0.548565 0.024362
vt 0.559534 0.024159
vt 0.797288 0.525569
vt 0.797263 0.509326
vt 0.808304 0.509446
vt 0.818193 0.524945
vt 0.818134 0.509562
vt 0.814463 0.481069
vt 0.814449 0.486619
vt 0.797708 0.484350
vt 0.798552 0.481878
vt 0.813039 0.492234
vt 0.797997 0.487440
vt 0.816834 0.491242
vt 0.816837 0.485441
vt 0.833593 0.487595
vt 0.832682 0.490494
vt 0.818177 0.480065
vt 0.833438 0.484995
vt 0.607807 0.039815
vt 0.607673 0.025189
vt 0.562204 0.114211
vt 0.562318 0.100006
vt 0.845660 0.524797
vt 0.845588 0.509906
vt 0.511232 0.039790
vt 0.511354 0.025019
vt 0.688874 0.344966
vt 0.688710 0.350629
vt 0.674337 0.350598
vt 0.672341 0.348511
vt 0.686438 0.339614
vt 0.673668 0.345294
vt 0.797707 0.498209
vt 0.797891 0.492298
vt 0.812507 0.492286
vt 0.814248 0.494701
vt 0.800030 0.503341
vt 0.813294 0.497418
vt 0.562416 0.098739
vt 0.538070 0.098816
vt 0.537968 0.081014
vt 0.562334 0.081421
vt 0.513724 0.098893
vt 0.513620 0.080609
vt 0.820989 0.548795
vt 0.796711 0.548558
vt 0.796750 0.531023
vt 0.821070 0.530445
vt 0.845267 0.549032
vt 0.845298 0.529864
vt 0.562374 0.116109
vt 0.538038 0.116347
vt 0.537932 0.099090
vt 0.562324 0.099364
vt 0.513702 0.116585
vt 0.513633 0.098812
vt 0.535524 0.058850
vt 0.511257 0.058773
vt 0.511328 0.041368
vt 0.535615 0.040966
vt 0.559792 0.058927
vt 0.559885 0.040567
vt 0.703693 0.364657
vt 0.709309 0.364562
vt 0.706508 0.381228
vt 0.703741 0.382544
vt 0.714803 0.366445
vt 0.708243 0.384005
vt 0.688314 0.393706
vt 0.688315 0.387878
vt 0.704931 0.390982
vt 0.705667 0.393570
vt 0.690220 0.382617
vt 0.707076 0.388836
vt 0.731653 0.386507
vt 0.731523 0.392121
vt 0.714610 0.392112
vt 0.715038 0.389617
vt 0.729500 0.381054
vt 0.713414 0.387036
vt 0.815462 0.500603
vt 0.815697 0.494720
vt 0.832065 0.494737
vt 0.832114 0.497712
vt 0.817428 0.505840
vt 0.833368 0.499899
vt 0.146563 0.696569
vt 0.105935 0.696665
vt 0.105808 0.680748
vt 0.146529 0.681695
vt 0.065306 0.696761
vt 0.065232 0.679799
vt 0.024690 0.696857
vt 0.024646 0.678851
vt 0.106550 0.711936
vt 0.146984 0.711860
vt 0.147030 0.729114
vt 0.106580 0.729269
vt 0.066116 0.712013
vt 0.066147 0.729346
vt 0.025677 0.712089
vt 0.025710 0.729422
vt 0.033761 0.639608
vt 0.139204 0.639646
vt 0.125961 0.645933
vt 0.039645 0.655863
vt 0.149862 0.647506
vt 0.150342 0.607025
vt 0.247331 0.607420
vt 0.246934 0.647875
vt 0.149395 0.687970
vt 0.246224 0.688316
vt 0.148928 0.728436
vt 0.245512 0.728781
vt 0.620259 0.163260
vt 0.614854 0.163261
vt 0.721813 0.203743
vt 0.620092 0.203767
vt 0.721685 0.163236
vt 0.614983 0.203768
vt 0.615111 0.244274
vt 0.608523 0.163302
vt 0.609354 0.203804
vt 0.508855 0.204443
vt 0.508727 0.163936
vt 0.057182 0.495692
vt 0.147879 0.495381
vt 0.147346 0.526096
vt 0.057727 0.525911
vt 0.152969 0.495364
vt 0.152977 0.526108
vt 0.146515 0.566562
vt 0.058691 0.566363
vt 0.060538 0.606866
vt 0.152849 0.566576
vt 0.157848 0.495403
vt 0.158073 0.526126
vt 0.249389 0.496133
vt 0.249072 0.526457
vt 0.248359 0.566915
vt 0.158241 0.566595
vt 0.562390 0.080691
vt 0.602592 0.080693
vt 0.602646 0.097930
vt 0.562443 0.097926
vt 0.838130 0.498518
vt 0.838897 0.492913
vt 0.855782 0.492893
vt 0.854820 0.498498
vt 0.838200 0.487860
vt 0.854903 0.487840
vt 0.559992 0.041547
vt 0.600193 0.041625
vt 0.600143 0.058873
vt 0.559941 0.058796
vt 0.673859 0.387024
vt 0.673883 0.370337
vt 0.680190 0.369255
vt 0.680165 0.386140
vt 0.685536 0.370187
vt 0.685511 0.386888
vt 0.390214 0.338894
vt 0.396652 0.338918
vt 0.401862 0.338929
vt 0.289959 0.317925
vt 0.390914 0.318299
vt 0.289788 0.371790
vt 0.290044 0.290898
vt 0.391711 0.291275
vt 0.396803 0.291294
vt 0.396931 0.250773
vt 0.502808 0.372411
vt 0.401856 0.318189
vt 0.502979 0.318403
vt 0.401861 0.291305
vt 0.503064 0.291519
vt 0.303289 0.678001
vt 0.309945 0.677069
vt 0.310015 0.703742
vt 0.301789 0.703767
vt 0.310067 0.724319
vt 0.300306 0.724648
vt 0.101189 0.616782
vt 0.127088 0.615149
vt 0.127041 0.623209
vt 0.100224 0.623158
vt 0.147837 0.613750
vt 0.147478 0.623233
vt 0.732326 0.239042
vt 0.722700 0.239519
vt 0.721643 0.234007
vt 0.731408 0.234021
vt 0.731179 0.245213
vt 0.721695 0.245208
vt 0.732345 0.239066
vt 0.738894 0.239367
vt 0.739792 0.243818
vt 0.733380 0.243952
vt 0.733118 0.234145
vt 0.739810 0.233976
vt 0.290173 0.250378
vt 0.503192 0.250998
vt 0.507989 0.123427
vt 0.721942 0.244249
vt 0.508984 0.244949
vt 0.503391 0.366425
vt 0.666472 0.399750
vt 0.627764 0.487203
vt 0.522108 0.468790
vt 0.522405 0.264112
vt 0.628113 0.245986
vt 0.666568 0.333544
vt 0.733769 0.264399
vt 0.734937 0.333637
vt 0.733472 0.469077
vt 0.734841 0.399843
vt 0.611807 0.011903
vt 0.608572 0.017196
vt 0.514146 0.017114
vt 0.508667 0.012218
vt 0.058364 0.740622
vt 0.054860 0.734073
vt 0.153399 0.734110
vt 0.161504 0.740255
vt 0.033756 0.639534
vt 0.036570 0.629565
vt 0.135108 0.629189
vt 0.136897 0.639545
vt 0.044172 0.499052
vt 0.050320 0.507155
vt 0.050384 0.605694
vt 0.043834 0.602192
vt 0.145664 0.702109
vt 0.140187 0.707006
vt 0.045761 0.707114
vt 0.042524 0.701822
vt 0.271318 0.735898
vt 0.267642 0.740875
vt 0.169104 0.741251
vt 0.168177 0.735887
vt 0.044489 0.656548
vt 0.147629 0.656508
vt 0.146704 0.661872
vt 0.048166 0.661523
vt 0.043989 0.676280
vt 0.045775 0.665923
vt 0.144313 0.666272
vt 0.147129 0.676240
vt 0.975127 0.685394
vt 0.974914 0.619187
vt 0.990234 0.619093
vt 0.988805 0.685266
vt 0.033762 0.613766
vt 0.099968 0.613968
vt 0.099841 0.627690
vt 0.033668 0.629129
vt 0.511489 0.058945
vt 0.577693 0.059151
vt 0.577651 0.072830
vt 0.511447 0.072668
vt 0.935678 0.591794
vt 0.860540 0.554441
vt 0.860462 0.488260
vt 0.922476 0.495377
vt 0.792087 0.488337
vt 0.792165 0.554518
vt 0.715958 0.592195
vt 0.729876 0.493184
vt 0.826529 0.703194
vt 0.821457 0.702189
vt 0.731076 0.684281
vt 0.831363 0.702227
vt 0.922055 0.684077
vt 0.411998 0.568092
vt 0.501086 0.601768
vt 0.500450 0.642427
vt 0.406056 0.568066
vt 0.405568 0.641994
vt 0.400339 0.568058
vt 0.310676 0.601210
vt 0.311124 0.641876
vt 0.411400 0.547152
vt 0.501915 0.547656
vt 0.410759 0.521016
vt 0.502576 0.521278
vt 0.406116 0.521002
vt 0.405408 0.494031
vt 0.503214 0.494976
vt 0.310131 0.547040
vt 0.400450 0.546980
vt 0.309575 0.520581
vt 0.400581 0.520978
vt 0.309083 0.494326
vt 0.404804 0.722876
vt 0.405186 0.682491
vt 0.499739 0.682922
vt 0.499029 0.723418
vt 0.311642 0.682386
vt 0.312159 0.722944
vt 0.835598 0.245733
vt 0.835439 0.281852
vt 0.832937 0.281860
vt 0.741166 0.286334
vt 0.832844 0.306108
vt 0.739732 0.326699
vt 0.832768 0.330375
vt 0.737695 0.367210
vt 0.837874 0.281836
vt 0.928894 0.285773
vt 0.929118 0.326163
vt 0.837974 0.306046
vt 0.931342 0.366548
vt 0.838115 0.330349
vt 0.571401 0.002768
vt 0.529654 0.005645
vt 0.529648 0.002755
vt 0.921037 0.193710
vt 0.822225 0.195421
vt 0.822908 0.171221
vt 0.921436 0.153338
vt 0.823634 0.146928
vt 0.921866 0.112824
vt 0.819099 0.231527
vt 0.817496 0.195329
vt 0.819978 0.195382
vt 0.724500 0.189024
vt 0.723755 0.148632
vt 0.817935 0.171074
vt 0.722504 0.108074
vt 0.818390 0.146801
vt 0.742600 0.245921
vt 0.928676 0.245360
vt 0.920637 0.234091
vt 0.725244 0.229417
vt 0.736911 0.421202
vt 0.832884 0.421004
vt 0.833219 0.448311
vt 0.735427 0.447559
vt 0.835783 0.475862
vt 0.835685 0.448323
vt 0.838623 0.420986
vt 0.929550 0.407020
vt 0.929772 0.447426
vt 0.838435 0.448311
vt 0.916939 0.072192
vt 0.826317 0.056432
vt 0.826785 0.029000
vt 0.918130 0.031791
vt 0.824740 0.001469
vt 0.823916 0.028892
vt 0.820490 0.056297
vt 0.722616 0.054109
vt 0.721526 0.027792
vt 0.821427 0.028850
vt 0.835165 0.330402
vt 0.835386 0.400238
vt 0.832820 0.400214
vt 0.838403 0.400215
vt 0.820780 0.146820
vt 0.822551 0.076979
vt 0.825591 0.077077
vt 0.819972 0.076948
vt 0.838489 0.411203
vt 0.832967 0.411165
vt 0.735623 0.473737
vt 0.931471 0.477698
vt 0.920533 0.001653
vt 0.722065 0.001562
vt 0.983198 0.145581
vt 0.970789 0.112320
vt 0.965016 0.052094
vt 0.971708 0.178578
vt 0.965116 0.238761
vt 0.259277 0.733065
vt 0.259464 0.666857
vt 0.274827 0.666902
vt 0.274596 0.733110
vt 0.131000 0.126580
vt 0.131000 0.064633
vt 0.152062 0.085695
vt 0.166517 0.126580
vt 0.254895 0.126580
vt 0.234655 0.022925
vt 0.131000 0.002685
vt 0.095595 0.126580
vt 0.110248 0.085385
vt 0.027345 0.022925
vt 0.007106 0.126580
vt 0.382345 0.131868
vt 0.418032 0.131868
vt 0.403508 0.090788
vt 0.382345 0.069625
vt 0.382345 0.007381
vt 0.486496 0.027718
vt 0.506832 0.131868
vt 0.361493 0.090476
vt 0.346770 0.131868
vt 0.257858 0.131868
vt 0.278194 0.027718
vt 0.166430 0.166799
vt 0.131001 0.166799
vt 0.248418 0.166799
vt 0.234656 0.230235
vt 0.166243 0.243593
vt 0.095813 0.166799
vt 0.013583 0.166799
vt 0.096276 0.243694
vt 0.027345 0.230235
vt 0.417944 0.172280
vt 0.382345 0.172280
vt 0.486496 0.236019
vt 0.500324 0.172280
vt 0.417756 0.249441
vt 0.347454 0.249542
vt 0.346989 0.172280
vt 0.264366 0.172280
vt 0.278194 0.236019
vt 0.712163 0.133442
vt 0.780269 0.133442
vt 0.780269 0.126298
vt 0.712163 0.126298
vt 0.711341 0.122826
vt 0.858961 0.122826
vt 0.858961 0.115681
vt 0.711341 0.115681
vt 0.779770 0.133442
vt 0.712521 0.133442
vt 0.712521 0.126298
vt 0.779770 0.126298
vt 0.847020 0.133442
vt 0.847020 0.126298
vt 0.711146 0.122826
vt 0.711146 0.115681
vt 0.847910 0.133442
vt 0.847910 0.126298
usemtl Cylinder_guard_tower_guard_tower.jpg.
s off
f 1/1 2/2 3/3 4/4
f 5/5 8/6 7/7 6/8
f 1/9 5/10 6/11 2/12
f 2/13 6/14 7/15 3/16
f 3/17 7/18 8/19 4/20
f 5/21 1/22 4/23 8/24
f 10/25 9/26 15/27 16/28
f 11/29 10/30 16/31 17/32
f 11/29 17/32 18/33 12/34
f 12/35 18/36 19/37 13/38
f 14/39 13/40 19/41 20/42
f 15/43 9/44 14/39 20/42
f 27/45 21/46 26/47 32/48
f 27/45 28/49 22/50 21/46
f 29/51 23/52 22/53 28/54
f 30/55 24/56 23/57 29/58
f 30/55 31/59 25/60 24/56
f 31/61 32/62 26/63 25/64
f 34/65 33/66 39/67 40/68
f 35/69 34/70 40/71 41/72
f 35/69 41/72 42/73 36/74
f 36/75 42/76 43/77 37/78
f 38/79 37/80 43/81 44/82
f 38/79 44/82 39/83 33/84
f 51/85 45/86 50/87 56/88
f 51/85 52/89 46/90 45/86
f 53/91 47/92 46/93 52/94
f 54/95 48/96 47/97 53/98
f 54/95 55/99 49/100 48/96
f 55/101 56/102 50/103 49/104
f 58/105 57/106 63/107 64/108
f 59/109 58/110 64/111 65/112
f 59/109 65/112 66/113 60/114
f 60/115 66/116 67/117 61/118
f 62/119 61/120 67/121 68/122
f 62/119 68/122 63/123 57/124
f 75/125 69/126 74/127 80/128
f 75/125 76/129 70/130 69/126
f 77/131 71/132 70/133 76/134
f 78/135 72/136 71/137 77/138
f 78/135 79/139 73/140 72/136
f 79/141 80/142 74/143 73/144
f 82/145 81/146 87/147 88/148
f 83/149 82/150 88/151 89/152
f 83/149 89/152 90/153 84/154
f 84/155 90/156 91/157 85/158
f 86/159 85/160 91/161 92/162
f 86/159 92/162 87/163 81/164
f 99/165 93/166 98/167 104/168
f 99/165 100/169 94/170 93/166
f 101/171 95/172 94/173 100/174
f 102/175 96/176 95/177 101/178
f 102/175 103/179 97/180 96/176
f 103/181 104/182 98/183 97/184
f 22/185 23/186 24/187 25/188
f 21/189 22/185 25/188 26/190
f 16/191 19/192 18/193 17/194
f 15/195 20/196 19/192 16/191
f 105/197 117/198 118/199 106/200
f 107/201 119/202 120/203 108/204
f 108/204 120/203 121/205 109/206
f 110/207 122/208 123/209 111/210
f 111/210 123/209 124/211 112/212
f 113/213 125/214 126/215 114/216
f 114/216 126/215 127/217 115/218
f 117/198 105/197 116/219 128/220
f 131/221 132/222 129/223 130/224
f 133/225 136/226 135/227 134/228
f 129/229 133/230 134/231 130/232
f 131/233 135/234 136/235 132/236
f 142/237 138/238 137/239 141/240
f 144/241 140/242 139/243 143/244
f 140/245 137/246 138/247 139/248
f 142/249 141/250 144/251 143/252
f 147/253 148/254 145/255 146/256
f 149/257 152/258 151/259 150/260
f 145/261 149/262 150/263 146/264
f 147/265 151/266 152/267 148/268
f 158/269 154/270 153/271 157/272
f 160/273 156/274 155/275 159/276
f 156/277 153/278 154/279 155/280
f 158/281 157/282 160/283 159/284
f 112/212 124/211 125/214 113/213
f 109/206 121/205 122/208 110/207
f 106/200 118/199 119/202 107/201
f 115/218 127/217 128/220 116/219
f 127/217 126/215 117/198 128/220
f 126/215 125/214 118/199 117/198
f 125/214 124/211 119/202 118/199
f 124/211 123/209 120/203 119/202
f 123/209 122/208 121/205 120/203
f 115/285 116/286 162/287 161/288
f 106/289 107/290 164/291 163/292
f 109/293 110/294 166/295 165/296
f 112/297 113/298 168/299 167/300
f 116/286 105/301 169/302 162/287
f 114/303 115/285 161/288 170/304
f 113/298 114/303 170/304 168/299
f 111/305 112/297 167/300 171/306
f 110/294 111/305 171/306 166/295
f 108/307 109/293 165/296 172/308
f 107/290 108/307 172/308 164/291
f 105/301 106/289 163/292 169/302
f 176/309 175/310 174/311 173/312
f 178/313 176/309 173/312 177/314
f 180/315 178/313 177/314 179/316
f 182/317 180/315 179/316 181/318
f 184/319 182/317 181/318 183/320
f 162/287 184/319 183/320 161/288
f 164/291 178/313 180/315 163/292
f 166/295 174/311 175/310 165/296
f 168/299 179/316 177/314 167/300
f 184/319 162/287 169/302 182/317
f 161/288 183/320 181/318 170/304
f 170/304 181/318 179/316 168/299
f 167/300 177/314 173/312 171/306
f 171/306 173/312 174/311 166/295
f 165/296 175/310 176/309 172/308
f 172/308 176/309 178/313 164/291
f 163/292 180/315 182/317 169/302
f 187/321 209/322 211/323 188/324
f 209/322 210/325 212/326 211/323
f 210/325 200/327 201/328 212/326
f 191/329 216/330 218/331 192/332
f 216/330 217/333 219/334 218/331
f 185/335 192/332 218/331 206/336
f 206/336 218/331 219/334 207/337
f 237/338 208/339 186/340
f 207/341 238/342 237/338 206/343
f 198/344 233/345 238/342 207/341
f 208/339 239/346 186/340
f 240/347 210/348 209/349 239/346
f 234/350 200/351 210/348 240/347
f 241/352 215/353 190/354
f 214/355 242/356 241/352 213/357
f 202/358 235/359 242/356 214/355
f 215/353 243/360 190/354
f 244/361 217/362 216/363 243/360
f 236/364 204/365 217/362 244/361
f 186/340 185/366 206/343 237/338
f 186/340 239/346 209/349 187/367
f 190/354 189/368 213/357 241/352
f 190/354 243/360 216/363 191/369
f 220/370 248/371 247/372 221/373
f 222/374 248/371 193/375
f 250/376 223/377 224/378 249/379
f 250/376 222/374 193/375
f 227/380 252/381 251/382 228/383
f 229/384 252/381 195/385
f 254/386 230/387 231/388 253/389
f 254/386 229/384 195/385
f 233/345 255/390 245/391 199/392
f 199/392 245/391 256/393 234/350
f 235/359 258/394 246/395 203/396
f 203/396 246/395 257/397 236/364
f 234/350 256/393 200/351
f 200/351 256/393 249/379 224/378
f 221/373 247/372 255/390 198/344
f 198/344 255/390 233/345
f 236/364 257/397 204/365
f 204/365 257/397 253/389 231/388
f 228/383 251/382 258/394 202/358
f 202/358 258/394 235/359
f 193/375 248/371 220/370 371/398
f 193/375 194/399 223/377 250/376
f 195/385 252/381 227/380 370/400
f 195/385 196/401 230/387 254/386
f 270/402 271/403 273/404 272/405
f 269/406 270/402 272/405 274/407
f 376/408 269/409 274/410 275/411
f 268/412 376/408 275/411 276/413
f 267/414 268/415 276/416 277/417
f 266/418 267/414 277/417 278/419
f 372/420 266/421 278/422 279/423
f 372/420 279/423 273/424 271/425
f 373/426 374/427 280/428 281/429
f 374/427 265/430 282/431 280/428
f 265/432 264/433 283/434 282/435
f 264/433 263/436 284/437 283/434
f 263/438 262/439 285/440 284/441
f 262/439 261/442 286/443 285/440
f 261/444 375/445 287/446 286/447
f 373/448 281/449 287/446 375/445
f 196/450 260/451 197/452
f 371/453 197/452 259/454
f 197/452 260/451 259/454
f 258/455 251/456 288/457 289/458
f 253/459 257/460 290/461 291/462
f 255/463 247/464 292/465 293/466
f 255/463 293/466 294/467
f 256/468 295/469 296/470
f 249/471 256/468 296/470 297/472
f 257/473 246/474 298/475 290/476
f 246/474 258/477 289/478 298/475
f 256/479 245/480 299/481 295/482
f 245/480 255/483 294/484 299/481
f 254/485 253/459 291/462 300/486
f 251/456 252/487 301/488 288/457
f 250/489 249/471 297/472 302/490
f 247/464 248/491 303/492 292/465
f 229/493 254/494 300/495 304/496
f 252/497 229/493 304/496 301/498
f 222/499 250/500 302/501 305/502
f 248/503 222/499 305/502 303/504
f 236/505 244/506 307/507 306/508
f 244/506 243/509 308/510 307/507
f 242/511 235/512 309/513 310/514
f 241/515 242/511 310/514 311/516
f 234/517 240/518 313/519 312/520
f 240/518 239/521 314/522 313/519
f 238/523 233/524 315/525 316/526
f 237/527 238/523 316/526 317/528
f 243/529 215/530 318/531 308/532
f 215/530 241/533 311/534 318/531
f 239/535 208/536 319/537 314/538
f 208/536 237/539 317/540 319/537
f 203/541 236/542 306/543 320/544
f 235/545 203/541 320/544 309/546
f 199/547 234/548 312/549 321/550
f 233/551 199/547 321/550 315/552
f 202/553 214/554 323/555 322/556
f 214/554 213/557 324/558 323/555
f 213/557 189/559 325/560 324/558
f 212/561 201/562 326/563 327/564
f 211/565 212/561 327/564 328/566
f 188/567 211/565 328/566 329/568
f 201/569 202/570 322/571 326/572
f 327/573 326/574 336/575 339/576
f 328/577 327/573 339/576 338/578
f 329/579 328/577 338/578 330/580
f 345/581 226/582 201/328
f 223/583 346/584 345/581 224/585
f 225/586 346/584 344/587
f 226/582 347/588 201/328
f 353/589 227/590 228/591 347/588
f 225/586 344/587 353/589
f 367/592 366/593 349/594 333/595
f 366/593 331/596 342/597 349/594
f 333/595 349/594 350/598 335/599
f 350/598 326/574 322/600
f 335/599 350/598 322/600
f 350/598 343/601 326/574
f 331/596 348/602 351/603 342/597
f 348/602 332/604 334/605 351/603
f 351/603 334/605 337/606 352/607
f 352/607 336/575 326/574
f 343/601 352/607 326/574
f 352/607 337/606 336/575
f 350/608 349/609 353/610 347/611
f 349/612 342/613 225/614 353/615
f 342/613 351/616 346/617 225/614
f 351/618 352/619 345/620 346/621
f 350/622 347/623 226/624 343/625
f 343/625 226/624 345/626 352/627
f 354/628 205/629 219/334
f 205/629 355/630 219/334
f 231/631 356/632 354/628 204/633
f 230/634 357/635 356/632 231/631
f 232/636 357/635 197/637
f 198/638 355/630 358/639 221/640
f 221/640 358/639 359/641 220/642
f 359/641 232/636 197/637
f 360/643 359/644 358/645 361/646
f 361/646 358/645 355/647 362/648
f 363/649 364/650 356/651 357/652
f 364/650 365/653 354/654 356/651
f 205/655 341/656 362/657 355/658
f 205/655 354/659 365/660 341/656
f 232/661 340/662 363/663 357/664
f 232/661 359/665 360/666 340/662
f 197/637 357/635 230/634 196/667
f 197/637 371/668 220/642 359/641
f 219/334 217/333 204/633 354/628
f 219/334 355/630 198/638 207/337
f 201/328 200/327 224/585 345/581
f 201/328 347/588 228/591 202/669
f 344/587 346/584 223/583 194/670
f 227/590 353/589 344/587 370/671
f 344/672 368/673 195/674 370/675
f 344/672 194/676 193/677 369/678
f 371/679 259/680 369/678 193/677
f 196/681 195/674 368/673 260/682
f 344/672 369/678 368/673
f 373/683 271/684 270/685 374/686
f 374/687 270/688 269/689 265/690
f 265/691 269/692 376/693 264/694
f 263/695 268/696 267/697 262/698
f 262/699 267/700 266/701 261/702
f 261/703 266/704 372/705 375/706
f 373/707 375/708 372/709 271/710
f 264/711 376/712 268/713 263/714
f 377/715 465/716 463/717 379/718
f 464/719 378/720 380/721 381/722
f 378/723 377/724 379/725 380/726
f 415/727 379/728 463/729 414/730
f 381/731 380/732 417/733 383/734
f 380/732 379/728 418/735
f 384/736 417/733 380/732
f 418/735 384/736 380/732
f 384/736 382/737 417/733
f 391/738 379/728 415/727
f 416/739 391/738 415/727
f 391/738 418/735 379/728
f 385/740 407/741 398/742
f 394/743 385/740 393/744
f 385/740 398/742 393/744
f 388/745 394/743 393/744
f 405/746 388/745 396/747
f 388/745 393/744 396/747
f 386/748 406/749 407/741 385/740
f 387/750 412/751 406/749 386/748
f 387/750 395/752 413/753
f 412/751 387/750 383/754
f 387/750 413/753 383/754
f 404/755 389/756 388/745 405/746
f 409/757 390/758 389/756 404/755
f 390/758 409/757 414/759
f 395/752 390/758 413/753
f 390/758 414/759 413/753
f 423/760 392/761 401/762 422/763
f 392/761 393/744 398/742 401/762
f 399/764 392/761 423/760 424/765
f 396/747 393/744 392/761 399/764
f 419/766 431/767 433/768
f 399/769 433/768 434/770 396/771
f 396/771 434/770 435/772 405/773
f 419/766 436/774 431/767
f 436/774 400/775 397/776 437/777
f 437/777 397/776 403/778 438/779
f 421/780 432/781 439/782
f 426/783 439/784 440/785 427/786
f 427/786 440/785 441/787 428/788
f 421/789 442/790 432/791
f 442/790 401/792 398/793 443/794
f 443/794 398/793 407/795 444/796
f 433/768 399/769 424/797 419/766
f 420/798 400/775 436/774 419/766
f 439/784 426/783 425/799 421/789
f 422/800 401/792 442/790 421/789
f 404/801 458/802 447/803 409/804
f 415/805 447/803 445/806
f 453/807 402/808 410/809 448/810
f 415/805 445/806 448/810
f 408/811 462/812 449/813 411/814
f 417/815 449/813 446/816
f 459/817 406/818 412/819 450/820
f 417/815 446/816 450/820
f 429/821 451/822 456/823 435/772
f 438/779 455/824 451/822 429/821
f 430/825 452/826 461/827 441/787
f 444/796 460/828 452/826 430/825
f 403/778 454/829 455/824 438/779
f 402/808 453/807 454/829 403/778
f 405/773 457/830 458/802 404/801
f 435/772 456/823 457/830 405/773
f 407/795 460/828 444/796
f 406/818 459/817 460/828 407/795
f 428/788 461/827 462/812 408/811
f 441/787 461/827 428/788
f 414/831 409/804 447/803 415/805
f 448/810 410/809 416/832 415/805
f 382/833 411/814 449/813 417/815
f 450/820 412/819 383/834 417/815
f 413/835 381/836 383/837
f 463/838 413/835 414/839
f 463/838 381/836 413/835
f 465/840 464/841 381/842 463/843
f 480/844 486/845 492/846 488/847
f 477/848 488/847 492/846 468/849
f 468/849 492/846 486/845 474/850
f 480/844 489/851 493/852 486/845
f 474/850 486/845 493/852 467/853
f 467/853 493/852 489/851 476/854
f 481/855 490/856 494/857 487/858
f 475/859 487/858 494/857 472/860
f 472/860 494/857 490/856 479/861
f 481/855 487/858 495/862 491/863
f 478/864 491/863 495/862 471/865
f 471/865 495/862 487/858 475/859
f 488/847 502/866 500/867 480/844
f 477/848 497/868 502/866 488/847
f 497/868 469/869 483/870 502/866
f 489/851 503/871 496/872 476/854
f 503/871 482/873 466/874 496/872
f 480/844 500/867 503/871 489/851
f 504/875 490/856 481/855 501/876
f 473/877 499/878 504/875 485/879
f 499/878 479/861 490/856 504/875
f 484/880 505/881 498/882 470/883
f 505/881 491/863 478/864 498/882
f 501/876 481/855 491/863 505/881
s 1
f 509/884 512/885 513/886 511/887
f 514/888 509/889 511/890 516/891
f 507/892 514/893 516/894 506/895
f 515/896 507/892 506/895 517/897
f 508/889 515/898 517/899 510/890
f 512/885 508/900 510/901 513/886
