mtllib caveEntrance.mtl
o caveEntrance
v 0.57795 0.424645 -0.123124
v -0.951554 1.05827 -0.246967
v 0.982396 0.564561 0.242435
v -1 0.45153 -0.058046
v -0.924441 0.590619 0.385685
v -0.57745 1.407032 -0.362614
v -0.234051 1.148118 -0.341848
v 0.872112 0.601673 0.5
v 0.425399 0.314766 -0.197324
v 0.954406 0.126219 0.212248
v -0.684425 0.948012 0.209808
v 0.383012 1.265574 -0.124689
v 0.503102 0.721144 -0.371417
v -0.480542 1.271483 -0.26878
v -0.761766 0.693563 0.07049
v -0.197229 0.193332 0.109293
v 0.907632 0.104293 0.495773
v 0.400291 0.055523 0.081124
v -0.891186 0.303348 -0.447266
v -0.67986 0.162077 -0.32509
v 0.530179 0.617034 0.400887
v 0.488038 0.976173 -0.32189
v -0.454473 0.696506 -0.106747
v 0.575799 0.672033 0.167794
v 0.397796 0.073861 0.377404
v -0.200441 1.152354 -0.097756
v 0.144273 1.275175 -0.376778
v -0.410314 1.514477 -0.39182
v 0.504772 1.736598 0.021903
v 0.343009 0.281733 0.404219
v 0.946973 0.439529 -0.106245
v 0.469427 0.700776 0.126842
v -0.872366 0.850617 -0.322457
v 0.748395 1.362613 0.014538
v 0.580643 0.934439 -0.126882
v -0.859576 0.778866 -0.08113
v 0.428549 1.079018 0.120936
v 0.496455 0.703639 0.021183
v -0.626278 0.854402 -0.393729
v -0.188564 1.8 -0.153279
v 0.201256 1.619379 -0.417862
v -0.319696 1.08352 -0.111029
v 0.535062 0.748709 0.321078
v -0.872874 0.125329 0.346411
v -0.513537 0.727216 -0.356659
v 0.890235 0.529718 0.418136
v 0.812718 0.564472 0.065176
v -0.360774 0.257318 -0.204181
v 0.425437 1.140613 0.397935
v 0.673717 1.186202 0.388069
v -0.26272 0.352365 0.305461
v -0.477961 0.516098 0.126476
v 0.987889 1.02586 0.183474
v 0.896689 1.185988 0.394551
v 0.427741 0.736209 -0.101266
v 0.523014 0.796746 -0.445319
v -0.251783 0.054759 0.357849
v -0.686222 1.403362 0.020356
v 0.545672 1.129723 -0.263288
v 0.507348 1.5441 0.15095
v 0.352868 1.271128 -0.114629
v -0.783466 0.38537 0.189652
v 0.790419 1.171887 0.427028
v 0.355586 1.594776 0.426388
v 0.82582 0.60395 -0.284647
v 0.118718 1.728338 -0.326719
v -0.345743 0.367938 -0.425619
v -0.98322 0.935808 0.041317
v 0.845447 1.308304 -0.190687
v -0.944087 0.227269 0.158926
v 0.176292 1.4882 0.38068
v -0.000671 1.361681 -0.115511
v 0.389064 0.13352 -0.209265
v -0.520475 0.606439 -0.133146
v 0.854637 0.735686 -0.333259
v 0.691583 1.361451 -0.349488
v 0.450718 1.325354 0.215933
v 1 1.270403 -0.036775
v 0.501429 0.972676 0.080546
v 0.247426 1.080662 0.402725
v 0.015811 1.210392 0.33619
v -0.398787 0.096907 0.039526
v -0.286261 1.013799 0.423048
v 0.549164 0.944202 0.338875
v -0.869469 0.827413 -0.5
v 0.910891 0.205905 -0.351326
v -0.881881 0.112613 -0.148033
v 0.206809 1.084094 0.251782
v -0.594531 0.582292 0.419279
v -0.570082 1.431562 -0.066415
v -0.014956 1.150962 0.337051
v -0.101839 1.272359 -0.114054
v 0.040947 1.289128 -0.371832
v -0.250423 0.981192 0.144252
v -0.408407 0.554156 0.114269
v 0.142551 1.69573 0.053238
v 0.723582 1.260234 -0.399161
v -0.32893 0.921898 0.384327
v 0.127755 1.265393 0.018176
v 0.331919 1.060063 -0.154591
v -0.175725 1.035906 0.117221
v -0.243131 1.335717 0.246883
v 0.157458 1.411029 0.44695
v -0.286896 1.650083 -0.377235
v 0.534566 0.309839 -0.393462
v 0.378217 1.167815 -0.356414
v 0.726095 0.392614 0.224709
v -0.500252 1.187234 0.400357
v 0.088853 1.556755 0.403834
v -0.340575 1.475285 0.15524
v -0.437155 1.370478 0.382255
v 0.741967 0.92879 0.195269
v 0.973652 0.907051 0.005382
v -0.506708 0.417942 -0.149853
v -0.497472 0.682277 -0.379574
v -0.86703 0.937424 0.156417
v -0.467922 0.899174 -0.125724
v -0.720297 0.957098 -0.458824
v -0.571324 1.178313 0.416229
v -0.700865 0 0.359361
v -0.641923 0.504294 0.396707
v -0.292245 1.151536 -0.38679
v 0.889097 0.928428 -0.370013
v -0.848696 0.616796 0.164539
v -0.893442 0.782202 0.369269
vt 0.937088 0.71504
vt -0.360166 0.195498
vt -0.249695 0.904694
vt 0.32596 0.696878
vt 1.260039 0.126233
vt 0.824842 -0.784189
vt 0.151431 0.268564
vt -0.70904 -0.286638
vt -1.258581 0.123169
vt 0.956747 0.846978
vt -0.119937 0.976682
vt 0.14108 0.370652
vt 0.704167 0.437149
vt 1.175755 1.06945
vt 2.17504 0.079638
vt 0.697544 0.607083
vt 0.704167 1.437149
vt 2.050879 0.279093
vt 0.704167 0.437149
vt 2.17504 0.079638
vt 2.050879 -0.720907
vt 0.980735 0.804503
vt -0.207003 1.139127
vt 1.024581 1.916402
vt 0.276006 0.961644
vt 0.836959 0.595932
vt 0.300703 0.090377
vt 0.836959 0.595932
vt 1.683957 0.271
vt 0.561943 -0.816058
vt 0.190578 0.119222
vt -1.023122 0.405336
vt -0.628712 1.177347
vt 0.607083 0.567935
vt 2.06945 1.226046
vt 1.437149 0.460749
vt 0.020337 0.767006
vt -1.27038 0.320703
vt -0.891198 1.33146
vt 0.564407 0.030931
vt 2.06945 0.226046
vt 0.607083 -0.432065
vt 0.937088 0.393543
vt 0.175839 1.785769
vt 1.090074 0.744302
vt 0.626537 0.767234
vt 1.290502 0.835519
vt 0.564407 0.030931
vt 0.956747 0.846978
vt 0.14108 0.370652
vt -0.003766 -0.82741
vt 0.290502 0.835519
vt 1.06945 0.226046
vt -0.435593 0.030931
vt 0.048949 0.626537
vt 0.956593 0.345478
vt 0.170045 1.290502
vt 0.260762 0.967761
vt 1.033811 1.971267
vt 0.811403 0.912659
vt 0.245445 0.855841
vt -0.297684 0.674078
vt -0.33488 1.705738
vt 0.366038 0.6122
vt 0.996234 -0.82741
vt 0.128359 0.068469
vt 0.723857 0.91095
vt 0.683957 0.271
vt -0.163041 0.595932
vt 0.296066 0.104673
vt -0.371807 0.31895
vt -0.38887 -0.59388
vt 0.066189 0.827345
vt 0.271 -0.160066
vt 0.773615 0.838441
vt 0.192365 0.026337
vt -1.109278 -0.700167
vt -0.992871 0.01417
vt 0.249338 0.063747
vt -0.829955 0.290502
vt -0.043407 -0.654522
vt 0.249338 0.063747
vt -0.824245 1.06945
vt -0.829955 0.290502
vt 0.17259 0.312275
vt 1.370652 1.242531
vt 1.976682 0.862432
vt 0.980735 0.804503
vt 0.956747 1.846978
vt -0.003766 0.17259
vt 0.279093 0.661551
vt 1.063747 1.616121
vt 0.345478 1.75584
vt 0.128359 0.068469
vt 0.996234 -0.82741
vt 0.880063 0.976682
vt 0.278455 0.773615
vt -0.02081 0.897846
vt -0.640088 0.007129
vt 0.781203 0.646187
vt 2.11808 1.379641
vt 1.973268 0.659055
vt 0.279093 0.661551
vt 1.079638 0.64575
vt 1.063747 1.616121
vt 0.981508 0.868172
vt 0.175839 2.086068
vt 0.020009 0.773648
vt 0.175755 0.226046
vt 1.249338 0.616121
vt 1.17504 -0.35425
vt 0.696878 0.117419
vt -0.312418 0.386797
vt 0.517325 0.590919
vt 0.024581 0.916402
vt -1.207003 0.139127
vt -1.134136 0.925094
vt 0.063462 0.569365
vt 0.944237 0.853167
vt 1.11808 1.379641
vt 0.601915 0.890023
vt -0.023122 1.405336
vt 1.190578 1.119222
vt 0.05953 0.693703
vt -0.939405 0.912659
vt -0.97007 1.971267
vt 0.048949 0.767234
vt -0.302456 -0.432065
vt 1.050879 -0.338449
vt 0.048949 0.767234
vt 1.050879 -0.338449
vt 0.956593 0.75584
vt 0.399537 0.151431
vt -0.06234 -1.379453
vt -0.611207 -0.70904
vt 0.961644 0.886246
vt 0.090377 0.534518
vt -0.109278 1.299833
vt 0.399537 0.151431
vt -0.659876 -0.635752
vt 0.125063 -1.328273
vt 0.215811 0.451657
vt 1.798208 0.767006
vt 0.820086 1.409838
vt 0.552456 0.996347
vt 0.128359 0.068469
vt 0.880063 0.976682
vt 0.048949 0.767234
vt -0.447884 0.030931
vt -0.302456 -0.432065
vt 0.422431 0.564321
vt 0.379641 -0.229962
vt 1.14354 0.205277
vt 0.707654 0.871901
vt 2.033811 0.971267
vt 1.260762 -0.032239
vt 0.741419 0.123169
vt 1.29096 -0.286638
vt 0.620547 -0.481534
vt 0.024581 0.038417
vt -1.134136 -0.235624
vt -1.447544 0.561054
vt 0.72962 0.097011
vt 1.260039 -0.873767
vt 0.32596 -0.303122
vt 0.561943 0.183942
vt 1.278455 1.773615
vt 0.359912 1.007129
vt 0.296583 0.205277
vt -0.864418 -0.144159
vt -0.380457 0.860882
vt 0.05953 0.693703
vt -0.97007 1.971267
vt -0.089794 1.862342
vt 0.135582 0.245445
vt 1.296583 1.14354
vt 0.324613 -0.297684
vt 0.977075 0.821761
vt 0.645573 1.807016
vt 1.562328 2.000521
vt 0.61113 0.253663
vt -0.022925 1.81415
vt 0.833714 1.551765
vt 0.838025 0.257972
vt 1.090074 1.574452
vt 1.885812 1.398445
vt 0.887684 0.410156
vt 1.798936 0.562073
vt 2.0047 -0.435696
vt 0.887684 0.410156
vt 1.182904 1.160236
vt 1.798936 0.562073
vt 0.061911 0.871629
vt -0.112316 1.410156
vt 1.0047 0.564304
vt 0.364248 0.41633
vt -0.258581 0.123169
vt -0.328273 1.004495
vt 0.61113 0.253663
vt -0.222968 1.057025
vt -0.022925 1.81415
vt 0.182904 0.160236
vt 0.429964 -1.247862
vt 1.021832 -1.266121
vt 0.182904 0.160236
vt -0.220823 -0.513721
vt 0.429964 -1.247862
vt 0.086068 0.785769
vt -0.095306 0.070204
vt -0.804502 0.287548
vt 0.429964 0.752138
vt -0.220823 1.486279
vt -0.229083 0.717227
vt 0.959429 0.707654
vt 1.910206 1.709161
vt 1.02993 2.033811
vt 0.190578 0.760265
vt 0.059578 1.522984
vt -0.398085 0.926501
vt 0.626671 0.644401
vt 0.620547 -0.481534
vt 1.382124 -0.516583
vt 0.112644 0.831415
vt 0.126233 -0.3766
vt 0.798208 0.767006
vt 0.031707 0.687582
vt 0.32596 1.696878
vt 0.824842 0.215811
vt 0.182904 0.345822
vt 1.263917 0.616838
vt 0.798936 -0.424084
vt 0.263917 0.302096
vt -0.817096 1.160236
vt 0.021832 -0.266121
vt 0.568999 0.086524
vt -0.325633 1.265813
vt 1.05953 1.676589
vt 0.151431 0.268564
vt -0.617876 -0.516583
vt -1.379453 -0.481534
vt 0.302096 0.616838
vt -0.266121 1.016474
vt -0.435696 -0.42081
vt 0.192365 0.026337
vt -0.038356 -1.113754
vt -1.109278 -0.700167
vt 0.562073 0.575916
vt 0.302096 1.616838
vt -0.435696 0.57919
vt 0.296066 0.95978
vt -0.437672 1.976978
vt -0.371807 0.830028
vt 0.398445 0.153245
vt -0.131828 1.142705
vt -0.742028 0.282508
vt 0.601915 0.890023
vt -0.231515 0.721068
vt -0.023122 1.405336
vt 0.824842 0.451657
vt 1.260039 -0.3766
vt 2.109554 0.831415
vt 0.0047 0.57919
vt -0.570036 2.015481
vt -1.229083 1.917494
vt 0.0047 0.57919
vt 0.021832 2.016474
vt -0.570036 2.015481
vt 0.97919 0.109651
vt 0.276006 -1.113754
vt 0.333651 0.026337
vt 0.551765 0.583732
vt 0.84282 1.277727
vt -0.215917 1.315472
vt 0.020337 0.767006
vt -0.6789 -0.265517
vt -1.27038 0.320703
vt 0.187733 0.705738
vt 0.324613 -0.325922
vt 1.063462 0.695016
vt 0.97919 0.109651
vt 1.723857 -0.966888
vt 0.276006 -1.113754
vt 0.276006 0.961644
vt 1.723857 0.91095
vt 0.836959 0.595932
vt 0.063462 0.695016
vt -0.675387 -0.325922
vt 0.973268 -0.478468
vt 0.086068 0.785769
vt -1.742028 0.282508
vt -1.226352 1.059941
vt 0.007129 0.01417
vt -0.109278 -0.700167
vt -0.816058 -0.789689
vt 0.0047 0.57919
vt -1.229083 1.917494
vt -0.938089 1.038667
vt 0.257903 0.615713
vt 0.206179 1.074213
vt 0.842257 0.807016
vt 0.569365 0.695016
vt 1.379641 -0.229962
vt 1.422431 0.564321
vt 0.086524 0.234149
vt 0.707654 0.871901
vt 1.260762 -0.032239
vt 0.871629 0.038667
vt 0.717227 0.917494
vt 1.486279 0.719572
vt 0.977075 0.821761
vt 2.001678 1.277727
vt 1.833714 0.583732
vt 0.871629 0.038667
vt 1.486279 0.719572
vt 1.410156 -0.110543
vt 0.626671 0.644401
vt 1.382124 -0.516583
vt 1.48994 0.623964
vt 0.81415 0.821761
vt 0.257903 1.615713
vt 0.842257 1.807016
vt 0.853167 0.163902
vt 0.659055 -0.478468
vt 1.379641 -0.229962
vt 0.410156 0.889457
vt 0.486279 1.719572
vt 1.160236 1.345822
vt 0.057025 0.915856
vt 0.257903 1.615713
vt 0.81415 0.821761
vt 0.090074 0.574452
vt 0.477388 0.853256
vt 0.885812 0.398445
vt 0.972631 0.583097
vt -0.316416 -0.098207
vt 0.578287 1.178769
vt 0.340124 0.364248
vt 1.399537 1.151431
vt 0.270016 -0.258581
vt 0.836959 0.595932
vt 0.561943 -0.816058
vt 0.300703 0.090377
vt 0.099343 0.852359
vt -0.701604 0.694326
vt -1.316416 0.901793
vt 0.099343 0.852359
vt -1.316416 0.901793
vt -0.027369 1.583097
vt 0.981508 0.142705
vt 0.020009 0.059941
vt 0.838025 -0.717492
vt 0.6122 0.05468
vt 0.139127 -0.322892
vt -0.82741 0.312275
vt 0.260762 0.967761
vt 0.811403 0.912659
vt 0.265813 0.566653
vt 0.833714 0.551765
vt 1.226126 -0.215917
vt 0.61113 -0.746337
vt 0.063462 0.569365
vt -0.380457 1.567446
vt -0.812267 0.66512
vt 0.296583 0.14354
vt -0.218797 -1.353813
vt -0.675387 -1.297683
vt 0.739745 0.992808
vt -0.701604 0.786792
vt 0.099343 0.472416
vt 0.024581 0.038417
vt -1.447544 0.561054
vt -1.119937 0.862432
vt 0.48994 0.623964
vt 0.382124 -0.516583
vt 1.151431 0.268564
vt 0.298396 0.786792
vt 0.109573 1.677662
vt -0.316416 1.056945
vt 0.88175 0.626671
vt 1.175161 1.48994
vt 0.125063 0.671727
vt 0.583054 0.560609
vt 1.11808 0.379641
vt -0.218797 -0.353813
vt 0.517325 0.590919
vt -0.312418 0.386797
vt -0.179914 1.409838
vt 0.72962 0.097011
vt 1.3211 -0.169035
vt 1.260039 -0.873767
vt 0.97919 0.897846
vt 0.333651 1.192365
vt 0.359912 0.007129
vt 0.739745 0.992808
vt -0.414502 1.922252
vt -0.890427 1.677662
vt 0.739745 0.992808
vt -0.890427 1.677662
vt -0.701604 0.786792
vt 0.977075 0.821761
vt 1.562328 2.000521
vt 2.001678 1.277727
vt 0.61113 0.40612
vt -0.3417 1.074213
vt -0.477323 0.615713
vt 0.820072 0.409838
vt 0.031707 -0.613203
vt 0.824842 -0.548343
vt 0.557518 0.422431
vt -0.380457 0.567446
vt 0.063462 -0.430635
vt 0.178769 0.088693
vt -0.524918 0.748686
vt -1.359645 -0.007192
vt 0.567446 0.860882
vt 0.245445 -0.144159
vt -0.33488 0.705738
vt 0.988346 0.475082
vt 0.585498 -0.291299
vt 1.739745 -0.359645
vt 0.72962 0.320703
vt 0.32596 0.117419
vt 0.11576 0.590919
vt 0.477388 0.853256
vt -0.824161 1.086068
vt -0.018492 -0.131828
vt 0.988346 0.475082
vt 0.578287 1.178769
vt 0.585498 -0.291299
vt 0.838025 0.257972
vt -0.360166 1.195498
vt 0.937088 1.71504
vt 0.996234 0.17259
vt 0.792997 1.139127
vt 1.980736 0.804503
vt 0.557518 0.422431
vt 0.296583 1.14354
vt -0.380457 0.567446
vt 0.578287 0.178769
vt 0.109573 -1.179569
vt 0.585498 -1.291299
vt 0.568999 0.086524
vt 0.910206 1.709161
vt -0.040571 0.707654
vt 0.562328 0.976978
vt -0.354427 0.842257
vt -0.3417 0.206179
vt 0.226126 0.315472
vt 0.296066 1.104673
vt -0.38887 0.40612
vt 0.178769 0.088693
vt -1.098207 0.056945
vt -1.179569 0.677662
vt 0.024341 0.262573
vt 0.676589 -0.306297
vt 0.709161 0.862342
vt 0.640355 0.992808
vt 1.583097 0.476695
vt 2.178769 1.088693
vt 0.108802 0.33146
vt -0.27038 -0.679297
vt -0.88424 -0.409081
vt 0.099343 0.852359
vt -0.027369 1.583097
vt 0.739745 0.640355
vt 0.583054 0.54233
vt 0.296583 1.205277
vt 1.11808 0.770038
vt 0.61113 0.40612
vt -0.477323 0.615713
vt -0.222968 -0.084144
vt 0.477388 0.853256
vt -0.018492 -0.131828
vt 0.885812 0.398445
vt 0.956747 0.045854
vt 1.024581 -0.961583
vt -0.119937 -0.137568
vt 0.88175 0.644401
vt -0.729984 0.123169
vt -0.06234 -0.481534
vt 0.125063 0.671727
vt 1.175161 1.48994
vt 0.399537 2.151431
vt 0.996347 0.561054
vt 0.6122 0.05468
vt 0.068469 0.452241
vt 0.05953 0.676589
vt -1.325633 0.265813
vt -0.939405 0.811403
vt 0.108802 0.897331
vt -0.88424 0.517325
vt -0.179928 -0.179914
vt 0.296583 0.14354
vt 0.583054 -0.439391
vt -0.218797 -1.353813
vt 0.175839 0.086068
vt -0.360166 -0.804502
vt 0.838025 -1.742028
vt 0.621981 0.522984
vt 1.119222 -0.239735
vt 2.177347 0.091529
vt 0.257972 0.282508
vt 1.71504 -0.606457
vt 1.574452 -0.255698
vt 0.804503 0.106063
vt 1.916402 0.038417
vt 1.846978 1.045854
vt 0.773615 0.838441
vt 0.91095 0.033112
vt 0.897846 1.109651
vt 0.621981 0.522984
vt 2.177347 0.091529
vt 0.766125 0.833585
vt 0.063462 0.695016
vt 0.973268 -0.478468
vt 0.944237 0.163902
vt 0.125063 0.004495
vt -0.729984 -0.876831
vt 0.88175 -0.355599
vt 0.177347 0.091529
vt -0.594664 -0.490205
vt -1.282247 0.020523
vt 0.020337 0.798208
vt -0.891198 0.897331
vt -1.179928 -0.179914
vt 0.717753 0.020523
vt 1.405336 -0.490205
vt 0.721068 -0.566354
vt 0.568999 0.086524
vt 1.155308 1.024341
vt 0.910206 1.709161
vt 0.177347 0.091529
vt -1.282247 0.020523
vt -1.20252 0.419242
vt 0.090377 0.534518
vt -0.816058 1.210311
vt -0.109278 1.299833
vt 0.561943 0.210311
vt 1.683957 -0.160066
vt 1.43524 0.827345
vt 0.086524 0.234149
vt 1.676589 -0.306297
vt 1.024341 0.262573
vt 0.452194 0.598386
vt 1.177347 0.091529
vt -0.20252 0.419242
vt 0.937088 0.393543
vt -0.249695 1.070204
vt 0.175839 1.785769
vt 0.086524 0.234149
vt 1.260762 -0.032239
vt 1.265813 -0.433347
vt 0.737576 0.452194
vt 0.481208 -0.20252
vt 1.877469 -0.233875
vt 0.324613 0.674078
vt 0.781203 0.401503
vt 1.973268 0.521532
vt 0.371288 0.177347
vt -0.262424 -0.547806
vt 0.877469 -1.233875
vt 0.175839 0.785769
vt 1.477388 0.234229
vt 1.090074 -0.255698
vt 0.552456 0.561054
vt 0.865864 -0.235624
vt 0.366038 0.05468
vt 0.95978 0.104673
vt 0.784083 -0.684528
vt 1.84282 -0.722273
vt 0.562328 0.976978
vt -0.3417 0.206179
vt 0.61113 -0.746337
vt 0.877469 0.833585
vt -0.518792 0.419242
vt 1.059578 0.522984
vt 0.773615 0.838441
vt 0.271 -0.160066
vt 0.91095 0.033112
vt 0.976978 0.000521
vt -0.746337 -0.59388
vt -0.169972 0.31895
vt 0.798208 0.767006
vt 0.126233 -0.3766
vt 0.830965 -0.265517
vt 0.561943 0.183942
vt 1.43524 1.066189
vt 1.278455 1.773615
vt 0.84282 0.277727
vt 0.976978 1.000521
vt -0.04022 1.104673
vt 0.481208 0.419242
vt 0.313721 0.020523
vt 0.768485 -0.566354
vt 0.059578 0.522984
vt -1.518792 0.419242
vt -1.231515 -0.566354
vt 0.824842 0.215811
vt 2.109554 1.112644
vt 2.020337 1.798208
vt 0.059578 0.621981
vt -1.231515 0.721068
vt -0.398085 0.890023
vt 0.865864 0.925094
vt 0.792997 0.139127
vt 0.366038 0.6122
usemtl caveEntrance
f 22/1 72/2 93/3
f 33/4 74/5 11/6
f 117/7 124/8 125/9
f 66/10 104/11 40/12
f 18/13 1/14 10/15
f 25/16 18/17 17/18
f 18/19 10/20 17/21
f 99/22 42/23 27/24
f 19/25 20/26 87/27
f 20/28 48/29 62/30
f 88/31 94/32 92/33
f 25/34 1/35 18/36
f 7/37 118/38 6/39
f 30/40 1/41 25/42
f 22/43 41/44 59/45
f 21/46 24/47 30/48
f 66/49 40/50 102/51
f 24/52 1/53 30/54
f 21/55 8/56 24/57
f 9/58 56/59 105/60
f 70/61 44/62 5/63
f 14/64 102/65 90/66
f 67/67 48/68 20/69
f 78/70 34/71 112/72
f 23/73 48/74 45/75
f 85/76 4/77 36/78
f 3/79 24/80 8/81
f 3/82 1/83 24/84
f 102/85 40/86 104/87
f 99/88 66/89 102/90
f 17/91 3/92 8/93
f 90/94 102/95 104/96
f 45/97 39/98 36/99
f 120/100 16/101 57/102
f 17/103 10/104 3/105
f 29/106 41/107 96/108
f 1/109 3/110 10/111
f 33/112 68/113 2/114
f 27/115 42/116 122/117
f 89/118 51/119 16/120
f 91/121 94/122 88/123
f 86/124 105/125 56/126
f 21/127 25/128 17/129
f 21/130 17/131 8/132
f 117/133 121/134 124/135
f 19/136 87/137 4/138
f 117/139 116/140 119/141
f 11/142 7/143 58/144
f 28/145 90/146 104/147
f 21/148 30/149 25/150
f 95/151 16/152 114/153
f 38/154 56/155 9/156
f 125/157 124/158 121/159
f 27/160 122/161 28/162
f 118/163 74/164 33/165
f 62/166 45/167 36/168
f 114/169 70/170 15/171
f 86/172 56/173 75/174
f 70/175 114/176 44/177
f 13/178 106/179 97/180
f 112/181 13/182 65/183
f 77/184 59/185 69/186
f 32/187 47/188 46/189
f 32/190 35/191 47/192
f 43/193 32/194 46/195
f 116/196 125/197 119/198
f 112/199 55/200 13/201
f 35/202 50/203 54/204
f 35/205 37/206 50/207
f 41/208 93/209 72/210
f 50/211 37/212 49/213
f 38/214 75/215 56/216
f 88/217 103/218 91/219
f 83/220 121/221 52/222
f 26/223 74/224 7/225
f 68/226 33/227 11/228
f 35/229 53/230 47/231
f 53/232 35/233 54/234
f 107/235 73/236 86/237
f 117/238 52/239 121/240
f 53/241 54/242 46/243
f 85/244 19/245 4/246
f 47/247 53/248 46/249
f 78/250 97/251 34/252
f 69/253 29/254 77/255
f 91/256 98/257 94/258
f 11/259 74/260 26/261
f 46/262 50/263 49/264
f 46/265 54/266 50/267
f 39/268 19/269 85/270
f 65/271 123/272 113/273
f 7/274 115/275 118/276
f 5/277 44/278 89/279
f 39/280 67/281 19/282
f 19/283 67/284 20/285
f 89/286 44/287 57/288
f 41/289 77/290 96/291
f 36/292 4/293 62/294
f 46/295 49/296 43/297
f 100/298 12/299 106/300
f 89/301 16/302 95/303
f 107/304 38/305 9/306
f 43/307 49/308 37/309
f 13/310 123/311 65/312
f 43/313 37/314 32/315
f 83/316 52/317 101/318
f 13/319 100/320 106/321
f 51/322 57/323 16/324
f 32/325 37/326 35/327
f 55/328 100/329 13/330
f 59/331 76/332 69/333
f 79/334 81/335 61/336
f 116/337 117/338 125/339
f 20/340 62/341 87/342
f 84/343 80/344 81/345
f 84/346 81/347 79/348
f 29/349 96/350 77/351
f 14/352 42/353 102/354
f 9/355 105/356 73/357
f 65/358 113/359 112/360
f 89/361 15/362 5/363
f 114/364 120/365 44/366
f 63/367 80/368 84/369
f 27/370 28/371 104/372
f 101/373 52/374 117/375
f 80/376 71/377 81/378
f 83/379 101/380 119/381
f 82/382 16/383 120/384
f 2/385 68/386 58/387
f 118/388 115/389 74/390
f 39/391 85/392 36/393
f 63/394 64/395 71/396
f 63/397 71/398 80/399
f 13/400 97/401 123/402
f 112/403 12/404 100/405
f 58/406 68/407 11/408
f 95/409 15/410 89/411
f 61/412 60/413 63/414
f 15/415 70/416 5/417
f 60/418 64/419 63/420
f 118/421 33/422 2/423
f 76/424 41/425 29/426
f 60/427 61/428 64/429
f 77/430 72/431 22/432
f 102/433 42/434 99/435
f 95/436 114/437 15/438
f 61/439 71/440 64/441
f 107/442 75/443 38/444
f 97/445 106/446 12/447
f 113/448 78/449 112/450
f 61/451 81/452 71/453
f 31/454 86/455 75/456
f 63/457 79/458 61/459
f 6/460 118/461 2/462
f 84/463 79/464 63/465
f 82/466 114/467 16/468
f 112/469 100/470 55/471
f 76/472 29/473 69/474
f 66/475 27/476 104/477
f 83/478 125/479 121/480
f 119/481 101/482 117/483
f 28/484 14/485 90/486
f 86/487 73/488 105/489
f 6/490 2/491 58/492
f 114/493 82/494 120/495
f 41/496 72/497 77/498
f 103/499 88/500 92/501
f 77/502 22/503 59/504
f 99/505 27/506 66/507
f 45/508 67/509 39/510
f 103/511 92/512 109/513
f 89/514 57/515 51/516
f 119/517 125/518 83/519
f 92/520 94/521 108/522
f 7/523 6/524 58/525
f 108/526 94/527 98/528
f 107/529 31/530 75/531
f 92/532 108/533 111/534
f 87/535 62/536 4/537
f 62/538 48/539 23/540
f 107/541 86/542 31/543
f 110/544 92/545 111/546
f 22/547 93/548 41/549
f 107/550 9/551 73/552
f 110/553 111/554 109/555
f 44/556 120/557 57/558
f 92/559 110/560 109/561
f 41/562 76/563 59/564
f 28/565 122/566 14/567
f 78/568 113/569 123/570
f 97/571 12/572 112/573
f 109/574 111/575 103/576
f 45/577 48/578 67/579
f 97/580 112/581 34/582
f 7/583 74/584 115/585
f 62/586 23/587 45/588
f 123/589 97/590 78/591
f 111/592 108/593 98/594
f 103/595 111/596 98/597
f 11/598 26/599 7/600
f 103/601 98/602 91/603
f 122/604 42/605 14/606
