mtllib chest.mtl
o chest
v 0.225987 0.356291 -0.185411
v -0.14402 0.356291 -0.185411
v 0.225987 0.023709 -0.185411
v -0.14402 0.023709 -0.185411
v 0.225987 0.356291 -0.026257
v -0.14402 0.356291 -0.026257
v 0.225987 0.023709 -0.026257
v -0.14402 0.023709 -0.026257
v -0.167171 0 -0.026257
v -0.167171 0.004351 -0.2
v -0.167171 0.375649 -0.2
v 0.249137 0 -0.026257
v 0.249137 0.004351 -0.2
v 0.249137 0.375649 -0.2
v 0.249137 0.38 -0.026257
v -0.167171 0.38 -0.026257
v 0.262403 0.19 -0.132499
v 0.262403 0.166665 -0.110295
v 0.262403 0.175578 -0.074368
v 0.262403 0.204422 -0.074368
v 0.262403 0.213335 -0.110295
v 0.234302 0.19 -0.132499
v 0.234302 0.166665 -0.110295
v 0.234302 0.175578 -0.074368
v 0.234302 0.204422 -0.074368
v 0.234302 0.213335 -0.110295
v 0.262403 0.19 -0.100365
v 0.262403 0.185193 -0.074368
v 0.262403 0.194807 -0.074368
v 0.234302 0.185193 -0.074368
v 0.234302 0.194807 -0.074368
v 0.234302 0.185193 -0.031998
v 0.262403 0.185193 -0.031998
v 0.234302 0.175578 -0.031998
v 0.262403 0.175578 -0.031998
v 0.262403 0.194807 -0.031998
v 0.234302 0.194807 -0.031998
v 0.234302 0.204422 -0.031998
v 0.262403 0.204422 -0.031998
v 0.267611 0.19 -0.100365
v 0.275 0.194807 -0.074368
v 0.275 0.185193 -0.074368
v 0.136536 0.201668 0.139348
v 0.12555 0.201668 0.132824
v 0.12555 0.19 0.132824
v 0.136536 0.19 0.139348
v 0.12555 0.178332 0.132824
v 0.136536 0.178332 0.139348
v 0.198359 0.184242 0.090662
v 0.180727 0.178332 0.104284
v 0.169742 0.178332 0.09776
v 0.198359 0.195758 0.090662
v 0.180727 0.201668 0.104284
v 0.169742 0.201668 0.09776
v 0.219113 0.19 0.059614
v 0.209959 0.185831 0.066686
v 0.209959 0.194169 0.066686
v 0.192705 0.195635 0.080018
v 0.192705 0.184365 0.080018
v 0.203126 0.184365 0.086979
v 0.220945 0.185831 0.07321
v 0.203126 0.195635 0.086979
v 0.203691 0.201515 0.086542
v 0.193027 0.19 0.094781
v 0.203691 0.178484 0.086542
v 0.220945 0.197117 0.07321
v 0.220945 0.194169 0.07321
v 0.220945 0.182883 0.07321
v 0.180727 0.19 0.104284
v 0.195134 0.213335 0.093153
v 0.230099 0.204422 0.066138
v 0.230099 0.175578 0.066138
v 0.195134 0.166665 0.093153
v 0.169742 0.19 0.09776
v 0.184148 0.213335 0.086629
v 0.219113 0.204422 0.059614
v 0.219113 0.175578 0.059614
v 0.184148 0.166665 0.086629
v 0.230099 0.19 0.066138
v 0.219113 0.19 0.059614
v -0.069371 0.356291 0.158501
v -0.157028 0.356291 0.130769
v -0.210063 0.356291 0.077125
v -0.069371 0.023709 0.158501
v -0.157028 0.023709 0.130769
v -0.210063 0.023709 0.077125
v 0.055326 0.356291 0.061241
v -0.01502 0.356291 0.020553
v -0.085366 0.356291 -0.020135
v 0.055326 0.023709 0.061241
v -0.015019 0.023709 0.020553
v -0.085366 0.023709 -0.020135
v -0.094169 0 -0.025226
v -0.015019 0 0.020553
v 0.06413 0 0.066333
v -0.226651 0.004351 0.078488
v -0.171014 0.004351 0.141863
v -0.068353 0.004351 0.170048
v -0.226651 0.375649 0.078488
v -0.171014 0.375649 0.141863
v -0.068353 0.375649 0.170048
v -0.094169 0.38 -0.025226
v -0.01502 0.38 0.020553
v 0.06413 0.38 0.066333
v 0.052093 0.356291 0.178722
v -0.243409 0.356291 0.008748
v 0.052094 0.023709 0.178722
v -0.243409 0.023709 0.008748
v 0.139791 0.356291 0.109151
v -0.155712 0.356291 -0.060823
v 0.139791 0.023709 0.109151
v -0.155712 0.023709 -0.060823
v -0.275 0.004351 0.009659
v -0.275 0.375649 0.00966
v -0.173318 0.38 -0.071006
v 0.157396 0 0.119335
v 0.157396 0.38 0.119335
v 0.055714 0.004351 0.2
v 0.055714 0.375649 0.2
v -0.173318 0 -0.071006
vt 0.581844 0.349814
vt 0.403788 0.349207
vt 0.404751 0
vt 0.582807 0.000608
vt 0.086174 0.999609
vt 0.086726 0.798675
vt 0.201438 0.799067
vt 0.200886 1
vt 0.915266 0.740059
vt 0.915818 0.940992
vt 0.801105 0.941383
vt 0.800553 0.74045
vt 0.698011 0.349425
vt 0.698974 0.000219
vt 0.812855 0.000608
vt 0.811892 0.349814
vt 0.582807 0.349424
vt 0.58377 0.000218
vt 0.698011 0.000608
vt 0.697048 0.349814
vt 0.077105 0.794531
vt 0.07603 0.404672
vt 0.200338 0.39968
vt 0.201438 0.798675
vt 0.673597 0.349814
vt 0.674697 0.74881
vt 0.549972 0.744667
vt 0.548897 0.354808
vt 0.403788 0.74064
vt 0.403167 0.966717
vt 0.277932 0.966322
vt 0.278553 0.740245
vt 0.675318 0.96653
vt 0.674697 0.740453
vt 0.799933 0.740059
vt 0.800553 0.966136
vt 0.201438 0.000687
vt 0.402713 0
vt 0.403788 0.389859
vt 0.202513 0.390546
vt 0.200338 0.39968
vt 0 0.398996
vt 0.011209 0.374139
vt 0.189266 0.374747
vt 0 0.398996
vt 0.0011 0
vt 0.012172 0.024933
vt 0.011209 0.374139
vt 0.0011 0
vt 0.201438 0.000684
vt 0.190229 0.02554
vt 0.012172 0.024933
vt 0.201438 0.000684
vt 0.200338 0.39968
vt 0.189266 0.374747
vt 0.190229 0.02554
vt 0.237644 0.845758
vt 0.258388 0.857196
vt 0.23426 0.871137
vt 0.237644 0.845758
vt 0.253849 0.827448
vt 0.258388 0.857196
vt 0.237644 0.845758
vt 0.214809 0.850006
vt 0.226916 0.823004
vt 0.237644 0.845758
vt 0.23426 0.871137
vt 0.214809 0.850006
vt 0.073733 0.712144
vt 0.07603 0.736638
vt 0.062444 0.736684
vt 0.060147 0.71219
vt 0.075917 0.562032
vt 0.075936 0.590818
vt 0.062216 0.590865
vt 0.062198 0.562079
vt 0.075936 0.658848
vt 0.075917 0.687635
vt 0.062198 0.687588
vt 0.062216 0.658801
vt 0.075894 0.687635
vt 0.073733 0.712144
vt 0.060147 0.71219
vt 0.062308 0.687681
vt 0.253849 0.827448
vt 0.237644 0.845758
vt 0.244871 0.825967
vt 0.235893 0.824486
vt 0.237644 0.845758
vt 0.226916 0.823004
vt 0.051761 0.661502
vt 0.051802 0.646461
vt 0.060878 0.646492
vt 0.060837 0.661533
vt 0.075936 0.736684
vt 0.07603 0.770652
vt 0.06231 0.770699
vt 0.062216 0.736731
vt 0.244871 0.825967
vt 0.249334 0.792505
vt 0.258311 0.793986
vt 0.253849 0.827448
vt 0.075936 0.590818
vt 0.07603 0.624786
vt 0.06231 0.624833
vt 0.062216 0.590865
vt 0.061038 0.785741
vt 0.061079 0.770699
vt 0.070155 0.77073
vt 0.070114 0.785772
vt 0.258417 0.774214
vt 0.258511 0.740245
vt 0.27223 0.740292
vt 0.272136 0.77426
vt 0.226916 0.823004
vt 0.231378 0.789542
vt 0.240356 0.791023
vt 0.235893 0.824486
vt 0.062216 0.658801
vt 0.06231 0.624833
vt 0.07603 0.62488
vt 0.075936 0.658848
vt 0.415177 0.788833
vt 0.415219 0.773792
vt 0.424294 0.773823
vt 0.424253 0.788864
vt 0.409938 0.794643
vt 0.403788 0.794664
vt 0.407371 0.7738
vt 0.409913 0.773792
vt 0.432562 0.792337
vt 0.43002 0.792329
vt 0.426437 0.771465
vt 0.432587 0.771486
vt 0.051802 0.646461
vt 0.051821 0.639718
vt 0.060897 0.639749
vt 0.060878 0.646492
vt 0.052066 0.683248
vt 0.052094 0.661533
vt 0.060897 0.680916
vt 0.053046 0.824737
vt 0.061985 0.833764
vt 0.052095 0.838124
vt 0.035074 0.840796
vt 0.042807 0.829251
vt 0.053046 0.824737
vt 0.052095 0.838124
vt 0.07603 0.82274
vt 0.061985 0.833764
vt 0.053046 0.824737
vt 0.063285 0.820223
vt 0.061632 0.848833
vt 0.048976 0.854412
vt 0.056382 0.845978
vt 0.061632 0.848833
vt 0.061632 0.848833
vt 0.063699 0.842752
vt 0.074288 0.843253
vt 0.061632 0.848833
vt 0.074288 0.843253
vt 0.063699 0.842752
vt 0.061985 0.833764
vt 0.07603 0.82274
vt 0.035074 0.840796
vt 0.052095 0.838124
vt 0.056382 0.845978
vt 0.048976 0.854412
vt 0.075996 0.78297
vt 0.075962 0.79522
vt 0.070155 0.795201
vt 0.070189 0.78295
vt 0.07603 0.770719
vt 0.075996 0.78297
vt 0.070189 0.78295
vt 0.070223 0.770699
vt 0.063285 0.820223
vt 0.053046 0.824737
vt 0.045368 0.80319
vt 0.055607 0.798675
vt 0.403822 0.761471
vt 0.403855 0.74922
vt 0.424294 0.74929
vt 0.424261 0.761541
vt 0.060639 0.598993
vt 0.053506 0.599036
vt 0.053764 0.562075
vt 0.060897 0.562032
vt 0.053046 0.824737
vt 0.042807 0.829251
vt 0.035129 0.807704
vt 0.045368 0.80319
vt 0.403788 0.773722
vt 0.403822 0.761471
vt 0.424261 0.761541
vt 0.424227 0.773792
vt 0.052756 0.728317
vt 0.059889 0.72836
vt 0.060147 0.765321
vt 0.053014 0.765278
vt 0.061573 0.53149
vt 0.064014 0.525453
vt 0.06374 0.531626
vt 0.059132 0.537527
vt 0.061573 0.53149
vt 0.06374 0.531626
vt 0.061573 0.53149
vt 0.059132 0.537527
vt 0.053539 0.537508
vt 0.053573 0.525257
vt 0.064014 0.525453
vt 0.061573 0.53149
vt 0.053573 0.525257
vt 0.060157 0.513029
vt 0.060015 0.716442
vt 0.059889 0.72836
vt 0.052756 0.728317
vt 0.052882 0.716399
vt 0.061539 0.543581
vt 0.059132 0.537527
vt 0.063707 0.543459
vt 0.063947 0.549634
vt 0.061539 0.543581
vt 0.063707 0.543459
vt 0.061539 0.543581
vt 0.063947 0.549634
vt 0.060022 0.562032
vt 0.053506 0.549759
vt 0.059132 0.537527
vt 0.061539 0.543581
vt 0.053506 0.549759
vt 0.053539 0.537508
vt 0.060639 0.598993
vt 0.060765 0.61091
vt 0.053632 0.610953
vt 0.053506 0.599036
vt 0.432587 0.771465
vt 0.425454 0.771459
vt 0.425435 0.7639
vt 0.432568 0.763906
vt 0.060127 0.772879
vt 0.052994 0.772885
vt 0.053014 0.765326
vt 0.060147 0.765321
vt 0.432568 0.763906
vt 0.425435 0.7639
vt 0.425435 0.74968
vt 0.432569 0.74922
vt 0.060129 0.787565
vt 0.052995 0.787105
vt 0.052994 0.772885
vt 0.060127 0.772879
vt 0.27223 0.786093
vt 0.266295 0.786113
vt 0.266263 0.774281
vt 0.272198 0.77426
vt 0.063707 0.543459
vt 0.059132 0.537527
vt 0.06374 0.531626
vt 0.063707 0.543459
vt 0.071814 0.541947
vt 0.071805 0.545043
vt 0.063947 0.549634
vt 0.064014 0.525453
vt 0.071846 0.530098
vt 0.071838 0.533193
vt 0.06374 0.531626
vt 0.060022 0.562032
vt 0.063947 0.549634
vt 0.071805 0.545043
vt 0.075946 0.552727
vt 0.07603 0.522442
vt 0.071846 0.530098
vt 0.064014 0.525453
vt 0.060157 0.513029
vt 0.075946 0.552727
vt 0.071805 0.545043
vt 0.071814 0.541947
vt 0.075988 0.537584
vt 0.075988 0.537584
vt 0.071838 0.533193
vt 0.071846 0.530098
vt 0.07603 0.522442
vt 0.548939 0.763953
vt 0.554621 0.763972
vt 0.554579 0.779115
vt 0.548897 0.779096
vt 0.548939 0.763953
vt 0.548981 0.74881
vt 0.554662 0.748829
vt 0.554621 0.763972
vt 0.060765 0.61091
vt 0.060852 0.639675
vt 0.053719 0.639718
vt 0.053632 0.610953
vt 0.060102 0.687678
vt 0.060015 0.716442
vt 0.052882 0.716399
vt 0.052969 0.687635
vt 0.053492 0.513029
vt 0.053621 0.46607
vt 0.07603 0.456354
vt 0.075887 0.508209
vt 0.484957 0.724052
vt 0.520569 0.723931
vt 0.525094 0.74881
vt 0.485025 0.748947
vt 0.449344 0.724174
vt 0.484957 0.724052
vt 0.485025 0.748947
vt 0.444957 0.749084
vt 0.413732 0.724295
vt 0.449344 0.724174
vt 0.444957 0.749084
vt 0.404888 0.74922
vt 0.448381 0.374967
vt 0.412769 0.375089
vt 0.403788 0.350224
vt 0.443856 0.350088
vt 0.483993 0.374846
vt 0.448381 0.374967
vt 0.443856 0.350088
vt 0.483925 0.349951
vt 0.519606 0.374724
vt 0.483993 0.374846
vt 0.483925 0.349951
vt 0.523993 0.349814
vt 0.053621 0.446638
vt 0.053492 0.39968
vt 0.075887 0.404499
vt 0.07603 0.456354
vt 0.504867 0.374774
vt 0.50583 0.723981
vt 0.454283 0.724157
vt 0.45332 0.37495
vt 0.547934 0.374627
vt 0.548897 0.723834
vt 0.50583 0.723981
vt 0.504867 0.374774
vt 0.301773 0.390891
vt 0.302736 0.740098
vt 0.25938 0.740245
vt 0.258417 0.391039
vt 0.361472 0.390687
vt 0.362435 0.739894
vt 0.302736 0.740098
vt 0.301773 0.390891
vt 0.894497 0.510107
vt 0.987341 0.51113
vt 0.960364 0.560453
vt 0.894427 0.56034
vt 0.894568 0.459873
vt 1 0.461323
vt 0.987341 0.51113
vt 0.894497 0.510107
vt 0.894638 0.409639
vt 0.987481 0.410663
vt 1 0.461323
vt 0.894568 0.459873
vt 0.894204 0.349814
vt 0.960141 0.349926
vt 0.987481 0.410663
vt 0.894638 0.409639
vt 0.813289 0.289989
vt 0.906133 0.288965
vt 0.878792 0.349702
vt 0.812855 0.349814
vt 0.813219 0.239755
vt 0.918652 0.238305
vt 0.906133 0.288965
vt 0.813289 0.289989
vt 0.813149 0.189522
vt 0.905992 0.188498
vt 0.918652 0.238305
vt 0.813219 0.239755
vt 0.813079 0.139288
vt 0.879016 0.139176
vt 0.905992 0.188498
vt 0.813149 0.189522
vt 0.558654 0.927961
vt 0.65752 0.928878
vt 0.635044 0.984639
vt 0.558575 0.984481
vt 0.558733 0.871441
vt 0.674697 0.872938
vt 0.65752 0.928878
vt 0.558654 0.927961
vt 0.558812 0.814921
vt 0.657678 0.815839
vt 0.674697 0.872938
vt 0.558733 0.871441
vt 0.558387 0.74881
vt 0.634856 0.748969
vt 0.657678 0.815839
vt 0.558812 0.814921
vt 0.53172 0.804981
vt 0.432854 0.805899
vt 0.432775 0.749379
vt 0.509244 0.74922
vt 0.548897 0.860922
vt 0.432933 0.862419
vt 0.432854 0.805899
vt 0.53172 0.804981
vt 0.531878 0.918021
vt 0.433012 0.918939
vt 0.432933 0.862419
vt 0.548897 0.860922
vt 0.509056 0.984891
vt 0.432587 0.98505
vt 0.433012 0.918939
vt 0.531878 0.918021
vt 0.843514 0.349997
vt 0.842439 0.739857
vt 0.788739 0.739674
vt 0.789814 0.349814
vt 0.894204 0.35017
vt 0.893129 0.74003
vt 0.842439 0.739857
vt 0.843514 0.349997
vt 0.727002 0.349989
vt 0.725926 0.739848
vt 0.674697 0.739674
vt 0.675772 0.349814
vt 0.788739 0.3502
vt 0.787663 0.740059
vt 0.725926 0.739848
vt 0.727002 0.349989
vt 0.202401 0.764678
vt 0.201438 0.415471
vt 0.210282 0.390546
vt 0.211383 0.789542
vt 0.412769 0.375089
vt 0.413732 0.724295
vt 0.404888 0.74922
vt 0.403788 0.350224
vt 0.402825 0.390546
vt 0.403788 0.739753
vt 0.362435 0.739894
vt 0.361472 0.390687
vt 0.413732 0.724295
vt 0.412769 0.375089
vt 0.45332 0.37495
vt 0.454283 0.724157
vt 0.047935 0.39968
vt 0.049035 0.798676
vt 0.001075 0.794271
vt 0 0.404411
vt 0.257312 0.394954
vt 0.258388 0.784813
vt 0.211383 0.789542
vt 0.210282 0.390546
usemtl chest
f 1/1 2/2 4/3 3/4
f 2/5 1/6 5/7 6/8
f 8/9 7/10 3/11 4/12
f 1/13 3/14 7/15 5/16
f 4/17 2/18 6/19 8/20
f 11/21 10/22 9/23 16/24
f 15/25 12/26 13/27 14/28
f 12/29 9/30 10/31 13/32
f 14/33 11/34 16/35 15/36
f 11/37 14/38 13/39 10/40
f 15/41 16/42 6/43 5/44
f 16/45 9/46 8/47 6/48
f 9/49 12/50 7/51 8/52
f 12/53 15/54 5/55 7/56
f 27/57 18/58 17/59
f 27/60 19/61 18/62
f 27/63 21/64 20/65
f 27/66 17/67 21/68
f 17/69 18/70 23/71 22/72
f 18/73 19/74 24/75 23/76
f 20/77 21/78 26/79 25/80
f 21/81 17/82 22/83 26/84
f 19/85 27/86 28/87
f 29/88 27/89 20/90
f 30/91 28/92 29/93 31/94
f 30/95 32/96 33/97 28/98
f 28/99 33/100 35/101 19/102
f 19/103 35/104 34/105 24/106
f 34/107 35/108 33/109 32/110
f 29/111 36/112 37/113 31/114
f 20/115 39/116 36/117 29/118
f 25/119 38/120 39/121 20/122
f 37/123 36/124 39/125 38/126
f 29/127 41/128 40/129 27/130
f 27/131 40/132 42/133 28/134
f 28/135 42/136 41/137 29/138
f 42/139 40/140 41/141
f 74/142 58/143 59/144
f 78/145 51/146 74/147 59/148
f 75/149 58/150 74/151 54/152
f 80/153 77/154 56/155 55/156
f 80/157 57/158 76/159 55/160
f 76/161 57/162 58/163 75/164
f 78/165 59/166 56/167 77/168
f 46/169 43/170 44/171 45/172
f 48/173 46/174 45/175 47/176
f 54/177 74/178 45/179 44/180
f 69/181 53/182 43/183 46/184
f 53/185 54/186 44/187 43/188
f 74/189 51/190 47/191 45/192
f 50/193 69/194 46/195 48/196
f 51/197 50/198 48/199 47/200
f 49/201 65/202 60/203
f 64/204 49/205 60/206
f 49/207 64/208 69/209 50/210
f 65/211 49/212 50/213 73/214
f 73/215 50/216 51/217 78/218
f 52/219 64/220 62/221
f 63/222 52/223 62/224
f 52/225 63/226 70/227 53/228
f 64/229 52/230 53/231 69/232
f 53/233 70/234 75/235 54/236
f 79/237 55/238 56/239 61/240
f 67/241 57/242 55/243 79/244
f 61/245 56/246 59/247 60/248
f 62/249 58/250 57/251 67/252
f 60/253 59/254 58/255 62/256
f 62/257 64/258 60/259
f 62/260 67/261 66/262 63/263
f 65/264 68/265 61/266 60/267
f 70/268 63/269 66/270 71/271
f 72/272 68/273 65/274 73/275
f 71/276 66/277 67/278 79/279
f 79/280 61/281 68/282 72/283
f 80/284 79/285 72/286 77/287
f 80/288 76/289 71/290 79/291
f 70/292 71/293 76/294 75/295
f 72/296 73/297 78/298 77/299
f 90/300 111/301 116/302 95/303
f 91/304 90/305 95/306 94/307
f 92/308 91/309 94/310 93/311
f 112/312 92/313 93/314 120/315
f 89/316 110/317 115/318 102/319
f 88/320 89/321 102/322 103/323
f 87/324 88/325 103/326 104/327
f 109/328 87/329 104/330 117/331
f 83/332 86/333 108/334 106/335
f 82/336 85/337 86/338 83/339
f 81/340 84/341 85/342 82/343
f 105/344 107/345 84/346 81/347
f 89/348 83/349 106/350 110/351
f 88/352 82/353 83/354 89/355
f 87/356 81/357 82/358 88/359
f 109/360 105/361 81/362 87/363
f 90/364 84/365 107/366 111/367
f 91/368 85/369 84/370 90/371
f 92/372 86/373 85/374 91/375
f 112/376 108/377 86/378 92/379
f 93/380 96/381 113/382 120/383
f 94/384 97/385 96/386 93/387
f 95/388 98/389 97/390 94/391
f 116/392 118/393 98/394 95/395
f 99/396 102/397 115/398 114/399
f 100/400 103/401 102/402 99/403
f 101/404 104/405 103/406 100/407
f 119/408 117/409 104/410 101/411
f 96/412 99/413 114/414 113/415
f 97/416 100/417 99/418 96/419
f 98/420 101/421 100/422 97/423
f 118/424 119/425 101/426 98/427
f 111/428 109/429 117/430 116/431
f 110/432 112/433 120/434 115/435
f 109/436 111/437 107/438 105/439
f 112/440 110/441 106/442 108/443
f 115/444 120/445 113/446 114/447
f 119/448 118/449 116/450 117/451
