mtllib iglooWall.mtl
o iglooWall
v 0.488349 0.086422 0.040098
v 0.488349 0.086429 -0.01418
v 0.488349 0 0.04078
v 0.488349 0 -0.014175
v -0.408729 0 -0.014175
v -0.273848 0 -0.024128
v -0.408729 0 0.04078
v -0.273815 0 0.026659
v -0.273259 0.094932 -0.024128
v -0.408729 0.086429 -0.01418
v -0.273225 0.094931 0.026659
v -0.408729 0.086422 0.040098
v -0.420735 0.114828 -0.018336
v -0.421952 0.055402 0.020293
v -0.415509 0.168319 0.020733
v -0.422235 0.145941 -0.01559
v -0.411972 0.233609 -0.007635
v -0.408588 0.255148 0.027441
v -0.415189 0.142191 0.026941
v -0.416665 0.200942 -0.012691
v -0.40438 0.286034 -0.008108
v -0.403793 0.227061 0.031193
v -0.403494 0.338435 0.029341
v -0.404221 0.317564 -0.004743
v -0.408643 0.464668 0.03214
v -0.409138 0.329195 0.034475
v -0.415411 0.459608 -0.000099
v -0.417938 0.435832 0.025417
v -0.420474 0.546035 0.022796
v -0.421594 0.524879 -0.011317
v -0.274842 0.142037 -0.022856
v -0.273795 0.16323 0.008722
v -0.274468 0.044551 0.009462
v -0.275373 0.097455 -0.028083
v 0.29535 0.121909 -0.034529
v 0.287918 0.155424 -0.03148
v 0.285439 0.174636 0.007368
v 0.294245 0.068235 0.00971
v 0.477869 0.148838 -0.010716
v 0.477869 0.170823 0.021888
v 0.477869 0.060904 0.023682
v 0.477869 0.117266 -0.013934
v -0.276026 0.233531 -0.030351
v -0.276148 0.25953 0.010466
v -0.27416 0.136859 0.010866
v -0.275269 0.202969 -0.033541
v 0.292661 0.210585 -0.032903
v 0.279133 0.247791 -0.030123
v 0.284158 0.264132 0.007931
v 0.2984 0.157299 0.010743
v 0.494956 0.237917 -0.006586
v 0.494956 0.257929 0.026019
v 0.494956 0.152429 0.027741
v 0.494956 0.207667 -0.009827
v -0.420163 0.691004 -0.010113
v -0.417689 0.713845 0.023338
v -0.416801 0.603105 0.025421
v -0.419288 0.632001 -0.012294
v -0.279818 0.726916 0.020316
v -0.279121 0.616656 0.022177
v -0.27871 0.705358 -0.013033
v -0.285994 0.649215 -0.015562
v 0.282389 0.697553 -0.024402
v 0.282663 0.717913 0.012567
v 0.304008 0.61068 0.014389
v 0.297784 0.640853 -0.026907
v 0.496539 0.701132 -0.005578
v 0.496409 0.721543 0.026032
v 0.496409 0.617864 0.027814
v 0.495817 0.641908 -0.007956
v -0.410291 0.614003 -0.016195
v -0.409564 0.634875 0.017889
v -0.409863 0.523501 0.019741
v -0.410451 0.565468 -0.019561
v -0.21517 0.628445 0.000783
v -0.194367 0.548764 -0.036986
v -0.206861 0.603441 -0.033573
v -0.215226 0.518769 0.002644
v 0.212434 0.612551 -0.033314
v 0.212967 0.634019 0.002799
v 0.227451 0.5286 0.004925
v 0.221023 0.565866 -0.036582
v 0.48081 0.620496 -0.013606
v 0.48081 0.640995 0.019002
v 0.48081 0.533412 0.020783
v 0.48081 0.571759 -0.016827
v -0.283099 0.523599 -0.030431
v -0.282429 0.542857 0.010434
v -0.280318 0.433333 0.012527
v -0.284297 0.456471 -0.020385
v 0.278992 0.452126 -0.013489
v 0.273329 0.519191 -0.021273
v 0.274054 0.536806 0.016145
v 0.276115 0.434197 0.014941
v 0.488348 0.536457 -0.006576
v 0.488348 0.557337 0.026032
v 0.488348 0.45197 0.027814
v 0.488348 0.472113 0.003468
v -0.418099 0.433108 -0.007818
v -0.417949 0.371901 -0.006089
v -0.278176 0.464533 0.021276
v -0.276269 0.317381 0.018896
v -0.27917 0.432005 -0.023903
v -0.277937 0.361571 -0.022179
v 0.155151 0.436851 -0.02369
v 0.153338 0.46011 0.018766
v 0.166517 0.330482 0.01628
v 0.15776 0.376129 -0.021594
v 0.498573 0.433064 -0.004903
v 0.498573 0.461114 0.031406
v 0.498573 0.334857 0.032482
v 0.498573 0.376744 -0.002986
v -0.276764 0.309534 -0.025406
v -0.276461 0.331032 0.013692
v -0.276273 0.223048 0.013691
v -0.276292 0.280935 -0.02861
v 0.294168 0.293869 -0.030302
v 0.285616 0.326817 -0.027114
v 0.290007 0.34549 0.011442
v 0.289423 0.243407 0.011782
v 0.485783 0.329956 -0.006582
v 0.485783 0.348458 0.026031
v 0.485783 0.250077 0.027813
v 0.485783 0.304432 -0.009802
v 0.478784 0.778149 -0.005031
v 0.478955 0.806329 0.023859
v 0.478955 0.702729 0.022079
v 0.478955 0.724026 -0.010529
v 0.232954 0.807716 0.003702
v 0.229902 0.700115 0.001468
v 0.229754 0.77723 -0.026498
v 0.230316 0.718571 -0.032049
v -0.278031 0.791211 -0.026247
v -0.275793 0.817595 0.012379
v -0.278554 0.707756 0.010224
v -0.279211 0.72767 -0.031206
v -0.418099 0.731555 -0.00992
v -0.41812 0.790549 -0.00479
v -0.409138 0.819851 0.029159
v -0.408643 0.706969 0.026462
v -0.439055 1 -0.033653
v -0.486254 0.992704 0.004858
v -0.385084 0.992704 -0.035806
v -0.442531 0.748393 -0.047908
v -0.3689 0.733651 -0.002357
v -0.389595 0.741845 -0.05
v -0.453649 0.387214 -0.039687
v -0.376848 0.38617 0.003713
v -0.405847 0.387546 -0.041604
v -0.439055 0.044919 -0.033653
v -0.395025 0.035755 -0.039261
v -0.464859 0.035755 0.044202
v -0.487428 0.039319 0.007299
v -0.363781 0.039319 0.003611
v -0.382486 0.037623 0.045752
v -0.471 0.387546 0.05
v -0.5 0.38617 0.004683
v -0.400031 0.379917 0.048541
v -0.488503 0.733651 -0.001361
v -0.391704 0.741097 0.044649
v -0.467807 0.741845 0.046282
v -0.464859 0.992704 0.044201
v -0.363689 0.992704 0.003538
v -0.38772 0.992704 0.042507
v 0.485783 0.824854 -0.004241
v 0.485783 0.796795 0.027813
v 0.485783 0.895176 0.026031
v 0.485783 0.876674 -0.006582
v 0.289423 0.790125 0.011782
v 0.290007 0.892208 0.011442
v 0.285616 0.873535 -0.027114
v 0.294168 0.814291 -0.02474
v -0.24062 0.801356 -0.023049
v -0.240601 0.769766 0.013691
v -0.240789 0.877749 0.013692
v -0.241092 0.856252 -0.025406
v 0.498573 0.908992 0.000224
v 0.498573 0.885691 0.032482
v 0.498573 0.989071 0.026883
v 0.5 0.961882 0.001116
v 0.15776 0.896605 -0.015988
v 0.166517 0.869545 0.018676
v 0.153338 0.976295 0.01664
v 0.155151 0.957864 -0.021294
v -0.188268 0.882047 -0.015329
v -0.189502 0.953019 -0.020263
v -0.1866 0.856444 0.022536
v -0.188508 0.980718 0.020393
v -0.417949 0.892377 -0.002879
v -0.418099 0.954121 -0.007818
v -0.409138 0.868257 0.034475
v -0.408643 0.980853 0.027617
v -0.404221 0.864281 -0.004743
v -0.403494 0.885154 0.029341
v -0.403793 0.773779 0.031193
v -0.40438 0.806456 -0.002547
v -0.408729 0 0.04078
v -0.408729 0.086422 0.040098
v -0.408729 0.086429 -0.01418
v -0.408729 0 -0.014175
v -0.408729 0.086429 -0.01418
v -0.273259 0.094932 -0.024128
v 0.488349 0.086429 -0.01418
v 0.488349 0 -0.014175
v 0.488349 0 0.04078
v 0.488349 0.086422 0.040098
v 0.488349 0 0.04078
v -0.273815 0 0.026659
v -0.408729 0 0.04078
v 0.488349 0 -0.014175
v -0.273848 0 -0.024128
v -0.408729 0 -0.014175
v 0.488349 0.086429 -0.01418
v -0.408729 0.086422 0.040098
v -0.273225 0.094931 0.026659
v 0.488349 0.086422 0.040098
v 0.485783 0.329956 -0.006582
v 0.485783 0.304432 -0.009802
v 0.485783 0.250077 0.027813
v 0.289423 0.243407 0.011782
v -0.276273 0.223048 0.013691
v -0.403793 0.227061 0.031193
v -0.403793 0.227061 0.031193
v -0.403494 0.338435 0.029341
v -0.276461 0.331032 0.013692
v 0.290007 0.34549 0.011442
v 0.485783 0.348458 0.026031
v 0.485783 0.250077 0.027813
v 0.485783 0.348458 0.026031
v -0.403494 0.338435 0.029341
v 0.498573 0.461114 0.031406
v 0.498573 0.334857 0.032482
v 0.166517 0.330482 0.01628
v -0.276269 0.317381 0.018896
v -0.409138 0.329195 0.034475
v -0.417949 0.371901 -0.006089
v -0.418099 0.433108 -0.007818
v -0.408643 0.464668 0.03214
v -0.278176 0.464533 0.021276
v 0.153338 0.46011 0.018766
v -0.409138 0.329195 0.034475
v -0.408643 0.464668 0.03214
v 0.498573 0.376744 -0.002986
v 0.498573 0.433064 -0.004903
v 0.498573 0.461114 0.031406
v 0.498573 0.334857 0.032482
v 0.48081 0.640995 0.019002
v 0.48081 0.533412 0.020783
v 0.227451 0.5286 0.004925
v -0.215226 0.518769 0.002644
v -0.409863 0.523501 0.019741
v -0.410451 0.565468 -0.019561
v -0.410291 0.614003 -0.016195
v -0.409564 0.634875 0.017889
v -0.21517 0.628445 0.000783
v 0.212967 0.634019 0.002799
v -0.409863 0.523501 0.019741
v -0.409564 0.634875 0.017889
v 0.48081 0.571759 -0.016827
v 0.48081 0.620496 -0.013606
v 0.48081 0.640995 0.019002
v 0.48081 0.533412 0.020783
v 0.496409 0.721543 0.026032
v 0.496409 0.617864 0.027814
v 0.304008 0.61068 0.014389
v -0.279121 0.616656 0.022177
v -0.416801 0.603105 0.025421
v -0.419288 0.632001 -0.012294
v -0.420163 0.691004 -0.010113
v -0.417689 0.713845 0.023338
v -0.279818 0.726916 0.020316
v 0.282663 0.717913 0.012567
v -0.416801 0.603105 0.025421
v -0.417689 0.713845 0.023338
v 0.495817 0.641908 -0.007956
v 0.496539 0.701132 -0.005578
v 0.496409 0.721543 0.026032
v 0.496409 0.617864 0.027814
v -0.417938 0.435832 0.025417
v -0.280318 0.433333 0.012527
v 0.276115 0.434197 0.014941
v 0.488348 0.45197 0.027814
v 0.488348 0.472113 0.003468
v 0.488348 0.536457 -0.006576
v 0.488348 0.557337 0.026032
v 0.274054 0.536806 0.016145
v -0.282429 0.542857 0.010434
v -0.420474 0.546035 0.022796
v 0.488348 0.45197 0.027814
v 0.488348 0.557337 0.026032
v -0.420474 0.546035 0.022796
v -0.415189 0.142191 0.026941
v -0.27416 0.136859 0.010866
v 0.2984 0.157299 0.010743
v 0.494956 0.152429 0.027741
v 0.494956 0.207667 -0.009827
v 0.494956 0.237917 -0.006586
v 0.494956 0.257929 0.026019
v 0.284158 0.264132 0.007931
v -0.276148 0.25953 0.010466
v -0.408588 0.255148 0.027441
v -0.415189 0.142191 0.026941
v -0.408588 0.255148 0.027441
v -0.411972 0.233609 -0.007635
v -0.416665 0.200942 -0.012691
v 0.494956 0.152429 0.027741
v 0.494956 0.257929 0.026019
v -0.421952 0.055402 0.020293
v -0.274468 0.044551 0.009462
v 0.294245 0.068235 0.00971
v 0.477869 0.060904 0.023682
v 0.477869 0.117266 -0.013934
v 0.477869 0.148838 -0.010716
v 0.477869 0.170823 0.021888
v 0.285439 0.174636 0.007368
v -0.273795 0.16323 0.008722
v -0.415509 0.168319 0.020733
v -0.421952 0.055402 0.020293
v -0.415509 0.168319 0.020733
v -0.422235 0.145941 -0.01559
v -0.420735 0.114828 -0.018336
v 0.477869 0.060904 0.023682
v 0.477869 0.170823 0.021888
v 0.478784 0.778149 -0.005031
v 0.478955 0.806329 0.023859
v 0.478955 0.702729 0.022079
v 0.478955 0.724026 -0.010529
v 0.478955 0.702729 0.022079
v 0.229902 0.700115 0.001468
v -0.278554 0.707756 0.010224
v -0.408643 0.706969 0.026462
v -0.418099 0.731555 -0.00992
v -0.41812 0.790549 -0.00479
v -0.409138 0.819851 0.029159
v -0.408643 0.706969 0.026462
v 0.478955 0.806329 0.023859
v 0.232954 0.807716 0.003702
v -0.275793 0.817595 0.012379
v -0.409138 0.819851 0.029159
v -0.439055 1 -0.033653
v -0.486254 0.992704 0.004858
v -0.464859 0.992704 0.044201
v -0.38772 0.992704 0.042507
v -0.363689 0.992704 0.003538
v -0.385084 0.992704 -0.035806
v -0.439055 0.044919 -0.033653
v -0.395025 0.035755 -0.039261
v -0.363781 0.039319 0.003611
v -0.382486 0.037623 0.045752
v -0.464859 0.035755 0.044202
v -0.487428 0.039319 0.007299
v 0.290007 0.892208 0.011442
v -0.240789 0.877749 0.013692
v -0.403494 0.885154 0.029341
v -0.404221 0.864281 -0.004743
v -0.40438 0.806456 -0.002547
v -0.403793 0.773779 0.031193
v -0.403494 0.885154 0.029341
v 0.485783 0.895176 0.026031
v 0.485783 0.876674 -0.006582
v 0.485783 0.824854 -0.004241
v 0.485783 0.796795 0.027813
v 0.485783 0.895176 0.026031
v 0.289423 0.790125 0.011782
v -0.240601 0.769766 0.013691
v -0.403793 0.773779 0.031193
v 0.485783 0.796795 0.027813
v 0.153338 0.976295 0.01664
v -0.188508 0.980718 0.020393
v -0.408643 0.980853 0.027617
v -0.418099 0.954121 -0.007818
v -0.417949 0.892377 -0.002879
v -0.409138 0.868257 0.034475
v -0.408643 0.980853 0.027617
v 0.498573 0.989071 0.026883
v 0.5 0.961882 0.001116
v 0.498573 0.908992 0.000224
v 0.498573 0.885691 0.032482
v 0.498573 0.989071 0.026883
v 0.166517 0.869545 0.018676
v -0.1866 0.856444 0.022536
v -0.409138 0.868257 0.034475
v 0.498573 0.885691 0.032482
vt 0.321001 0.922076
vt 0.478999 0.922076
vt 0.478999 0.885616
vt 0.321001 0.885616
vt 0.958999 0.154847
vt 0.921001 0.154847
vt 0.921001 0.306691
vt 0.958999 0.306691
vt 0.481001 0.845153
vt 0.638999 0.845153
vt 0.638999 0.808693
vt 0.481001 0.808693
vt 0.918999 0.76823
vt 0.918999 0.616386
vt 0.881001 0.616386
vt 0.881001 0.76823
vt 0.318999 0.960537
vt 0.318999 0.924078
vt 0.241001 0.924078
vt 0.241001 0.960537
vt 0.998999 0.229768
vt 0.998999 0.154847
vt 0.961001 0.154847
vt 0.961001 0.229768
vt 0.641001 0.960537
vt 0.718999 0.960537
vt 0.718999 0.924078
vt 0.641001 0.924078
vt 0.998999 0.23177
vt 0.961001 0.23177
vt 0.961001 0.306691
vt 0.998999 0.306691
vt 0.438999 0.924078
vt 0.401001 0.924078
vt 0.401001 0.960537
vt 0.438999 0.960537
vt 0.118999 0.924078
vt 0.081001 0.924078
vt 0.081001 0.960537
vt 0.118999 0.960537
vt 0.398999 0.924078
vt 0.361001 0.924078
vt 0.361001 0.960537
vt 0.398999 0.960537
vt 0.998999 0.654847
vt 0.961001 0.654847
vt 0.961001 0.691307
vt 0.998999 0.691307
vt 0.998999 0.693309
vt 0.961001 0.693309
vt 0.961001 0.729768
vt 0.998999 0.729768
vt 0.038999 0.924078
vt 0.001001 0.924078
vt 0.001001 0.960537
vt 0.038999 0.960537
vt 0.238999 0.924078
vt 0.201001 0.924078
vt 0.201001 0.960537
vt 0.238999 0.960537
vt 0.478999 0.924078
vt 0.441001 0.924078
vt 0.441001 0.960537
vt 0.478999 0.960537
vt 0.158999 0.924078
vt 0.121001 0.924078
vt 0.121001 0.960537
vt 0.158999 0.960537
vt 0.198999 0.924078
vt 0.161001 0.924078
vt 0.161001 0.960537
vt 0.198999 0.960537
vt 0.998999 0.885616
vt 0.961001 0.885616
vt 0.961001 0.922076
vt 0.998999 0.922076
vt 0.358999 0.924078
vt 0.321001 0.924078
vt 0.321001 0.960537
vt 0.358999 0.960537
vt 0.758999 0.924078
vt 0.721001 0.924078
vt 0.721001 0.960537
vt 0.758999 0.960537
vt 0.998999 0.577924
vt 0.961001 0.577924
vt 0.961001 0.614384
vt 0.998999 0.614384
vt 0.998999 0.616386
vt 0.961001 0.616386
vt 0.961001 0.652845
vt 0.998999 0.652845
vt 0.998999 0.73177
vt 0.961001 0.73177
vt 0.961001 0.76823
vt 0.998999 0.76823
vt 0.761001 0.960537
vt 0.838999 0.960537
vt 0.838999 0.924078
vt 0.761001 0.924078
vt 0.558999 0.001001
vt 0.481001 0.001001
vt 0.481001 0.075922
vt 0.558999 0.075922
vt 0.998999 0.460537
vt 0.998999 0.385616
vt 0.961001 0.385616
vt 0.961001 0.460537
vt 0.841001 0.960537
vt 0.918999 0.960537
vt 0.918999 0.924078
vt 0.841001 0.924078
vt 0.598999 0.152845
vt 0.598999 0.001001
vt 0.561001 0.001001
vt 0.561001 0.152845
vt 0.161001 0.537461
vt 0.318999 0.537461
vt 0.318999 0.462539
vt 0.161001 0.462539
vt 0.598999 0.537461
vt 0.598999 0.385616
vt 0.561001 0.385616
vt 0.561001 0.537461
vt 0.161001 0.575922
vt 0.318999 0.575922
vt 0.318999 0.539463
vt 0.161001 0.539463
vt 0.598999 0.383614
vt 0.598999 0.23177
vt 0.561001 0.23177
vt 0.561001 0.383614
vt 0.558999 0.385616
vt 0.481001 0.385616
vt 0.481001 0.460537
vt 0.558999 0.460537
vt 0.921001 0.960537
vt 0.998999 0.960537
vt 0.998999 0.924078
vt 0.921001 0.924078
vt 0.998999 0.537461
vt 0.998999 0.462539
vt 0.961001 0.462539
vt 0.961001 0.537461
vt 0.921001 0.075922
vt 0.998999 0.075922
vt 0.998999 0.039463
vt 0.921001 0.039463
vt 0.398999 0.539463
vt 0.321001 0.539463
vt 0.321001 0.614384
vt 0.398999 0.614384
vt 0.958999 0.922076
vt 0.958999 0.847155
vt 0.921001 0.847155
vt 0.921001 0.922076
vt 0.801001 0.922076
vt 0.878999 0.922076
vt 0.878999 0.885616
vt 0.801001 0.885616
vt 0.638999 0.152845
vt 0.638999 0.001001
vt 0.601001 0.001001
vt 0.601001 0.152845
vt 0.321001 0.460537
vt 0.478999 0.460537
vt 0.478999 0.385616
vt 0.321001 0.385616
vt 0.678999 0.152845
vt 0.678999 0.001001
vt 0.641001 0.001001
vt 0.641001 0.152845
vt 0.401001 0.614384
vt 0.558999 0.614384
vt 0.558999 0.577924
vt 0.401001 0.577924
vt 0.678999 0.460537
vt 0.678999 0.308693
vt 0.641001 0.308693
vt 0.641001 0.460537
vt 0.321001 0.075922
vt 0.478999 0.075922
vt 0.478999 0.001001
vt 0.321001 0.001001
vt 0.678999 0.614384
vt 0.678999 0.462539
vt 0.641001 0.462539
vt 0.641001 0.614384
vt 0.161001 0.652845
vt 0.318999 0.652845
vt 0.318999 0.616386
vt 0.161001 0.616386
vt 0.958999 0.845153
vt 0.958999 0.770232
vt 0.921001 0.770232
vt 0.921001 0.845153
vt 0.638999 0.539463
vt 0.561001 0.539463
vt 0.561001 0.614384
vt 0.638999 0.614384
vt 0.241001 0.922076
vt 0.318999 0.922076
vt 0.318999 0.885616
vt 0.241001 0.885616
vt 0.958999 0.614384
vt 0.958999 0.539463
vt 0.921001 0.539463
vt 0.921001 0.614384
vt 0.001001 0.652845
vt 0.158999 0.652845
vt 0.158999 0.616386
vt 0.001001 0.616386
vt 0.238999 0.460537
vt 0.238999 0.308693
vt 0.161001 0.308693
vt 0.161001 0.460537
vt 0.321001 0.691307
vt 0.478999 0.691307
vt 0.478999 0.654847
vt 0.321001 0.654847
vt 0.718999 0.152845
vt 0.718999 0.001001
vt 0.681001 0.001001
vt 0.681001 0.152845
vt 0.161001 0.691307
vt 0.318999 0.691307
vt 0.318999 0.654847
vt 0.161001 0.654847
vt 0.078999 0.152845
vt 0.078999 0.001001
vt 0.001001 0.001001
vt 0.001001 0.152845
vt 0.481001 0.691307
vt 0.638999 0.691307
vt 0.638999 0.654847
vt 0.481001 0.654847
vt 0.718999 0.306691
vt 0.718999 0.154847
vt 0.681001 0.154847
vt 0.681001 0.306691
vt 0.161001 0.729768
vt 0.318999 0.729768
vt 0.318999 0.693309
vt 0.161001 0.693309
vt 0.318999 0.460537
vt 0.318999 0.308693
vt 0.241001 0.308693
vt 0.241001 0.460537
vt 0.001001 0.729768
vt 0.158999 0.729768
vt 0.158999 0.693309
vt 0.001001 0.693309
vt 0.758999 0.306691
vt 0.758999 0.154847
vt 0.721001 0.154847
vt 0.721001 0.306691
vt 0.481001 0.729768
vt 0.638999 0.729768
vt 0.638999 0.693309
vt 0.481001 0.693309
vt 0.078999 0.460537
vt 0.078999 0.308693
vt 0.001001 0.308693
vt 0.001001 0.460537
vt 0.641001 0.652845
vt 0.798999 0.652845
vt 0.798999 0.616386
vt 0.641001 0.616386
vt 0.758999 0.460537
vt 0.758999 0.308693
vt 0.721001 0.308693
vt 0.721001 0.460537
vt 0.481001 0.76823
vt 0.638999 0.76823
vt 0.638999 0.73177
vt 0.481001 0.73177
vt 0.398999 0.229768
vt 0.398999 0.077924
vt 0.321001 0.077924
vt 0.321001 0.229768
vt 0.641001 0.76823
vt 0.798999 0.76823
vt 0.798999 0.73177
vt 0.641001 0.73177
vt 0.758999 0.152845
vt 0.758999 0.001001
vt 0.721001 0.001001
vt 0.721001 0.152845
vt 0.161001 0.922076
vt 0.238999 0.922076
vt 0.238999 0.885616
vt 0.161001 0.885616
vt 0.838999 0.001001
vt 0.761001 0.001001
vt 0.761001 0.075922
vt 0.838999 0.075922
vt 0.998999 0.152845
vt 0.998999 0.077924
vt 0.961001 0.077924
vt 0.961001 0.152845
vt 0.721001 0.922076
vt 0.798999 0.922076
vt 0.798999 0.885616
vt 0.721001 0.885616
vt 0.798999 0.460537
vt 0.798999 0.308693
vt 0.761001 0.308693
vt 0.761001 0.460537
vt 0.001001 0.306691
vt 0.158999 0.306691
vt 0.158999 0.23177
vt 0.001001 0.23177
vt 0.838999 0.614384
vt 0.838999 0.462539
vt 0.801001 0.462539
vt 0.801001 0.614384
vt 0.641001 0.729768
vt 0.798999 0.729768
vt 0.798999 0.693309
vt 0.641001 0.693309
vt 0.838999 0.460537
vt 0.838999 0.308693
vt 0.801001 0.308693
vt 0.801001 0.460537
vt 0.161001 0.306691
vt 0.318999 0.306691
vt 0.318999 0.23177
vt 0.161001 0.23177
vt 0.838999 0.306691
vt 0.838999 0.154847
vt 0.801001 0.154847
vt 0.801001 0.306691
vt 0.001001 0.76823
vt 0.158999 0.76823
vt 0.158999 0.73177
vt 0.001001 0.73177
vt 0.958999 0.152845
vt 0.958999 0.077924
vt 0.921001 0.077924
vt 0.921001 0.152845
vt 0.838999 0.077924
vt 0.761001 0.077924
vt 0.761001 0.152845
vt 0.838999 0.152845
vt 0.641001 0.922076
vt 0.718999 0.922076
vt 0.718999 0.885616
vt 0.641001 0.885616
vt 0.878999 0.075922
vt 0.878999 0.001001
vt 0.841001 0.001001
vt 0.841001 0.075922
vt 0.001001 0.806691
vt 0.158999 0.806691
vt 0.158999 0.770232
vt 0.001001 0.770232
vt 0.318999 0.229768
vt 0.318999 0.077924
vt 0.241001 0.077924
vt 0.241001 0.229768
vt 0.161001 0.806691
vt 0.318999 0.806691
vt 0.318999 0.770232
vt 0.161001 0.770232
vt 0.878999 0.614384
vt 0.878999 0.462539
vt 0.841001 0.462539
vt 0.841001 0.614384
vt 0.641001 0.806691
vt 0.798999 0.806691
vt 0.798999 0.770232
vt 0.641001 0.770232
vt 0.238999 0.229768
vt 0.238999 0.077924
vt 0.161001 0.077924
vt 0.161001 0.229768
vt 0.161001 0.845153
vt 0.318999 0.845153
vt 0.318999 0.808693
vt 0.161001 0.808693
vt 0.878999 0.229768
vt 0.878999 0.077924
vt 0.841001 0.077924
vt 0.841001 0.229768
vt 0.641001 0.883614
vt 0.718999 0.883614
vt 0.718999 0.847155
vt 0.641001 0.847155
vt 0.878999 0.770232
vt 0.801001 0.770232
vt 0.801001 0.845153
vt 0.878999 0.845153
vt 0.878999 0.306691
vt 0.878999 0.23177
vt 0.841001 0.23177
vt 0.841001 0.306691
vt 0.801001 0.883614
vt 0.878999 0.883614
vt 0.878999 0.847155
vt 0.801001 0.847155
vt 0.918999 0.614384
vt 0.918999 0.462539
vt 0.881001 0.462539
vt 0.881001 0.614384
vt 0.001001 0.229768
vt 0.158999 0.229768
vt 0.158999 0.154847
vt 0.001001 0.154847
vt 0.918999 0.306691
vt 0.918999 0.154847
vt 0.881001 0.154847
vt 0.881001 0.306691
vt 0.321001 0.845153
vt 0.478999 0.845153
vt 0.478999 0.808693
vt 0.321001 0.808693
vt 0.918999 0.152845
vt 0.918999 0.001001
vt 0.881001 0.001001
vt 0.881001 0.152845
vt 0.321001 0.883614
vt 0.478999 0.883614
vt 0.478999 0.847155
vt 0.321001 0.847155
vt 0.958999 0.76823
vt 0.958999 0.616386
vt 0.921001 0.616386
vt 0.921001 0.76823
vt 0.161001 0.883614
vt 0.318999 0.883614
vt 0.318999 0.847155
vt 0.161001 0.847155
vt 0.918999 0.770232
vt 0.881001 0.770232
vt 0.881001 0.922076
vt 0.918999 0.922076
vt 0.158999 0.883614
vt 0.158999 0.847155
vt 0.001001 0.847155
vt 0.001001 0.883614
vt 0.158999 0.001001
vt 0.081001 0.001001
vt 0.081001 0.152845
vt 0.158999 0.152845
vt 0.638999 0.883614
vt 0.638999 0.847155
vt 0.481001 0.847155
vt 0.481001 0.883614
vt 0.958999 0.308693
vt 0.921001 0.308693
vt 0.921001 0.460537
vt 0.958999 0.460537
vt 0.638999 0.922076
vt 0.638999 0.885616
vt 0.481001 0.885616
vt 0.481001 0.922076
vt 0.478999 0.23177
vt 0.401001 0.23177
vt 0.401001 0.383614
vt 0.478999 0.383614
vt 0.158999 0.922076
vt 0.158999 0.885616
vt 0.001001 0.885616
vt 0.001001 0.922076
vt 0.598999 0.154847
vt 0.561001 0.154847
vt 0.561001 0.229768
vt 0.598999 0.229768
vt 0.718999 0.845153
vt 0.718999 0.808693
vt 0.641001 0.808693
vt 0.641001 0.845153
vt 0.798999 0.808693
vt 0.721001 0.808693
vt 0.721001 0.883614
vt 0.798999 0.883614
vt 0.638999 0.308693
vt 0.601001 0.308693
vt 0.601001 0.383614
vt 0.638999 0.383614
vt 0.998999 0.770232
vt 0.961001 0.770232
vt 0.961001 0.806691
vt 0.998999 0.806691
vt 0.998999 0.808693
vt 0.961001 0.808693
vt 0.961001 0.845153
vt 0.998999 0.845153
vt 0.478999 0.806691
vt 0.478999 0.770232
vt 0.321001 0.770232
vt 0.321001 0.806691
vt 0.878999 0.308693
vt 0.841001 0.308693
vt 0.841001 0.460537
vt 0.878999 0.460537
vt 0.638999 0.806691
vt 0.638999 0.770232
vt 0.481001 0.770232
vt 0.481001 0.806691
vt 0.798999 0.462539
vt 0.761001 0.462539
vt 0.761001 0.614384
vt 0.798999 0.614384
vt 0.798999 0.691307
vt 0.798999 0.654847
vt 0.641001 0.654847
vt 0.641001 0.691307
vt 0.718999 0.462539
vt 0.681001 0.462539
vt 0.681001 0.614384
vt 0.718999 0.614384
vt 0.478999 0.652845
vt 0.478999 0.616386
vt 0.321001 0.616386
vt 0.321001 0.652845
vt 0.718999 0.308693
vt 0.681001 0.308693
vt 0.681001 0.460537
vt 0.718999 0.460537
vt 0.318999 0.614384
vt 0.318999 0.577924
vt 0.161001 0.577924
vt 0.161001 0.614384
vt 0.998999 0.847155
vt 0.961001 0.847155
vt 0.961001 0.883614
vt 0.998999 0.883614
vt 0.998999 0.539463
vt 0.961001 0.539463
vt 0.961001 0.575922
vt 0.998999 0.575922
vt 0.958999 0.462539
vt 0.921001 0.462539
vt 0.921001 0.537461
vt 0.958999 0.537461
vt 0.921001 0.037461
vt 0.998999 0.037461
vt 0.998999 0.001001
vt 0.921001 0.001001
vt 0.638999 0.154847
vt 0.601001 0.154847
vt 0.601001 0.306691
vt 0.638999 0.306691
vt 0.558999 0.575922
vt 0.558999 0.539463
vt 0.401001 0.539463
vt 0.401001 0.575922
vt 0.558999 0.077924
vt 0.521001 0.077924
vt 0.521001 0.229768
vt 0.558999 0.229768
vt 0.558999 0.537461
vt 0.558999 0.501001
vt 0.401001 0.501001
vt 0.401001 0.537461
vt 0.558999 0.23177
vt 0.521001 0.23177
vt 0.521001 0.383614
vt 0.558999 0.383614
vt 0.558999 0.498999
vt 0.558999 0.462539
vt 0.401001 0.462539
vt 0.401001 0.498999
vt 0.518999 0.23177
vt 0.481001 0.23177
vt 0.481001 0.383614
vt 0.518999 0.383614
vt 0.158999 0.498999
vt 0.158999 0.462539
vt 0.001001 0.462539
vt 0.001001 0.498999
vt 0.838999 0.616386
vt 0.801001 0.616386
vt 0.801001 0.76823
vt 0.838999 0.76823
vt 0.161001 0.76823
vt 0.318999 0.76823
vt 0.318999 0.73177
vt 0.161001 0.73177
vt 0.878999 0.76823
vt 0.878999 0.616386
vt 0.841001 0.616386
vt 0.841001 0.76823
vt 0.001001 0.845153
vt 0.158999 0.845153
vt 0.158999 0.808693
vt 0.001001 0.808693
vt 0.798999 0.306691
vt 0.798999 0.154847
vt 0.761001 0.154847
vt 0.761001 0.306691
vt 0.001001 0.575922
vt 0.158999 0.575922
vt 0.158999 0.539463
vt 0.001001 0.539463
vt 0.638999 0.537461
vt 0.638999 0.385616
vt 0.601001 0.385616
vt 0.601001 0.537461
vt 0.161001 0.075922
vt 0.318999 0.075922
vt 0.318999 0.001001
vt 0.161001 0.001001
vt 0.918999 0.460537
vt 0.918999 0.308693
vt 0.881001 0.308693
vt 0.881001 0.460537
vt 0.481001 0.960537
vt 0.558999 0.960537
vt 0.558999 0.924078
vt 0.481001 0.924078
vt 0.998999 0.383614
vt 0.998999 0.308693
vt 0.961001 0.308693
vt 0.961001 0.383614
vt 0.398999 0.462539
vt 0.321001 0.462539
vt 0.321001 0.537461
vt 0.398999 0.537461
vt 0.561001 0.960537
vt 0.638999 0.960537
vt 0.638999 0.924078
vt 0.561001 0.924078
vt 0.518999 0.229768
vt 0.518999 0.077924
vt 0.481001 0.077924
vt 0.481001 0.229768
vt 0.001001 0.537461
vt 0.158999 0.537461
vt 0.158999 0.501001
vt 0.001001 0.501001
vt 0.158999 0.460537
vt 0.158999 0.308693
vt 0.081001 0.308693
vt 0.081001 0.460537
vt 0.001001 0.614384
vt 0.158999 0.614384
vt 0.158999 0.577924
vt 0.001001 0.577924
vt 0.678999 0.306691
vt 0.678999 0.154847
vt 0.641001 0.154847
vt 0.641001 0.306691
vt 0.481001 0.652845
vt 0.638999 0.652845
vt 0.638999 0.616386
vt 0.481001 0.616386
vt 0.478999 0.229768
vt 0.478999 0.077924
vt 0.401001 0.077924
vt 0.401001 0.229768
vt 0.001001 0.691307
vt 0.158999 0.691307
vt 0.158999 0.654847
vt 0.001001 0.654847
vt 0.758999 0.614384
vt 0.758999 0.462539
vt 0.721001 0.462539
vt 0.721001 0.614384
vt 0.321001 0.729768
vt 0.478999 0.729768
vt 0.478999 0.693309
vt 0.321001 0.693309
vt 0.398999 0.383614
vt 0.398999 0.23177
vt 0.321001 0.23177
vt 0.321001 0.383614
vt 0.321001 0.76823
vt 0.478999 0.76823
vt 0.478999 0.73177
vt 0.321001 0.73177
vt 0.078999 0.924078
vt 0.041001 0.924078
vt 0.041001 0.960537
vt 0.078999 0.960537
vt 0.798999 0.962539
vt 0.761001 0.962539
vt 0.761001 0.998999
vt 0.798999 0.998999
vt 0.758999 0.962539
vt 0.721001 0.962539
vt 0.721001 0.998999
vt 0.758999 0.998999
vt 0.718999 0.962539
vt 0.681001 0.962539
vt 0.681001 0.998999
vt 0.718999 0.998999
usemtl iglooWall
f 11/1 1/2 2/3 9/4
f 3/5 216/6 215/7 208/8
f 4/9 211/10 202/11 213/12
f 207/13 8/14 6/15 210/16
f 7/17 5/18 6/19 8/20
f 10/21 202/22 211/23 212/24
f 209/25 208/26 215/27 12/28
f 11/29 9/30 201/31 214/32
f 206/33 205/34 204/35 203/36
f 197/37 198/38 199/39 200/40
f 42/41 39/42 40/43 41/44
f 54/45 51/46 52/47 53/48
f 124/49 121/50 229/51 123/52
f 112/53 109/54 110/55 111/56
f 98/57 95/58 96/59 97/60
f 86/61 83/62 84/63 85/64
f 70/65 67/66 68/67 69/68
f 13/69 14/70 15/71 16/72
f 20/73 19/74 18/75 17/76
f 21/77 22/78 23/79 24/80
f 100/81 26/82 25/83 99/84
f 27/85 279/86 29/87 30/88
f 74/89 73/90 72/91 71/92
f 58/93 57/94 56/95 55/96
f 31/97 320/98 319/99 32/100
f 316/101 317/102 318/103 33/104
f 309/105 308/106 321/107 34/108
f 34/109 321/110 320/111 31/112
f 36/113 31/114 32/115 37/116
f 315/117 316/118 33/119 38/120
f 310/121 309/122 34/123 35/124
f 35/125 34/126 31/127 36/128
f 313/129 36/130 37/131 323/132
f 314/133 315/134 38/135 322/136
f 311/137 310/138 35/139 312/140
f 312/141 35/142 36/143 313/144
f 43/145 304/146 303/147 44/148
f 300/149 301/150 302/151 45/152
f 293/153 292/154 305/155 46/156
f 46/157 305/158 304/159 43/160
f 48/161 43/162 44/163 49/164
f 299/165 300/166 45/167 50/168
f 294/169 293/170 46/171 47/172
f 47/173 46/174 43/175 48/176
f 297/177 48/178 49/179 307/180
f 298/181 299/182 50/183 306/184
f 295/185 294/186 47/187 296/188
f 296/189 47/190 48/191 297/192
f 61/193 269/194 274/195 59/196
f 271/197 270/198 273/199 60/200
f 266/201 267/202 268/203 62/204
f 62/205 268/206 269/207 61/208
f 63/209 61/210 59/211 64/212
f 272/213 271/214 60/215 65/216
f 265/217 266/218 62/219 66/220
f 66/221 62/222 61/223 63/224
f 276/225 63/226 64/227 277/228
f 263/229 272/230 65/231 278/232
f 264/233 265/234 66/235 275/236
f 275/237 66/238 63/239 276/240
f 77/241 253/242 258/243 75/244
f 255/245 254/246 257/247 78/248
f 250/249 251/250 252/251 76/252
f 76/253 252/254 253/255 77/256
f 79/257 77/258 75/259 80/260
f 256/261 255/262 78/263 81/264
f 249/265 250/266 76/267 82/268
f 82/269 76/270 77/271 79/272
f 260/273 79/274 80/275 261/276
f 247/277 256/278 81/279 262/280
f 248/281 249/282 82/283 259/284
f 259/285 82/286 79/287 260/288
f 87/289 30/290 291/291 88/292
f 287/293 288/294 28/295 89/296
f 280/297 279/298 27/299 90/300
f 90/301 27/302 30/303 87/304
f 92/305 87/306 88/307 93/308
f 286/309 287/310 89/311 94/312
f 281/313 280/314 90/315 91/316
f 91/317 90/318 87/319 92/320
f 284/321 92/322 93/323 290/324
f 285/325 286/326 94/327 289/328
f 282/329 281/330 91/331 283/332
f 283/333 91/334 92/335 284/336
f 103/337 237/338 242/339 101/340
f 239/341 238/342 241/343 102/344
f 234/345 235/346 236/347 104/348
f 104/349 236/350 237/351 103/352
f 105/353 103/354 101/355 106/356
f 240/357 239/358 102/359 107/360
f 233/361 234/362 104/363 108/364
f 108/365 104/366 103/367 105/368
f 244/369 105/370 106/371 245/372
f 231/373 240/374 107/375 246/376
f 232/377 233/378 108/379 243/380
f 243/381 108/382 105/383 244/384
f 113/385 24/386 230/387 114/388
f 225/389 224/390 223/391 115/392
f 221/393 222/394 21/395 116/396
f 116/397 21/398 24/399 113/400
f 118/401 113/402 114/403 119/404
f 226/405 225/406 115/407 120/408
f 220/409 221/410 116/411 117/412
f 117/413 116/414 113/415 118/416
f 217/417 118/418 119/419 122/420
f 227/421 226/422 120/423 228/424
f 219/425 220/426 117/427 218/428
f 218/429 117/430 118/431 217/432
f 125/433 128/434 132/435 131/436
f 126/437 125/438 131/439 129/440
f 127/441 336/442 337/443 130/444
f 128/445 328/446 329/447 132/448
f 131/449 132/450 136/451 133/452
f 129/453 131/454 133/455 134/456
f 130/457 337/458 338/459 135/460
f 132/461 329/462 330/463 136/464
f 133/465 136/466 137/467 138/468
f 134/469 133/470 138/471 139/472
f 135/473 338/474 339/475 140/476
f 136/477 330/478 335/479 137/480
f 333/481 332/482 331/483 334/484
f 324/485 325/486 326/487 327/488
f 141/489 143/490 146/491 144/492
f 341/493 141/494 144/495 159/496
f 143/497 163/498 145/499 146/500
f 144/501 146/502 149/503 147/504
f 159/505 144/506 147/507 157/508
f 146/509 145/510 148/511 149/512
f 147/513 149/514 151/515 150/516
f 157/517 147/518 150/519 351/520
f 149/521 148/522 348/523 151/524
f 346/525 347/526 154/527 153/528
f 340/529 142/530 344/531 345/532
f 164/533 344/534 142/535 162/536
f 155/537 152/538 153/539 154/540
f 156/541 157/542 351/543 350/544
f 148/545 158/546 349/547 348/548
f 158/549 156/550 350/551 349/552
f 161/553 159/554 157/555 156/556
f 145/557 160/558 158/559 148/560
f 160/561 161/562 156/563 158/564
f 342/565 341/566 159/567 161/568
f 163/569 343/570 160/571 145/572
f 343/573 342/574 161/575 160/576
f 165/577 172/578 171/579 168/580
f 166/581 169/582 172/583 165/584
f 167/585 170/586 364/587 367/588
f 168/589 171/590 352/591 363/592
f 172/593 173/594 176/595 171/596
f 169/597 174/598 173/599 172/600
f 170/601 175/602 365/603 364/604
f 171/605 176/606 353/607 352/608
f 173/609 196/610 193/611 176/612
f 174/613 195/614 196/615 173/616
f 175/617 194/618 366/619 365/620
f 176/621 193/622 358/623 353/624
f 177/625 181/626 184/627 180/628
f 178/629 182/630 181/631 177/632
f 179/633 183/634 380/635 383/636
f 180/637 184/638 368/639 379/640
f 181/641 185/642 186/643 184/644
f 182/645 187/646 185/647 181/648
f 183/649 188/650 381/651 380/652
f 184/653 186/654 369/655 368/656
f 185/657 189/658 190/659 186/660
f 187/661 191/662 189/663 185/664
f 188/665 192/666 382/667 381/668
f 186/669 190/670 374/671 369/672
f 372/673 373/674 370/675 371/676
f 356/677 357/678 354/679 355/680
f 377/681 376/682 375/683 378/684
f 361/685 360/686 359/687 362/688
