mtllib mazeWall.mtl
o mazeWall
v 0.5 0 -0.06
v -0.5 0 -0.06
v -0.5 1 -0.06
v 0.5 1 -0.06
v 0.5 0 0.06
v -0.5 0 0.06
v -0.5 1 0.06
v 0.5 1 0.06
vt 0.000179 0.001888
vt 1 0
vt 0.999821 0.998112
vt 0 1
vt 0.999506 0
vt 1 0.998479
vt 0.000495 1
vt 0 0.001521
vt 0.008993 0
vt 1 0.000161
vt 0.991007 1
vt 0 0.999839
vt 0.085132 0
vt 1 0.001452
vt 0.914868 1
vt 0 0.998548
vt 0 0.000519
vt 0.968485 0
vt 1 0.99948
vt 0.031515 1
vt 0.980432 0.999985
vt 0 1
vt 0.019568 0.000016
vt 1 0
usemtl mazeWall
f 1/1 2/2 3/3 4/4
f 5/5 8/6 7/7 6/8
f 1/9 5/10 6/11 2/12
f 2/13 6/14 7/15 3/16
f 3/17 7/18 8/19 4/20
f 5/21 1/22 4/23 8/24
