mtllib window.mtl
o window
v 0.5 0.084592 0.047449
v 0.248256 0.092921 0.036925
v -0.038661 0.098352 0.033897
v 0.5 0.084599 0.004949
v 0.248293 0.092922 -0.00284
v -0.038629 0.006041 0.033823
v 0.243547 0.009568 0.038123
v 0.5 0 0.047982
v 0.251333 0.006112 -0.002891
v 0.5 0 0.004953
v -0.472845 0 0.004953
v -0.326572 0 -0.00284
v -0.03817 0.010348 -0.012381
v -0.472845 0 0.047982
v -0.326535 0 0.036926
v -0.325933 0.092922 -0.00284
v -0.472845 0.084599 0.004949
v -0.038661 0.098352 -0.012355
v -0.325896 0.092921 0.036925
v -0.472845 0.084592 0.047449
v 0.234594 0.476173 0.001933
v 0.046815 0.472697 0.001933
v -0.054132 0.472697 0.001933
v -0.247525 0.476173 0.001933
v 0.046815 0.516757 0.001933
v 0.234594 0.520233 0.001933
v 0.234594 0.476173 -0.05
v 0.046815 0.472697 -0.05
v -0.247525 0.520233 0.001933
v -0.054132 0.516757 0.001933
v 0.234594 0.520233 -0.05
v 0.046815 0.516757 -0.05
v -0.054132 0.516757 -0.05
v -0.054132 0.472697 -0.05
v -0.247525 0.520233 -0.05
v -0.247525 0.476173 -0.05
v -0.274 0.857017 -0.032698
v -0.274 0.939653 -0.032698
v -0.059367 0.850497 -0.032698
v -0.059367 0.933133 -0.032698
v 0.052666 0.933133 -0.032698
v 0.26107 0.939653 -0.032698
v -0.059367 0.933133 0.019234
v -0.274 0.939653 0.019234
v 0.052666 0.850497 -0.032699
v 0.26107 0.857017 -0.032699
v 0.26107 0.939653 0.019234
v 0.052666 0.933133 0.019234
v -0.274 0.857017 0.019234
v -0.059367 0.850497 0.019234
v 0.052666 0.850497 0.019234
v 0.26107 0.857017 0.019234
v 0.168597 0.455252 0.019234
v 0.162826 0.695563 0.019234
v 0.144679 0.856304 0.018631
v 0.252722 0.455252 0.019234
v 0.168597 0.455252 -0.032699
v 0.226765 0.858872 0.018631
v 0.24695 0.695563 0.019234
v 0.252722 0.455252 -0.032698
v 0.24695 0.695563 -0.032698
v 0.162826 0.695563 -0.032698
v 0.226765 0.858872 -0.032095
v 0.144679 0.856304 -0.032095
v -0.248115 0.860911 -0.031947
v -0.166502 0.858432 -0.031947
v -0.260982 0.704294 -0.032698
v -0.176857 0.704294 -0.032698
v -0.186688 0.459381 -0.032698
v -0.176857 0.704294 0.019234
v -0.166502 0.858432 0.018483
v -0.270813 0.459381 -0.032699
v -0.186688 0.459381 0.019234
v -0.248115 0.860911 0.018483
v -0.260982 0.704294 0.019234
v -0.270813 0.459381 0.019234
v -0.412917 0.42612 -0.010729
v -0.41406 0.453934 0.019516
v -0.408009 0.343407 0.019861
v -0.414326 0.365312 -0.008579
v -0.404688 0.27603 -0.010973
v -0.40151 0.254947 0.018529
v -0.407709 0.365513 0.0161
v -0.409095 0.333552 -0.008548
v -0.396784 0.24022 -0.006601
v -0.397006 0.270856 0.01587
v -0.396726 0.150639 0.015898
v -0.396634 0.168377 -0.009157
v -0.402026 0.164092 0.017836
v -0.275675 0.355919 -0.018704
v -0.275155 0.336897 0.008428
v -0.275782 0.443597 0.00901
v -0.276095 0.423882 -0.022802
v 0.252904 0.343653 -0.014611
v 0.250015 0.324884 0.010961
v 0.2583 0.429032 0.01276
v 0.259928 0.406813 -0.016931
v 0.465034 0.343913 -0.004763
v 0.465034 0.322393 0.020766
v 0.465034 0.429985 0.02217
v 0.465034 0.40517 -0.007283
v -0.277362 0.25079 0.006532
v -0.275916 0.331568 -0.019063
v -0.276675 0.276107 -0.022957
v -0.275501 0.370863 0.004826
v 0.244634 0.250858 -0.019736
v 0.248821 0.234995 0.007636
v 0.262153 0.339567 0.00793
v 0.257379 0.312823 -0.015405
v 0.459846 0.256137 -0.010152
v 0.459846 0.236548 0.017416
v 0.459846 0.339814 0.016726
v 0.459846 0.311292 -0.006305
v -0.410441 0.077666 -0.012762
v -0.401562 0.053601 0.015725
v -0.410301 0.145897 -0.015572
v -0.277166 0.159969 0.004155
v -0.278528 0.144631 -0.027395
v -0.279724 0.071949 -0.024461
v -0.279726 0.052456 0.002443
v 0.248979 0.064581 -0.019874
v 0.246267 0.046735 0.005621
v 0.259389 0.151101 0.007398
v 0.25146 0.132363 -0.02236
v 0.460129 0.066369 -0.010144
v 0.460129 0.045523 0.015388
v 0.460129 0.14693 0.016781
v 0.460129 0.129833 -0.012666
v -0.277559 0.274724 0.001402
v -0.276176 0.2465 -0.02136
v -0.276667 0.178173 -0.024032
v -0.27772 0.158196 0.00115
v 0.251452 0.157395 -0.020332
v 0.254256 0.142673 0.003632
v 0.253689 0.252831 0.004132
v 0.25953 0.230939 -0.017551
v 0.465808 0.153524 -0.010661
v 0.465034 0.139744 0.013439
v 0.465034 0.245939 0.01353
v 0.465808 0.218161 -0.008022
v -0.460296 0.949656 -0.022008
v -0.497493 0.949656 0.011682
v -0.390704 0.949656 -0.019308
v -0.461398 0.371873 -0.027642
v -0.397479 0.37934 -0.024683
v -0.46667 0.048673 -0.025458
v -0.399498 0.046846 -0.022849
v -0.466117 0.046846 0.045207
v -0.5 0.050334 0.011639
v -0.365615 0.050334 0.010719
v -0.431379 0.048673 0.047816
v -0.436651 0.371873 0.05
v -0.499584 0.377993 0.011559
v -0.36603 0.377993 0.0108
v -0.468135 0.37934 0.047042
v -0.47491 0.949656 0.041666
v -0.368121 0.949656 0.010676
v -0.437754 0.949656 0.044366
v -0.462281 0.575359 0.011137
v -0.465032 0.686026 0.009085
v -0.466246 0.66478 -0.017625
v -0.44516 0.886095 -0.017464
v -0.440257 0.910426 0.00951
v -0.449894 0.785667 0.01114
v -0.446364 0.825588 -0.019832
v -0.190019 0.874152 -0.018508
v -0.188049 0.897331 0.008373
v -0.198599 0.773212 0.009837
v -0.192672 0.817045 -0.021213
v 0.187448 0.825529 0.0018
v 0.184212 0.716853 0.003196
v 0.186949 0.808763 -0.024145
v 0.184925 0.740783 -0.026085
v 0.459781 0.814794 -0.010716
v 0.460363 0.834346 0.014805
v 0.457265 0.730277 0.016254
v 0.457812 0.748634 -0.012601
v -0.453989 0.764992 -0.01594
v -0.4532 0.785952 0.010748
v -0.453524 0.674109 0.012198
v -0.454161 0.71156 -0.018575
v -0.193376 0.754385 -0.021351
v -0.193376 0.779494 0.005471
v -0.193376 0.669358 0.006928
v -0.193376 0.694787 -0.023909
v 0.189099 0.738532 -0.000163
v 0.181771 0.627472 0.001251
v 0.187889 0.720199 -0.026116
v 0.184246 0.664978 -0.026041
v 0.467981 0.727681 -0.012621
v 0.469339 0.748256 0.0129
v 0.462226 0.64045 0.014351
v 0.464269 0.671425 -0.012503
v -0.459541 0.61063 -0.019228
v -0.193376 0.663495 -0.028832
v -0.193376 0.682834 -0.001962
v -0.193376 0.57285 -0.000305
v -0.193376 0.60748 -0.021315
v 0.189694 0.648457 0.000052
v 0.181041 0.541164 0.001465
v 0.188196 0.629883 -0.025889
v 0.184483 0.583838 -0.028452
v 0.461846 0.632882 -0.012331
v 0.463534 0.653818 0.01319
v 0.455028 0.54834 0.01464
v 0.458385 0.589965 -0.014839
v 0.458555 0.966773 -0.015233
v 0.458555 0.995054 0.014185
v 0.458555 0.891017 0.012845
v 0.458555 0.91237 -0.012697
v 0.290349 0.990683 0.003629
v 0.287078 0.88263 0.001852
v 0.287655 0.960125 -0.026129
v 0.288175 0.901164 -0.023644
v -0.148686 0.971295 -0.031164
v -0.147112 0.997734 0.000386
v -0.150069 0.887434 -0.001326
v -0.150066 0.907432 -0.02823
v -0.462455 0.911333 -0.016531
v -0.462293 0.970631 -0.019341
v -0.452738 1 0.014067
v -0.452202 0.886644 0.011955
v 0.46526 0.490875 -0.01457
v 0.464037 0.474997 0.013741
v 0.466413 0.574943 0.012177
v 0.465966 0.556166 -0.01537
v 0.184642 0.463396 -0.000353
v 0.187123 0.567767 -0.001861
v 0.18674 0.551665 -0.029863
v 0.185992 0.484625 -0.024322
v -0.193376 0.518088 -0.022172
v -0.193376 0.475623 0.005572
v -0.193376 0.574714 0.004262
v -0.193376 0.563934 -0.019871
v -0.454161 0.53318 -0.017373
v -0.453524 0.479898 0.010314
v -0.4532 0.580524 0.009009
v -0.453989 0.573477 -0.015002
v 0.460645 0.466429 -0.015175
v 0.45987 0.484435 0.006376
v 0.45987 0.415599 0.006286
v 0.459499 0.417958 -0.007665
v 0.25953 0.474711 -0.024704
v 0.253689 0.488902 -0.00302
v 0.254256 0.417497 -0.003521
v 0.250307 0.420468 -0.017336
v -0.27772 0.42756 -0.006003
v -0.277812 0.433936 -0.021037
v -0.276175 0.484798 -0.028513
v -0.277559 0.503094 -0.005751
v -0.39778 0.427585 -0.006161
v -0.396726 0.422661 0.008745
v -0.397006 0.500586 0.008717
v -0.396784 0.480727 -0.013754
v 0.465163 0.852386 -0.016246
v 0.46312 0.821412 0.010608
v 0.470233 0.929218 0.009157
v 0.468875 0.908642 -0.016364
v 0.18514 0.845939 -0.029784
v 0.188783 0.901161 -0.029859
v 0.182665 0.808434 -0.002491
v 0.189993 0.919494 -0.003906
v 0.5 0.084592 0.047449
v 0.248256 0.092921 0.036925
v -0.038661 0.098352 0.033897
v -0.325896 0.092921 0.036925
v -0.472845 0.084592 0.047449
v -0.472845 0.084599 0.004949
v -0.472845 0 0.004953
v -0.472845 0 0.047982
v -0.472845 0 0.004953
v -0.326572 0 -0.00284
v -0.03817 0.010348 -0.012381
v 0.251333 0.006112 -0.002891
v 0.5 0 0.004953
v 0.5 0 0.047982
v 0.5 0.084599 0.004949
v 0.5 0.084592 0.047449
v 0.5 0.084599 0.004949
v 0.248293 0.092922 -0.00284
v -0.038661 0.098352 -0.012355
v -0.325933 0.092922 -0.00284
v -0.472845 0.084599 0.004949
v 0.5 0 0.004953
v -0.472845 0.084592 0.047449
v 0.5 0 0.047982
v 0.243547 0.009568 0.038123
v -0.038629 0.006041 0.033823
v -0.326535 0 0.036926
v -0.472845 0 0.047982
v 0.234594 0.476173 0.001933
v 0.046815 0.472697 0.001933
v -0.054132 0.472697 0.001933
v -0.247525 0.476173 0.001933
v -0.247525 0.476173 -0.05
v -0.054132 0.472697 -0.05
v 0.046815 0.472697 -0.05
v 0.234594 0.476173 -0.05
v 0.234594 0.520233 -0.05
v 0.046815 0.516757 -0.05
v -0.054132 0.516757 -0.05
v -0.247525 0.520233 -0.05
v 0.234594 0.520233 -0.05
v 0.234594 0.520233 0.001933
v 0.046815 0.516757 0.001933
v -0.054132 0.516757 0.001933
v -0.247525 0.520233 0.001933
v -0.247525 0.520233 -0.05
v -0.247525 0.520233 0.001933
v -0.247525 0.476173 0.001933
v 0.234594 0.520233 0.001933
v 0.234594 0.476173 0.001933
v 0.234594 0.476173 -0.05
v -0.247525 0.476173 -0.05
v 0.26107 0.939653 -0.032698
v 0.26107 0.857017 -0.032699
v 0.052666 0.850497 -0.032699
v -0.059367 0.850497 -0.032698
v -0.274 0.857017 -0.032698
v -0.274 0.857017 0.019234
v -0.059367 0.850497 0.019234
v 0.052666 0.850497 0.019234
v 0.26107 0.857017 0.019234
v 0.26107 0.939653 0.019234
v 0.052666 0.933133 0.019234
v -0.059367 0.933133 0.019234
v -0.274 0.939653 0.019234
v 0.26107 0.939653 0.019234
v 0.26107 0.939653 -0.032698
v 0.26107 0.857017 0.019234
v -0.274 0.857017 0.019234
v -0.274 0.857017 -0.032698
v -0.274 0.939653 -0.032698
v -0.059367 0.933133 -0.032698
v 0.052666 0.933133 -0.032698
v -0.274 0.939653 0.019234
v -0.274 0.939653 -0.032698
v 0.26107 0.857017 -0.032699
v 0.168597 0.455252 0.019234
v 0.162826 0.695563 0.019234
v 0.144679 0.856304 0.018631
v 0.168597 0.455252 -0.032699
v 0.162826 0.695563 -0.032698
v 0.144679 0.856304 -0.032095
v 0.252722 0.455252 -0.032698
v 0.24695 0.695563 -0.032698
v 0.226765 0.858872 -0.032095
v 0.252722 0.455252 -0.032698
v 0.252722 0.455252 0.019234
v 0.24695 0.695563 0.019234
v 0.226765 0.858872 0.018631
v 0.252722 0.455252 0.019234
v 0.168597 0.455252 0.019234
v 0.168597 0.455252 -0.032699
v -0.186688 0.459381 -0.032698
v -0.270813 0.459381 -0.032699
v -0.260982 0.704294 -0.032698
v -0.248115 0.860911 -0.031947
v -0.270813 0.459381 0.019234
v -0.260982 0.704294 0.019234
v -0.248115 0.860911 0.018483
v -0.186688 0.459381 0.019234
v -0.176857 0.704294 0.019234
v -0.166502 0.858432 0.018483
v -0.186688 0.459381 0.019234
v -0.186688 0.459381 -0.032698
v -0.270813 0.459381 0.019234
v -0.270813 0.459381 -0.032699
v -0.176857 0.704294 -0.032698
v -0.166502 0.858432 -0.031947
v -0.397006 0.270856 0.01587
v -0.277559 0.274724 0.001402
v 0.253689 0.252831 0.004132
v 0.465034 0.245939 0.01353
v 0.465808 0.218161 -0.008022
v 0.465808 0.153524 -0.010661
v 0.465034 0.139744 0.013439
v 0.254256 0.142673 0.003632
v -0.27772 0.158196 0.00115
v -0.396726 0.150639 0.015898
v 0.465034 0.245939 0.01353
v 0.465034 0.139744 0.013439
v -0.396726 0.150639 0.015898
v -0.40151 0.254947 0.018529
v -0.277362 0.25079 0.006532
v 0.248821 0.234995 0.007636
v 0.459846 0.236548 0.017416
v 0.459846 0.339814 0.016726
v 0.262153 0.339567 0.00793
v -0.275501 0.370863 0.004826
v -0.407709 0.365513 0.0161
v -0.409095 0.333552 -0.008548
v -0.404688 0.27603 -0.010973
v -0.40151 0.254947 0.018529
v -0.407709 0.365513 0.0161
v 0.459846 0.311292 -0.006305
v 0.459846 0.256137 -0.010152
v 0.459846 0.236548 0.017416
v 0.459846 0.339814 0.016726
v -0.41406 0.453934 0.019516
v -0.275782 0.443597 0.00901
v 0.2583 0.429032 0.01276
v 0.465034 0.429985 0.02217
v 0.465034 0.40517 -0.007283
v 0.465034 0.343913 -0.004763
v 0.465034 0.322393 0.020766
v 0.250015 0.324884 0.010961
v -0.275155 0.336897 0.008428
v -0.408009 0.343407 0.019861
v -0.41406 0.453934 0.019516
v -0.408009 0.343407 0.019861
v -0.414326 0.365312 -0.008579
v -0.412917 0.42612 -0.010729
v 0.465034 0.429985 0.02217
v 0.465034 0.322393 0.020766
v -0.410441 0.077666 -0.012762
v -0.401562 0.053601 0.015725
v -0.279726 0.052456 0.002443
v 0.246267 0.046735 0.005621
v 0.460129 0.045523 0.015388
v 0.460129 0.14693 0.016781
v 0.259389 0.151101 0.007398
v -0.277166 0.159969 0.004155
v -0.402026 0.164092 0.017836
v -0.410301 0.145897 -0.015572
v -0.402026 0.164092 0.017836
v 0.460129 0.129833 -0.012666
v 0.460129 0.066369 -0.010144
v 0.460129 0.045523 0.015388
v 0.460129 0.14693 0.016781
v -0.401562 0.053601 0.015725
v -0.460296 0.949656 -0.022008
v -0.497493 0.949656 0.011682
v -0.47491 0.949656 0.041666
v -0.437754 0.949656 0.044366
v -0.368121 0.949656 0.010676
v -0.390704 0.949656 -0.019308
v -0.466117 0.046846 0.045207
v -0.5 0.050334 0.011639
v -0.46667 0.048673 -0.025458
v -0.399498 0.046846 -0.022849
v -0.365615 0.050334 0.010719
v -0.431379 0.048673 0.047816
v 0.463534 0.653818 0.01319
v 0.455028 0.54834 0.01464
v 0.181041 0.541164 0.001465
v 0.458385 0.589965 -0.014839
v 0.461846 0.632882 -0.012331
v 0.463534 0.653818 0.01319
v 0.455028 0.54834 0.01464
v 0.189694 0.648457 0.000052
v 0.469339 0.748256 0.0129
v 0.462226 0.64045 0.014351
v 0.181771 0.627472 0.001251
v 0.464269 0.671425 -0.012503
v 0.467981 0.727681 -0.012621
v 0.469339 0.748256 0.0129
v 0.462226 0.64045 0.014351
v 0.189099 0.738532 -0.000163
v 0.460363 0.834346 0.014805
v 0.457265 0.730277 0.016254
v 0.184212 0.716853 0.003196
v 0.457812 0.748634 -0.012601
v 0.459781 0.814794 -0.010716
v 0.460363 0.834346 0.014805
v 0.457265 0.730277 0.016254
v 0.187448 0.825529 0.0018
v -0.462281 0.575359 0.011137
v -0.193376 0.57285 -0.000305
v -0.465032 0.686026 0.009085
v -0.193376 0.682834 -0.001962
v -0.44516 0.886095 -0.017464
v -0.440257 0.910426 0.00951
v -0.188049 0.897331 0.008373
v -0.449894 0.785667 0.01114
v -0.198599 0.773212 0.009837
v -0.446364 0.825588 -0.019832
v -0.449894 0.785667 0.01114
v -0.440257 0.910426 0.00951
v -0.453989 0.764992 -0.01594
v -0.4532 0.785952 0.010748
v -0.193376 0.779494 0.005471
v -0.453524 0.674109 0.012198
v -0.193376 0.669358 0.006928
v -0.454161 0.71156 -0.018575
v -0.453524 0.674109 0.012198
v -0.4532 0.785952 0.010748
v 0.458555 0.995054 0.014185
v 0.458555 0.891017 0.012845
v 0.458555 0.91237 -0.012697
v 0.458555 0.966773 -0.015233
v 0.458555 0.891017 0.012845
v 0.287078 0.88263 0.001852
v -0.150069 0.887434 -0.001326
v -0.452202 0.886644 0.011955
v -0.462455 0.911333 -0.016531
v -0.462293 0.970631 -0.019341
v -0.452738 1 0.014067
v -0.452202 0.886644 0.011955
v 0.458555 0.995054 0.014185
v 0.290349 0.990683 0.003629
v -0.147112 0.997734 0.000386
v -0.452738 1 0.014067
v 0.46526 0.490875 -0.01457
v 0.465966 0.556166 -0.01537
v 0.466413 0.574943 0.012177
v 0.464037 0.474997 0.013741
v 0.466413 0.574943 0.012177
v 0.187123 0.567767 -0.001861
v -0.193376 0.475623 0.005572
v -0.453524 0.479898 0.010314
v -0.4532 0.580524 0.009009
v -0.453989 0.573477 -0.015002
v -0.454161 0.53318 -0.017373
v -0.4532 0.580524 0.009009
v -0.193376 0.574714 0.004262
v -0.453524 0.479898 0.010314
v 0.464037 0.474997 0.013741
v 0.184642 0.463396 -0.000353
v 0.45987 0.415599 0.006286
v 0.459499 0.417958 -0.007665
v 0.460645 0.466429 -0.015175
v 0.45987 0.484435 0.006376
v 0.45987 0.415599 0.006286
v 0.254256 0.417497 -0.003521
v -0.27772 0.42756 -0.006003
v -0.396726 0.422661 0.008745
v 0.45987 0.484435 0.006376
v 0.253689 0.488902 -0.00302
v -0.277559 0.503094 -0.005751
v -0.397006 0.500586 0.008717
v 0.46312 0.821412 0.010608
v 0.182665 0.808434 -0.002491
v 0.470233 0.929218 0.009157
v 0.189993 0.919494 -0.003906
v 0.468875 0.908642 -0.016364
v 0.465163 0.852386 -0.016246
v 0.46312 0.821412 0.010608
v 0.470233 0.929218 0.009157
vt 0.786715 0.034713
vt 0.92757 0.034713
vt 0.92757 0.001001
vt 0.786715 0.001001
vt 0.856142 0.463285
vt 0.856142 0.32243
vt 0.82243 0.32243
vt 0.82243 0.463285
vt 0.141856 0.856142
vt 0.141856 0.82243
vt 0.001001 0.82243
vt 0.001001 0.856142
vt 0.784713 0.501001
vt 0.751001 0.501001
vt 0.751001 0.641856
vt 0.784713 0.641856
vt 0.358144 0.820428
vt 0.498999 0.820428
vt 0.498999 0.786715
vt 0.358144 0.786715
vt 0.784713 0.358144
vt 0.751001 0.358144
vt 0.751001 0.498999
vt 0.784713 0.498999
vt 0.643858 0.748999
vt 0.784713 0.748999
vt 0.784713 0.715287
vt 0.643858 0.715287
vt 0.748999 0.141856
vt 0.748999 0.001001
vt 0.715287 0.001001
vt 0.715287 0.141856
vt 0.641856 0.784713
vt 0.641856 0.751001
vt 0.501001 0.751001
vt 0.501001 0.784713
vt 0.606142 0.929572
vt 0.57243 0.929572
vt 0.57243 0.998999
vt 0.606142 0.998999
vt 0.143858 0.856142
vt 0.213285 0.856142
vt 0.213285 0.82243
vt 0.143858 0.82243
vt 0.713285 0.001001
vt 0.679572 0.001001
vt 0.679572 0.141856
vt 0.713285 0.141856
vt 0.215287 0.070428
vt 0.356142 0.070428
vt 0.356142 0.001001
vt 0.215287 0.001001
vt 0.641856 0.213285
vt 0.641856 0.143858
vt 0.608144 0.143858
vt 0.608144 0.213285
vt 0.213285 0.891856
vt 0.213285 0.858144
vt 0.143858 0.858144
vt 0.143858 0.891856
vt 0.034713 0.501001
vt 0.001001 0.501001
vt 0.001001 0.641856
vt 0.034713 0.641856
vt 0.998999 0.393858
vt 0.965287 0.393858
vt 0.965287 0.42757
vt 0.998999 0.42757
vt 0.070428 0.929572
vt 0.036715 0.929572
vt 0.036715 0.963285
vt 0.070428 0.963285
vt 0.106142 0.929572
vt 0.07243 0.929572
vt 0.07243 0.963285
vt 0.106142 0.963285
vt 0.42757 0.929572
vt 0.393858 0.929572
vt 0.393858 0.963285
vt 0.42757 0.963285
vt 0.034713 0.929572
vt 0.001001 0.929572
vt 0.001001 0.963285
vt 0.034713 0.963285
vt 0.641856 0.929572
vt 0.608144 0.929572
vt 0.608144 0.963285
vt 0.641856 0.963285
vt 0.213285 0.929572
vt 0.179572 0.929572
vt 0.179572 0.963285
vt 0.213285 0.963285
vt 0.07243 0.534713
vt 0.213285 0.534713
vt 0.213285 0.501001
vt 0.07243 0.501001
vt 0.963285 0.570428
vt 0.963285 0.501001
vt 0.929572 0.501001
vt 0.929572 0.570428
vt 0.215287 0.534713
vt 0.356142 0.534713
vt 0.356142 0.501001
vt 0.215287 0.501001
vt 0.213285 0.358144
vt 0.179572 0.358144
vt 0.179572 0.498999
vt 0.213285 0.498999
vt 0.963285 0.606142
vt 0.963285 0.57243
vt 0.893858 0.57243
vt 0.893858 0.606142
vt 0.498999 0.07243
vt 0.465287 0.07243
vt 0.465287 0.213285
vt 0.498999 0.213285
vt 0.893858 0.784713
vt 0.963285 0.784713
vt 0.963285 0.751001
vt 0.893858 0.751001
vt 0.498999 0.498999
vt 0.498999 0.358144
vt 0.465287 0.358144
vt 0.465287 0.498999
vt 0.498999 0.570428
vt 0.498999 0.536715
vt 0.358144 0.536715
vt 0.358144 0.570428
vt 0.534713 0.356142
vt 0.534713 0.215287
vt 0.501001 0.215287
vt 0.501001 0.356142
vt 0.786715 0.963285
vt 0.856142 0.963285
vt 0.856142 0.929572
vt 0.786715 0.929572
vt 0.534713 0.141856
vt 0.534713 0.001001
vt 0.501001 0.001001
vt 0.501001 0.141856
vt 0.07243 0.570428
vt 0.213285 0.570428
vt 0.213285 0.536715
vt 0.07243 0.536715
vt 0.963285 0.320428
vt 0.963285 0.251001
vt 0.929572 0.251001
vt 0.929572 0.320428
vt 0.358144 0.606142
vt 0.498999 0.606142
vt 0.498999 0.57243
vt 0.358144 0.57243
vt 0.570428 0.001001
vt 0.536715 0.001001
vt 0.536715 0.141856
vt 0.570428 0.141856
vt 0.215287 0.606142
vt 0.356142 0.606142
vt 0.356142 0.57243
vt 0.215287 0.57243
vt 0.963285 0.17757
vt 0.963285 0.108144
vt 0.929572 0.108144
vt 0.929572 0.17757
vt 0.641856 0.534713
vt 0.641856 0.501001
vt 0.501001 0.501001
vt 0.501001 0.534713
vt 0.963285 0.036715
vt 0.929572 0.036715
vt 0.929572 0.106142
vt 0.963285 0.106142
vt 0.356142 0.641856
vt 0.356142 0.608144
vt 0.215287 0.608144
vt 0.215287 0.641856
vt 0.570428 0.356142
vt 0.570428 0.215287
vt 0.536715 0.215287
vt 0.536715 0.356142
vt 0.501001 0.963285
vt 0.570428 0.963285
vt 0.570428 0.929572
vt 0.501001 0.929572
vt 0.570428 0.498999
vt 0.570428 0.358144
vt 0.536715 0.358144
vt 0.536715 0.498999
vt 0.429572 0.963285
vt 0.498999 0.963285
vt 0.498999 0.929572
vt 0.429572 0.929572
vt 0.606142 0.141856
vt 0.606142 0.001001
vt 0.57243 0.001001
vt 0.57243 0.141856
vt 0.641856 0.570428
vt 0.641856 0.536715
vt 0.501001 0.536715
vt 0.501001 0.570428
vt 0.963285 0.679572
vt 0.929572 0.679572
vt 0.929572 0.748999
vt 0.963285 0.748999
vt 0.501001 0.606142
vt 0.641856 0.606142
vt 0.641856 0.57243
vt 0.501001 0.57243
vt 0.963285 0.858144
vt 0.929572 0.858144
vt 0.929572 0.92757
vt 0.963285 0.92757
vt 0.07243 0.67757
vt 0.213285 0.67757
vt 0.213285 0.643858
vt 0.07243 0.643858
vt 0.963285 0.391856
vt 0.963285 0.32243
vt 0.929572 0.32243
vt 0.929572 0.391856
vt 0.143858 0.820428
vt 0.213285 0.820428
vt 0.213285 0.786715
vt 0.143858 0.786715
vt 0.641856 0.356142
vt 0.641856 0.215287
vt 0.608144 0.215287
vt 0.608144 0.356142
vt 0.713285 0.963285
vt 0.713285 0.929572
vt 0.643858 0.929572
vt 0.643858 0.963285
vt 0.070428 0.641856
vt 0.070428 0.501001
vt 0.036715 0.501001
vt 0.036715 0.641856
vt 0.92757 0.963285
vt 0.92757 0.929572
vt 0.858144 0.929572
vt 0.858144 0.963285
vt 0.641856 0.001001
vt 0.608144 0.001001
vt 0.608144 0.141856
vt 0.641856 0.141856
vt 0.215287 0.713285
vt 0.356142 0.713285
vt 0.356142 0.679572
vt 0.215287 0.679572
vt 0.963285 0.248999
vt 0.963285 0.179572
vt 0.929572 0.179572
vt 0.929572 0.248999
vt 0.356142 0.929572
vt 0.32243 0.929572
vt 0.32243 0.963285
vt 0.356142 0.963285
vt 0.17757 0.929572
vt 0.143858 0.929572
vt 0.143858 0.963285
vt 0.17757 0.963285
vt 0.141856 0.929572
vt 0.108144 0.929572
vt 0.108144 0.963285
vt 0.141856 0.963285
vt 0.963285 0.929572
vt 0.929572 0.929572
vt 0.929572 0.963285
vt 0.963285 0.963285
vt 0.248999 0.929572
vt 0.215287 0.929572
vt 0.215287 0.963285
vt 0.248999 0.963285
vt 0.998999 0.358144
vt 0.965287 0.358144
vt 0.965287 0.391856
vt 0.998999 0.391856
vt 0.893858 0.820428
vt 0.963285 0.820428
vt 0.963285 0.786715
vt 0.893858 0.786715
vt 0.998999 0.57243
vt 0.965287 0.57243
vt 0.965287 0.606142
vt 0.998999 0.606142
vt 0.92757 0.679572
vt 0.893858 0.679572
vt 0.893858 0.748999
vt 0.92757 0.748999
vt 0.570428 0.143858
vt 0.501001 0.143858
vt 0.501001 0.213285
vt 0.570428 0.213285
vt 0.963285 0.67757
vt 0.963285 0.643858
vt 0.893858 0.643858
vt 0.893858 0.67757
vt 0.92757 0.036715
vt 0.893858 0.036715
vt 0.893858 0.106142
vt 0.92757 0.106142
vt 0.641856 0.748999
vt 0.641856 0.715287
vt 0.501001 0.715287
vt 0.501001 0.748999
vt 0.42757 0.215287
vt 0.358144 0.215287
vt 0.358144 0.356142
vt 0.42757 0.356142
vt 0.784713 0.356142
vt 0.784713 0.32243
vt 0.643858 0.32243
vt 0.643858 0.356142
vt 0.713285 0.143858
vt 0.679572 0.143858
vt 0.679572 0.284713
vt 0.713285 0.284713
vt 0.213285 0.784713
vt 0.213285 0.751001
vt 0.07243 0.751001
vt 0.07243 0.784713
vt 0.141856 0.215287
vt 0.07243 0.215287
vt 0.07243 0.356142
vt 0.141856 0.356142
vt 0.784713 0.320428
vt 0.784713 0.286715
vt 0.643858 0.286715
vt 0.643858 0.320428
vt 0.713285 0.358144
vt 0.679572 0.358144
vt 0.679572 0.498999
vt 0.713285 0.498999
vt 0.856142 0.92757
vt 0.856142 0.893858
vt 0.786715 0.893858
vt 0.786715 0.92757
vt 0.070428 0.643858
vt 0.001001 0.643858
vt 0.001001 0.713285
vt 0.070428 0.713285
vt 0.92757 0.108144
vt 0.893858 0.108144
vt 0.893858 0.17757
vt 0.92757 0.17757
vt 0.92757 0.92757
vt 0.92757 0.893858
vt 0.858144 0.893858
vt 0.858144 0.92757
vt 0.713285 0.501001
vt 0.679572 0.501001
vt 0.679572 0.641856
vt 0.713285 0.641856
vt 0.284713 0.356142
vt 0.284713 0.286715
vt 0.143858 0.286715
vt 0.143858 0.356142
vt 0.748999 0.501001
vt 0.715287 0.501001
vt 0.715287 0.641856
vt 0.748999 0.641856
vt 0.784713 0.784713
vt 0.784713 0.751001
vt 0.643858 0.751001
vt 0.643858 0.784713
vt 0.748999 0.143858
vt 0.715287 0.143858
vt 0.715287 0.284713
vt 0.748999 0.284713
vt 0.213285 0.141856
vt 0.213285 0.07243
vt 0.07243 0.07243
vt 0.07243 0.141856
vt 0.748999 0.358144
vt 0.715287 0.358144
vt 0.715287 0.498999
vt 0.748999 0.498999
vt 0.784713 0.713285
vt 0.784713 0.679572
vt 0.643858 0.679572
vt 0.643858 0.713285
vt 0.92757 0.179572
vt 0.893858 0.179572
vt 0.893858 0.248999
vt 0.92757 0.248999
vt 0.070428 0.715287
vt 0.001001 0.715287
vt 0.001001 0.784713
vt 0.070428 0.784713
vt 0.284713 0.92757
vt 0.284713 0.893858
vt 0.215287 0.893858
vt 0.215287 0.92757
vt 0.92757 0.251001
vt 0.893858 0.251001
vt 0.893858 0.320428
vt 0.92757 0.320428
vt 0.641856 0.820428
vt 0.641856 0.786715
vt 0.501001 0.786715
vt 0.501001 0.820428
vt 0.284713 0.07243
vt 0.215287 0.07243
vt 0.215287 0.213285
vt 0.284713 0.213285
vt 0.356142 0.820428
vt 0.356142 0.786715
vt 0.215287 0.786715
vt 0.215287 0.820428
vt 0.784713 0.143858
vt 0.751001 0.143858
vt 0.751001 0.284713
vt 0.784713 0.284713
vt 0.141856 0.820428
vt 0.141856 0.786715
vt 0.001001 0.786715
vt 0.001001 0.820428
vt 0.213285 0.143858
vt 0.143858 0.143858
vt 0.143858 0.284713
vt 0.213285 0.284713
vt 0.498999 0.856142
vt 0.498999 0.82243
vt 0.358144 0.82243
vt 0.358144 0.856142
vt 0.820428 0.501001
vt 0.786715 0.501001
vt 0.786715 0.641856
vt 0.820428 0.641856
vt 0.213285 0.92757
vt 0.213285 0.893858
vt 0.143858 0.893858
vt 0.143858 0.92757
vt 0.856142 0.786715
vt 0.786715 0.786715
vt 0.786715 0.856142
vt 0.856142 0.856142
vt 0.92757 0.32243
vt 0.893858 0.32243
vt 0.893858 0.391856
vt 0.92757 0.391856
vt 0.356142 0.92757
vt 0.356142 0.893858
vt 0.286715 0.893858
vt 0.286715 0.92757
vt 0.820428 0.179572
vt 0.786715 0.179572
vt 0.786715 0.320428
vt 0.820428 0.320428
vt 0.213285 0.070428
vt 0.213285 0.001001
vt 0.07243 0.001001
vt 0.07243 0.070428
vt 0.820428 0.036715
vt 0.786715 0.036715
vt 0.786715 0.17757
vt 0.820428 0.17757
vt 0.784713 0.856142
vt 0.784713 0.82243
vt 0.643858 0.82243
vt 0.643858 0.856142
vt 0.820428 0.643858
vt 0.786715 0.643858
vt 0.786715 0.784713
vt 0.820428 0.784713
vt 0.141856 0.213285
vt 0.141856 0.143858
vt 0.001001 0.143858
vt 0.001001 0.213285
vt 0.856142 0.179572
vt 0.82243 0.179572
vt 0.82243 0.320428
vt 0.856142 0.320428
vt 0.784713 0.891856
vt 0.784713 0.858144
vt 0.643858 0.858144
vt 0.643858 0.891856
vt 0.856142 0.501001
vt 0.82243 0.501001
vt 0.82243 0.641856
vt 0.856142 0.641856
vt 0.356142 0.891856
vt 0.356142 0.858144
vt 0.215287 0.858144
vt 0.215287 0.891856
vt 0.856142 0.643858
vt 0.82243 0.643858
vt 0.82243 0.784713
vt 0.856142 0.784713
vt 0.498999 0.891856
vt 0.498999 0.858144
vt 0.358144 0.858144
vt 0.358144 0.891856
vt 0.856142 0.036715
vt 0.82243 0.036715
vt 0.82243 0.17757
vt 0.856142 0.17757
vt 0.141856 0.891856
vt 0.141856 0.858144
vt 0.001001 0.858144
vt 0.001001 0.891856
vt 0.92757 0.463285
vt 0.92757 0.393858
vt 0.893858 0.393858
vt 0.893858 0.463285
vt 0.92757 0.891856
vt 0.92757 0.858144
vt 0.858144 0.858144
vt 0.858144 0.891856
vt 0.998999 0.536715
vt 0.965287 0.536715
vt 0.965287 0.570428
vt 0.998999 0.570428
vt 0.998999 0.32243
vt 0.965287 0.32243
vt 0.965287 0.356142
vt 0.998999 0.356142
vt 0.891856 0.179572
vt 0.858144 0.179572
vt 0.858144 0.320428
vt 0.891856 0.320428
vt 0.498999 0.92757
vt 0.498999 0.893858
vt 0.358144 0.893858
vt 0.358144 0.92757
vt 0.891856 0.036715
vt 0.858144 0.036715
vt 0.858144 0.17757
vt 0.891856 0.17757
vt 0.641856 0.92757
vt 0.641856 0.893858
vt 0.501001 0.893858
vt 0.501001 0.92757
vt 0.891856 0.501001
vt 0.858144 0.501001
vt 0.858144 0.641856
vt 0.891856 0.641856
vt 0.92757 0.498999
vt 0.92757 0.465287
vt 0.786715 0.465287
vt 0.786715 0.498999
vt 0.998999 0.679572
vt 0.965287 0.679572
vt 0.965287 0.713285
vt 0.998999 0.713285
vt 0.998999 0.643858
vt 0.965287 0.643858
vt 0.965287 0.67757
vt 0.998999 0.67757
vt 0.963285 0.001001
vt 0.929572 0.001001
vt 0.929572 0.034713
vt 0.963285 0.034713
vt 0.998999 0.929572
vt 0.965287 0.929572
vt 0.965287 0.963285
vt 0.998999 0.963285
vt 0.606142 0.286715
vt 0.57243 0.286715
vt 0.57243 0.356142
vt 0.606142 0.356142
vt 0.643858 0.92757
vt 0.784713 0.92757
vt 0.784713 0.893858
vt 0.643858 0.893858
vt 0.070428 0.141856
vt 0.070428 0.001001
vt 0.001001 0.001001
vt 0.001001 0.141856
vt 0.001001 0.92757
vt 0.141856 0.92757
vt 0.141856 0.893858
vt 0.001001 0.893858
vt 0.891856 0.784713
vt 0.891856 0.643858
vt 0.858144 0.643858
vt 0.858144 0.784713
vt 0.501001 0.891856
vt 0.641856 0.891856
vt 0.641856 0.858144
vt 0.501001 0.858144
vt 0.070428 0.498999
vt 0.070428 0.358144
vt 0.001001 0.358144
vt 0.001001 0.498999
vt 0.215287 0.856142
vt 0.356142 0.856142
vt 0.356142 0.82243
vt 0.215287 0.82243
vt 0.820428 0.463285
vt 0.820428 0.32243
vt 0.786715 0.32243
vt 0.786715 0.463285
vt 0.501001 0.856142
vt 0.641856 0.856142
vt 0.641856 0.82243
vt 0.501001 0.82243
vt 0.070428 0.356142
vt 0.070428 0.215287
vt 0.001001 0.215287
vt 0.001001 0.356142
vt 0.643858 0.820428
vt 0.784713 0.820428
vt 0.784713 0.786715
vt 0.643858 0.786715
vt 0.784713 0.141856
vt 0.784713 0.001001
vt 0.751001 0.001001
vt 0.751001 0.141856
vt 0.215287 0.784713
vt 0.356142 0.784713
vt 0.356142 0.751001
vt 0.215287 0.751001
vt 0.356142 0.213285
vt 0.356142 0.07243
vt 0.286715 0.07243
vt 0.286715 0.213285
vt 0.358144 0.784713
vt 0.498999 0.784713
vt 0.498999 0.751001
vt 0.358144 0.751001
vt 0.67757 0.141856
vt 0.67757 0.001001
vt 0.643858 0.001001
vt 0.643858 0.141856
vt 0.358144 0.748999
vt 0.498999 0.748999
vt 0.498999 0.715287
vt 0.358144 0.715287
vt 0.42757 0.213285
vt 0.42757 0.07243
vt 0.358144 0.07243
vt 0.358144 0.213285
vt 0.215287 0.748999
vt 0.356142 0.748999
vt 0.356142 0.715287
vt 0.215287 0.715287
vt 0.67757 0.498999
vt 0.67757 0.358144
vt 0.643858 0.358144
vt 0.643858 0.498999
vt 0.501001 0.713285
vt 0.641856 0.713285
vt 0.641856 0.679572
vt 0.501001 0.679572
vt 0.141856 0.498999
vt 0.141856 0.358144
vt 0.07243 0.358144
vt 0.07243 0.498999
vt 0.358144 0.713285
vt 0.498999 0.713285
vt 0.498999 0.679572
vt 0.358144 0.679572
vt 0.67757 0.284713
vt 0.67757 0.143858
vt 0.643858 0.143858
vt 0.643858 0.284713
vt 0.963285 0.856142
vt 0.963285 0.82243
vt 0.893858 0.82243
vt 0.893858 0.856142
vt 0.963285 0.393858
vt 0.929572 0.393858
vt 0.929572 0.463285
vt 0.963285 0.463285
vt 0.284713 0.215287
vt 0.215287 0.215287
vt 0.215287 0.284713
vt 0.284713 0.284713
vt 0.784713 0.963285
vt 0.784713 0.929572
vt 0.715287 0.929572
vt 0.715287 0.963285
vt 0.891856 0.32243
vt 0.858144 0.32243
vt 0.858144 0.463285
vt 0.891856 0.463285
vt 0.213285 0.713285
vt 0.213285 0.679572
vt 0.07243 0.679572
vt 0.07243 0.713285
vt 0.356142 0.358144
vt 0.286715 0.358144
vt 0.286715 0.498999
vt 0.356142 0.498999
vt 0.641856 0.67757
vt 0.641856 0.643858
vt 0.501001 0.643858
vt 0.501001 0.67757
vt 0.641856 0.358144
vt 0.608144 0.358144
vt 0.608144 0.498999
vt 0.641856 0.498999
vt 0.356142 0.67757
vt 0.356142 0.643858
vt 0.215287 0.643858
vt 0.215287 0.67757
vt 0.284713 0.358144
vt 0.215287 0.358144
vt 0.215287 0.498999
vt 0.284713 0.498999
vt 0.641856 0.641856
vt 0.641856 0.608144
vt 0.501001 0.608144
vt 0.501001 0.641856
vt 0.963285 0.465287
vt 0.929572 0.465287
vt 0.929572 0.498999
vt 0.963285 0.498999
vt 0.998999 0.893858
vt 0.965287 0.893858
vt 0.965287 0.92757
vt 0.998999 0.92757
vt 0.606142 0.284713
vt 0.606142 0.143858
vt 0.57243 0.143858
vt 0.57243 0.284713
vt 0.07243 0.641856
vt 0.213285 0.641856
vt 0.213285 0.608144
vt 0.07243 0.608144
vt 0.42757 0.498999
vt 0.42757 0.358144
vt 0.358144 0.358144
vt 0.358144 0.498999
vt 0.07243 0.606142
vt 0.213285 0.606142
vt 0.213285 0.57243
vt 0.07243 0.57243
vt 0.391856 0.929572
vt 0.358144 0.929572
vt 0.358144 0.963285
vt 0.391856 0.963285
vt 0.534713 0.498999
vt 0.534713 0.358144
vt 0.501001 0.358144
vt 0.501001 0.498999
vt 0.215287 0.570428
vt 0.356142 0.570428
vt 0.356142 0.536715
vt 0.215287 0.536715
vt 0.498999 0.356142
vt 0.498999 0.215287
vt 0.429572 0.215287
vt 0.429572 0.356142
vt 0.358144 0.534713
vt 0.498999 0.534713
vt 0.498999 0.501001
vt 0.358144 0.501001
vt 0.320428 0.929572
vt 0.286715 0.929572
vt 0.286715 0.963285
vt 0.320428 0.963285
vt 0.284713 0.929572
vt 0.251001 0.929572
vt 0.251001 0.963285
vt 0.284713 0.963285
vt 0.17757 0.358144
vt 0.143858 0.358144
vt 0.143858 0.498999
vt 0.17757 0.498999
vt 0.498999 0.034713
vt 0.498999 0.001001
vt 0.358144 0.001001
vt 0.358144 0.034713
vt 0.463285 0.07243
vt 0.429572 0.07243
vt 0.429572 0.213285
vt 0.463285 0.213285
vt 0.498999 0.070428
vt 0.498999 0.036715
vt 0.358144 0.036715
vt 0.358144 0.070428
vt 0.463285 0.358144
vt 0.429572 0.358144
vt 0.429572 0.498999
vt 0.463285 0.498999
vt 0.498999 0.641856
vt 0.498999 0.608144
vt 0.358144 0.608144
vt 0.358144 0.641856
vt 0.606142 0.358144
vt 0.57243 0.358144
vt 0.57243 0.498999
vt 0.606142 0.498999
vt 0.498999 0.67757
vt 0.498999 0.643858
vt 0.358144 0.643858
vt 0.358144 0.67757
vt 0.92757 0.501001
vt 0.893858 0.501001
vt 0.893858 0.570428
vt 0.92757 0.570428
vt 0.963285 0.641856
vt 0.963285 0.608144
vt 0.893858 0.608144
vt 0.893858 0.641856
vt 0.891856 0.786715
vt 0.858144 0.786715
vt 0.858144 0.856142
vt 0.891856 0.856142
vt 0.856142 0.891856
vt 0.856142 0.858144
vt 0.786715 0.858144
vt 0.786715 0.891856
vt 0.998999 0.286715
vt 0.965287 0.286715
vt 0.965287 0.320428
vt 0.998999 0.320428
vt 0.67757 0.641856
vt 0.67757 0.501001
vt 0.643858 0.501001
vt 0.643858 0.641856
vt 0.07243 0.748999
vt 0.213285 0.748999
vt 0.213285 0.715287
vt 0.07243 0.715287
vt 0.356142 0.356142
vt 0.356142 0.215287
vt 0.286715 0.215287
vt 0.286715 0.356142
vt 0.643858 0.67757
vt 0.784713 0.67757
vt 0.784713 0.643858
vt 0.643858 0.643858
vt 0.998999 0.858144
vt 0.965287 0.858144
vt 0.965287 0.891856
vt 0.998999 0.891856
usemtl window
f 5/1 281/2 265/3 2/4
f 2/5 1/6 4/7 5/8
f 8/9 263/10 264/11 7/12
f 7/13 264/14 3/15 288/16
f 9/17 13/18 18/19 280/20
f 279/21 10/22 9/23 280/24
f 286/25 287/26 274/27 284/28
f 287/29 6/30 273/31 274/32
f 15/33 12/34 273/35 6/36
f 14/37 11/38 12/39 15/40
f 17/41 16/42 272/43 271/44
f 272/45 16/46 18/47 13/48
f 289/49 288/50 3/51 19/52
f 290/53 289/54 19/55 20/56
f 266/57 282/58 283/59 285/60
f 282/61 266/62 265/63 281/64
f 278/65 276/66 275/67 277/68
f 76/69 72/70 69/71 73/72
f 60/73 56/74 53/75 57/76
f 21/77 313/78 31/79 26/80
f 29/81 35/82 36/83 24/84
f 330/85 46/86 42/87 47/88
f 38/89 37/90 49/91 44/92
f 310/93 23/94 30/95 309/96
f 23/97 22/98 25/99 30/100
f 22/101 312/102 311/103 25/104
f 27/105 291/106 292/107 28/108
f 293/109 34/110 28/111 292/112
f 294/113 314/114 34/115 293/116
f 306/117 305/118 32/119 33/120
f 305/121 304/122 303/123 32/124
f 308/125 307/126 306/127 33/128
f 300/129 299/130 298/131 297/132
f 301/133 300/134 297/135 296/136
f 302/137 301/138 296/139 295/140
f 337/141 40/142 39/143 332/144
f 40/145 41/146 45/147 39/148
f 41/149 315/150 338/151 45/152
f 333/153 336/154 43/155 334/156
f 48/157 328/158 329/159 335/160
f 43/161 48/162 335/163 334/164
f 331/165 319/166 318/167 50/168
f 50/169 318/170 317/171 51/172
f 51/173 317/174 316/175 52/176
f 322/177 323/178 324/179 325/180
f 321/181 322/182 325/183 326/184
f 320/185 321/186 326/187 327/188
f 55/189 54/190 59/191 58/192
f 54/193 353/194 352/195 59/196
f 340/197 62/198 354/199 339/200
f 341/201 64/202 62/203 340/204
f 350/205 349/206 348/207 61/208
f 63/209 351/210 350/211 61/212
f 346/213 345/214 342/215 343/216
f 347/217 346/218 343/219 344/220
f 66/221 68/222 67/223 65/224
f 68/225 355/226 368/227 67/228
f 370/229 71/230 70/231 369/232
f 70/233 365/234 366/235 369/236
f 74/237 358/238 357/239 75/240
f 75/241 357/242 356/243 367/244
f 360/245 359/246 362/247 363/248
f 361/249 360/250 363/251 364/252
f 101/253 100/254 99/255 98/256
f 113/257 112/258 111/259 110/260
f 140/261 139/262 138/263 137/264
f 128/265 127/266 126/267 125/268
f 77/269 80/270 79/271 78/272
f 84/273 81/274 82/275 395/276
f 85/277 88/278 87/279 371/280
f 116/281 114/282 115/283 426/284
f 90/285 91/286 411/287 412/288
f 408/289 92/290 410/291 409/292
f 401/293 93/294 413/295 400/296
f 412/297 413/298 93/299 90/300
f 94/301 95/302 91/303 90/304
f 407/305 96/306 92/307 408/308
f 402/309 97/310 93/311 401/312
f 97/313 94/314 90/315 93/316
f 405/317 415/318 95/319 94/320
f 406/321 414/322 96/323 407/324
f 403/325 404/326 97/327 402/328
f 404/329 405/330 94/331 97/332
f 104/333 102/334 394/335 393/336
f 385/337 105/338 83/339 384/340
f 390/341 103/342 392/343 391/344
f 103/345 104/346 393/347 392/348
f 106/349 107/350 102/351 104/352
f 386/353 108/354 105/355 385/356
f 389/357 109/358 103/359 390/360
f 109/361 106/362 104/363 103/364
f 397/365 398/366 107/367 106/368
f 387/369 399/370 108/371 386/372
f 388/373 396/374 109/375 389/376
f 396/377 397/378 106/379 109/380
f 119/381 120/382 431/383 416/384
f 418/385 117/386 89/387 417/388
f 423/389 118/390 425/391 424/392
f 118/393 119/394 416/395 425/396
f 121/397 122/398 120/399 119/400
f 419/401 123/402 117/403 418/404
f 422/405 124/406 118/407 423/408
f 124/409 121/410 119/411 118/412
f 428/413 429/414 122/415 121/416
f 420/417 430/418 123/419 419/420
f 421/421 427/422 124/423 422/424
f 427/425 428/426 121/427 124/428
f 131/429 132/430 383/431 88/432
f 379/433 129/434 86/435 380/436
f 372/437 130/438 85/439 371/440
f 130/441 131/442 88/443 85/444
f 133/445 134/446 132/447 131/448
f 378/449 135/450 129/451 379/452
f 373/453 136/454 130/455 372/456
f 136/457 133/458 131/459 130/460
f 376/461 382/462 134/463 133/464
f 377/465 381/466 135/467 378/468
f 136/469 373/470 374/471 375/472
f 375/473 376/474 133/475 136/476
f 141/477 143/478 145/479 144/480
f 433/481 141/482 144/483 153/484
f 143/485 157/486 154/487 145/488
f 144/489 145/490 147/491 146/492
f 153/493 144/494 146/495 149/496
f 145/497 154/498 442/499 147/500
f 440/501 441/502 150/503 439/504
f 432/505 142/506 436/507 437/508
f 158/509 436/510 142/511 156/512
f 151/513 148/514 439/515 150/516
f 155/517 153/518 149/519 438/520
f 154/521 152/522 443/523 442/524
f 152/525 155/526 438/527 443/528
f 434/529 433/530 153/531 155/532
f 157/533 435/534 152/535 154/536
f 435/537 434/538 155/539 152/540
f 206/541 203/542 204/543 205/544
f 193/545 190/546 191/547 192/548
f 177/549 174/550 175/551 176/552
f 181/553 180/554 179/555 178/556
f 165/557 164/558 163/559 162/560
f 166/561 472/562 479/563 167/564
f 474/565 473/566 478/567 168/568
f 476/569 475/570 477/571 169/572
f 169/573 477/574 472/575 166/576
f 464/577 172/578 170/579 465/580
f 460/581 467/582 171/583 466/584
f 461/585 462/586 173/587 463/588
f 463/589 173/590 172/591 464/592
f 182/593 480/594 487/595 183/596
f 482/597 481/598 486/599 184/600
f 484/601 483/602 485/603 185/604
f 185/605 485/606 480/607 182/608
f 456/609 188/610 186/611 457/612
f 452/613 459/614 187/615 458/616
f 453/617 454/618 189/619 455/620
f 455/621 189/622 188/623 456/624
f 195/625 161/626 160/627 196/628
f 471/629 470/630 159/631 197/632
f 469/633 468/634 194/635 198/636
f 198/637 194/638 161/639 195/640
f 448/641 201/642 199/643 449/644
f 444/645 451/646 200/647 450/648
f 445/649 446/650 202/651 447/652
f 447/653 202/654 201/655 448/656
f 207/657 210/658 214/659 213/660
f 208/661 207/662 213/663 211/664
f 209/665 500/666 501/667 212/668
f 210/669 492/670 493/671 214/672
f 213/673 214/674 218/675 215/676
f 211/677 213/678 215/679 216/680
f 212/681 501/682 502/683 217/684
f 214/685 493/686 494/687 218/688
f 215/689 218/690 219/691 220/692
f 216/693 215/694 220/695 221/696
f 217/697 502/698 503/699 222/700
f 218/701 494/702 499/703 219/704
f 497/705 496/706 495/707 498/708
f 491/709 488/710 489/711 490/712
f 223/713 230/714 229/715 226/716
f 224/717 227/718 230/719 223/720
f 225/721 228/722 519/723 518/724
f 226/725 229/726 509/727 508/728
f 504/729 505/730 506/731 507/732
f 231/733 235/734 238/735 234/736
f 232/737 236/738 235/739 231/740
f 233/741 237/742 517/743 510/744
f 234/745 238/746 515/747 516/748
f 514/749 511/750 512/751 513/752
f 270/753 267/754 268/755 269/756
f 239/757 242/758 246/759 243/760
f 243/761 244/762 240/763 239/764
f 241/765 528/766 529/767 245/768
f 242/769 524/770 525/771 246/772
f 243/773 246/774 248/775 249/776
f 244/777 243/778 249/779 250/780
f 245/781 529/782 530/783 247/784
f 246/785 525/786 526/787 248/788
f 249/789 248/790 251/791 254/792
f 250/793 249/794 254/795 253/796
f 247/797 530/798 531/799 252/800
f 248/801 526/802 527/803 251/804
f 522/805 523/806 520/807 521/808
f 255/809 259/810 260/811 258/812
f 256/813 261/814 259/815 255/816
f 539/817 262/818 533/819 532/820
f 258/821 260/822 535/823 534/824
f 537/825 536/826 257/827 538/828
