# Blender3D v245 OBJ File: ground_under.blend
# www.blender3d.org
mtllib ground_under.mtl
o Cube
v 1.042686 1.045293 -1.990060
v 1.046032 -1.030896 0.104016
v -0.529486 -1.154865 -1.160993
v -1.049587 1.047525 -1.990156
v 1.090034 -0.310896 -0.486944
v -1.045519 -1.045612 -1.991568
v -1.045518 -1.043386 0.127395
v -1.053643 -1.067208 -1.157534
v -1.046960 1.044314 0.107921
v -1.194699 0.542390 -1.034421
v 1.057676 1.053695 0.102229
v -0.405109 1.100136 -0.754979
v -1.104084 0.035239 -0.831609
v -0.184200 -0.469280 0.178736
v 1.212867 -1.121205 -1.124403
v -1.069480 1.058211 -0.587610
v 1.049202 -1.040216 -1.991328
v -0.500944 0.513477 0.119120
v -0.622599 -1.070133 0.123104
v -1.074294 0.288053 -2.001662
v 0.404863 -1.140104 -0.551008
v -0.001400 0.000013 -2.259185
v 0.001841 -1.042914 -1.991448
v 1.190158 0.002538 -1.990694
v -1.047553 0.000957 -1.990862
v -0.003450 1.046409 -1.990108
vt 0.005065 0.003164 0.0
vt -0.999948 -0.001316 0.0
vt -0.739213 -0.254802 0.0
vt 0.005065 0.003164 0.0
vt -0.739213 -0.254802 0.0
vt -0.000495 -0.992277 0.0
vt 0.412040 0.275908 0.0
vt 0.000740 0.001759 0.0
vt 0.202694 -0.011014 0.0
vt 0.260787 0.745198 0.0
vt 0.412040 0.275908 0.0
vt 0.999505 0.007723 0.0
vt 0.999505 0.007723 0.0
vt 0.412040 0.275908 0.0
vt 0.202694 -0.011014 0.0
vt 0.260787 0.745198 0.0
vt 0.000052 0.998684 0.0
vt 0.000740 0.001759 0.0
vt 0.260787 0.745198 0.0
vt 0.000740 0.001759 0.0
vt 0.412040 0.275908 0.0
vt 0.499324 0.499924 0.0
vt 0.997907 0.999152 0.0
vt 0.999463 0.501212 0.0
vt 0.999463 0.501212 0.0
vt 0.500879 0.001984 0.0
vt 0.499324 0.499924 0.0
vt 0.000740 0.000696 0.0
vt 0.499324 0.499924 0.0
vt 0.500879 0.001984 0.0
vt 0.500879 0.001984 0.0
vt 0.999463 0.501212 0.0
vt 1.001019 0.003272 0.0
vt 0.498352 0.999685 0.0
vt 0.997907 0.999152 0.0
vt 0.499324 0.499924 0.0
vt 0.499324 0.499924 0.0
vt -0.000231 0.500457 0.0
vt 0.498352 0.999685 0.0
vt -0.001202 1.000218 0.0
vt 0.498352 0.999685 0.0
vt -0.000231 0.500457 0.0
vt -0.000231 0.500457 0.0
vt 0.499324 0.499924 0.0
vt 0.000740 0.000696 0.0
vt 0.999769 -0.499543 0.0
vt 1.000740 -0.999304 0.0
vt 0.986999 -0.362448 0.0
vt 0.990383 0.926055 0.0
vt 1.001759 1.539639 0.0
vt 1.516828 1.081691 0.0
vt 0.693331 0.215685 0.0
vt 0.202694 0.537589 0.0
vt 0.247158 -0.075597 0.0
vt 0.351540 0.246277 0.0
vt 1.003164 0.527621 0.0
vt 0.007723 0.528474 0.0
vt 0.000696 0.527784 0.0
vt -0.009617 0.926055 0.0
vt 0.516828 1.081691 0.0
vt 0.003272 0.527898 0.0
vt 0.351540 1.246277 0.0
vt -0.014544 0.941876 0.0
vt 0.000696 0.527784 0.0
vt 0.516828 1.081691 0.0
vt 0.637552 0.522964 0.0
vt 0.693331 0.215685 0.0
vt 0.999505 0.528474 0.0
vt 0.202694 0.537589 0.0
vt 0.202694 0.537589 0.0
vt 0.000740 0.539639 0.0
vt -0.003139 -0.073945 0.0
vt 0.001019 0.527898 0.0
vt 0.011144 0.941876 0.0
vt -0.752842 0.924403 0.0
vt 0.011144 0.941876 0.0
vt -0.306669 1.215685 0.0
vt -0.752842 0.924403 0.0
vt 0.000052 0.530339 0.0
vt 0.306551 0.118284 0.0
vt -0.010702 0.198207 0.0
vt 0.759004 0.984844 0.0
vt 1.005321 1.198207 0.0
vt 1.000218 0.528458 0.0
vt 0.637552 0.522964 0.0
vt 0.516828 1.081691 0.0
vt 0.759004 0.984844 0.0
vt 0.637552 0.522964 0.0
vt 0.759004 0.984844 0.0
vt 1.000218 0.528458 0.0
vt 0.351540 0.246277 0.0
vt 0.007723 0.528474 0.0
vt -0.014544 -0.058125 0.0
vt 0.005065 0.527621 0.0
vt -1.001202 -0.471542 0.0
vt -0.693449 0.118284 0.0
vt 0.000740 0.527784 0.0
vt 0.247158 0.924403 0.0
vt -0.003139 0.926055 0.0
vt 0.011144 0.941876 0.0
vt -0.000495 1.528474 0.0
vt -0.306669 1.215685 0.0
vt 0.759004 0.984844 0.0
vt 0.516828 1.081691 0.0
vt 1.005321 1.198207 0.0
vt 0.005065 0.527621 0.0
vt -0.693449 0.118284 0.0
vt -0.999948 0.530339 0.0
vt 0.306551 0.118284 0.0
vt -0.001202 -0.471542 0.0
vt -0.010702 0.198207 0.0
vt 0.247158 0.924403 0.0
vt 0.202694 1.537590 0.0
vt -0.003139 0.926055 0.0
vt 0.516828 0.081691 0.0
vt 0.998684 0.530339 0.0
vt 1.005321 0.198207 0.0
vt 0.351540 0.246277 0.0
vt 0.999152 -0.471496 0.0
vt 1.003164 0.527621 0.0
vt 0.516828 0.081691 0.0
vt 0.001759 0.539639 0.0
vt 0.998684 0.530339 0.0
vt 0.003272 0.527898 0.0
vt 0.501212 0.528201 0.0
vt 0.351540 1.246277 0.0
vt 0.501212 0.528201 0.0
vt 0.999152 0.528504 0.0
vt 0.351540 1.246277 0.0
vt -0.002093 -0.471496 0.0
vt -0.501648 -0.471519 0.0
vt 0.005065 0.527621 0.0
vt -0.501648 -0.471519 0.0
vt -1.001202 -0.471542 0.0
vt 0.005065 0.527621 0.0
vt 0.998798 0.000218 0.0
vt 0.999769 -0.499543 0.0
vt 0.986999 -0.362448 0.0
vt -0.999260 0.527784 0.0
vt -0.499121 0.527841 0.0
vt -0.752842 0.924403 0.0
vt -0.499121 0.527841 0.0
vt 0.001019 0.527898 0.0
vt -0.752842 0.924403 0.0
vn 0.002598 0.023764 0.999714
vn 0.010560 0.000798 0.999944
vn 0.004083 -0.095146 0.995455
vn 0.102683 0.093171 0.990341
vn 0.013780 -0.102150 0.994674
vn -0.011449 0.009319 0.999891
vn -0.082025 0.033985 0.996051
vn 0.219642 0.031656 -0.975067
vn 0.213755 -0.242283 -0.946365
vn 0.000751 -0.248651 -0.968593
vn 0.000113 0.000593 -1.000000
vn 0.000310 0.249044 -0.968492
vn -0.240900 0.241267 -0.940084
vn 0.000047 0.000675 -1.000000
vn -0.248443 0.000171 -0.968646
vn 0.387114 0.001374 -0.922031
vn -0.698691 -0.715384 -0.000824
vn -0.572863 -0.538926 0.617542
vn -0.992737 -0.074709 0.094089
vn 0.026490 -0.997223 0.069185
vn -0.017731 -0.772851 0.634297
vn -0.064455 -0.997681 -0.021302
vn 0.997223 0.074129 0.003845
vn 0.553911 0.627613 0.547044
vn 0.551744 -0.493332 0.672445
vn -0.420148 -0.499344 -0.757683
vn 0.665212 -0.468337 -0.581439
vn 0.803339 -0.594897 -0.026337
vn -0.632740 -0.011444 -0.774255
vn -0.568194 0.572069 0.591479
vn 0.008972 0.999817 -0.015534
vn -0.798120 0.600085 0.053468
vn -0.998291 0.006439 0.057619
vn -0.424268 0.596637 -0.681173
vn 0.607685 0.596210 -0.524613
vn 0.717704 -0.018342 -0.696066
vn -0.026399 0.649770 -0.759636
vn 0.013062 0.046175 -0.998840
vn 0.024628 -0.611377 -0.790918
usemtl Material_cave_ground.jpg
s off
f 11/1/1 9/2/1 18/3/1
f 11/4/2 18/5/2 2/6/2
f 14/7/3 7/8/3 19/9/3
f 18/10/4 14/11/4 2/12/4
f 2/13/5 14/14/5 19/15/5
f 18/16/6 9/17/6 7/18/6
f 18/19/7 7/20/7 14/21/7
f 22/22/8 1/23/8 24/24/8
f 24/25/9 23/26/9 22/27/9
f 6/28/10 22/29/10 23/30/10
f 23/31/11 24/32/11 17/33/11
f 26/34/12 1/35/12 22/36/12
f 22/37/13 25/38/13 26/39/13
f 4/40/14 26/41/14 25/42/14
f 25/43/15 22/44/15 6/45/15
f 25/46/16 6/47/16 20/48/16
s 1
f 8/49/17 7/50/18 13/51/19
f 21/52/20 19/53/21 3/54/22
f 5/55/23 11/56/24 2/57/25
f 6/58/26 8/59/17 13/60/19
f 17/61/27 5/62/23 15/63/28
f 6/64/26 13/65/19 20/66/29
f 21/67/20 2/68/25 19/69/21
f 19/70/21 7/71/18 8/72/17
f 17/73/27 15/74/28 3/75/22
f 15/76/28 21/77/20 3/78/22
f 9/79/30 12/80/31 16/81/32
f 10/82/33 16/83/32 4/84/34
f 20/85/29 13/86/19 10/87/33
f 20/88/29 10/89/33 4/90/34
f 5/91/23 2/92/25 15/93/28
f 11/94/24 4/95/34 12/96/31
f 6/97/26 3/98/22 8/99/17
f 15/100/28 2/101/25 21/102/20
f 10/103/33 13/104/19 16/105/32
f 11/106/24 12/107/31 9/108/30
f 12/109/31 4/110/34 16/111/32
f 3/112/22 19/113/21 8/114/17
f 13/115/19 9/116/30 16/117/32
f 5/118/23 1/119/35 11/120/24
f 13/121/19 7/122/18 9/123/30
f 17/124/27 24/125/36 5/126/23
f 24/127/36 1/128/35 5/129/23
f 1/130/35 26/131/37 11/132/24
f 26/133/37 4/134/34 11/135/24
f 4/136/34 25/137/38 20/138/29
f 6/139/26 23/140/39 3/141/22
f 23/142/39 17/143/27 3/144/22
