mtllib barrel.mtl
o barrel
v -0.043027 0.03131 -0.175
v -0.138671 0.138827 -0.175
v -0.153083 0.311467 -0.175
v -0.077821 0.448101 -0.175
v 0.043027 0.46869 -0.175
v 0.138671 0.361173 -0.175
v 0.153083 0.188533 -0.175
v 0.077821 0.051899 -0.175
v -0.043027 0.03131 0.175
v -0.138671 0.138827 0.175
v -0.153083 0.311467 0.175
v -0.077821 0.448101 0.175
v 0.043027 0.46869 0.175
v 0.138671 0.361173 0.175
v 0.153083 0.188532 0.175
v 0.077821 0.051899 0.175
v 0 0.25 -0.150931
v 0 0.25 0.150931
v -0.158524 0.12291 0
v -0.049187 0 0
v -0.175 0.320268 0
v -0.088963 0.476464 0
v 0.049188 0.5 0
v 0.158524 0.37709 0
v 0.175 0.179732 0
v 0.088963 0.023536 0
v -0.038212 0.055785 -0.175
v -0.037326 0.058672 -0.150931
v -0.123151 0.151269 -0.175
v -0.120979 0.153011 -0.150931
v -0.038248 0.055598 0.175
v -0.037326 0.058672 0.150931
v -0.12327 0.151174 0.175
v -0.120979 0.153011 0.150931
v -0.135951 0.304588 -0.175
v -0.133764 0.304165 -0.150931
v -0.136081 0.304641 0.175
v -0.133764 0.304165 0.150931
v -0.069112 0.425931 -0.175
v -0.068192 0.42359 -0.150931
v -0.069178 0.4261 0.175
v -0.068192 0.42359 0.150931
v 0.038212 0.444215 -0.175
v 0.037326 0.441328 -0.150931
v 0.038249 0.444402 0.175
v 0.037326 0.441328 0.150931
v 0.123151 0.348731 -0.175
v 0.120979 0.346989 -0.150931
v 0.12327 0.348826 0.175
v 0.120979 0.346989 0.150931
v 0.135951 0.195412 -0.175
v 0.133764 0.195835 -0.150931
v 0.136081 0.195359 0.175
v 0.133764 0.195835 0.150931
v 0.069112 0.074069 -0.175
v 0.068192 0.07641 -0.150931
v 0.069178 0.0739 0.175
v 0.068192 0.07641 0.150931
vt 0.485822 0.023067
vt 0.484713 0.247332
vt 0.335434 0.245032
vt 0.336873 0.024039
vt 0.484713 0.247332
vt 0.485682 0.462055
vt 0.339345 0.465023
vt 0.335434 0.245032
vt 0.336873 0.024039
vt 0.335434 0.245032
vt 0.18283 0.243489
vt 0.18976 0.022379
vt 0.335434 0.245032
vt 0.339345 0.465023
vt 0.191117 0.469592
vt 0.18283 0.243489
vt 0.18976 0.022379
vt 0.18283 0.243489
vt 0.020949 0.241743
vt 0.045144 0.013628
vt 0.18283 0.243489
vt 0.191117 0.469592
vt 0.040887 0.478117
vt 0.020949 0.241743
vt 0.043693 0.013628
vt 0.020949 0.245111
vt 0.182677 0.244995
vt 0.191324 0.023757
vt 0.020949 0.245111
vt 0.042022 0.481536
vt 0.192224 0.472422
vt 0.182677 0.244995
vt 0.191324 0.023757
vt 0.182677 0.244995
vt 0.336017 0.245766
vt 0.337659 0.026746
vt 0.182677 0.244995
vt 0.192224 0.472422
vt 0.341035 0.467822
vt 0.336017 0.245766
vt 0.337659 0.026746
vt 0.336017 0.245766
vt 0.485575 0.245764
vt 0.484471 0.026629
vt 0.336017 0.245766
vt 0.341035 0.467822
vt 0.488703 0.465022
vt 0.485575 0.245764
vt 0.484471 0.026629
vt 0.485575 0.245764
vt 0.633947 0.245867
vt 0.632064 0.025192
vt 0.485575 0.245764
vt 0.488703 0.465022
vt 0.635483 0.463146
vt 0.633947 0.245867
vt 0.485682 0.462055
vt 0.484713 0.247332
vt 0.633947 0.245867
vt 0.635483 0.463146
vt 0.484713 0.247332
vt 0.485822 0.023067
vt 0.632064 0.025192
vt 0.633947 0.245867
vt 0.910815 0.658102
vt 0.736399 0.733302
vt 0.806293 0.560327
vt 0.824211 0.521424
vt 0.835241 0.494578
vt 0.969533 0.633422
vt 0.944775 0.643439
vt 0.944775 0.643439
vt 0.910815 0.658102
vt 0.806293 0.560327
vt 0.824211 0.521424
vt 0.81194 0.906138
vt 0.736399 0.733302
vt 0.914401 0.803952
vt 0.843209 0.972141
vt 0.831289 0.945283
vt 0.9492 0.817606
vt 0.974341 0.826784
vt 0.831289 0.945283
vt 0.81194 0.906138
vt 0.914401 0.803952
vt 0.9492 0.817606
vt 0.91067 0.800008
vt 0.736399 0.733302
vt 0.910815 0.658102
vt 0.976657 0.82384
vt 0.951179 0.813517
vt 0.944775 0.643439
vt 0.969533 0.633422
vt 0.951179 0.813517
vt 0.91067 0.800008
vt 0.910815 0.658102
vt 0.944775 0.643439
vt 0.914401 0.803952
vt 0.736399 0.733302
vt 0.909246 0.661267
vt 0.974341 0.826784
vt 0.9492 0.817606
vt 0.949375 0.646315
vt 0.974341 0.635139
vt 0.9492 0.817606
vt 0.914401 0.803952
vt 0.909246 0.661267
vt 0.949375 0.646315
vt 0.808998 0.901585
vt 0.736399 0.733302
vt 0.91067 0.800008
vt 0.839062 0.972727
vt 0.828364 0.946426
vt 0.951179 0.813517
vt 0.976657 0.82384
vt 0.828364 0.946426
vt 0.808998 0.901585
vt 0.91067 0.800008
vt 0.951179 0.813517
vt 0.909246 0.661267
vt 0.736399 0.733302
vt 0.803948 0.563198
vt 0.974341 0.635139
vt 0.949375 0.646315
vt 0.821758 0.517959
vt 0.831434 0.491644
vt 0.949375 0.646315
vt 0.909246 0.661267
vt 0.803948 0.563198
vt 0.821758 0.517959
vt 0.666304 0.905882
vt 0.736399 0.733302
vt 0.808998 0.901585
vt 0.638573 0.968255
vt 0.648461 0.944424
vt 0.828364 0.946426
vt 0.839062 0.972727
vt 0.648461 0.944424
vt 0.666304 0.905882
vt 0.808998 0.901585
vt 0.828364 0.946426
vt 0.803948 0.563198
vt 0.736399 0.733302
vt 0.66166 0.563316
vt 0.831434 0.491644
vt 0.821758 0.517959
vt 0.643104 0.525729
vt 0.632848 0.502733
vt 0.821758 0.517959
vt 0.803948 0.563198
vt 0.66166 0.563316
vt 0.643104 0.525729
vt 0.56374 0.809123
vt 0.736399 0.733302
vt 0.666304 0.905882
vt 0.505022 0.834908
vt 0.53037 0.82377
vt 0.648461 0.944424
vt 0.638573 0.968255
vt 0.53037 0.82377
vt 0.56374 0.809123
vt 0.666304 0.905882
vt 0.648461 0.944424
vt 0.66166 0.563316
vt 0.736399 0.733302
vt 0.562065 0.660894
vt 0.632848 0.502733
vt 0.643104 0.525729
vt 0.528706 0.646896
vt 0.505193 0.636344
vt 0.643104 0.525729
vt 0.66166 0.563316
vt 0.562065 0.660894
vt 0.528706 0.646896
vt 0.56221 0.666994
vt 0.736399 0.733302
vt 0.56374 0.809123
vt 0.495995 0.643847
vt 0.521588 0.653892
vt 0.53037 0.82377
vt 0.505022 0.834908
vt 0.521588 0.653892
vt 0.56221 0.666994
vt 0.56374 0.809123
vt 0.53037 0.82377
vt 0.562065 0.660894
vt 0.736399 0.733302
vt 0.562611 0.802324
vt 0.505193 0.636344
vt 0.528706 0.646896
vt 0.522058 0.81598
vt 0.496348 0.825104
vt 0.528706 0.646896
vt 0.562065 0.660894
vt 0.562611 0.802324
vt 0.522058 0.81598
vt 0.662263 0.564613
vt 0.736399 0.733302
vt 0.56221 0.666994
vt 0.631497 0.494578
vt 0.642431 0.519427
vt 0.521588 0.653892
vt 0.495995 0.643847
vt 0.642431 0.519427
vt 0.662263 0.564613
vt 0.56221 0.666994
vt 0.521588 0.653892
vt 0.562611 0.802324
vt 0.736399 0.733302
vt 0.665348 0.904766
vt 0.496348 0.825104
vt 0.522058 0.81598
vt 0.645972 0.951102
vt 0.634184 0.977657
vt 0.522058 0.81598
vt 0.562611 0.802324
vt 0.665348 0.904766
vt 0.645972 0.951102
vt 0.806293 0.560327
vt 0.736399 0.733302
vt 0.662263 0.564613
vt 0.835241 0.494578
vt 0.824211 0.521424
vt 0.642431 0.519427
vt 0.631497 0.494578
vt 0.824211 0.521424
vt 0.806293 0.560327
vt 0.662263 0.564613
vt 0.642431 0.519427
vt 0.665348 0.904766
vt 0.736399 0.733302
vt 0.81194 0.906138
vt 0.634184 0.977657
vt 0.645972 0.951102
vt 0.831289 0.945283
vt 0.843209 0.972141
vt 0.645972 0.951102
vt 0.665348 0.904766
vt 0.81194 0.906138
vt 0.831289 0.945283
usemtl barrel
f 1/1 20/2 19/3 2/4
f 20/5 9/6 10/7 19/8
f 2/9 19/10 21/11 3/12
f 19/13 10/14 11/15 21/16
f 3/17 21/18 22/19 4/20
f 21/21 11/22 12/23 22/24
f 4/25 22/26 23/27 5/28
f 22/29 12/30 13/31 23/32
f 5/33 23/34 24/35 6/36
f 23/37 13/38 14/39 24/40
f 6/41 24/42 25/43 7/44
f 24/45 14/46 15/47 25/48
f 7/49 25/50 26/51 8/52
f 25/53 15/54 16/55 26/56
f 9/57 20/58 26/59 16/60
f 20/61 1/62 8/63 26/64
f 30/65 17/66 28/67
f 27/68 1/69 2/70 29/71
f 29/72 30/73 28/74 27/75
f 32/76 18/77 34/78
f 9/79 31/80 33/81 10/82
f 31/83 32/84 34/85 33/86
f 36/87 17/88 30/89
f 3/90 35/91 29/92 2/93
f 35/94 36/95 30/96 29/97
f 34/98 18/99 38/100
f 10/101 33/102 37/103 11/104
f 33/105 34/106 38/107 37/108
f 40/109 17/110 36/111
f 4/112 39/113 35/114 3/115
f 39/116 40/117 36/118 35/119
f 38/120 18/121 42/122
f 11/123 37/124 41/125 12/126
f 37/127 38/128 42/129 41/130
f 44/131 17/132 40/133
f 5/134 43/135 39/136 4/137
f 43/138 44/139 40/140 39/141
f 42/142 18/143 46/144
f 12/145 41/146 45/147 13/148
f 41/149 42/150 46/151 45/152
f 48/153 17/154 44/155
f 6/156 47/157 43/158 5/159
f 47/160 48/161 44/162 43/163
f 46/164 18/165 50/166
f 13/167 45/168 49/169 14/170
f 45/171 46/172 50/173 49/174
f 52/175 17/176 48/177
f 7/178 51/179 47/180 6/181
f 51/182 52/183 48/184 47/185
f 50/186 18/187 54/188
f 14/189 49/190 53/191 15/192
f 49/193 50/194 54/195 53/196
f 56/197 17/198 52/199
f 8/200 55/201 51/202 7/203
f 55/204 56/205 52/206 51/207
f 54/208 18/209 58/210
f 15/211 53/212 57/213 16/214
f 53/215 54/216 58/217 57/218
f 28/219 17/220 56/221
f 1/222 27/223 55/224 8/225
f 27/226 28/227 56/228 55/229
f 58/230 18/231 32/232
f 16/233 57/234 31/235 9/236
f 57/237 58/238 32/239 31/240
