mtllib basket.mtl
o basket
v 0.086351 0.14206 0.138355
v 0.062973 0.195851 0.138355
v 0.002066 0.219718 0.138355
v -0.06069 0.199679 0.138355
v -0.088535 0.147474 0.138355
v -0.065157 0.093683 0.138355
v -0.00425 0.069816 0.138355
v 0.058507 0.089854 0.138355
v 0.131434 0.140664 0.142419
v 0.096002 0.222189 0.142419
v 0.003694 0.25836 0.142419
v -0.091417 0.22799 0.142419
v -0.133617 0.148869 0.142419
v -0.098186 0.067345 0.142419
v -0.005878 0.031174 0.142419
v 0.089233 0.061543 0.142419
v 0.019013 0.160798 0.162912
v 0.026349 0.143917 0.162912
v -0.000101 0.168288 0.162912
v -0.019795 0.162 0.162912
v -0.028533 0.145616 0.162912
v -0.021197 0.128736 0.162912
v -0.002083 0.121246 0.162912
v 0.017611 0.127534 0.162912
v 0.090053 0.217444 0.151926
v 0.057307 0.191333 0.158557
v 0.123313 0.140916 0.151926
v 0.078618 0.142299 0.158557
v 0.001787 0.213089 0.158557
v 0.003401 0.2514 0.151926
v -0.085882 0.222891 0.151926
v -0.05542 0.194823 0.158557
v -0.125497 0.148618 0.151926
v -0.080802 0.147234 0.158557
v -0.092236 0.072089 0.151926
v -0.059491 0.0982 0.158557
v -0.005585 0.038134 0.151926
v -0.003971 0.076444 0.158557
v 0.083699 0.066643 0.151926
v 0.053236 0.094711 0.158557
v -0.001092 0.144767 0.175
v 0.020631 0.124752 0.167579
v -0.002243 0.117448 0.167579
v -0.024443 0.126147 0.167579
v -0.032964 0.145754 0.167579
v -0.022815 0.164782 0.167579
v 0.000059 0.172086 0.167579
v 0.03078 0.14378 0.167579
v 0.022259 0.163387 0.167579
v 0.151555 0.15 0.085968
v 0.175 0.15 -0.009553
v 0.151555 0.15 -0.105074
v 0.0875 0.15 -0.175
v 0.061872 0.203033 -0.175
v 0.107165 0.241856 -0.105074
v 0.123744 0.256066 -0.009553
v 0.107165 0.241856 0.085968
v 0 0.279904 0.085968
v 0 0.3 -0.009553
v 0 0.279904 -0.105074
v 0 0.225 -0.175
v -0.061872 0.203033 -0.175
v -0.107165 0.241856 -0.105074
v -0.123744 0.256066 -0.009553
v -0.107165 0.241856 0.085968
v -0.151554 0.15 0.085968
v -0.175 0.15 -0.009553
v -0.151554 0.15 -0.105074
v -0.0875 0.15 -0.175
v 0 0.15 -0.175
v -0.061872 0.096967 -0.175
v -0.107165 0.058144 -0.105074
v -0.123744 0.043934 -0.009553
v -0.107165 0.058144 0.085968
v 0 0.020096 0.085968
v 0 0 -0.009553
v 0 0.020096 -0.105074
v 0 0.075 -0.175
v 0.061872 0.096967 -0.175
v 0.107165 0.058144 -0.105074
v 0.123744 0.043934 -0.009553
v 0.107165 0.058144 0.085968
v 0.069876 0.209894 0.143536
v 0.09882 0.15 0.143536
v 0 0.234703 0.143536
v -0.069876 0.209894 0.143536
v -0.09882 0.15 0.143536
v -0.069876 0.090106 0.143536
v 0 0.065297 0.143536
v 0.069877 0.090106 0.143536
v 0.09549 0.15 0.142683
v 0.067522 0.207876 0.142683
v 0 0.231849 0.142683
v -0.067522 0.207876 0.142683
v -0.09549 0.15 0.142683
v -0.067522 0.092124 0.142683
v 0 0.068151 0.142683
v 0.067522 0.092124 0.142683
vt 0.862325 0.017247
vt 0.958938 0.017247
vt 0.983843 0.078089
vt 0.83742 0.078089
vt 0.958937 0.017247
vt 0.862324 0.017247
vt 0.837418 0.078089
vt 0.983842 0.078089
vt 0.862324 0.017246
vt 0.958938 0.017246
vt 0.983844 0.078089
vt 0.837419 0.078089
vt 0.958937 0.017247
vt 0.862323 0.017247
vt 0.837418 0.078089
vt 0.983842 0.078089
vt 0.862323 0.017246
vt 0.958936 0.017246
vt 0.983841 0.078088
vt 0.837418 0.078088
vt 0.95894 0.017246
vt 0.862326 0.017246
vt 0.83742 0.078088
vt 0.983845 0.078088
vt 0.862325 0.017247
vt 0.958939 0.017247
vt 0.983844 0.078089
vt 0.83742 0.078089
vt 0.958937 0.017247
vt 0.862324 0.017247
vt 0.837419 0.078089
vt 0.983842 0.078089
vt 0.983843 0.078089
vt 0.979357 0.102397
vt 0.841906 0.102397
vt 0.83742 0.078089
vt 0.979357 0.102397
vt 0.954666 0.163909
vt 0.866597 0.163909
vt 0.841906 0.102397
vt 0.954666 0.163909
vt 0.925791 0.234328
vt 0.895472 0.234328
vt 0.866597 0.163909
vt 0.837418 0.078089
vt 0.841905 0.102398
vt 0.979356 0.102398
vt 0.983842 0.078089
vt 0.841905 0.102398
vt 0.866596 0.163909
vt 0.954665 0.163909
vt 0.979356 0.102398
vt 0.866596 0.163909
vt 0.895471 0.234329
vt 0.92579 0.234329
vt 0.954665 0.163909
vt 0.983844 0.078089
vt 0.979357 0.102397
vt 0.841905 0.102397
vt 0.837419 0.078089
vt 0.979357 0.102397
vt 0.954666 0.163909
vt 0.866597 0.163909
vt 0.841905 0.102397
vt 0.954666 0.163909
vt 0.925791 0.234329
vt 0.895472 0.234329
vt 0.866597 0.163909
vt 0.837418 0.078089
vt 0.841904 0.102398
vt 0.979356 0.102398
vt 0.983842 0.078089
vt 0.841904 0.102398
vt 0.866596 0.163909
vt 0.954664 0.163909
vt 0.979356 0.102398
vt 0.866596 0.163909
vt 0.895471 0.234329
vt 0.92579 0.234329
vt 0.954664 0.163909
vt 0.983841 0.078088
vt 0.979355 0.102397
vt 0.841904 0.102397
vt 0.837418 0.078088
vt 0.979355 0.102397
vt 0.954664 0.163908
vt 0.866595 0.163908
vt 0.841904 0.102397
vt 0.954664 0.163908
vt 0.925789 0.234328
vt 0.89547 0.234328
vt 0.866595 0.163908
vt 0.83742 0.078088
vt 0.841906 0.102397
vt 0.979359 0.102397
vt 0.983845 0.078088
vt 0.841906 0.102397
vt 0.866598 0.163909
vt 0.954667 0.163909
vt 0.979359 0.102397
vt 0.866598 0.163909
vt 0.895473 0.234329
vt 0.925792 0.234329
vt 0.954667 0.163909
vt 0.983844 0.078089
vt 0.979358 0.102398
vt 0.841906 0.102398
vt 0.83742 0.078089
vt 0.979358 0.102398
vt 0.954667 0.163909
vt 0.866598 0.16391
vt 0.841906 0.102398
vt 0.954667 0.163909
vt 0.925792 0.234329
vt 0.895473 0.234329
vt 0.866598 0.16391
vt 0.837419 0.078089
vt 0.841905 0.102397
vt 0.979356 0.102397
vt 0.983842 0.078089
vt 0.841905 0.102397
vt 0.866596 0.163909
vt 0.954665 0.163909
vt 0.979356 0.102397
vt 0.866596 0.163909
vt 0.895471 0.234329
vt 0.92579 0.234329
vt 0.954665 0.163909
vt 0.92579 0.234329
vt 0.895471 0.234329
vt 0.893024 0.246537
vt 0.928238 0.246536
vt 0.895473 0.234329
vt 0.925792 0.234329
vt 0.92824 0.246536
vt 0.893025 0.246537
vt 0.925792 0.234329
vt 0.895473 0.234329
vt 0.893025 0.246536
vt 0.928239 0.246537
vt 0.89547 0.234328
vt 0.925789 0.234328
vt 0.928237 0.246536
vt 0.893021 0.246535
vt 0.92579 0.234329
vt 0.895471 0.234329
vt 0.893023 0.246537
vt 0.928238 0.246536
vt 0.895472 0.234329
vt 0.925791 0.234329
vt 0.928239 0.246537
vt 0.893024 0.246537
vt 0.92579 0.234329
vt 0.895471 0.234329
vt 0.893024 0.246537
vt 0.928238 0.246537
vt 0.895472 0.234328
vt 0.925791 0.234328
vt 0.928239 0.246536
vt 0.893024 0.246536
vt 0.893024 0.246536
vt 0.928239 0.246536
vt 0.910632 0.292313
vt 0.928238 0.246537
vt 0.893024 0.246537
vt 0.910631 0.292313
vt 0.893024 0.246537
vt 0.928239 0.246537
vt 0.910631 0.292313
vt 0.928238 0.246536
vt 0.893023 0.246537
vt 0.910631 0.292313
vt 0.893021 0.246535
vt 0.928237 0.246536
vt 0.910628 0.292313
vt 0.928239 0.246537
vt 0.893025 0.246536
vt 0.910631 0.292312
vt 0.893025 0.246537
vt 0.92824 0.246536
vt 0.910633 0.292313
vt 0.928238 0.246536
vt 0.893024 0.246537
vt 0.910631 0.292312
vt 0.980892 0.427796
vt 0.926029 0.488332
vt 0.980892 0.488332
vt 0.180817 0.801001
vt 0.09191 0.801001
vt 0.09191 0.998999
vt 0.180817 0.998999
vt 0.180817 0.201001
vt 0.001001 0.201001
vt 0.001001 0.398999
vt 0.180817 0.398999
vt 0.362635 0.001001
vt 0.182819 0.001001
vt 0.182819 0.198999
vt 0.362635 0.198999
vt 0.362635 0.998999
vt 0.362635 0.901001
vt 0.182819 0.901001
vt 0.182819 0.998999
vt 0.089908 0.801001
vt 0.001001 0.801001
vt 0.001001 0.998999
vt 0.089908 0.998999
vt 0.544454 0.001001
vt 0.364637 0.001001
vt 0.364637 0.198999
vt 0.544454 0.198999
vt 0.362635 0.401001
vt 0.182819 0.401001
vt 0.182819 0.598999
vt 0.362635 0.598999
vt 0.726272 0.998999
vt 0.726272 0.901001
vt 0.546456 0.901001
vt 0.546456 0.998999
vt 0.925405 0.487708
vt 0.925405 0.427172
vt 0.980267 0.427172
vt 0.980892 0.302976
vt 0.980892 0.363512
vt 0.926029 0.363512
vt 0.817181 0.401001
vt 0.728274 0.401001
vt 0.728274 0.598999
vt 0.817181 0.598999
vt 0.544454 0.601001
vt 0.364637 0.601001
vt 0.364637 0.798999
vt 0.544454 0.798999
vt 0.362635 0.601001
vt 0.182819 0.601001
vt 0.182819 0.798999
vt 0.362635 0.798999
vt 0.544454 0.898999
vt 0.544454 0.801001
vt 0.364637 0.801001
vt 0.364637 0.898999
vt 0.817181 0.001001
vt 0.728274 0.001001
vt 0.728274 0.198999
vt 0.817181 0.198999
vt 0.726272 0.001001
vt 0.546456 0.001001
vt 0.546456 0.198999
vt 0.726272 0.198999
vt 0.726272 0.401001
vt 0.546456 0.401001
vt 0.546456 0.598999
vt 0.726272 0.598999
vt 0.998999 0.698999
vt 0.998999 0.601001
vt 0.819183 0.601001
vt 0.819183 0.698999
vt 0.980892 0.365386
vt 0.980892 0.425922
vt 0.926029 0.425922
vt 0.980892 0.739847
vt 0.980892 0.800383
vt 0.926029 0.800383
vt 0.817181 0.201001
vt 0.728274 0.201001
vt 0.728274 0.398999
vt 0.817181 0.398999
vt 0.726272 0.201001
vt 0.546456 0.201001
vt 0.546456 0.398999
vt 0.726272 0.398999
vt 0.180817 0.601001
vt 0.001001 0.601001
vt 0.001001 0.798999
vt 0.180817 0.798999
vt 0.362635 0.898999
vt 0.362635 0.801001
vt 0.182819 0.801001
vt 0.182819 0.898999
vt 0.817181 0.601001
vt 0.728274 0.601001
vt 0.728274 0.798999
vt 0.817181 0.798999
vt 0.544454 0.401001
vt 0.364637 0.401001
vt 0.364637 0.598999
vt 0.544454 0.598999
vt 0.180817 0.001001
vt 0.001001 0.001001
vt 0.001001 0.198999
vt 0.180817 0.198999
vt 0.726272 0.898999
vt 0.726272 0.801001
vt 0.546456 0.801001
vt 0.546456 0.898999
vt 0.925405 0.799758
vt 0.980267 0.739222
vt 0.925405 0.739222
vt 0.925405 0.425297
vt 0.980267 0.364762
vt 0.925405 0.364762
vt 0.817181 0.801001
vt 0.728274 0.801001
vt 0.728274 0.998999
vt 0.817181 0.998999
vt 0.180817 0.401001
vt 0.001001 0.401001
vt 0.001001 0.598999
vt 0.180817 0.598999
vt 0.544454 0.201001
vt 0.364637 0.201001
vt 0.364637 0.398999
vt 0.544454 0.398999
vt 0.544454 0.998999
vt 0.544454 0.901001
vt 0.364637 0.901001
vt 0.364637 0.998999
vt 0.90809 0.801001
vt 0.819183 0.801001
vt 0.819183 0.998999
vt 0.90809 0.998999
vt 0.362635 0.201001
vt 0.182819 0.201001
vt 0.182819 0.398999
vt 0.362635 0.398999
vt 0.726272 0.601001
vt 0.546456 0.601001
vt 0.546456 0.798999
vt 0.726272 0.798999
vt 0.998999 0.598999
vt 0.998999 0.501001
vt 0.819183 0.501001
vt 0.819183 0.598999
vt 0.925405 0.362887
vt 0.980267 0.302351
vt 0.925405 0.302351
vt 0.90809 0.301001
vt 0.887365 0.301001
vt 0.887365 0.398999
vt 0.90809 0.398999
vt 0.90809 0.448999
vt 0.90809 0.426001
vt 0.819183 0.426001
vt 0.819183 0.448999
vt 0.862635 0.301001
vt 0.84191 0.301001
vt 0.84191 0.398999
vt 0.862635 0.398999
vt 0.90809 0.423999
vt 0.90809 0.401001
vt 0.819183 0.401001
vt 0.819183 0.423999
vt 0.885363 0.301001
vt 0.864637 0.301001
vt 0.864637 0.398999
vt 0.885363 0.398999
vt 0.90809 0.473999
vt 0.90809 0.451001
vt 0.819183 0.451001
vt 0.819183 0.473999
vt 0.839908 0.301001
vt 0.819183 0.301001
vt 0.819183 0.398999
vt 0.839908 0.398999
vt 0.90809 0.498999
vt 0.90809 0.476001
vt 0.819183 0.476001
vt 0.819183 0.498999
usemtl basket
f 1/1 2/2 10/3 9/4
f 2/5 3/6 11/7 10/8
f 3/9 4/10 12/11 11/12
f 4/13 5/14 13/15 12/16
f 5/17 6/18 14/19 13/20
f 6/21 7/22 15/23 14/24
f 7/25 8/26 16/27 15/28
f 8/29 1/30 9/31 16/32
f 10/33 25/34 27/35 9/36
f 25/37 26/38 28/39 27/40
f 26/41 17/42 18/43 28/44
f 11/45 30/46 25/47 10/48
f 30/49 29/50 26/51 25/52
f 29/53 19/54 17/55 26/56
f 12/57 31/58 30/59 11/60
f 31/61 32/62 29/63 30/64
f 32/65 20/66 19/67 29/68
f 13/69 33/70 31/71 12/72
f 33/73 34/74 32/75 31/76
f 34/77 21/78 20/79 32/80
f 14/81 35/82 33/83 13/84
f 35/85 36/86 34/87 33/88
f 36/89 22/90 21/91 34/92
f 15/93 37/94 35/95 14/96
f 37/97 38/98 36/99 35/100
f 38/101 23/102 22/103 36/104
f 16/105 39/106 37/107 15/108
f 39/109 40/110 38/111 37/112
f 40/113 24/114 23/115 38/116
f 9/117 27/118 39/119 16/120
f 27/121 28/122 40/123 39/124
f 28/125 18/126 24/127 40/128
f 24/129 18/130 48/131 42/132
f 23/133 24/134 42/135 43/136
f 22/137 23/138 43/139 44/140
f 21/141 22/142 44/143 45/144
f 20/145 21/146 45/147 46/148
f 19/149 20/150 46/151 47/152
f 17/153 19/154 47/155 49/156
f 18/157 17/158 49/159 48/160
f 48/161 49/162 41/163
f 49/164 47/165 41/166
f 47/167 46/168 41/169
f 46/170 45/171 41/172
f 45/173 44/174 41/175
f 44/176 43/177 41/178
f 43/179 42/180 41/181
f 42/182 48/183 41/184
f 70/185 54/186 53/187
f 53/188 54/189 55/190 52/191
f 52/192 55/193 56/194 51/195
f 57/196 50/197 51/198 56/199
f 50/200 57/201 83/202 84/203
f 85/204 83/205 57/206 58/207
f 56/208 59/209 58/210 57/211
f 55/212 60/213 59/214 56/215
f 54/216 61/217 60/218 55/219
f 70/220 61/221 54/222
f 70/223 62/224 61/225
f 61/226 62/227 63/228 60/229
f 60/230 63/231 64/232 59/233
f 59/234 64/235 65/236 58/237
f 86/238 85/239 58/240 65/241
f 87/242 86/243 65/244 66/245
f 64/246 67/247 66/248 65/249
f 63/250 68/251 67/252 64/253
f 62/254 69/255 68/256 63/257
f 70/258 69/259 62/260
f 70/261 71/262 69/263
f 69/264 71/265 72/266 68/267
f 68/268 72/269 73/270 67/271
f 67/272 73/273 74/274 66/275
f 88/276 87/277 66/278 74/279
f 89/280 88/281 74/282 75/283
f 73/284 76/285 75/286 74/287
f 72/288 77/289 76/290 73/291
f 71/292 78/293 77/294 72/295
f 70/296 78/297 71/298
f 70/299 79/300 78/301
f 78/302 79/303 80/304 77/305
f 77/306 80/307 81/308 76/309
f 76/310 81/311 82/312 75/313
f 90/314 89/315 75/316 82/317
f 82/318 50/319 84/320 90/321
f 50/322 82/323 81/324 51/325
f 80/326 52/327 51/328 81/329
f 79/330 53/331 52/332 80/333
f 70/334 53/335 79/336
f 83/337 92/338 91/339 84/340
f 85/341 93/342 92/343 83/344
f 86/345 94/346 93/347 85/348
f 87/349 95/350 94/351 86/352
f 88/353 96/354 95/355 87/356
f 89/357 97/358 96/359 88/360
f 90/361 98/362 97/363 89/364
f 98/365 90/366 84/367 91/368
