mtllib pillar.mtl
o pillar
v 0.080526 1.732052 0.107992
v 0.11 1.267948 0.107992
v 0.11 0.732052 0.107992
v 0.080526 0.267951 0.107992
v 0.029474 0 0.107992
v -0.029474 0 0.107992
v -0.080526 0.267951 0.107992
v -0.11 0.732052 0.107992
v -0.11 1.267948 0.107992
v -0.080526 1.732049 0.107992
v -0.029474 2 0.107992
v 0.029474 2 0.107992
v 0.051557 1.468704 0.09921
v 0.070429 1.171558 0.09921
v 0.070429 0.828442 0.09921
v 0.051557 0.531299 0.09921
v 0.018871 0.359741 0.09921
v -0.018871 0.359741 0.09921
v -0.051557 0.531299 0.09921
v -0.070429 0.828442 0.09921
v -0.070429 1.171558 0.09921
v -0.051557 1.468701 0.09921
v -0.018871 1.640259 0.09921
v 0.018871 1.640259 0.09921
v 0.100829 1.245611 -0.11
v 0.073812 1.671021 -0.11
v 0.100829 0.754389 -0.11
v 0.073812 0.328982 -0.11
v 0.027017 0.083371 -0.11
v -0.027017 0.083371 -0.11
v -0.073812 0.328982 -0.11
v -0.100829 0.754389 -0.11
v -0.100829 1.245611 -0.11
v -0.073812 1.671021 -0.11
v -0.027017 1.916629 -0.11
v 0.027017 1.916629 -0.11
v 0.077909 1.708264 0.11
v 0.106426 1.259243 0.11
v 0.106426 0.740757 0.11
v 0.077909 0.291736 0.11
v 0.028517 0.032496 0.11
v -0.028517 0.032496 0.11
v -0.077909 0.291736 0.11
v -0.106426 0.740757 0.11
v -0.106426 1.259243 0.11
v -0.077909 1.708264 0.11
v -0.028517 1.967506 0.11
v 0.028517 1.967506 0.11
vt 0.387934 0.944873
vt 0.385648 0.983533
vt 0.350927 0.983555
vt 0.352501 0.94418
vt 0.316945 0.980431
vt 0.317219 0.942806
vt 0.352501 0.94418
vt 0.350927 0.983555
vt 0.316945 0.980431
vt 0.284152 0.979391
vt 0.282336 0.942262
vt 0.317219 0.942806
vt 0.251133 0.980746
vt 0.247477 0.942689
vt 0.282336 0.942262
vt 0.284152 0.979391
vt 0.216462 0.983929
vt 0.212317 0.943814
vt 0.247477 0.942689
vt 0.251133 0.980746
vt 0.178859 0.987273
vt 0.176892 0.945019
vt 0.212317 0.943814
vt 0.216462 0.983929
vt 0.178859 0.987273
vt 0.137942 0.989994
vt 0.141337 0.946221
vt 0.176892 0.945019
vt 0.095384 0.985636
vt 0.107341 0.94588
vt 0.141337 0.946221
vt 0.137942 0.989994
vt 0.541098 0.987249
vt 0.498165 0.993182
vt 0.495228 0.949526
vt 0.528939 0.94905
vt 0.4579 0.990249
vt 0.459447 0.948178
vt 0.495228 0.949526
vt 0.498165 0.993182
vt 0.4579 0.990249
vt 0.420714 0.987834
vt 0.423594 0.947048
vt 0.459447 0.948178
vt 0.385648 0.983533
vt 0.387934 0.944873
vt 0.423594 0.947048
vt 0.420714 0.987834
vt 0.352501 0.94418
vt 0.375585 0
vt 0.429628 0.000956
vt 0.387934 0.944873
vt 0.317219 0.942806
vt 0.32163 0
vt 0.375585 0
vt 0.352501 0.94418
vt 0.317219 0.942806
vt 0.282336 0.942262
vt 0.267752 0.000909
vt 0.32163 0
vt 0.247477 0.942689
vt 0.213977 0.002826
vt 0.267752 0.000909
vt 0.282336 0.942262
vt 0.212317 0.943814
vt 0.160298 0.00569
vt 0.213977 0.002826
vt 0.247477 0.942689
vt 0.176892 0.945019
vt 0.106731 0.009495
vt 0.160298 0.00569
vt 0.212317 0.943814
vt 0.176892 0.945019
vt 0.141337 0.946221
vt 0.053259 0.014204
vt 0.106731 0.009495
vt 0.107341 0.94588
vt 0 0.019911
vt 0.053259 0.014204
vt 0.141337 0.946221
vt 0.528939 0.94905
vt 0.495228 0.949526
vt 0.591007 0.013679
vt 0.644456 0.019855
vt 0.459447 0.948178
vt 0.537326 0.00851
vt 0.591007 0.013679
vt 0.495228 0.949526
vt 0.459447 0.948178
vt 0.423594 0.947048
vt 0.483539 0.004246
vt 0.537326 0.00851
vt 0.387934 0.944873
vt 0.429628 0.000956
vt 0.483539 0.004246
vt 0.423594 0.947048
vt 0.385648 0.983533
vt 0.385323 0.989461
vt 0.350612 0.989922
vt 0.350927 0.983555
vt 0.350927 0.983555
vt 0.350612 0.989922
vt 0.316567 0.986051
vt 0.316945 0.980431
vt 0.284152 0.979391
vt 0.316945 0.980431
vt 0.316567 0.986051
vt 0.284181 0.984892
vt 0.284152 0.979391
vt 0.284181 0.984892
vt 0.251521 0.986409
vt 0.251133 0.980746
vt 0.251133 0.980746
vt 0.251521 0.986409
vt 0.217014 0.989973
vt 0.216462 0.983929
vt 0.216462 0.983929
vt 0.217014 0.989973
vt 0.179339 0.993879
vt 0.178859 0.987273
vt 0.137942 0.989994
vt 0.178859 0.987273
vt 0.179339 0.993879
vt 0.137841 0.996858
vt 0.137942 0.989994
vt 0.137841 0.996858
vt 0.095425 0.992913
vt 0.095384 0.985636
vt 0.498165 0.993182
vt 0.541098 0.987249
vt 0.54129 0.994638
vt 0.498391 1
vt 0.498165 0.993182
vt 0.498391 1
vt 0.457466 0.9968
vt 0.4579 0.990249
vt 0.420714 0.987834
vt 0.4579 0.990249
vt 0.457466 0.9968
vt 0.420157 0.993836
vt 0.385323 0.989461
vt 0.385648 0.983533
vt 0.420714 0.987834
vt 0.420157 0.993836
usemtl pillar
f 13/1 1/2 2/3 14/4
f 3/5 15/6 14/7 2/8
f 3/9 4/10 16/11 15/12
f 5/13 17/14 16/15 4/16
f 6/17 18/18 17/19 5/20
f 7/21 19/22 18/23 6/24
f 7/25 8/26 20/27 19/28
f 9/29 21/30 20/31 8/32
f 9/33 10/34 22/35 21/36
f 11/37 23/38 22/39 10/40
f 11/41 12/42 24/43 23/44
f 1/45 13/46 24/47 12/48
f 14/49 25/50 26/51 13/52
f 15/53 27/54 25/55 14/56
f 15/57 16/58 28/59 27/60
f 17/61 29/62 28/63 16/64
f 18/65 30/66 29/67 17/68
f 19/69 31/70 30/71 18/72
f 19/73 20/74 32/75 31/76
f 21/77 33/78 32/79 20/80
f 21/81 22/82 34/83 33/84
f 23/85 35/86 34/87 22/88
f 23/89 24/90 36/91 35/92
f 13/93 26/94 36/95 24/96
f 1/97 37/98 38/99 2/100
f 2/101 38/102 39/103 3/104
f 4/105 3/106 39/107 40/108
f 4/109 40/110 41/111 5/112
f 5/113 41/114 42/115 6/116
f 6/117 42/118 43/119 7/120
f 8/121 7/122 43/123 44/124
f 8/125 44/126 45/127 9/128
f 10/129 9/130 45/131 46/132
f 10/133 46/134 47/135 11/136
f 12/137 11/138 47/139 48/140
f 37/141 1/142 12/143 48/144
