mtllib roofCorner.mtl
o roofCorner
v -0.019268 0.373983 -0.000802
v -0.009398 0.404302 -0.010914
v -0.476522 0.507781 0.460807
v -0.001663 0.373983 0.01584
v -0.45778 0.507778 0.47872
v -0.47785 0.539774 0.462168
v 0.008208 0.404302 0.005728
v -0.459107 0.539771 0.48008
v 0.013973 0.379107 -0.005119
v 0.329589 0.280075 -0.311532
v -0.004414 0.37911 -0.023386
v 0.015326 0.337397 -0.006455
v 0.319523 0.24004 -0.30161
v -0.00306 0.3374 -0.02472
v 0.312314 0.280075 -0.328506
v 0.302247 0.24004 -0.318585
v 0.433296 0.075336 -0.445072
v 0.443363 0.115371 -0.454994
v 0.258226 0.193178 -0.277495
v 0.450572 0.075336 -0.428097
v 0.276613 0.193175 -0.259229
v 0.256872 0.234887 -0.27616
v 0.460638 0.115371 -0.438019
v 0.27526 0.234885 -0.257894
v -0.5 0.55 0.5
v -0.404703 0.55 0.5
v -0.5 0.477636 0.49921
v -0.5 0.475128 0.5
v -0.402863 0.475128 0.5
v -0.5 0.55 0.499209
v -0.5 0.55 0.406219
v -0.5 0.477636 0.406219
v -0.5 0.247528 -0.15638
v -0.338423 0.254369 -0.189255
v 0.001344 0.25883 -0.234299
v 0.000294 0.25883 -0.32233
v -0.5 0.247534 -0.227851
v -0.338458 0.25437 -0.260735
v 0.001344 0.198711 -0.234299
v -0.339039 0.194274 -0.189253
v -0.5 0.187472 -0.156373
v 0.000294 0.185883 -0.32233
v -0.339074 0.181447 -0.260734
v -0.5 0.17465 -0.227844
v -0.046317 0.305243 0.5
v -0.151421 0.318065 0.5
v -0.15051 0.403266 0.5
v -0.017063 0.310084 0.342108
v -0.12972 0.318617 0.347736
v -0.045405 0.403272 0.5
v -0.007766 0.382303 0.341038
v -0.113929 0.398376 0.332663
v 0.239621 0.17465 0.5
v 0.304752 0.181447 0.267411
v 0.322131 0.185883 -0.005614
v 0.320951 0.181447 -0.321169
v 0.16609 0.187472 0.5
v 0.232116 0.194274 0.267377
v 0.237647 0.198711 -0.005312
v 0.304753 0.25437 0.266805
v 0.229572 0.254268 -0.23157
v 0.229879 0.194173 -0.231873
v 0.239628 0.247534 0.5
v 0.320644 0.238796 -0.320866
v 0.322131 0.25883 -0.005614
v 0.237647 0.25883 -0.005312
v 0.232117 0.254369 0.26677
v 0.167002 0.247528 0.5
v -0.329833 0.401455 0.118521
v -0.06519 0.395438 0.063014
v -0.338458 0.395331 0.015607
v -0.5 0.403272 0.052648
v -0.103587 0.310174 0.097296
v -0.350126 0.31367 0.131081
v -0.339074 0.322408 0.015608
v -0.5 0.403266 0.15608
v -0.5 0.318065 0.156087
v -0.5 0.305243 0.052655
v 0.024232 0.380921 -0.026586
v 0.024232 0.307974 -0.026586
v 0.44435 0.120554 0.017013
v 0.442975 0.105462 0.273843
v 0.271191 0.218637 0.000299
v 0.285438 0.214784 0.23231
v -0.037585 0.346131 0.25932
v 0.290357 0.265203 0.218428
v 0.287302 0.275734 0.035141
v 0.46479 0.039232 -0.20506
v 0.422536 0.054324 0.05177
v 0.442975 0.039232 0.273843
v 0.46479 0.105462 -0.20506
v 0.308839 0.254526 -0.30925
v -0.013217 0.391971 0.219437
v 0.407012 0.036449 0.5
v 0.19115 0.28499 0.5
v -0.078377 0.412028 0.5
v -0.085193 0.346641 0.5
v 0.202251 0.222202 0.5
v 0.407012 0.10268 0.5
v -0.5 0.525957 0.5
v -0.5 0.504252 0.5
v 0.417522 0.039232 0.272995
v 0.380665 0.036449 0.5
v 0.178744 0.210248 0.5
v 0.384144 0.091336 0.5
v -0.107699 0.333332 0.5
v 0.169248 0.271065 0.5
v -0.100845 0.398746 0.5
v 0.439337 0.039232 -0.204202
v 0.410719 0.036449 -0.409508
v 0.397068 0.054324 0.05177
v -0.251951 0.437079 0.255907
v 0.414144 0.089687 -0.412879
v 0.243041 0.203665 -0.244499
v 0.442938 0.094146 -0.203755
v -0.03697 0.382009 0.216888
v 0.29182 0.24494 -0.292501
v -0.039777 0.334504 0.047109
v 0.263587 0.265543 0.036454
v -0.061007 0.335781 0.256079
v 0.268966 0.251985 0.216678
v 0.262186 0.203931 0.230557
v 0.42088 0.094496 0.272698
v 0.422361 0.109384 0.017327
v 0.246298 0.210622 0.001803
v -0.007243 0.210622 -0.247704
v -0.044832 0.109384 -0.386209
v -0.269014 0.094496 -0.406218
v -0.226191 0.203931 -0.25005
v -0.212089 0.251985 -0.256722
v -0.252126 0.335781 0.068
v -0.042455 0.265543 -0.264718
v -0.012592 0.376679 0.020356
v -0.212301 0.382009 0.044346
v 0.201638 0.094146 -0.441215
v -0.044514 0.054324 -0.382785
v 0.202093 0.039232 -0.437671
v -0.5 0.398746 0.107205
v -0.5 0.271065 -0.15859
v -0.5 0.333332 0.11395
v -0.5 0.091336 -0.370068
v -0.5 0.210248 -0.167935
v -0.5 0.036449 -0.366644
v -0.269315 0.039232 -0.402914
v -0.5 0.102679 -0.392571
v -0.5 0.222202 -0.191068
v -0.5 0.346641 0.091802
v -0.5 0.412028 0.085095
v -0.5 0.28499 -0.180144
v -0.5 0.036449 -0.392571
v -0.244292 0.459043 0.253423
v -0.214891 0.391971 0.020972
v 0.428727 0.036449 -0.427229
v -0.00114 0.390099 0.010443
v -0.005018 0.351717 0.002555
v 0.257049 0.218539 -0.258283
v 0.202964 0.105462 -0.462719
v 0.428727 0.102679 -0.427231
v -0.270177 0.039232 -0.427962
v -0.044514 0.054324 -0.407848
v 0.202964 0.039232 -0.462719
v -0.04112 0.275734 -0.288055
v -0.213866 0.265203 -0.277772
v -0.255419 0.346131 0.044952
v -0.227972 0.214784 -0.272932
v -0.005715 0.218637 -0.2722
v -0.270177 0.105462 -0.427962
v -0.044514 0.120554 -0.407848
v 0.345557 0.072878 0.5
v 0.368359 0.079719 0.22332
v 0.37492 0.08418 -0.099451
v 0.475144 0.08418 -0.099809
v 0.499635 0.064376 -0.499641
v 0.437649 0.072884 0.5
v 0.365705 0.019523 -0.36822
v 0.36534 0.079618 -0.367861
v 0.454527 0.07972 0.223361
v 0.374921 0.024061 -0.099451
v 0.368358 0.019624 0.224039
v 0.344401 0.012822 0.5
v 0.5 0.007026 -0.5
v 0.475144 0.011233 -0.099809
v 0.454526 0.006797 0.22408
v 0.43764 0 0.5
v -0.5 0 -0.42292
v -0.309243 0.006797 -0.440186
v 0.093349 0.011233 -0.475528
v -0.5 0.012822 -0.332294
v -0.309202 0.019624 -0.355389
v 0.094594 0.024061 -0.371098
v -0.308512 0.07972 -0.440187
v -0.5 0.072884 -0.422929
v 0.093349 0.08418 -0.475528
v 0.094594 0.08418 -0.371098
v -0.30847 0.079719 -0.355391
v -0.5 0.072878 -0.332303
v -0.009398 0.404302 -0.010914
v 0.008208 0.404302 0.005728
v -0.001663 0.373983 0.01584
v -0.019268 0.373983 -0.000802
v -0.001663 0.373983 0.01584
v -0.45778 0.507778 0.47872
v 0.008208 0.404302 0.005728
v -0.459107 0.539771 0.48008
v -0.009398 0.404302 -0.010914
v -0.47785 0.539774 0.462168
v -0.019268 0.373983 -0.000802
v -0.476522 0.507781 0.460807
v 0.013973 0.379107 -0.005119
v 0.329589 0.280075 -0.311532
v 0.319523 0.24004 -0.30161
v 0.015326 0.337397 -0.006455
v 0.302247 0.24004 -0.318585
v -0.00306 0.3374 -0.02472
v 0.302247 0.24004 -0.318585
v 0.312314 0.280075 -0.328506
v -0.004414 0.37911 -0.023386
v 0.312314 0.280075 -0.328506
v 0.329589 0.280075 -0.311532
v 0.319523 0.24004 -0.30161
v 0.443363 0.115371 -0.454994
v 0.460638 0.115371 -0.438019
v 0.450572 0.075336 -0.428097
v 0.433296 0.075336 -0.445072
v 0.450572 0.075336 -0.428097
v 0.276613 0.193175 -0.259229
v 0.460638 0.115371 -0.438019
v 0.27526 0.234885 -0.257894
v 0.443363 0.115371 -0.454994
v 0.256872 0.234887 -0.27616
v 0.433296 0.075336 -0.445072
v 0.258226 0.193178 -0.277495
v -0.5 0.477636 0.49921
v -0.5 0.475128 0.5
v -0.402863 0.475128 0.5
v -0.5 0.477636 0.406219
v -0.404703 0.55 0.5
v -0.5 0.55 0.406219
v -0.5 0.55 0.5
v -0.5 0.55 0.499209
v -0.5 0.247528 -0.15638
v -0.338423 0.254369 -0.189255
v 0.001344 0.25883 -0.234299
v 0.229572 0.254268 -0.23157
v 0.229879 0.194173 -0.231873
v 0.237647 0.198711 -0.005312
v 0.232116 0.194274 0.267377
v 0.16609 0.187472 0.5
v 0.229879 0.194173 -0.231873
v 0.001344 0.198711 -0.234299
v -0.339039 0.194274 -0.189253
v -0.5 0.187472 -0.156373
v 0.237647 0.25883 -0.005312
v 0.232117 0.254369 0.26677
v 0.167002 0.247528 0.5
v 0.229572 0.254268 -0.23157
v 0.000294 0.185883 -0.32233
v -0.339074 0.181447 -0.260734
v -0.5 0.17465 -0.227844
v 0.320951 0.181447 -0.321169
v 0.322131 0.185883 -0.005614
v 0.304752 0.181447 0.267411
v 0.239621 0.17465 0.5
v 0.320644 0.238796 -0.320866
v 0.322131 0.25883 -0.005614
v 0.304753 0.25437 0.266805
v 0.239628 0.247534 0.5
v 0.000294 0.25883 -0.32233
v -0.338458 0.25437 -0.260735
v -0.5 0.247534 -0.227851
v 0.320644 0.238796 -0.320866
v 0.320951 0.181447 -0.321169
v -0.045405 0.403272 0.5
v -0.007766 0.382303 0.341038
v 0.024232 0.380921 -0.026586
v -0.338458 0.395331 0.015607
v -0.5 0.403272 0.052648
v 0.024232 0.307974 -0.026586
v -0.339074 0.322408 0.015608
v -0.5 0.305243 0.052655
v -0.017063 0.310084 0.342108
v -0.046317 0.305243 0.5
v 0.024232 0.307974 -0.026586
v 0.024232 0.380921 -0.026586
v -0.15051 0.403266 0.5
v -0.113929 0.398376 0.332663
v -0.06519 0.395438 0.063014
v -0.329833 0.401455 0.118521
v -0.5 0.403266 0.15608
v -0.103587 0.310174 0.097296
v -0.350126 0.31367 0.131081
v -0.5 0.318065 0.156087
v -0.12972 0.318617 0.347736
v -0.151421 0.318065 0.5
v -0.103587 0.310174 0.097296
v -0.06519 0.395438 0.063014
v 0.44435 0.120554 0.017013
v 0.442975 0.105462 0.273843
v 0.407012 0.10268 0.5
v 0.46479 0.105462 -0.20506
v 0.428727 0.102679 -0.427231
v 0.257049 0.218539 -0.258283
v -0.005715 0.218637 -0.2722
v -0.227972 0.214784 -0.272932
v -0.5 0.222202 -0.191068
v 0.257049 0.218539 -0.258283
v 0.308839 0.254526 -0.30925
v -0.04112 0.275734 -0.288055
v -0.213866 0.265203 -0.277772
v -0.5 0.28499 -0.180144
v 0.308839 0.254526 -0.30925
v 0.287302 0.275734 0.035141
v 0.290357 0.265203 0.218428
v 0.19115 0.28499 0.5
v 0.257049 0.218539 -0.258283
v 0.271191 0.218637 0.000299
v 0.285438 0.214784 0.23231
v 0.202251 0.222202 0.5
v 0.202964 0.105462 -0.462719
v -0.044514 0.120554 -0.407848
v -0.270177 0.105462 -0.427962
v -0.5 0.102679 -0.392571
v 0.428727 0.102679 -0.427231
v 0.46479 0.039232 -0.20506
v 0.422536 0.054324 0.05177
v 0.442975 0.039232 0.273843
v 0.407012 0.036449 0.5
v 0.428727 0.036449 -0.427229
v 0.202964 0.039232 -0.462719
v -0.044514 0.054324 -0.407848
v -0.270177 0.039232 -0.427962
v -0.5 0.036449 -0.392571
v 0.428727 0.102679 -0.427231
v 0.428727 0.036449 -0.427229
v -0.037585 0.346131 0.25932
v -0.085193 0.346641 0.5
v -0.005018 0.351717 0.002555
v -0.00114 0.390099 0.010443
v -0.214891 0.391971 0.020972
v -0.5 0.412028 0.085095
v -0.00114 0.390099 0.010443
v -0.013217 0.391971 0.219437
v -0.078377 0.412028 0.5
v -0.255419 0.346131 0.044952
v -0.5 0.346641 0.091802
v -0.005018 0.351717 0.002555
v 0.417522 0.039232 0.272995
v 0.380665 0.036449 0.5
v 0.397068 0.054324 0.05177
v 0.439337 0.039232 -0.204202
v 0.410719 0.036449 -0.409508
v 0.414144 0.089687 -0.412879
v 0.201638 0.094146 -0.441215
v -0.044832 0.109384 -0.386209
v -0.269014 0.094496 -0.406218
v -0.5 0.091336 -0.370068
v 0.243041 0.203665 -0.244499
v -0.007243 0.210622 -0.247704
v -0.226191 0.203931 -0.25005
v -0.5 0.210248 -0.167935
v 0.29182 0.24494 -0.292501
v -0.042455 0.265543 -0.264718
v -0.212089 0.251985 -0.256722
v -0.5 0.271065 -0.15859
v 0.263587 0.265543 0.036454
v 0.268966 0.251985 0.216678
v 0.169248 0.271065 0.5
v 0.29182 0.24494 -0.292501
v 0.243041 0.203665 -0.244499
v 0.414144 0.089687 -0.412879
v 0.202093 0.039232 -0.437671
v -0.044514 0.054324 -0.382785
v -0.269315 0.039232 -0.402914
v -0.5 0.036449 -0.366644
v 0.410719 0.036449 -0.409508
v 0.414144 0.089687 -0.412879
v 0.442938 0.094146 -0.203755
v 0.422361 0.109384 0.017327
v 0.42088 0.094496 0.272698
v 0.384144 0.091336 0.5
v -0.107699 0.333332 0.5
v -0.061007 0.335781 0.256079
v -0.039777 0.334504 0.047109
v -0.012592 0.376679 0.020356
v -0.212301 0.382009 0.044346
v -0.5 0.398746 0.107205
v -0.03697 0.382009 0.216888
v -0.100845 0.398746 0.5
v -0.012592 0.376679 0.020356
v -0.252126 0.335781 0.068
v -0.5 0.333332 0.11395
v -0.039777 0.334504 0.047109
v 0.178744 0.210248 0.5
v 0.262186 0.203931 0.230557
v 0.246298 0.210622 0.001803
v 0.243041 0.203665 -0.244499
v 0.365705 0.019523 -0.36822
v 0.094594 0.024061 -0.371098
v -0.309202 0.019624 -0.355389
v -0.5 0.012822 -0.332294
v 0.36534 0.079618 -0.367861
v 0.094594 0.08418 -0.371098
v -0.30847 0.079719 -0.355391
v -0.5 0.072878 -0.332303
v 0.37492 0.08418 -0.099451
v 0.368359 0.079719 0.22332
v 0.345557 0.072878 0.5
v 0.36534 0.079618 -0.367861
v 0.365705 0.019523 -0.36822
v 0.374921 0.024061 -0.099451
v 0.368358 0.019624 0.224039
v 0.344401 0.012822 0.5
v 0.5 0.007026 -0.5
v 0.093349 0.011233 -0.475528
v -0.309243 0.006797 -0.440186
v -0.5 0 -0.42292
v 0.499635 0.064376 -0.499641
v 0.093349 0.08418 -0.475528
v -0.308512 0.07972 -0.440187
v -0.5 0.072884 -0.422929
v 0.475144 0.08418 -0.099809
v 0.454527 0.07972 0.223361
v 0.437649 0.072884 0.5
v 0.499635 0.064376 -0.499641
v 0.5 0.007026 -0.5
v 0.475144 0.011233 -0.099809
v 0.454526 0.006797 0.22408
v 0.43764 0 0.5
vt 0.99007 0.211527
vt 0.983144 0.211527
vt 0.983144 0.349876
vt 0.99007 0.349876
vt 0.713285 0.963911
vt 0.713285 0.948369
vt 0.57243 0.948369
vt 0.57243 0.963911
vt 0.963285 0.420052
vt 0.963285 0.281703
vt 0.94743 0.281703
vt 0.94743 0.420052
vt 0.141856 0.972683
vt 0.141856 0.965913
vt 0.001001 0.965913
vt 0.001001 0.972683
vt 0.972213 0.053633
vt 0.965287 0.053633
vt 0.965287 0.069174
vt 0.972213 0.069174
vt 0.981142 0.051631
vt 0.981142 0.044861
vt 0.965287 0.044861
vt 0.965287 0.051631
vt 0.981142 0.562405
vt 0.974215 0.562405
vt 0.974215 0.700753
vt 0.981142 0.700753
vt 0.001001 0.963911
vt 0.141856 0.963911
vt 0.141856 0.948369
vt 0.001001 0.948369
vt 0.945428 0.141352
vt 0.929572 0.141352
vt 0.929572 0.279701
vt 0.945428 0.279701
vt 0.141856 0.981455
vt 0.141856 0.974685
vt 0.001001 0.974685
vt 0.001001 0.981455
vt 0.981142 0.281703
vt 0.974215 0.281703
vt 0.974215 0.420052
vt 0.981142 0.420052
vt 0.856142 0.963911
vt 0.856142 0.948369
vt 0.715287 0.948369
vt 0.715287 0.963911
vt 0.945428 0.420052
vt 0.945428 0.281703
vt 0.929572 0.281703
vt 0.929572 0.420052
vt 0.284713 0.990227
vt 0.284713 0.983457
vt 0.143858 0.983457
vt 0.143858 0.990227
vt 0.972213 0.009773
vt 0.965287 0.009773
vt 0.965287 0.025315
vt 0.972213 0.025315
vt 0.891856 0.948369
vt 0.858144 0.948369
vt 0.858144 0.981455
vt 0.891856 0.981455
vt 0.998999 0.007771
vt 0.998999 0.001001
vt 0.965287 0.001001
vt 0.965287 0.007771
vt 0.998999 0.13935
vt 0.998999 0.071176
vt 0.965287 0.071176
vt 0.965287 0.13935
vt 0.820428 0.913282
vt 0.786715 0.913282
vt 0.786715 0.946367
vt 0.820428 0.946367
vt 0.57243 0.946367
vt 0.713285 0.946367
vt 0.713285 0.913282
vt 0.57243 0.913282
vt 0.92757 0.141352
vt 0.893858 0.141352
vt 0.893858 0.279701
vt 0.92757 0.279701
vt 0.784713 0.998999
vt 0.784713 0.965913
vt 0.715287 0.965913
vt 0.715287 0.998999
vt 0.998999 0.770929
vt 0.998999 0.702755
vt 0.965287 0.702755
vt 0.965287 0.770929
vt 0.713285 0.91128
vt 0.713285 0.878194
vt 0.57243 0.878194
vt 0.57243 0.91128
vt 0.856142 0.420052
vt 0.856142 0.281703
vt 0.82243 0.281703
vt 0.82243 0.420052
vt 0.143858 0.876192
vt 0.284713 0.876192
vt 0.284713 0.843106
vt 0.143858 0.843106
vt 0.856142 0.141352
vt 0.82243 0.141352
vt 0.82243 0.279701
vt 0.856142 0.279701
vt 0.215287 0.981455
vt 0.284713 0.981455
vt 0.284713 0.948369
vt 0.215287 0.948369
vt 0.998999 0.843106
vt 0.965287 0.843106
vt 0.965287 0.91128
vt 0.998999 0.91128
vt 0.001001 0.841104
vt 0.141856 0.841104
vt 0.141856 0.808019
vt 0.001001 0.808019
vt 0.820428 0.422054
vt 0.786715 0.422054
vt 0.786715 0.560403
vt 0.820428 0.560403
vt 0.143858 0.700753
vt 0.284713 0.700753
vt 0.284713 0.63258
vt 0.143858 0.63258
vt 0.998999 0.981455
vt 0.998999 0.913282
vt 0.965287 0.913282
vt 0.965287 0.981455
vt 0.356142 0.981455
vt 0.356142 0.948369
vt 0.286715 0.948369
vt 0.286715 0.981455
vt 0.784713 0.700753
vt 0.784713 0.562405
vt 0.751001 0.562405
vt 0.751001 0.700753
vt 0.570428 0.735841
vt 0.570428 0.702755
vt 0.429572 0.702755
vt 0.429572 0.735841
vt 0.998999 0.422054
vt 0.965287 0.422054
vt 0.965287 0.490227
vt 0.998999 0.490227
vt 0.358144 0.981455
vt 0.42757 0.981455
vt 0.42757 0.948369
vt 0.358144 0.948369
vt 0.784713 0.279701
vt 0.784713 0.141352
vt 0.715287 0.141352
vt 0.715287 0.279701
vt 0.286715 0.735841
vt 0.42757 0.735841
vt 0.42757 0.702755
vt 0.286715 0.702755
vt 0.748999 0.281703
vt 0.715287 0.281703
vt 0.715287 0.420052
vt 0.748999 0.420052
vt 0.286715 0.770929
vt 0.42757 0.770929
vt 0.42757 0.737843
vt 0.286715 0.737843
vt 0.748999 0.422054
vt 0.715287 0.422054
vt 0.715287 0.560403
vt 0.748999 0.560403
vt 0.57243 0.770929
vt 0.713285 0.770929
vt 0.713285 0.737843
vt 0.57243 0.737843
vt 0.748999 0.562405
vt 0.715287 0.562405
vt 0.715287 0.700753
vt 0.748999 0.700753
vt 0.570428 0.770929
vt 0.570428 0.737843
vt 0.429572 0.737843
vt 0.429572 0.770929
vt 0.784713 0.13935
vt 0.784713 0.001001
vt 0.751001 0.001001
vt 0.751001 0.13935
vt 0.284713 0.806017
vt 0.284713 0.772931
vt 0.143858 0.772931
vt 0.143858 0.806017
vt 0.784713 0.560403
vt 0.784713 0.422054
vt 0.751001 0.422054
vt 0.751001 0.560403
vt 0.286715 0.806017
vt 0.42757 0.806017
vt 0.42757 0.772931
vt 0.286715 0.772931
vt 0.784713 0.281703
vt 0.751001 0.281703
vt 0.751001 0.420052
vt 0.784713 0.420052
vt 0.141856 0.770929
vt 0.141856 0.702755
vt 0.001001 0.702755
vt 0.001001 0.770929
vt 0.981142 0.141352
vt 0.94743 0.141352
vt 0.94743 0.209525
vt 0.981142 0.209525
vt 0.429572 0.981455
vt 0.498999 0.981455
vt 0.498999 0.948369
vt 0.429572 0.948369
vt 0.820428 0.279701
vt 0.820428 0.141352
vt 0.786715 0.141352
vt 0.786715 0.279701
vt 0.570428 0.806017
vt 0.570428 0.772931
vt 0.429572 0.772931
vt 0.429572 0.806017
vt 0.981142 0.279701
vt 0.981142 0.211527
vt 0.94743 0.211527
vt 0.94743 0.279701
vt 0.570428 0.981455
vt 0.570428 0.948369
vt 0.501001 0.948369
vt 0.501001 0.981455
vt 0.641856 0.422054
vt 0.57243 0.422054
vt 0.57243 0.560403
vt 0.641856 0.560403
vt 0.429572 0.700753
vt 0.570428 0.700753
vt 0.570428 0.63258
vt 0.429572 0.63258
vt 0.141856 0.562405
vt 0.001001 0.562405
vt 0.001001 0.700753
vt 0.141856 0.700753
vt 0.820428 0.562405
vt 0.786715 0.562405
vt 0.786715 0.700753
vt 0.820428 0.700753
vt 0.998999 0.525315
vt 0.998999 0.492229
vt 0.929572 0.492229
vt 0.929572 0.525315
vt 0.713285 0.560403
vt 0.713285 0.422054
vt 0.643858 0.422054
vt 0.643858 0.560403
vt 0.284713 0.841104
vt 0.284713 0.808019
vt 0.143858 0.808019
vt 0.143858 0.841104
vt 0.856142 0.13935
vt 0.856142 0.001001
vt 0.82243 0.001001
vt 0.82243 0.13935
vt 0.57243 0.841104
vt 0.713285 0.841104
vt 0.713285 0.808019
vt 0.57243 0.808019
vt 0.820428 0.841104
vt 0.820428 0.702755
vt 0.786715 0.702755
vt 0.786715 0.841104
vt 0.286715 0.841104
vt 0.42757 0.841104
vt 0.42757 0.808019
vt 0.286715 0.808019
vt 0.570428 0.422054
vt 0.429572 0.422054
vt 0.429572 0.560403
vt 0.570428 0.560403
vt 0.856142 0.560403
vt 0.856142 0.422054
vt 0.82243 0.422054
vt 0.82243 0.560403
vt 0.570428 0.281703
vt 0.429572 0.281703
vt 0.429572 0.420052
vt 0.570428 0.420052
vt 0.001001 0.876192
vt 0.141856 0.876192
vt 0.141856 0.843106
vt 0.001001 0.843106
vt 0.284713 0.002002
vt 0.144859 0.13935
vt 0.284713 0.13935
vt 0.573431 0.069174
vt 0.713285 0.069174
vt 0.713285 0.002002
vt 0.002002 0.279701
vt 0.141856 0.142353
vt 0.141856 0.279701
vt 0.972213 0.420052
vt 0.972213 0.281703
vt 0.965287 0.281703
vt 0.965287 0.420052
vt 0.786715 0.972683
vt 0.856142 0.972683
vt 0.856142 0.965913
vt 0.786715 0.965913
vt 0.99007 0.700753
vt 0.99007 0.562405
vt 0.983144 0.562405
vt 0.983144 0.700753
vt 0.001001 0.990227
vt 0.141856 0.990227
vt 0.141856 0.983457
vt 0.001001 0.983457
vt 0.713285 0.700753
vt 0.713285 0.563406
vt 0.644859 0.700753
vt 0.284713 0.563406
vt 0.284713 0.630578
vt 0.144859 0.630578
vt 0.570428 0.13935
vt 0.430573 0.13935
vt 0.570428 0.002002
vt 0.92757 0.841104
vt 0.92757 0.702755
vt 0.893858 0.702755
vt 0.893858 0.841104
vt 0.141856 0.001001
vt 0.001001 0.001001
vt 0.001001 0.13935
vt 0.141856 0.13935
vt 0.429572 0.876192
vt 0.570428 0.876192
vt 0.570428 0.843106
vt 0.429572 0.843106
vt 0.570428 0.141352
vt 0.429572 0.141352
vt 0.429572 0.279701
vt 0.570428 0.279701
vt 0.891856 0.560403
vt 0.891856 0.422054
vt 0.858144 0.422054
vt 0.858144 0.560403
vt 0.143858 0.981455
vt 0.213285 0.981455
vt 0.213285 0.948369
vt 0.143858 0.948369
vt 0.891856 0.13935
vt 0.891856 0.001001
vt 0.858144 0.001001
vt 0.858144 0.13935
vt 0.429572 0.91128
vt 0.570428 0.91128
vt 0.570428 0.878194
vt 0.429572 0.878194
vt 0.891856 0.702755
vt 0.858144 0.702755
vt 0.858144 0.841104
vt 0.891856 0.841104
vt 0.429572 0.630578
vt 0.570428 0.630578
vt 0.570428 0.562405
vt 0.429572 0.562405
vt 0.963285 0.422054
vt 0.929572 0.422054
vt 0.929572 0.490227
vt 0.963285 0.490227
vt 0.963285 0.981455
vt 0.963285 0.948369
vt 0.893858 0.948369
vt 0.893858 0.981455
vt 0.141856 0.422054
vt 0.001001 0.422054
vt 0.001001 0.560403
vt 0.141856 0.560403
vt 0.641856 0.279701
vt 0.641856 0.141352
vt 0.57243 0.141352
vt 0.57243 0.279701
vt 0.284713 0.422054
vt 0.143858 0.422054
vt 0.143858 0.560403
vt 0.284713 0.560403
vt 0.42757 0.422054
vt 0.286715 0.422054
vt 0.286715 0.560403
vt 0.42757 0.560403
vt 0.42757 0.281703
vt 0.286715 0.281703
vt 0.286715 0.420052
vt 0.42757 0.420052
vt 0.141856 0.281703
vt 0.001001 0.281703
vt 0.001001 0.420052
vt 0.141856 0.420052
vt 0.784713 0.772931
vt 0.715287 0.772931
vt 0.715287 0.841104
vt 0.784713 0.841104
vt 0.42757 0.630578
vt 0.42757 0.562405
vt 0.286715 0.562405
vt 0.286715 0.630578
vt 0.891856 0.91128
vt 0.891856 0.843106
vt 0.858144 0.843106
vt 0.858144 0.91128
vt 0.82243 0.946367
vt 0.891856 0.946367
vt 0.891856 0.913282
vt 0.82243 0.913282
vt 0.713285 0.281703
vt 0.643858 0.281703
vt 0.643858 0.420052
vt 0.713285 0.420052
vt 0.143858 0.946367
vt 0.284713 0.946367
vt 0.284713 0.913282
vt 0.143858 0.913282
vt 0.92757 0.001001
vt 0.893858 0.001001
vt 0.893858 0.13935
vt 0.92757 0.13935
vt 0.963285 0.946367
vt 0.963285 0.913282
vt 0.893858 0.913282
vt 0.893858 0.946367
vt 0.92757 0.843106
vt 0.893858 0.843106
vt 0.893858 0.91128
vt 0.92757 0.91128
vt 0.141856 0.946367
vt 0.141856 0.913282
vt 0.001001 0.913282
vt 0.001001 0.946367
vt 0.284713 0.281703
vt 0.143858 0.281703
vt 0.143858 0.420052
vt 0.284713 0.420052
vt 0.963285 0.702755
vt 0.929572 0.702755
vt 0.929572 0.841104
vt 0.963285 0.841104
vt 0.42757 0.001001
vt 0.286715 0.001001
vt 0.286715 0.13935
vt 0.42757 0.13935
vt 0.570428 0.946367
vt 0.570428 0.913282
vt 0.429572 0.913282
vt 0.429572 0.946367
vt 0.429572 0.001001
vt 0.429572 0.138349
vt 0.569427 0.001001
vt 0.143858 0.629577
vt 0.283712 0.562405
vt 0.143858 0.562405
vt 0.643858 0.562405
vt 0.712284 0.562405
vt 0.643858 0.699752
vt 0.972213 0.562405
vt 0.965287 0.562405
vt 0.965287 0.700753
vt 0.972213 0.700753
vt 0.713285 0.981455
vt 0.713285 0.974685
vt 0.57243 0.974685
vt 0.57243 0.981455
vt 0.972213 0.772931
vt 0.965287 0.772931
vt 0.965287 0.841104
vt 0.972213 0.841104
vt 0.713285 0.972683
vt 0.713285 0.965913
vt 0.57243 0.965913
vt 0.57243 0.972683
vt 0.140855 0.141352
vt 0.001001 0.141352
vt 0.001001 0.2787
vt 0.712284 0.001001
vt 0.57243 0.068173
vt 0.57243 0.001001
vt 0.143858 0.138349
vt 0.143858 0.001001
vt 0.283712 0.001001
vt 0.92757 0.422054
vt 0.893858 0.422054
vt 0.893858 0.560403
vt 0.92757 0.560403
vt 0.42757 0.141352
vt 0.286715 0.141352
vt 0.286715 0.279701
vt 0.42757 0.279701
vt 0.284713 0.91128
vt 0.284713 0.878194
vt 0.143858 0.878194
vt 0.143858 0.91128
vt 0.284713 0.141352
vt 0.143858 0.141352
vt 0.143858 0.279701
vt 0.284713 0.279701
vt 0.891856 0.281703
vt 0.858144 0.281703
vt 0.858144 0.420052
vt 0.891856 0.420052
vt 0.42757 0.876192
vt 0.42757 0.843106
vt 0.286715 0.843106
vt 0.286715 0.876192
vt 0.856142 0.702755
vt 0.82243 0.702755
vt 0.82243 0.841104
vt 0.856142 0.841104
vt 0.713285 0.876192
vt 0.713285 0.843106
vt 0.57243 0.843106
vt 0.57243 0.876192
vt 0.856142 0.700753
vt 0.856142 0.562405
vt 0.82243 0.562405
vt 0.82243 0.700753
vt 0.42757 0.700753
vt 0.42757 0.63258
vt 0.286715 0.63258
vt 0.286715 0.700753
vt 0.963285 0.069174
vt 0.963285 0.001001
vt 0.929572 0.001001
vt 0.929572 0.069174
vt 0.57243 0.806017
vt 0.713285 0.806017
vt 0.713285 0.772931
vt 0.57243 0.772931
vt 0.713285 0.141352
vt 0.643858 0.141352
vt 0.643858 0.279701
vt 0.713285 0.279701
vt 0.784713 0.702755
vt 0.715287 0.702755
vt 0.715287 0.770929
vt 0.784713 0.770929
vt 0.284713 0.770929
vt 0.284713 0.702755
vt 0.143858 0.702755
vt 0.143858 0.770929
vt 0.748999 0.13935
vt 0.748999 0.001001
vt 0.715287 0.001001
vt 0.715287 0.13935
vt 0.57243 0.735841
vt 0.713285 0.735841
vt 0.713285 0.702755
vt 0.57243 0.702755
vt 0.820428 0.281703
vt 0.786715 0.281703
vt 0.786715 0.420052
vt 0.820428 0.420052
vt 0.001001 0.806017
vt 0.141856 0.806017
vt 0.141856 0.772931
vt 0.001001 0.772931
vt 0.820428 0.001001
vt 0.786715 0.001001
vt 0.786715 0.13935
vt 0.820428 0.13935
vt 0.570428 0.841104
vt 0.570428 0.808019
vt 0.429572 0.808019
vt 0.429572 0.841104
vt 0.891856 0.700753
vt 0.891856 0.562405
vt 0.858144 0.562405
vt 0.858144 0.700753
vt 0.42757 0.91128
vt 0.42757 0.878194
vt 0.286715 0.878194
vt 0.286715 0.91128
vt 0.891856 0.279701
vt 0.891856 0.141352
vt 0.858144 0.141352
vt 0.858144 0.279701
vt 0.713285 0.13935
vt 0.713285 0.071176
vt 0.57243 0.071176
vt 0.57243 0.13935
vt 0.92757 0.700753
vt 0.92757 0.562405
vt 0.893858 0.562405
vt 0.893858 0.700753
vt 0.856142 0.91128
vt 0.856142 0.878194
vt 0.715287 0.878194
vt 0.715287 0.91128
vt 0.641856 0.420052
vt 0.641856 0.281703
vt 0.57243 0.281703
vt 0.57243 0.420052
vt 0.784713 0.946367
vt 0.784713 0.913282
vt 0.715287 0.913282
vt 0.715287 0.946367
vt 0.963285 0.91128
vt 0.963285 0.843106
vt 0.929572 0.843106
vt 0.929572 0.91128
vt 0.42757 0.946367
vt 0.42757 0.913282
vt 0.286715 0.913282
vt 0.286715 0.946367
vt 0.963285 0.700753
vt 0.963285 0.562405
vt 0.929572 0.562405
vt 0.929572 0.700753
vt 0.001001 0.91128
vt 0.141856 0.91128
vt 0.141856 0.878194
vt 0.001001 0.878194
vt 0.92757 0.281703
vt 0.893858 0.281703
vt 0.893858 0.420052
vt 0.92757 0.420052
vt 0.929572 0.560403
vt 0.998999 0.560403
vt 0.998999 0.527317
vt 0.929572 0.527317
vt 0.963285 0.071176
vt 0.929572 0.071176
vt 0.929572 0.13935
vt 0.963285 0.13935
vt 0.856142 0.876192
vt 0.856142 0.843106
vt 0.715287 0.843106
vt 0.715287 0.876192
vt 0.641856 0.700753
vt 0.641856 0.562405
vt 0.57243 0.562405
vt 0.57243 0.700753
usemtl roofCorner
f 1/1 4/2 5/3 3/4
f 2/5 207/6 208/7 6/8
f 202/9 201/10 7/11 8/12
f 206/13 204/14 203/15 205/16
f 199/17 200/18 197/19 198/20
f 13/21 16/22 15/23 10/24
f 11/25 9/26 219/27 218/28
f 12/29 220/30 210/31 209/32
f 216/33 215/34 14/35 217/36
f 213/37 211/38 212/39 214/40
f 17/41 20/42 21/43 19/44
f 18/45 231/46 232/47 22/48
f 226/49 225/50 23/51 24/52
f 230/53 228/54 227/55 229/56
f 223/57 224/58 221/59 222/60
f 25/61 26/62 31/63 30/64
f 239/65 240/66 27/67 28/68
f 238/69 237/70 29/71 32/72
f 233/73 236/74 235/75 234/76
f 35/77 61/78 264/79 36/80
f 38/81 34/82 35/83 36/84
f 37/85 33/86 34/87 38/88
f 242/89 241/90 41/91 40/92
f 243/93 39/94 62/95 256/96
f 40/97 39/98 243/99 242/100
f 268/101 64/102 56/103 42/104
f 43/105 269/106 268/107 42/108
f 270/109 269/110 43/111 44/112
f 252/113 259/114 258/115 251/116
f 257/117 272/118 249/119 250/120
f 251/121 258/122 257/123 250/124
f 278/125 48/126 49/127 290/128
f 48/129 45/130 46/131 49/132
f 281/133 51/134 50/135 282/136
f 281/137 80/138 79/139 51/140
f 70/141 73/142 293/143 52/144
f 294/145 47/146 52/147 293/148
f 286/149 285/150 273/151 274/152
f 296/153 286/154 274/155 284/156
f 58/157 59/158 55/159 54/160
f 55/161 59/162 249/163 272/164
f 57/165 58/166 54/167 53/168
f 63/169 263/170 262/171 60/172
f 262/173 261/174 65/175 60/176
f 65/177 261/178 260/179 271/180
f 247/181 67/182 66/183 246/184
f 66/185 244/186 245/187 246/188
f 67/189 247/190 248/191 68/192
f 267/193 266/194 254/195 255/196
f 266/197 265/198 253/199 254/200
f 253/201 265/202 264/203 61/204
f 296/205 284/206 71/207 69/208
f 69/209 71/210 72/211 76/212
f 77/213 74/214 288/215 289/216
f 287/217 288/218 74/219 295/220
f 75/221 276/222 275/223 283/224
f 75/225 78/226 277/227 276/228
f 279/229 291/230 292/231 280/232
f 278/233 290/234 291/235 279/236
f 298/237 81/238 83/239 84/240
f 81/241 300/242 156/243 83/244
f 346/245 154/246 93/247 335/248
f 316/249 87/250 86/251 317/252
f 312/253 155/254 85/255 313/256
f 315/257 92/258 87/259 316/260
f 91/261 297/262 89/263 88/264
f 297/265 82/266 90/267 89/268
f 88/269 153/270 158/271 91/272
f 94/273 90/274 82/275 99/276
f 299/277 298/278 84/279 98/280
f 318/281 317/282 86/283 95/284
f 314/285 313/286 85/287 97/288
f 336/289 335/290 93/291 96/292
f 311/293 155/294 312/295
f 151/296 342/297 341/298
f 323/299 156/300 300/301
f 326/302 327/303 103/304 102/305
f 334/306 324/307 109/308 110/309
f 325/310 326/311 102/312 111/313
f 324/314 325/315 111/316 109/317
f 377/318 396/319 113/320
f 384/321 387/322 112/323
f 119/324 118/325 361/326
f 108/327 116/328 382/329 106/330
f 381/331 120/332 121/333 107/334
f 367/335 366/336 122/337 104/338
f 393/339 394/340 123/341 105/342
f 380/343 379/344 347/345 348/346
f 115/347 376/348 375/349 350/350
f 349/351 347/352 379/353 124/354
f 350/355 349/356 124/357 115/358
f 125/359 365/360 117/361 114/362
f 121/363 120/364 118/365 119/366
f 122/367 366/368 365/369 125/370
f 382/371 116/372 133/373 392/374
f 395/375 396/376 377/377 378/378
f 394/379 395/380 378/381 123/382
f 342/383 151/384 100/385 343/386
f 101/387 112/388 387/389 388/390
f 101/391 138/392 134/393 112/394
f 152/395 148/396 100/397 151/398
f 129/399 355/400 127/401 126/402
f 126/403 127/404 135/405 369/406
f 390/407 383/408 389/409 385/410
f 359/411 358/412 132/413 130/414
f 363/415 362/416 118/417 131/418
f 358/419 357/420 368/421 132/422
f 137/423 353/424 354/425 136/426
f 136/427 354/428 128/429 144/430
f 353/431 137/432 351/433 370/434
f 141/435 143/436 144/437 128/438
f 142/439 356/440 355/441 129/442
f 139/443 360/444 359/445 130/446
f 140/447 364/448 363/449 131/450
f 386/451 391/452 390/453 385/454
f 362/455 361/456 118/457
f 384/458 112/459 134/460
f 135/461 352/462 369/463
f 161/464 371/465 372/466 160/467
f 160/468 372/469 373/470 159/471
f 334/472 110/473 371/474 161/475
f 159/476 373/477 374/478 150/479
f 301/480 319/481 302/482
f 151/483 341/484 152/485
f 311/486 162/487 155/488
f 147/489 340/490 339/491 164/492
f 149/493 345/494 344/495 163/496
f 146/497 310/498 309/499 165/500
f 145/501 305/502 304/503 167/504
f 332/505 322/506 321/507 331/508
f 329/509 157/510 333/511 328/512
f 168/513 330/514 331/515 321/516
f 157/517 329/518 330/519 168/520
f 306/521 166/522 308/523 307/524
f 162/525 163/526 344/527 155/528
f 166/529 165/530 309/531 308/532
f 337/533 164/534 339/535 338/536
f 320/537 303/538 302/539 319/540
f 167/541 304/542 303/543 320/544
f 171/545 172/546 417/547 401/548
f 177/549 172/550 171/551 170/552
f 174/553 177/554 170/555 169/556
f 406/557 179/558 180/559 407/560
f 405/561 176/562 175/563 178/564
f 179/565 406/566 405/567 178/568
f 421/569 182/570 181/571 173/572
f 183/573 182/574 421/575 422/576
f 423/577 184/578 183/579 422/580
f 412/581 411/582 427/583 428/584
f 426/585 410/586 409/587 425/588
f 411/589 410/590 426/591 427/592
f 189/593 186/594 187/595 190/596
f 187/597 425/598 409/599 190/600
f 188/601 185/602 186/603 189/604
f 192/605 191/606 415/607 416/608
f 415/609 191/610 193/611 414/612
f 193/613 424/614 413/615 414/616
f 399/617 398/618 194/619 195/620
f 194/621 398/622 397/623 408/624
f 195/625 196/626 400/627 399/628
f 420/629 404/630 403/631 419/632
f 419/633 403/634 402/635 418/636
f 402/637 401/638 417/639 418/640
