mtllib roofEdge.mtl
o roofEdge
v 0.499999 0.062842 -0.367494
v -0.5 0.062842 -0.367494
v 0.203489 0.049692 -0.355056
v -0.203489 0.049692 -0.355056
v 0 0.059214 -0.346945
v -0.000383 0.001417 -0.346945
v 0.000383 0.001417 -0.346945
v 0.5 0.009734 -0.367483
v -0.5 0.009734 -0.367483
v 0.203533 0 -0.355054
v -0.203534 0 -0.355054
v 0 0.059214 -0.456252
v 0.20426 0.049693 -0.46432
v -0.204261 0.049693 -0.46432
v 0.499999 0.063509 -0.476687
v -0.5 0.063509 -0.476687
v -0.000383 0.001417 -0.479576
v 0.000383 0.001417 -0.479576
v 0.204304 0.000001 -0.487642
v -0.204305 0.000001 -0.487642
v 0.5 0.009739 -0.5
v -0.5 0.009739 -0.5
v 0.339737 0.55 0.495441
v -0.339738 0.55 0.495441
v 0 0.55 0.494028
v 0.339737 0.494445 0.495441
v -0.339738 0.494445 0.495441
v 0.5 0.55 0.368429
v -0.5 0.55 0.368429
v 0.339737 0.55 0.363869
v -0.339738 0.55 0.363869
v 0 0.55 0.362457
v 0.339737 0.494445 0.36387
v -0.339738 0.494445 0.36387
v 0.5 0.55 0.455814
v -0.5 0.55 0.455814
v 0.5 0.146006 -0.095996
v -0.5 0.146006 -0.095996
v 0 0.55 0.455814
v 0.255182 0.55 0.455814
v -0.255182 0.55 0.455814
v 0 0.118829 -0.102477
v 0.22291 0.120092 -0.109484
v -0.22291 0.120092 -0.109484
v 0 0.284993 0.273117
v 0 0.017854 -0.401228
v 0.255182 0.005472 -0.428669
v -0.255182 0.005472 -0.428669
v 0.5 0.027258 -0.433728
v -0.5 0.027258 -0.433728
v 0.5 0.28883 0.054987
v -0.5 0.28883 0.054987
v 0 0.330574 0.098735
v 0.5 0.349442 0.0783
v -0.5 0.349442 0.0783
v 0 0.330574 0.25376
v 0.339394 0.336024 0.24565
v -0.339394 0.336024 0.24565
v 0.5 0.349438 0.233212
v -0.5 0.349438 0.233212
v 0.5 0.166334 -0.049948
v -0.5 0.166334 -0.049948
v 0 0.139596 -0.0294
v 0 0.097713 -0.0294
v 0.339431 0.105181 -0.037509
v -0.339431 0.105181 -0.037509
v 0.340044 0.147069 -0.146775
v -0.340044 0.147069 -0.146775
v 0 0.139596 -0.138707
v 0.5 0.124455 -0.182454
v -0.5 0.124455 -0.182454
v 0 0.097713 -0.162031
v 0.254214 0.021096 -0.428669
v -0.254215 0.021096 -0.428669
v 0 0.033423 -0.401228
v 0 0.135326 -0.013198
v 0 0.297211 0.247675
v 0.5 0.320276 0.224994
v -0.5 0.320276 0.224994
v 0 0.295934 0.116407
v 0.24964 0.29678 0.104902
v -0.24964 0.29678 0.104902
v 0 0.132207 -0.12359
v 0.254382 0.55 0.41664
v -0.254382 0.55 0.41664
v 0 0.55 0.416471
v 0.253834 0.018888 -0.329106
v -0.253835 0.018888 -0.329106
v 0 0.031259 -0.301747
v 0.5 0.55 0.416823
v -0.5 0.55 0.416823
v 0.5 0.040589 -0.333935
v -0.5 0.040589 -0.333935
v 0.5 0.55 0.5
v -0.5 0.55 0.5
v 0 0.495241 0.494028
v 0.5 0.495507 0.5
v -0.5 0.495507 0.5
v 0 0.495241 0.362457
v 0.5 0.495507 0.368429
v -0.5 0.495507 0.368429
v 0 0.017854 -0.280811
v 0.255182 0.005472 -0.308251
v -0.255182 0.005472 -0.308251
v 0.5 0.027258 -0.31331
v -0.5 0.027258 -0.31331
v 0 0.283482 0.141021
v 0.251857 0.284316 0.129328
v -0.251857 0.284316 0.129328
v 0.5 0.311771 0.130257
v -0.5 0.311771 0.130257
v 0.246436 0.287229 0.26317
v -0.246436 0.287229 0.26317
v 0.5 0.307319 0.249142
v -0.5 0.307319 0.249142
v 0 0.122716 0.010903
v 0.208034 0.117255 -0.017811
v -0.208034 0.117255 -0.017811
v 0.5 0.151886 0.018165
v -0.5 0.151886 0.018165
v 0 0.269962 0.075411
v 0.340081 0.275407 0.067346
v -0.340081 0.275407 0.067346
v 0.340044 0.336024 0.090667
v -0.340044 0.336024 0.090667
v 0 0.269962 0.25376
v 0.339431 0.275406 0.245651
v -0.339431 0.275406 0.245651
v 0.5 0.288305 0.233222
v -0.5 0.288305 0.233222
v 0.339394 0.147069 -0.03751
v -0.339394 0.147069 -0.03751
v 0.5 0.123929 -0.049937
v -0.5 0.123929 -0.049937
v 0.5 0.166338 -0.159141
v -0.5 0.166338 -0.159141
v 0.340081 0.105181 -0.170096
v -0.340081 0.105181 -0.170096
v 0.5 0.042696 -0.433728
v -0.5 0.042696 -0.433728
v 0.205955 0.129632 -0.042561
v -0.205955 0.129632 -0.042561
v 0.5 0.164517 -0.007153
v -0.5 0.164517 -0.007153
v 0.244322 0.299576 0.238329
v -0.244322 0.299576 0.238329
v 0.5 0.324228 0.106058
v -0.5 0.324228 0.106058
v 0.220751 0.133331 -0.130966
v -0.220751 0.133331 -0.130966
v 0.5 0.159041 -0.11773
v -0.5 0.159041 -0.11773
v 0.5 0.278847 0.219627
v -0.5 0.278847 0.219627
v 0.5 0.325662 0.122456
v -0.5 0.325662 0.122456
v 0.5 0.109935 -0.046423
v -0.5 0.109935 -0.046423
v 0.5 0.315112 0.193174
v -0.5 0.315112 0.193174
v 0.5 0.26706 0.288997
v -0.5 0.26706 0.288997
v 0.457766 0.098999 0.023925
v -0.457766 0.098999 0.023925
v 0.5 0.512019 0.420076
v -0.5 0.512019 0.420076
v 0.457766 0.278847 0.219627
v -0.457766 0.278847 0.219627
v 0.457837 0.512101 0.420099
v -0.457837 0.512101 0.420099
v 0.457766 0.325592 0.122387
v -0.457766 0.325592 0.122387
v 0.457766 0.109708 -0.046644
v -0.457766 0.109708 -0.046644
v 0.5 0.099227 0.024144
v -0.5 0.099227 0.024144
v 0.5 0.509322 0.495639
v -0.5 0.509322 0.495639
v 0.457766 0.26706 0.288997
v -0.457766 0.26706 0.288997
v 0.457837 0.509405 0.495662
v -0.457837 0.509405 0.495662
v 0.457766 0.315042 0.193105
v -0.457766 0.315042 0.193105
v 0.457766 0.129437 -0.054655
v -0.457766 0.129437 -0.054655
v 0.5 0.006361 -0.254742
v -0.5 0.006361 -0.254742
v 0.457766 0.016842 -0.325529
v -0.457766 0.016842 -0.325529
v 0.457766 0.139987 -0.125373
v -0.457766 0.139987 -0.125373
v 0.457766 0.006133 -0.254961
v -0.457766 0.006133 -0.254961
v 0.5 0.129507 -0.054586
v -0.5 0.129507 -0.054586
v 0.5 0.01707 -0.32531
v -0.5 0.01707 -0.32531
v 0.5 0.140057 -0.125304
v -0.5 0.140057 -0.125304
v 0.499999 0.062842 -0.367494
v 0.203489 0.049692 -0.355056
v 0 0.059214 -0.346945
v -0.203489 0.049692 -0.355056
v -0.5 0.062842 -0.367494
v 0 0.059214 -0.346945
v 0 0.059214 -0.456252
v 0.20426 0.049693 -0.46432
v 0.499999 0.063509 -0.476687
v 0 0.059214 -0.456252
v -0.204261 0.049693 -0.46432
v -0.5 0.063509 -0.476687
v -0.000383 0.001417 -0.479576
v 0.204304 0.000001 -0.487642
v 0.5 0.009739 -0.5
v 0.000383 0.001417 -0.479576
v -0.204305 0.000001 -0.487642
v -0.5 0.009739 -0.5
v 0.5 0.009734 -0.367483
v 0.203533 0 -0.355054
v -0.000383 0.001417 -0.346945
v -0.5 0.009734 -0.367483
v -0.203534 0 -0.355054
v 0.000383 0.001417 -0.346945
v 0.339737 0.55 0.495441
v 0 0.55 0.494028
v -0.339738 0.55 0.495441
v -0.5 0.55 0.5
v 0.5 0.55 0.5
v 0.5 0.55 0.368429
v 0.339737 0.55 0.363869
v 0 0.55 0.362457
v -0.339738 0.55 0.363869
v -0.5 0.55 0.368429
v 0 0.118829 -0.102477
v 0.22291 0.120092 -0.109484
v 0.5 0.146006 -0.095996
v -0.22291 0.120092 -0.109484
v -0.5 0.146006 -0.095996
v 0 0.017854 -0.401228
v 0.255182 0.005472 -0.428669
v 0.5 0.027258 -0.433728
v -0.255182 0.005472 -0.428669
v -0.5 0.027258 -0.433728
v 0 0.330574 0.25376
v 0.339394 0.336024 0.24565
v 0.5 0.349438 0.233212
v -0.339394 0.336024 0.24565
v -0.5 0.349438 0.233212
v 0 0.097713 -0.0294
v 0.339431 0.105181 -0.037509
v 0.5 0.123929 -0.049937
v -0.339431 0.105181 -0.037509
v -0.5 0.123929 -0.049937
v 0.340044 0.147069 -0.146775
v 0 0.139596 -0.138707
v -0.340044 0.147069 -0.146775
v -0.5 0.166338 -0.159141
v 0.5 0.166338 -0.159141
v 0.254214 0.021096 -0.428669
v 0 0.033423 -0.401228
v -0.254215 0.021096 -0.428669
v -0.5 0.042696 -0.433728
v 0.5 0.042696 -0.433728
v 0 0.295934 0.116407
v 0.24964 0.29678 0.104902
v 0.5 0.324228 0.106058
v -0.24964 0.29678 0.104902
v -0.5 0.324228 0.106058
v 0.253834 0.018888 -0.329106
v 0.5 0.040589 -0.333935
v 0 0.031259 -0.301747
v -0.253835 0.018888 -0.329106
v -0.5 0.040589 -0.333935
v 0 0.017854 -0.280811
v 0.255182 0.005472 -0.308251
v 0.5 0.027258 -0.31331
v -0.255182 0.005472 -0.308251
v -0.5 0.027258 -0.31331
v 0 0.283482 0.141021
v 0.251857 0.284316 0.129328
v 0.5 0.311771 0.130257
v -0.251857 0.284316 0.129328
v -0.5 0.311771 0.130257
v 0.246436 0.287229 0.26317
v 0.5 0.307319 0.249142
v 0 0.284993 0.273117
v -0.246436 0.287229 0.26317
v -0.5 0.307319 0.249142
v 0 0.122716 0.010903
v 0.208034 0.117255 -0.017811
v 0.5 0.151886 0.018165
v -0.208034 0.117255 -0.017811
v -0.5 0.151886 0.018165
v 0 0.269962 0.075411
v 0.340081 0.275407 0.067346
v 0.5 0.28883 0.054987
v -0.340081 0.275407 0.067346
v -0.5 0.28883 0.054987
v 0 0.269962 0.25376
v 0.339431 0.275406 0.245651
v 0.5 0.288305 0.233222
v -0.339431 0.275406 0.245651
v -0.5 0.288305 0.233222
v 0.205955 0.129632 -0.042561
v 0.5 0.164517 -0.007153
v 0 0.135326 -0.013198
v -0.205955 0.129632 -0.042561
v -0.5 0.164517 -0.007153
v 0.220751 0.133331 -0.130966
v 0.5 0.159041 -0.11773
v 0 0.132207 -0.12359
v -0.220751 0.133331 -0.130966
v -0.5 0.159041 -0.11773
v 0.5 0.124455 -0.182454
v 0.340081 0.105181 -0.170096
v 0 0.097713 -0.162031
v -0.340081 0.105181 -0.170096
v -0.5 0.124455 -0.182454
v 0.5 0.166334 -0.049948
v 0.339394 0.147069 -0.03751
v 0 0.139596 -0.0294
v -0.339394 0.147069 -0.03751
v -0.5 0.166334 -0.049948
v 0.5 0.349442 0.0783
v 0.340044 0.336024 0.090667
v 0 0.330574 0.098735
v -0.340044 0.336024 0.090667
v -0.5 0.349442 0.0783
v 0.339737 0.494445 0.36387
v 0.5 0.495507 0.368429
v 0 0.495241 0.362457
v -0.339738 0.494445 0.36387
v -0.5 0.495507 0.368429
v 0.339737 0.494445 0.495441
v 0.5 0.495507 0.5
v 0 0.495241 0.494028
v -0.339738 0.494445 0.495441
v -0.5 0.495507 0.5
v 0.5 0.320276 0.224994
v 0.244322 0.299576 0.238329
v 0 0.297211 0.247675
v -0.244322 0.299576 0.238329
v -0.5 0.320276 0.224994
v 0.5 0.26706 0.288997
v 0.457766 0.26706 0.288997
v 0.457766 0.278847 0.219627
v 0.5 0.278847 0.219627
v 0.457766 0.278847 0.219627
v 0.457837 0.512101 0.420099
v 0.457766 0.26706 0.288997
v 0.457837 0.509405 0.495662
v 0.5 0.26706 0.288997
v 0.5 0.509322 0.495639
v -0.5 0.26706 0.288997
v -0.457766 0.26706 0.288997
v -0.457766 0.278847 0.219627
v -0.5 0.278847 0.219627
v -0.457766 0.278847 0.219627
v -0.457837 0.512101 0.420099
v -0.457766 0.26706 0.288997
v -0.457837 0.509405 0.495662
v -0.5 0.26706 0.288997
v -0.5 0.509322 0.495639
v 0.457766 0.098999 0.023925
v 0.5 0.099227 0.024144
v 0.5 0.109935 -0.046423
v 0.457766 0.109708 -0.046644
v 0.5 0.109935 -0.046423
v 0.5 0.325662 0.122456
v 0.5 0.099227 0.024144
v 0.5 0.315112 0.193174
v 0.457766 0.098999 0.023925
v 0.457766 0.315042 0.193105
v -0.457766 0.098999 0.023925
v -0.5 0.099227 0.024144
v -0.5 0.109935 -0.046423
v -0.457766 0.109708 -0.046644
v -0.5 0.109935 -0.046423
v -0.5 0.325662 0.122456
v -0.5 0.099227 0.024144
v -0.5 0.315112 0.193174
v -0.457766 0.098999 0.023925
v -0.457766 0.315042 0.193105
v 0.5 0.278847 0.219627
v 0.5 0.512019 0.420076
v -0.5 0.278847 0.219627
v -0.5 0.512019 0.420076
v 0.457766 0.325592 0.122387
v 0.457766 0.109708 -0.046644
v -0.457766 0.325592 0.122387
v -0.457766 0.109708 -0.046644
v 0.457766 0.016842 -0.325529
v 0.457766 0.139987 -0.125373
v 0.5 0.01707 -0.32531
v 0.5 0.140057 -0.125304
v 0.5 0.01707 -0.32531
v 0.5 0.006361 -0.254742
v 0.5 0.129507 -0.054586
v 0.5 0.006361 -0.254742
v 0.457766 0.006133 -0.254961
v 0.457766 0.129437 -0.054655
v 0.457766 0.016842 -0.325529
v 0.457766 0.006133 -0.254961
v -0.457766 0.016842 -0.325529
v -0.457766 0.139987 -0.125373
v -0.5 0.01707 -0.32531
v -0.5 0.140057 -0.125304
v -0.5 0.01707 -0.32531
v -0.5 0.006361 -0.254742
v -0.5 0.129507 -0.054586
v -0.5 0.006361 -0.254742
v -0.457766 0.006133 -0.254961
v -0.457766 0.129437 -0.054655
v -0.457766 0.016842 -0.325529
v -0.457766 0.006133 -0.254961
vt 0.873999 0.792668
vt 0.834334 0.792668
vt 0.834334 0.873999
vt 0.873999 0.873999
vt 0.251001 0.957332
vt 0.332332 0.957332
vt 0.332332 0.917668
vt 0.251001 0.917668
vt 0.790666 0.417668
vt 0.751001 0.417668
vt 0.751001 0.582332
vt 0.790666 0.582332
vt 0.417668 0.790666
vt 0.582332 0.790666
vt 0.582332 0.751001
vt 0.417668 0.751001
vt 0.748999 0.248999
vt 0.748999 0.084334
vt 0.709334 0.084334
vt 0.709334 0.248999
vt 0.415666 0.790666
vt 0.415666 0.751001
vt 0.251001 0.751001
vt 0.251001 0.790666
vt 0.957332 0.582332
vt 0.957332 0.501001
vt 0.917668 0.501001
vt 0.917668 0.582332
vt 0.415666 0.957332
vt 0.415666 0.917668
vt 0.334334 0.917668
vt 0.334334 0.957332
vt 0.957332 0.417668
vt 0.917668 0.417668
vt 0.917668 0.498999
vt 0.957332 0.498999
vt 0.417668 0.957332
vt 0.498999 0.957332
vt 0.498999 0.917668
vt 0.417668 0.917668
vt 0.707332 0.248999
vt 0.707332 0.084334
vt 0.667668 0.084334
vt 0.667668 0.248999
vt 0.748999 0.707332
vt 0.748999 0.667668
vt 0.584334 0.667668
vt 0.584334 0.707332
vt 0.707332 0.417668
vt 0.667668 0.417668
vt 0.667668 0.582332
vt 0.707332 0.582332
vt 0.417668 0.748999
vt 0.582332 0.748999
vt 0.582332 0.709334
vt 0.417668 0.709334
vt 0.957332 0.167668
vt 0.917668 0.167668
vt 0.917668 0.248999
vt 0.957332 0.248999
vt 0.501001 0.957332
vt 0.582332 0.957332
vt 0.582332 0.917668
vt 0.501001 0.917668
vt 0.665666 0.084334
vt 0.626001 0.084334
vt 0.626001 0.248999
vt 0.665666 0.248999
vt 0.251001 0.707332
vt 0.415666 0.707332
vt 0.415666 0.667668
vt 0.251001 0.667668
vt 0.957332 0.251001
vt 0.917668 0.251001
vt 0.917668 0.332332
vt 0.957332 0.332332
vt 0.667668 0.957332
vt 0.748999 0.957332
vt 0.748999 0.917668
vt 0.667668 0.917668
vt 0.957332 0.415666
vt 0.957332 0.334334
vt 0.917668 0.334334
vt 0.917668 0.415666
vt 0.665666 0.957332
vt 0.665666 0.917668
vt 0.584334 0.917668
vt 0.584334 0.957332
vt 0.623999 0.582332
vt 0.623999 0.417668
vt 0.584334 0.417668
vt 0.584334 0.582332
vt 0.248999 0.623999
vt 0.248999 0.584334
vt 0.084334 0.584334
vt 0.084334 0.623999
vt 0.540666 0.501001
vt 0.501001 0.501001
vt 0.501001 0.665666
vt 0.540666 0.665666
vt 0.251001 0.623999
vt 0.415666 0.623999
vt 0.415666 0.584334
vt 0.251001 0.584334
vt 0.957332 0.082332
vt 0.957332 0.001001
vt 0.917668 0.001001
vt 0.917668 0.082332
vt 0.082332 0.957332
vt 0.082332 0.917668
vt 0.001001 0.917668
vt 0.001001 0.957332
vt 0.957332 0.084334
vt 0.917668 0.084334
vt 0.917668 0.165666
vt 0.957332 0.165666
vt 0.084334 0.957332
vt 0.165666 0.957332
vt 0.165666 0.917668
vt 0.084334 0.917668
vt 0.082332 0.667668
vt 0.042668 0.667668
vt 0.042668 0.832332
vt 0.082332 0.832332
vt 0.084334 0.707332
vt 0.248999 0.707332
vt 0.248999 0.667668
vt 0.084334 0.667668
vt 0.082332 0.501001
vt 0.001001 0.501001
vt 0.001001 0.582332
vt 0.082332 0.582332
vt 0.332332 0.501001
vt 0.251001 0.501001
vt 0.251001 0.582332
vt 0.332332 0.582332
vt 0.665666 0.001001
vt 0.584334 0.001001
vt 0.584334 0.082332
vt 0.665666 0.082332
vt 0.498999 0.584334
vt 0.417668 0.584334
vt 0.417668 0.665666
vt 0.498999 0.665666
vt 0.915666 0.415666
vt 0.915666 0.334334
vt 0.876001 0.334334
vt 0.876001 0.415666
vt 0.498999 0.915666
vt 0.498999 0.876001
vt 0.417668 0.876001
vt 0.417668 0.915666
vt 0.582332 0.167668
vt 0.501001 0.167668
vt 0.501001 0.332332
vt 0.582332 0.332332
vt 0.417668 0.165666
vt 0.582332 0.165666
vt 0.582332 0.084334
vt 0.417668 0.084334
vt 0.915666 0.498999
vt 0.915666 0.417668
vt 0.876001 0.417668
vt 0.876001 0.498999
vt 0.415666 0.915666
vt 0.415666 0.876001
vt 0.334334 0.876001
vt 0.334334 0.915666
vt 0.498999 0.167668
vt 0.417668 0.167668
vt 0.417668 0.332332
vt 0.498999 0.332332
vt 0.334334 0.498999
vt 0.498999 0.498999
vt 0.498999 0.417668
vt 0.334334 0.417668
vt 0.707332 0.415666
vt 0.707332 0.251001
vt 0.667668 0.251001
vt 0.667668 0.415666
vt 0.748999 0.748999
vt 0.748999 0.709334
vt 0.584334 0.709334
vt 0.584334 0.748999
vt 0.165666 0.001001
vt 0.001001 0.001001
vt 0.001001 0.165666
vt 0.165666 0.165666
vt 0.332332 0.167668
vt 0.167668 0.167668
vt 0.167668 0.332332
vt 0.332332 0.332332
vt 0.915666 0.665666
vt 0.915666 0.584334
vt 0.876001 0.584334
vt 0.876001 0.665666
vt 0.748999 0.915666
vt 0.748999 0.876001
vt 0.667668 0.876001
vt 0.667668 0.915666
vt 0.415666 0.001001
vt 0.334334 0.001001
vt 0.334334 0.165666
vt 0.415666 0.165666
vt 0.334334 0.415666
vt 0.498999 0.415666
vt 0.498999 0.334334
vt 0.334334 0.334334
vt 0.915666 0.792668
vt 0.876001 0.792668
vt 0.876001 0.873999
vt 0.915666 0.873999
vt 0.001001 0.915666
vt 0.082332 0.915666
vt 0.082332 0.876001
vt 0.001001 0.876001
vt 0.915666 0.251001
vt 0.876001 0.251001
vt 0.876001 0.332332
vt 0.915666 0.332332
vt 0.084334 0.915666
vt 0.165666 0.915666
vt 0.165666 0.876001
vt 0.084334 0.876001
vt 0.790666 0.084334
vt 0.751001 0.084334
vt 0.751001 0.248999
vt 0.790666 0.248999
vt 0.584334 0.790666
vt 0.748999 0.790666
vt 0.748999 0.751001
vt 0.584334 0.751001
vt 0.915666 0.001001
vt 0.876001 0.001001
vt 0.876001 0.082332
vt 0.915666 0.082332
vt 0.167668 0.915666
vt 0.248999 0.915666
vt 0.248999 0.876001
vt 0.167668 0.876001
vt 0.915666 0.248999
vt 0.915666 0.167668
vt 0.876001 0.167668
vt 0.876001 0.248999
vt 0.915666 0.707332
vt 0.915666 0.667668
vt 0.834334 0.667668
vt 0.834334 0.707332
vt 0.040666 0.667668
vt 0.001001 0.667668
vt 0.001001 0.832332
vt 0.040666 0.832332
vt 0.584334 0.832332
vt 0.748999 0.832332
vt 0.748999 0.792668
vt 0.584334 0.792668
vt 0.832332 0.582332
vt 0.832332 0.417668
vt 0.792668 0.417668
vt 0.792668 0.582332
vt 0.248999 0.832332
vt 0.248999 0.792668
vt 0.084334 0.792668
vt 0.084334 0.832332
vt 0.957332 0.957332
vt 0.957332 0.876001
vt 0.917668 0.876001
vt 0.917668 0.957332
vt 0.082332 0.873999
vt 0.082332 0.834334
vt 0.001001 0.834334
vt 0.001001 0.873999
vt 0.873999 0.709334
vt 0.834334 0.709334
vt 0.834334 0.790666
vt 0.873999 0.790666
vt 0.584334 0.873999
vt 0.665666 0.873999
vt 0.665666 0.834334
vt 0.584334 0.834334
vt 0.832332 0.584334
vt 0.792668 0.584334
vt 0.792668 0.748999
vt 0.832332 0.748999
vt 0.417668 0.873999
vt 0.582332 0.873999
vt 0.582332 0.834334
vt 0.417668 0.834334
vt 0.832332 0.084334
vt 0.792668 0.084334
vt 0.792668 0.248999
vt 0.832332 0.248999
vt 0.417668 0.832332
vt 0.582332 0.832332
vt 0.582332 0.792668
vt 0.417668 0.792668
vt 0.748999 0.584334
vt 0.709334 0.584334
vt 0.709334 0.665666
vt 0.748999 0.665666
vt 0.751001 0.790666
vt 0.832332 0.790666
vt 0.832332 0.751001
vt 0.751001 0.751001
vt 0.707332 0.665666
vt 0.707332 0.584334
vt 0.667668 0.584334
vt 0.667668 0.665666
vt 0.832332 0.832332
vt 0.832332 0.792668
vt 0.751001 0.792668
vt 0.751001 0.832332
vt 0.873999 0.582332
vt 0.873999 0.417668
vt 0.834334 0.417668
vt 0.834334 0.582332
vt 0.248999 0.873999
vt 0.248999 0.834334
vt 0.084334 0.834334
vt 0.084334 0.873999
vt 0.873999 0.001001
vt 0.834334 0.001001
vt 0.834334 0.165666
vt 0.873999 0.165666
vt 0.667668 0.040666
vt 0.832332 0.040666
vt 0.832332 0.001001
vt 0.667668 0.001001
vt 0.873999 0.415666
vt 0.873999 0.334334
vt 0.834334 0.334334
vt 0.834334 0.415666
vt 0.832332 0.873999
vt 0.832332 0.834334
vt 0.751001 0.834334
vt 0.751001 0.873999
vt 0.873999 0.251001
vt 0.834334 0.251001
vt 0.834334 0.332332
vt 0.873999 0.332332
vt 0.667668 0.873999
vt 0.748999 0.873999
vt 0.748999 0.834334
vt 0.667668 0.834334
vt 0.832332 0.251001
vt 0.792668 0.251001
vt 0.792668 0.415666
vt 0.832332 0.415666
vt 0.667668 0.082332
vt 0.832332 0.082332
vt 0.832332 0.042668
vt 0.667668 0.042668
vt 0.873999 0.665666
vt 0.873999 0.584334
vt 0.834334 0.584334
vt 0.834334 0.665666
vt 0.415666 0.873999
vt 0.415666 0.834334
vt 0.334334 0.834334
vt 0.334334 0.873999
vt 0.873999 0.248999
vt 0.873999 0.167668
vt 0.834334 0.167668
vt 0.834334 0.248999
vt 0.332332 0.873999
vt 0.332332 0.834334
vt 0.251001 0.834334
vt 0.251001 0.873999
vt 0.165666 0.498999
vt 0.165666 0.334334
vt 0.084334 0.334334
vt 0.084334 0.498999
vt 0.248999 0.582332
vt 0.248999 0.501001
vt 0.084334 0.501001
vt 0.084334 0.582332
vt 0.915666 0.084334
vt 0.876001 0.084334
vt 0.876001 0.165666
vt 0.915666 0.165666
vt 0.251001 0.915666
vt 0.332332 0.915666
vt 0.332332 0.876001
vt 0.251001 0.876001
vt 0.165666 0.167668
vt 0.001001 0.167668
vt 0.001001 0.332332
vt 0.165666 0.332332
vt 0.332332 0.001001
vt 0.167668 0.001001
vt 0.167668 0.165666
vt 0.332332 0.165666
vt 0.790666 0.251001
vt 0.751001 0.251001
vt 0.751001 0.415666
vt 0.790666 0.415666
vt 0.084334 0.790666
vt 0.248999 0.790666
vt 0.248999 0.751001
vt 0.084334 0.751001
vt 0.415666 0.332332
vt 0.415666 0.167668
vt 0.334334 0.167668
vt 0.334334 0.332332
vt 0.332332 0.498999
vt 0.332332 0.417668
vt 0.167668 0.417668
vt 0.167668 0.498999
vt 0.915666 0.709334
vt 0.876001 0.709334
vt 0.876001 0.790666
vt 0.915666 0.790666
vt 0.751001 0.915666
vt 0.832332 0.915666
vt 0.832332 0.876001
vt 0.751001 0.876001
vt 0.082332 0.498999
vt 0.082332 0.334334
vt 0.001001 0.334334
vt 0.001001 0.498999
vt 0.332332 0.415666
vt 0.332332 0.334334
vt 0.167668 0.334334
vt 0.167668 0.415666
vt 0.915666 0.501001
vt 0.876001 0.501001
vt 0.876001 0.582332
vt 0.915666 0.582332
vt 0.584334 0.915666
vt 0.665666 0.915666
vt 0.665666 0.876001
vt 0.584334 0.876001
vt 0.665666 0.584334
vt 0.584334 0.584334
vt 0.584334 0.665666
vt 0.665666 0.665666
vt 0.082332 0.584334
vt 0.001001 0.584334
vt 0.001001 0.665666
vt 0.082332 0.665666
vt 0.582332 0.498999
vt 0.582332 0.334334
vt 0.501001 0.334334
vt 0.501001 0.498999
vt 0.582332 0.082332
vt 0.582332 0.001001
vt 0.417668 0.001001
vt 0.417668 0.082332
vt 0.873999 0.876001
vt 0.834334 0.876001
vt 0.834334 0.957332
vt 0.873999 0.957332
vt 0.501001 0.915666
vt 0.582332 0.915666
vt 0.582332 0.876001
vt 0.501001 0.876001
vt 0.915666 0.876001
vt 0.876001 0.876001
vt 0.876001 0.957332
vt 0.915666 0.957332
vt 0.751001 0.957332
vt 0.832332 0.957332
vt 0.832332 0.917668
vt 0.751001 0.917668
vt 0.665666 0.251001
vt 0.626001 0.251001
vt 0.626001 0.415666
vt 0.665666 0.415666
vt 0.084334 0.665666
vt 0.248999 0.665666
vt 0.248999 0.626001
vt 0.084334 0.626001
vt 0.665666 0.582332
vt 0.665666 0.417668
vt 0.626001 0.417668
vt 0.626001 0.582332
vt 0.415666 0.665666
vt 0.415666 0.626001
vt 0.251001 0.626001
vt 0.251001 0.665666
vt 0.623999 0.251001
vt 0.584334 0.251001
vt 0.584334 0.415666
vt 0.623999 0.415666
vt 0.334334 0.582332
vt 0.498999 0.582332
vt 0.498999 0.542668
vt 0.334334 0.542668
vt 0.623999 0.084334
vt 0.584334 0.084334
vt 0.584334 0.248999
vt 0.623999 0.248999
vt 0.334334 0.540666
vt 0.498999 0.540666
vt 0.498999 0.501001
vt 0.334334 0.501001
vt 0.582332 0.665666
vt 0.582332 0.501001
vt 0.542668 0.501001
vt 0.542668 0.665666
vt 0.582332 0.707332
vt 0.582332 0.667668
vt 0.417668 0.667668
vt 0.417668 0.707332
vt 0.748999 0.417668
vt 0.709334 0.417668
vt 0.709334 0.582332
vt 0.748999 0.582332
vt 0.251001 0.748999
vt 0.415666 0.748999
vt 0.415666 0.709334
vt 0.251001 0.709334
vt 0.748999 0.415666
vt 0.748999 0.251001
vt 0.709334 0.251001
vt 0.709334 0.415666
vt 0.248999 0.748999
vt 0.248999 0.709334
vt 0.084334 0.709334
vt 0.084334 0.748999
vt 0.790666 0.584334
vt 0.751001 0.584334
vt 0.751001 0.748999
vt 0.790666 0.748999
vt 0.251001 0.832332
vt 0.415666 0.832332
vt 0.415666 0.792668
vt 0.251001 0.792668
vt 0.248999 0.959334
vt 0.209334 0.959334
vt 0.209334 0.998999
vt 0.248999 0.998999
vt 0.290666 0.959334
vt 0.251001 0.959334
vt 0.251001 0.998999
vt 0.290666 0.998999
vt 0.165666 0.959334
vt 0.126001 0.959334
vt 0.126001 0.998999
vt 0.165666 0.998999
vt 0.207332 0.959334
vt 0.167668 0.959334
vt 0.167668 0.998999
vt 0.207332 0.998999
vt 0.623999 0.959334
vt 0.584334 0.959334
vt 0.584334 0.998999
vt 0.623999 0.998999
vt 0.582332 0.959334
vt 0.542668 0.959334
vt 0.542668 0.998999
vt 0.582332 0.998999
vt 0.998999 0.790666
vt 0.998999 0.709334
vt 0.959334 0.709334
vt 0.959334 0.790666
vt 0.498999 0.998999
vt 0.498999 0.959334
vt 0.417668 0.959334
vt 0.417668 0.998999
vt 0.957332 0.626001
vt 0.917668 0.626001
vt 0.917668 0.707332
vt 0.957332 0.707332
vt 0.917668 0.623999
vt 0.998999 0.623999
vt 0.998999 0.584334
vt 0.917668 0.584334
vt 0.957332 0.709334
vt 0.917668 0.709334
vt 0.917668 0.790666
vt 0.957332 0.790666
vt 0.167668 0.957332
vt 0.248999 0.957332
vt 0.248999 0.917668
vt 0.167668 0.917668
vt 0.957332 0.873999
vt 0.957332 0.792668
vt 0.917668 0.792668
vt 0.917668 0.873999
vt 0.415666 0.998999
vt 0.415666 0.959334
vt 0.334334 0.959334
vt 0.334334 0.998999
usemtl roofEdge
f 10/1 3/2 5/3 6/4
f 206/5 4/6 11/7 7/8
f 8/9 1/10 3/11 10/12
f 4/13 2/14 9/15 11/16
f 202/17 201/18 15/19 13/20
f 16/21 205/22 204/23 14/24
f 13/25 12/26 203/27 202/28
f 203/29 12/30 14/31 204/32
f 19/33 220/34 221/35 17/36
f 224/37 223/38 20/39 18/40
f 219/41 220/42 19/43 21/44
f 20/45 223/46 222/47 22/48
f 209/49 215/50 214/51 208/52
f 217/53 218/54 212/55 211/56
f 208/57 214/58 213/59 207/60
f 216/61 217/62 211/63 210/64
f 26/65 23/66 25/67 96/68
f 25/69 24/70 27/71 96/72
f 23/73 26/74 97/75 94/76
f 98/77 27/78 24/79 95/80
f 225/81 229/82 28/83 30/84
f 29/85 228/86 227/87 31/88
f 226/89 225/90 30/91 32/92
f 31/93 227/94 226/95 32/96
f 33/97 335/98 337/99 99/100
f 337/101 338/102 34/103 99/104
f 336/105 335/106 33/107 100/108
f 34/109 338/110 339/111 101/112
f 230/113 331/114 330/115 231/116
f 333/117 334/118 234/119 233/120
f 231/121 330/122 332/123 232/124
f 332/125 333/126 233/127 232/128
f 43/129 103/130 105/131 37/132
f 106/133 104/134 44/135 38/136
f 42/137 102/138 103/139 43/140
f 104/141 102/142 42/143 44/144
f 114/145 112/146 108/147 110/148
f 109/149 113/150 115/151 111/152
f 35/153 40/154 285/155 286/156
f 288/157 41/158 36/159 289/160
f 112/161 45/162 107/163 108/164
f 107/165 45/166 113/167 109/168
f 40/169 39/170 287/171 285/172
f 287/173 39/174 41/175 288/176
f 119/177 117/178 236/179 237/180
f 238/181 118/182 120/183 239/184
f 282/185 281/186 291/187 292/188
f 293/189 283/190 284/191 294/192
f 117/193 116/194 235/195 236/196
f 235/197 116/198 118/199 238/200
f 281/201 280/202 290/203 291/204
f 290/205 280/206 283/207 293/208
f 47/209 276/210 275/211 46/212
f 275/213 278/214 48/215 46/216
f 49/217 277/218 276/219 47/220
f 278/221 279/222 50/223 48/224
f 124/225 122/226 121/227 53/228
f 121/229 123/230 125/231 53/232
f 54/233 51/234 122/235 124/236
f 123/237 52/238 55/239 125/240
f 129/241 127/242 296/243 297/244
f 298/245 128/246 130/247 299/248
f 296/249 127/250 126/251 295/252
f 126/253 128/254 298/255 295/256
f 326/257 327/258 56/259 57/260
f 56/261 327/262 328/263 58/264
f 57/265 59/266 325/267 326/268
f 329/269 60/270 58/271 328/272
f 302/273 247/274 246/275 301/276
f 248/277 249/278 304/279 303/280
f 301/281 246/282 245/283 300/284
f 245/285 248/286 303/287 300/288
f 65/289 131/290 63/291 64/292
f 63/293 132/294 66/295 64/296
f 133/297 61/298 131/299 65/300
f 132/301 62/302 134/303 66/304
f 321/305 320/306 135/307 67/308
f 136/309 324/310 323/311 68/312
f 67/313 69/314 322/315 321/316
f 322/317 69/318 68/319 323/320
f 137/321 251/322 250/323 72/324
f 250/325 253/326 138/327 72/328
f 252/329 251/330 137/331 70/332
f 138/333 253/334 254/335 71/336
f 259/337 315/338 316/339 255/340
f 318/341 319/342 258/343 257/344
f 255/345 316/346 317/347 256/348
f 317/349 318/350 257/351 256/352
f 139/353 73/354 87/355 92/356
f 88/357 74/358 140/359 93/360
f 73/361 75/362 89/363 87/364
f 89/365 75/366 74/367 88/368
f 81/369 141/370 76/371 80/372
f 76/373 142/374 82/375 80/376
f 305/377 149/378 83/379 307/380
f 83/381 150/382 308/383 307/384
f 147/385 143/386 141/387 81/388
f 142/389 144/390 148/391 82/392
f 306/393 151/394 149/395 305/396
f 150/397 152/398 309/399 308/400
f 84/401 145/402 77/403 86/404
f 77/405 146/406 85/407 86/408
f 341/409 266/410 265/411 342/412
f 265/413 268/414 343/415 342/416
f 90/417 78/418 145/419 84/420
f 146/421 79/422 91/423 85/424
f 340/425 267/426 266/427 341/428
f 268/429 269/430 344/431 343/432
f 312/433 310/434 270/435 272/436
f 273/437 313/438 312/439 272/440
f 310/441 311/442 271/443 270/444
f 274/445 314/446 313/447 273/448
f 241/449 260/450 264/451 242/452
f 263/453 262/454 243/455 244/456
f 240/457 261/458 260/459 241/460
f 262/461 261/462 240/463 243/464
f 169/465 165/466 153/467 167/468
f 154/469 166/470 170/471 168/472
f 155/473 157/474 173/475 171/476
f 174/477 158/478 156/479 172/480
f 370/481 159/482 175/483 369/484
f 176/485 160/486 380/487 379/488
f 386/489 177/490 161/491 385/492
f 162/493 178/494 388/495 387/496
f 350/497 349/498 179/499 181/500
f 180/501 359/502 360/503 182/504
f 183/505 389/506 390/507 163/508
f 392/509 391/510 184/511 164/512
f 374/513 373/514 371/515 372/516
f 381/517 383/518 384/519 382/520
f 354/521 352/522 351/523 353/524
f 361/525 362/526 364/527 363/528
f 365/529 368/530 367/531 366/532
f 377/533 378/534 375/535 376/536
f 345/537 346/538 347/539 348/540
f 357/541 356/542 355/543 358/544
f 193/545 189/546 197/547 187/548
f 198/549 190/550 194/551 188/552
f 185/553 404/554 400/555 195/556
f 412/557 416/558 186/559 196/560
f 402/561 191/562 403/563 401/564
f 415/565 192/566 414/567 413/568
f 199/569 399/570 398/571 397/572
f 410/573 411/574 200/575 409/576
f 396/577 395/578 393/579 394/580
f 405/581 407/582 408/583 406/584
